<?xml version="1.0" encoding="utf-8"?>
<!-- Generator: Adobe Illustrator 24.1.0, SVG Export Plug-In . SVG Version: 6.00 Build 0)  -->
<svg version="1.1" id="Layer_1" xmlns="http://www.w3.org/2000/svg" xmlns:xlink="http://www.w3.org/1999/xlink" x="0px" y="0px"
	 viewBox="0 0 2500 1184.8" style="enable-background:new 0 0 2500 1184.8;" xml:space="preserve">
<style type="text/css">
	.st0{fill-rule:evenodd;clip-rule:evenodd;fill:#1F4D7A;}
</style>
<g>
	<path class="st0" d="M2103.8,1000.2c-162.7,0-297.6-115.7-323.1-280.1h306.9c34,0,106.3,7.3,106.3,7.3V592.3
		c0,0-71.7,5.3-111.7,5.3H1782c28.7-159.7,161.8-271.8,321.7-271.8c82.9,0,187.2,38.7,187.2,38.7l2.8-142.3c0,0-74.3-28.2-190-28.2
		c-270.2,0-505.1,206.9-505.1,469.1c0,282.4,234.9,474.7,505.1,474.7c125.1,0,201.3-33.9,201.3-33.9l-2.8-148
		C2302.3,955.9,2209,1000.2,2103.8,1000.2L2103.8,1000.2z M1185.9,1133.2c0,0,11.9-68,11.9-128.3V354h-44.1
		c-60.1,0-152.8,0.8-222,7.5l-4.4-151H1641l-4.4,151c-69.1-6.7-161.9-7.5-222-7.5h-55.4v650.9c0,60.3,11.9,128.3,11.9,128.3H1185.9
		L1185.9,1133.2z"/>
	<path class="st0" d="M2295,135.3c-53.3-15.1-121.3-25.3-180.1-25.3c-156.6,0-291.2,47.8-403.7,147.6l2.5-110
		C1833.1,66.7,1967.6,29,2115,29c65.1,0,122.5,9.2,181.9,25.3L2295,135.3z"/>
	<path class="st0" d="M866.4,1007.4l-247-240.3c152.7-14.1,280-125.7,280-272.7c0-160.7-96.1-302.8-389-302.8
		c-184.9,0-312.5,8.3-312.5,8.3s9.1,91.8,9.1,137.7v669.8c0,60.5-11.9,125.9-11.9,125.9h186.4c0,0-11.9-65.4-11.9-137.8V721.6
		L633.1,996c53.8,60.5,149.5,137.3,149.5,137.3h245.9C1028.3,1133.3,918.4,1056.9,866.4,1007.4L866.4,1007.4z M369.4,658.3V323.1
		c0,0,64.6-2.9,143-2.9c146.6,0,207.1,73.4,207.1,161.5c0,102.5-91.6,176.6-217.5,176.6C447,658.4,399.1,658.3,369.4,658.3z"/>
</g>
</svg>
