<?xml version="1.0" encoding="utf-8"?>
<!-- Generator: Adobe Illustrator 24.1.0, SVG Export Plug-In . SVG Version: 6.00 Build 0)  -->
<svg version="1.1" id="katman_1" xmlns="http://www.w3.org/2000/svg" xmlns:xlink="http://www.w3.org/1999/xlink" x="0px" y="0px"
	 viewBox="0 0 800 300" style="enable-background:new 0 0 800 300;" xml:space="preserve">
<style type="text/css">
	.st0{fill:#1F4D7A;stroke:#FFFFFF;stroke-miterlimit:10;}
</style>
<g>
	<g>
		<path class="st0" d="M0,167.1h35.1c0,15.5,9.6,25.3,24.6,25.3c12.9,0,20.5-6,20.5-16.3c0-9-4.6-13.8-18.4-19l-27.4-10.4
			C14,139,3.8,125.7,3.8,106.7c0-28,20.8-45.7,53.8-45.7c31,0,51.6,15.5,55.1,41.7l-32.7,6.5c-2.1-12.6-10.5-19.7-23.3-19.7
			c-10.8,0-18,5.8-18,14c0,7.4,5.1,11.8,20.9,18.1l25.3,10c20.6,8.1,30.5,21.5,30.5,41.7c0,29.1-21.8,47.6-55.8,47.6
			C22.2,221.1,0.1,201,0,167.1z M106.8,112.5h34.4l19,64.3l18-64.3h31.6l18,64.3l19.2-64.3h34.3l-37.5,104.4h-29.6L194,153.2
			l-20.1,63.6h-29.6C144.3,216.9,106.8,112.5,106.8,112.5z M324.2,219.5c-29.6,0-49-21.9-49-54.9c0-32.6,20.2-55.1,49.4-55.1
			c14.7,0,27.3,7.2,33.2,18.4v-15.5h32.6v104.4h-33V202C351.7,212.7,338.5,219.5,324.2,219.5L324.2,219.5z M358.6,164.7
			c0-16.6-9.8-27.5-24.9-27.5s-24.9,11-24.9,27.4c0,16.3,10,27.4,24.9,27.4C348.8,192,358.6,181.2,358.6,164.7z M402,260.1
			L402,260.1V112.6h32.4v15.5c5.9-11,19.9-18.4,34.7-18.4c28.7,0,48,22.1,48,55.1c0,32.4-19.9,54.8-48.7,54.8
			c-14.5,0-27.5-6.9-33.4-17.4v58H402L402,260.1z M483.4,164.7c0-16.2-10-27.4-24.6-27.4c-14.7,0-25,11.1-25,27.4
			c0,16,10.3,27.3,25,27.3C473.4,192,483.4,180.9,483.4,164.7z M525.2,260.1L525.2,260.1V112.6h32.6v15.5
			c5.9-11,19.9-18.4,34.7-18.4c28.7,0,48,22.1,48,55.1c0,32.6-20.1,54.9-48.9,54.9c-14.5,0-27.5-6.9-33.4-17.6v58H525.2L525.2,260.1
			z M606.6,164.6c0-16.2-10-27.4-24.6-27.4c-14.7,0-25,11.1-25,27.4c0,16.2,10.3,27.4,25,27.4C596.6,192,606.6,180.8,606.6,164.6z
			 M648.3,112.5h33v104.4h-33V112.5z M644.6,84.3c0-11.8,8.7-20.5,20.2-20.5c11.7,0,20.6,9,20.6,20.5c0,11.4-9,20.1-20.6,20.1
			C653.3,104.3,644.6,95.8,644.6,84.3z M689.2,164.6c0-33.9,21.9-55.1,55.9-55.1c33.2,0,54.9,21.2,54.9,49.7c0,3.7,0,5.2-0.8,14.3
			h-77.3c2.1,15.2,10.3,21.1,24.9,21.1c10.3,0,16.6-3.1,19.2-9.4h32.6c-3.4,20.6-24,34.3-52,34.3
			C710.8,219.5,689.2,199.2,689.2,164.6z M745.4,131.9c-14.2,0-21.2,6.6-23.3,21.4h45.7C766.7,138.9,759,131.9,745.4,131.9
			L745.4,131.9z"/>
	</g>
</g>
</svg>
