<svg xmlns="http://www.w3.org/2000/svg" xmlns:xlink="http://www.w3.org/1999/xlink" width="300" height="33.584" viewBox="0 0 300 33.584">
  <defs>
    <clipPath id="clip-path">
      <rect id="Rectangle_584" data-name="Rectangle 584" width="300" height="33.584" transform="translate(145 71.427)" fill="none"/>
    </clipPath>
  </defs>
  <g id="Group_1237" data-name="Group 1237" transform="translate(-145 -71.427)">
    <g id="Group_1236" data-name="Group 1236" clip-path="url(#clip-path)">
      <g id="Group_1235" data-name="Group 1235">
        <g id="Group_1234" data-name="Group 1234" clip-path="url(#clip-path)">
          <path id="Path_3942" data-name="Path 3942" d="M201.081,88.022a16.178,16.178,0,0,1-4.646,11.629,15.359,15.359,0,0,1-22.335.035,15.829,15.829,0,0,1-4.666-11.434A16.653,16.653,0,0,1,174,76.442a14.662,14.662,0,0,1,11.122-4.879,15.163,15.163,0,0,1,11.3,4.8,16.123,16.123,0,0,1,4.657,11.662m-9.5,0a6.483,6.483,0,0,0-1.855-4.661,5.976,5.976,0,0,0-4.463-1.926,6.039,6.039,0,0,0-4.46,1.915,6.324,6.324,0,0,0-1.877,4.582,6.66,6.66,0,0,0,1.833,4.729,5.892,5.892,0,0,0,4.461,1.952,6.033,6.033,0,0,0,4.506-1.919,6.468,6.468,0,0,0,1.855-4.672" fill="#3a1231"/>
          <path id="Path_3943" data-name="Path 3943" d="M264.258,72.327h-9.182a.464.464,0,0,0-.465.459v5.051h0V91.381c0,2.218-.5,3.751-2.811,3.751-2.116,0-2.744-1.631-2.744-3.784v-.673h0V72.786a.464.464,0,0,0-.465-.459h-9.183a.464.464,0,0,0-.464.459V92.673a11.065,11.065,0,0,0,3.5,8.427,12.6,12.6,0,0,0,8.987,3.3l.048,0h.7l.049,0a12.59,12.59,0,0,0,8.985-3.3,11.066,11.066,0,0,0,3.5-8.427V72.786a.464.464,0,0,0-.465-.459" fill="#3a1231"/>
          <path id="Path_3944" data-name="Path 3944" d="M288.292,85.692a13.1,13.1,0,0,0-1.3-.557l.01-.006c-.308-.112-.613-.222-.918-.334a25.586,25.586,0,0,1-3.314-1.358c-1.524-.793-1.753-1.4-1.661-1.917.48-2.68,3.436-2.437,3.452-2.437,2.148.032,4.523,3.487,4.523,3.487a.345.345,0,0,0,.565.006l4.08-6.3a.546.546,0,0,0-.089-.67l-.225-.191,0,0c-.061-.052-.113-.09-.171-.141l-.354-.3c-.013-.013-.032-.015-.047-.025a27,27,0,0,0-3.581-2.28,16.844,16.844,0,0,0-4.966-1.235h0c-7.382-.744-12.884,3.5-13.323,9.7-.247,3.485.66,5.931,3.914,8.163h0c1.589.744,2.7,1.487,4.062,2.009s2.111.766,3.156,1.244c1.584.731,2.171,1.767,2.132,2.316-.094,1.343-.854,1.919-2.4,2.124a5.382,5.382,0,0,1-1.085.022,5.084,5.084,0,0,1-4-2.351l-.765-.97c-.009-.008-.016-.012-.02-.02a.689.689,0,0,0-.048-.065l-.036-.043a.443.443,0,0,0-.548-.152l-5.078,5.928,0,0a.573.573,0,0,0-.016.763l.008.008a24.907,24.907,0,0,0,5.51,3.629,14.4,14.4,0,0,0,5.131,1.189h0c7.678.743,13.321-3.553,13.779-10.005.31-4.342-1.908-6.964-6.4-9.231" fill="#3a1231"/>
          <path id="Path_3945" data-name="Path 3945" d="M233.636,99.753l-4.1-6.636a.987.987,0,0,0-1.268-.313l-1.57,1.025a7.478,7.478,0,0,1-3.672,1.014,6.811,6.811,0,0,1-4.88-1.942,6.332,6.332,0,0,1,0-9.3,6.759,6.759,0,0,1,4.836-1.939,7.593,7.593,0,0,1,4.052,1.059l.9.645c.533.357.984.135,1.332-.493l3.683-6.65c.313-.564.268-1.479-1.133-2.187v0a17.763,17.763,0,0,0-8.75-2.245,17.284,17.284,0,0,0-12.311,4.81,15.852,15.852,0,0,0,.012,23.289,17.426,17.426,0,0,0,12.295,4.822,19.658,19.658,0,0,0,9.786-2.971,4.622,4.622,0,0,0,.561-.443,1.276,1.276,0,0,0,.227-1.547" fill="#3a1231"/>
          <path id="Path_3946" data-name="Path 3946" d="M162.336,85.238h-5.6c-.256,0-.338-.164-.185-.366l9.527-12.309a.448.448,0,0,0-.382-.684H145.464a.463.463,0,0,0-.464.458V103.42a.462.462,0,0,0,.464.457h11.531a.462.462,0,0,0,.465-.457V98.229a.464.464,0,0,1,.464-.458h4.423a.463.463,0,0,0,.464-.459L162.8,85.7a.464.464,0,0,0-.465-.459" fill="#3a1231"/>
          <path id="Path_3947" data-name="Path 3947" d="M309.828,71.648h-5.574v31.966h5.574Zm20.331,9.876a7.721,7.721,0,0,0-1.418-.136,6.743,6.743,0,0,0-6.443,3.785V81.657h-5.162v21.957h5.3V93.155c0-4.1,1.874-6.446,5.985-6.446a12.022,12.022,0,0,1,1.738.133Zm7.9,8.7a5.315,5.315,0,0,1,5.439-4.868c3.654,0,5.391,2.3,5.482,4.868Zm11.513,5.731A5.357,5.357,0,0,1,344,99.781a5.924,5.924,0,0,1-6.077-5.724h16.267a7.693,7.693,0,0,0,.135-1.668c0-6.942-4.021-11.408-10.872-11.408-5.62,0-10.827,4.6-10.827,11.543,0,7.438,5.343,11.768,11.374,11.768,5.346,0,8.864-3.111,10.052-6.945ZM364.7,70.974h-5.3v32.643h5.3Zm5.391,26.688c0,3.473,2.878,6.63,7.539,6.63a7.789,7.789,0,0,0,6.853-3.473,11.973,11.973,0,0,0,.229,2.795h4.935a19.428,19.428,0,0,1-.275-3.515V89.186c0-4.372-2.6-8.2-9.458-8.2-5.484,0-8.956,3.382-9.366,7.168l4.844,1.082a4.264,4.264,0,0,1,4.568-3.966c2.925,0,4.2,1.489,4.2,3.335,0,.767-.364,1.4-1.645,1.578l-5.711.856c-3.791.542-6.715,2.708-6.715,6.628m8.544,2.527a2.927,2.927,0,0,1-3.243-2.842c0-1.8,1.323-2.7,2.968-2.973l5.8-.859v.992c0,4.284-2.558,5.682-5.527,5.682m22.432-9.242c0-2.886,1.6-5.186,4.616-5.186,3.335,0,4.568,2.164,4.568,4.87v12.983h5.3V89.729c0-4.824-2.605-8.7-8.04-8.7a7.412,7.412,0,0,0-6.578,3.56V81.657h-5.164v21.957h5.3Zm24.49,1.622c0-4.193,2.556-6.851,6.03-6.851s5.849,2.612,5.849,6.806-2.422,7.034-5.893,7.034c-3.61,0-5.986-2.794-5.986-6.989m17-21.6H437.39V84.228c-.687-1.4-2.651-3.156-6.534-3.156-6.26,0-10.6,5.185-10.6,11.5,0,6.628,4.3,11.589,10.689,11.589a7.349,7.349,0,0,0,6.536-3.381,21.293,21.293,0,0,0,.23,2.837h5.07a35.49,35.49,0,0,1-.227-4.011Z" fill="#3a1231"/>
        </g>
      </g>
    </g>
  </g>
</svg>
