<?xml version="1.0" encoding="utf-8"?>
<!-- Generator: Adobe Illustrator 24.1.0, SVG Export Plug-In . SVG Version: 6.00 Build 0)  -->
<svg version="1.1" id="Layer_1" xmlns="http://www.w3.org/2000/svg" xmlns:xlink="http://www.w3.org/1999/xlink" x="0px" y="0px"
	 viewBox="0 0 715.5 82.1" style="enable-background:new 0 0 715.5 82.1;" xml:space="preserve">
<style type="text/css">
	.st0{fill:#1F4D7A;}
</style>
<path class="st0" d="M108.8,17.1c-7,7.1-10.8,16.7-10.8,26.7c0,10.8,3.6,20.3,11.7,27.6c7.4,6.9,17.2,10.8,27.3,10.8
	c5.9,0,10.5-1.5,16.7-3.4V56c-4,4.8-10.1,7.7-16.3,7.7c-11.8,0-19.7-8.3-19.7-19.8s7.8-20.2,19.4-20.2c6.5-0.1,12.7,3,16.6,8.1V9
	c-5.5-2.4-11.3-3.6-17.4-3.6C126,5.5,116.1,9.7,108.8,17.1z"/>
<path class="st0" d="M182.8,38.6h-0.1v-8.1h-17.6v49.5h17.6V60c0-8.5,2.4-14.9,12.1-14.9c2.6-0.1,5.1,0.4,7.4,1.6v-17h-3.4
	C192.1,29.9,186.3,32.6,182.8,38.6z"/>
<path class="st0" d="M232.7,28.9c-16.2,0-27.5,10-27.5,26.5c0,17.1,12.3,26.4,28.7,26.4c11.3,0,22.5-5.4,25.2-17h-17
	c-1.6,3.1-5,4.8-8.3,4.6c-7.3,0-11-3.9-11-11h37v-1.9C259.8,39.6,249.9,28.9,232.7,28.9z M223.1,48.2c1.1-5.1,5.3-7.8,10.5-7.8
	c4.7-0.1,9,3.1,10,7.8H223.1z"/>
<path class="st0" d="M305.2,35.4c-3.6-4.3-9.7-6.5-15.3-6.5c-14.7,0-24.9,12.1-24.9,26.4s10.4,26.5,25,26.5c5.8,0,11.8-2.2,14.9-7.1
	h0.1v5.5h17.6V0h-17.6v35.4H305.2z M294.4,66.5c-7.1,0-11.3-4.8-11.3-11.2c0-6.2,5.1-11.3,11.3-11.3c6.2,0,11.3,5.1,11.3,11.3
	C305.8,61.7,301.6,66.5,294.4,66.5L294.4,66.5z"/>
<rect x="333.8" y="30.6" class="st0" width="17.6" height="49.5"/>
<path class="st0" d="M342.5,1.6c-5.4,0-9.8,4.4-9.8,9.8s4.4,9.8,9.8,9.8s9.8-4.4,9.8-9.8C352.5,6.1,348,1.7,342.5,1.6z"/>
<polygon class="st0" points="382.2,15.8 364.6,15.8 364.6,30.6 358.9,30.6 358.9,45.1 364.6,45.1 364.6,80.2 382.2,80.2 382.2,45.1 
	392.2,45.1 392.2,30.6 382.2,30.6 "/>
<path class="st0" d="M475.5,45.6c0,9.4-0.7,19.8-12.8,19.8s-12.8-10.4-12.8-19.8V7.3h-19v40.9c0,9.4,0.4,18.7,7.7,25.7
	c6.1,5.9,15.6,8.1,24.2,8.1c8.6,0,18-2.2,24.2-8.1c7.3-7,7.7-16.3,7.7-25.7V7.3h-19.3V45.6z"/>
<path class="st0" d="M539.7,28.9c-6.9,0-11.8,2-15.9,8.1h-0.1v-6.3h-17.6v49.5h17.6V54.4c0-6.2,2-11.4,9.2-11.4
	c8.8,0,7.9,8.3,7.9,13.1v24.2h17.6V49.5C558.4,37.3,553,28.9,539.7,28.9z"/>
<path class="st0" d="M578.8,1.6c-5.4,0-9.8,4.4-9.8,9.8s4.4,9.8,9.8,9.8s9.8-4.4,9.8-9.8S584.3,1.7,578.8,1.6z"/>
<rect x="570" y="30.6" class="st0" width="17.6" height="49.5"/>
<path class="st0" d="M625.3,28.9c-16,0-29.9,9.6-29.9,26.5s14,26.4,29.9,26.4c15.9,0,29.9-9.6,29.9-26.4S641.4,28.9,625.3,28.9z
	 M625.3,66.5c-7.1,0-11.3-4.8-11.3-11.2c0-6.2,5.1-11.3,11.3-11.3c6.2,0,11.3,5.1,11.3,11.3C636.6,61.7,632.5,66.5,625.3,66.5
	L625.3,66.5z"/>
<path class="st0" d="M696.8,28.9c-6.9,0-11.8,2-15.9,8.1h-0.1v-6.3h-17.6v49.5h17.6V54.4c0-6.2,2-11.4,9.2-11.4
	c8.8,0,7.9,8.3,7.9,13.1v24.2h17.6V49.5C715.4,37.3,710.1,28.9,696.8,28.9z"/>
<path class="st0" d="M8,49.7C9,54,22,65.4,22.6,66c2.4,2.6,1.2,3.2-3.6,14.1h17.8c0,0,3.2-15.7,3.4-17.6c0.2-2-1.1-4.8-2.3-5.9
	c-1.2-1.1-11.7-10.4-12.8-11.4c-1.6-1.4-5.9,0.9-3.7,3.2c1.3,1.4,4.9,4,5.5,5.5c1.3,3-1.8,1.3-1.8,1.3s-6.5-4.8-9.6-7.2
	c-2.3-1.7-4.2-11.9-4.6-13.4c-0.4-1.4-3.3-5.2-4.6-2.9C5.2,33.6,7.8,48.8,8,49.7z"/>
<path class="st0" d="M81,49.7C80,54,67,65.4,66.4,66c-2.4,2.6-1.2,3.2,3.6,14.1H52.1c0,0-3.2-15.7-3.4-17.6c-0.2-2,1.1-4.8,2.3-5.9
	c1.2-1.1,11.7-10.4,12.8-11.4c1.6-1.4,5.9,0.9,3.7,3.2c-1.3,1.4-4.9,4-5.5,5.5c-1.3,3,1.8,1.3,1.8,1.3s6.5-4.8,9.6-7.2
	c2.3-1.7,4.2-11.9,4.6-13.4c0.4-1.4,3.3-5.2,4.6-2.9C83.7,33.6,81.2,48.8,81,49.7z"/>
<path class="st0" d="M69.2,15.4c-6.5-3.6-15-5.6-24.1-5.7c-0.2,0-0.4,0-0.7,0s-0.4,0-0.7,0c-9.1,0.1-17.6,2.1-24.1,5.6
	C13.1,19.1,9.4,24,9.4,29.2s3.7,10.1,10.4,13.8c6.5,3.5,15,5.5,24.1,5.6c0.2,0,0.4,0,0.7,0s0.4,0,0.7,0c9.1-0.1,17.6-2.1,24.1-5.6
	c6.7-3.7,10.4-8.6,10.4-13.8S75.9,19.1,69.2,15.4z M36.8,10.9c-5.5,1.7-10.1,5.2-12.7,9.6H14C18.6,15.7,26.9,12.1,36.8,10.9z
	 M32,21.2h5.5c0,0.3,0,0.6,0,0.8c-0.2,2.4-0.5,5.1-2.4,6.9c-0.2,0.2-0.5-0.5-0.5-0.6c-0.3-1.6-0.8-3.1-1.7-4.1
	c-0.6-0.5-2.1-1.2-3.2-0.6c-1.7,0.9-2,3.3-2.6,5c-0.1,0.3-0.1,0.6-0.1,1h-4.5c0-0.1,0-0.3,0-0.4c0-2.8,0.7-5.6,2.1-8.1h3.3
	c0.1,0.4,0.3,0.7,0.6,0.9c0.2,0.2,0.4,0.3,0.6,0.3c0.6,0.1,1.2,0.1,1.7,0.3c0.2,0,0.4,0,0.5-0.1C31.8,22.4,32.1,21.8,32,21.2
	L32,21.2z M37.5,37c0,0.5,0,1,0.1,1.5h-4.4c0-1.9,0.2-3.8,0.6-5.7c0.1-0.3,0.1-0.5,0.2-0.8c0.1-0.4,1.3,0.7,1.8,0.2
	c0.6-0.5,1.2-1,1.3-1.9c0.4,0.4,0.4,0.9,0.3,1.4c-0.1,0.3-0.1,0.7-0.2,1C37.1,34.3,37.5,35.6,37.5,37L37.5,37z M30.7,39.5
	c0.1-0.1,0.7-0.3,0.8,0.1c0.3,1.3-0.3,2.5,0,3.9c0.2,0.8,0.9,1,1.2,1.5c-1-0.6-2-1.2-2.9-1.9c0.2-0.6,0.4-1.2,0.7-1.8
	C30.7,40.9,30.3,40,30.7,39.5L30.7,39.5z M25.3,38.6c-1.7-2.4-2.6-5.3-2.9-8.2H27c0.1,0.9,0.5,1.7,0.8,2.6c0.2,0.6,0.4,1.1,0.5,1.7
	c0.2,1.3,0.2,2.7,0,4H25.3z M28.2,39.2c-0.1,0.9-0.1,1.7-0.2,2.6c-0.9-0.8-1.6-1.7-2.3-2.6H28.2z M10,29.3c0-2.9,1.2-5.6,3.3-8.1
	h10.4c-1.3,2.5-2,5.2-2,8.1c0,0.1,0,0.3,0,0.4H10.1C10.1,29.5,10,29.4,10,29.3z M14.7,38.7c-2.7-2.5-4.3-5.4-4.6-8.4h11.7
	c0.2,2.9,1.1,5.8,2.7,8.2h-9.8V38.7z M15.3,39.2h9.7c0.9,1.3,2,2.5,3.1,3.5c0,0.2,0,0.3,0,0.5c0,0.7,0.6,1.4,1.3,1.4l0.2,0
	c0.1,0,0.1-0.1,0.1-0.2c0,0,0,0.1,0-0.2c0-0.1,0-0.2,0-0.3c2.2,1.6,4.6,2.8,7.1,3.6C27.8,46.5,20.1,43.4,15.3,39.2L15.3,39.2z
	 M37.7,47.2c-1.5-0.4-3-1-4.3-1.7c0-2.1-0.2-4.2-0.2-6.3h4.5c0,0.3,0.1,0.7,0.2,1c0.5,1.7,0.5,3.4,0.4,5.1
	C38.2,46.1,37.3,46.7,37.7,47.2z M44.2,48.1c-2,0-3.9-0.3-5.9-0.8c0.6-0.1,1.2-0.8,1.8-1.1c0.3-0.2,0.3-0.8,0.3-1.2
	c0.2-1.9-0.3-3.9-0.3-5.8h2c0.2,2.2,0.1,4.4-0.2,6.5c0.7,0,1.1,0.7,1.8,0.7c-0.2,0.3,0.3,0.4,0.2,0.7h0.3L44.2,48.1z M41.2,34.3
	c0.4,1.4,0.7,2.8,0.8,4.2h-1.9c0-0.3,0.1-0.5,0.1-0.8C40.6,36.6,39.9,35.2,41.2,34.3L41.2,34.3z M44.2,18.1
	c-1.5-0.5-3.4,0.2-5.1,0.4c-0.9,0.1-1.4,0.7-1.6,1.7c0,0.1,0,0.2,0,0.3h-5.7c-0.2-0.6-0.6-1-1.1-1.3c-0.4-0.2-0.8-0.4-1.3-0.4
	c-0.3,0.1-0.6,0.2-0.9,0.4c-0.5,0.3-0.9,0.8-0.8,1.4h-2.8c3.6-5.9,10.9-10,19.2-10.1L44.2,18.1z M75,20.5H64.8
	c-2.6-4.4-7.2-7.9-12.7-9.6C62.1,12.1,70.4,15.7,75,20.5L75,20.5z M63,35.4c-0.3-0.8-0.5-1.7-0.5-2.5c0-0.4,0-0.8,0.1-1.2
	c0.2-0.6,0.9-0.9,0.9-1.4h3c-0.2,2.6-0.9,5-2.2,7.2c0,0,0-0.1,0-0.1C63.9,36.7,63.2,36.1,63,35.4L63,35.4z M63.2,39.2
	c-0.7,0.9-1.5,1.8-2.3,2.6c0.1-0.7,0.3-1.4,0.5-2.1c0.1-0.2,0.2-0.4,0.4-0.6H63.2z M63.2,29.6c-0.1-0.3-0.3-0.5-0.5-0.6
	c-1.9-1.4-4-1.4-5.6,0.6v0h-0.9c-0.8-2.4-1.7-4.7-2.4-7.2c-0.1-0.4-0.3-0.8-0.5-1.2h11.2c1.4,2.5,2.1,5.2,2.1,8.1c0,0.1,0,0.3,0,0.4
	L63.2,29.6z M59.9,42.7c-0.3,0.2-0.5,0.4-0.8,0.6c0.1-0.4,0.4-0.7,0.6-0.7C59.8,42.7,59.8,42.7,59.9,42.7L59.9,42.7z M56.5,38.6h-4
	c0.3-0.6,0.8-1.1,1.4-1.4c0.1-1.5-0.1-2.9-0.3-4.3c-0.2-0.9-0.4-1.7-0.5-2.6h2.2c0.1,0.1,0.2,0.2,0.3,0.3c0.3,0.4,1.6-0.3,2,0
	c0.8,0.4,0.3,1.4,0,2.3c-0.1,0.2-0.2,0.5-0.2,0.8c-0.1,1.4-0.6,2.8-1,4.3c0,0.1-0.3,0.2-0.5,0.4C56.2,38.3,56.3,38.4,56.5,38.6
	L56.5,38.6z M53,26.7c0,0,0.6-0.1,0.6,0c0.3,1,0.8,2,1.3,2.9h-1.9C52.9,28.6,52.9,27.6,53,26.7z M44.8,10.4
	c8.4,0.1,15.6,4.2,19.2,10.1H52.9c-0.3-0.5-0.7-0.8-1.2-1.1c-1.1-0.5-2.1,0.1-2.7,1.1h-2c-0.5-0.8-1.2-1.5-2-2c0,0-0.1,0-0.1-0.1
	L44.8,10.4z M48.5,21.2c-0.1,0.3-0.3,0.6-0.3,1c0,0.1-0.2,0.2-0.3,0.4c-0.2-0.5-0.4-0.9-0.6-1.4C47.3,21.2,48.5,21.2,48.5,21.2z
	 M44.8,28.8c0.3-1.1,1.4-2.3,2.8-2.3c0.2,0,0.4,0.1,0.6,0.3c0.1,0.9,0.1,1.9,0,2.8h-3.4V28.8z M44.8,30.3h3.3
	c-0.1,0.9-0.3,1.7-0.4,2.6c-0.3,1.5-0.6,3-0.8,4.5c0.6,0.2,1.1,0.6,1.4,1.2h-3.4V30.3z M44.8,48.1v-8.9h3.7c0.1,0.6,0.3,1.1,0.3,1.7
	c0,0.3,0,0.6,0.1,1c0.4,1.5,0.1,3.2,0.1,4.8c0.1-0.6,1-0.6,1.1-1.2c0.3,0.4,0.5,0.7,0.8,1.1c0.1,0.1,0.1,0.4,0.2,0.7
	c0.1-2.1-0.4-4.2,0.5-6.2c0.2-0.5,0.4-1.1,0.6-1.7h6c-0.2,1.5,0.6,2.9,0.4,4.4C54.9,46.3,50.1,48,44.8,48.1z M52.1,47.6
	c3-0.9,5.8-2.4,8.3-4.5c0.2,0.3,0.3,0.6,0.3,0.9c0-0.4,0-0.8,0-1.2c1.2-1.1,2.3-2.3,3.3-3.6h9.7C68.9,43.4,61.2,46.5,52.1,47.6
	L52.1,47.6z M74.2,38.7v-0.2h-9.5c0-0.1-0.1-0.2-0.1-0.3c1.5-2.4,2.4-5.2,2.6-8h11.7C78.5,33.4,76.9,36.2,74.2,38.7L74.2,38.7z
	 M67.2,29.6c0-0.1,0-0.3,0-0.4c0-2.8-0.7-5.6-2-8.1h10.4c2.1,2.4,3.3,5.2,3.3,8.1c0,0.1,0,0.3,0,0.4H67.2z"/>
<path class="st0" d="M41.6,17.4c0.7,0.2,1.2-0.3,1.4-0.8c0.2-0.5,0.3-1,0.5-1.5c0.2-0.7-0.2-1.3-0.5-2c-0.4-0.9-1.5-0.9-2.3-0.6
	c-0.3,0.1-0.5,0.6-0.5,0.9c-0.1,1.2,0.2,2.3,0.4,3.5C40.7,17.3,41.2,17.3,41.6,17.4z"/>
<path class="st0" d="M49.4,17.9c1.1,0.4,2.4,0.1,3.3-0.6c0.7-0.6,0.9-1.6,0.6-2.5c-0.3-0.8-1.2-1.2-2-0.9c-0.6,0.2-1.2,0.7-1.5,1.2
	c-0.2,0.3-0.5,0.5-0.6,0.9c0,0.4,0.1,0.8-0.1,1.2C49,17.5,49.1,17.8,49.4,17.9z"/>
<path class="st0" d="M61.4,23.6c-0.3-0.2-0.6-0.3-0.9-0.4c-0.6-0.2-1.3-0.1-1.8,0.3c-0.7,0.5-0.9,1.4-0.8,2.2
	c0.1,0.5,0.5,0.6,0.9,0.6c0,0.2,0.3,0.2,0.3,0.4c0.3,0,0.5,0.2,0.6,0.3c0.6,0.2,1.5,0.1,1.7-0.7c0,0,0.1,0,0.1,0c0,0,0-0.1,0-0.2
	c0,0,0.1,0,0.2,0c0,0,0-0.2,0-0.2c0.5-0.2,0.6-0.9,0.5-1.3C62.1,24.1,61.8,23.8,61.4,23.6z"/>
</svg>
