<?xml version="1.0" encoding="utf-8"?>
<!-- Generator: Adobe Illustrator 24.1.0, SVG Export Plug-In . SVG Version: 6.00 Build 0)  -->
<svg version="1.1" id="Layer_1" xmlns="http://www.w3.org/2000/svg" xmlns:xlink="http://www.w3.org/1999/xlink" x="0px" y="0px"
	 viewBox="0 0 326 53" style="enable-background:new 0 0 326 53;" xml:space="preserve">
<style type="text/css">
	.st0{fill:#1F4D7A;fill-opacity:0.5;}
	.st1{fill:#1F4D7A;}
</style>
<g>
	<g>
		<path class="st0" d="M106,35.6c0.6,1.3,1.3,2.4,2.2,3.4c1.6,0.6,3.4,1,5.2,1c0.2,0,0.4,0,0.6,0c-1.7-0.5-3.3-1.4-4.6-2.5
			C108.2,37,107.1,36.4,106,35.6z M121.8,34.8c-2,1.9-4.6,3.1-7.5,3.3c1.3,0.4,2.6,0.7,4,0.7c0.2,0,0.3,0,0.5,0
			C120.1,37.7,121.1,36.3,121.8,34.8z M124.6,20.9c0.7,1.5,1,3.2,1,5c0,1.6-0.3,3.1-0.9,4.5c-0.1,2-0.6,3.8-1.5,5.5
			c2.6-2.6,4.2-6.1,4.2-10.1c0-0.7,0-1.4-0.1-2C126.6,22.7,125.7,21.7,124.6,20.9z M102.4,20.6c-1.3,1.2-2.3,2.7-3,4.4
			c0,0.3,0,0.6,0,0.8c0,4.4,2,8.3,5.1,10.9c-0.6-1.3-1-2.7-1.3-4.1c-1.3-1.9-2-4.3-2-6.8C101.3,24,101.7,22.2,102.4,20.6z
			 M118.3,14.2c-0.3,0-0.6,0-0.8,0c1.9,0.7,3.6,1.8,4.9,3.3c1.4,0.5,2.6,1.3,3.7,2.2c-0.9-1.9-2.2-3.5-3.8-4.8
			C121.1,14.5,119.7,14.2,118.3,14.2z M113.5,11.7c-5.5,0-10.2,3.2-12.5,7.8c1.4-1.4,3-2.4,4.8-3.1c1.9-1.6,4.3-2.6,6.8-2.8
			c1.6-0.7,3.3-1.1,5.1-1.2C116.4,12,114.9,11.7,113.5,11.7z"/>
		<path class="st0" d="M118.5,39.1c-1.4,0.5-2.9,0.9-4.5,0.9c0.7,0.2,1.5,0.4,2.3,0.5C117.1,40.1,117.8,39.6,118.5,39.1z
			 M129.4,31.7c-1.5,3.1-4.2,5.6-7.5,6.6c-0.7,0.9-1.4,1.6-2.3,2.3c3.1-0.3,5.8-1.5,8-3.5C128.6,35.6,129.2,33.7,129.4,31.7z
			 M106.2,25.5c-0.7,1.6-1.2,3.3-1.2,5.2c0,0.1,0,0.3,0,0.4c0.9,2.5,2.4,4.7,4.4,6.4c1.3,0.4,2.6,0.7,4,0.7c0.3,0,0.6,0,0.8,0
			c-4.8-1.7-8.2-6.2-8.2-11.6C106.1,26.2,106.1,25.8,106.2,25.5z M110.3,17.3c-1,0-2,0.2-3,0.5c-1.6,2-2.6,4.5-2.9,7.2
			c0.8-1.9,2.1-3.6,3.6-4.9C108.6,19,109.4,18.1,110.3,17.3z M113.5,13.6c-0.3,0-0.6,0-0.9,0c-1.1,0.5-2.1,1.1-3,1.9
			c0.4,0,0.8-0.1,1.2-0.1c0.7,0,1.4,0,2,0.1c1.4-0.7,3-1.2,4.7-1.3C116.2,13.8,114.9,13.6,113.5,13.6z M118.3,12.4
			c-0.2,0-0.4,0-0.6,0c1.7,0.5,3.3,1.4,4.6,2.5c4.6,1.6,8,6,8.2,11.2c0.5,1.4,0.7,3,0.7,4.6c0,0.5,0,1-0.1,1.6
			c0.8-1.7,1.2-3.7,1.2-5.7C132.4,18.7,126.1,12.4,118.3,12.4L118.3,12.4z"/>
		<path class="st1" d="M109.4,37.5c1.4,1.1,2.9,2,4.6,2.5c1.6-0.1,3.1-0.4,4.5-0.9c0.1-0.1,0.2-0.2,0.3-0.3c-0.2,0-0.3,0-0.5,0
			c-1.4,0-2.8-0.2-4-0.7c-0.3,0-0.6,0-0.8,0C112,38.2,110.7,37.9,109.4,37.5z M117.7,12.4c-1.8,0.1-3.6,0.5-5.1,1.2
			c0.3,0,0.6,0,0.9,0c1.4,0,2.8,0.2,4,0.7c0.3,0,0.6,0,0.8,0c1.4,0,2.8,0.2,4,0.7C121,13.8,119.4,12.9,117.7,12.4z"/>
		<path class="st1" d="M131.2,32.2c-0.8,1.9-2.1,3.6-3.6,4.9c-2.2,3.5-6,5.8-10.3,5.8c-0.5,0-1.1,0-1.6-0.1
			c-1.2,0.5-2.5,0.7-3.9,0.8c1.7,0.7,3.5,1.1,5.5,1.1C124.4,44.8,130.4,39.3,131.2,32.2z M126.1,19.7c0.6,1.3,1,2.7,1.3,4.1
			c1.3,1.9,2.1,4.3,2.1,6.8c0,0.4,0,0.7,0,1.1c0.7-1.6,1.2-3.3,1.2-5.2c0-0.1,0-0.3,0-0.4C129.6,23.6,128.1,21.4,126.1,19.7z
			 M117.2,16.5c-0.3,0-0.6,0-1,0c1.2,0.5,2.4,1.2,3.4,2.1c1.8,0.4,3.5,1.2,5,2.3c-0.6-1.3-1.3-2.4-2.2-3.4
			C120.8,16.9,119,16.5,117.2,16.5z"/>
		<path class="st1" d="M122.4,17.5c0.9,1,1.7,2.1,2.2,3.4c1.1,0.8,2,1.8,2.7,2.9c-0.2-1.5-0.6-2.8-1.3-4.1
			C125,18.8,123.7,18.1,122.4,17.5z"/>
		<path class="st1" d="M130.5,26.1c0,0.1,0,0.3,0,0.4c0,1.9-0.4,3.6-1.2,5.2c-0.2,2-0.8,3.8-1.8,5.4c1.5-1.4,2.8-3,3.6-4.9
			c0.1-0.5,0.1-1,0.1-1.6C131.2,29.1,131,27.5,130.5,26.1L130.5,26.1z"/>
		<path class="st1" d="M104.6,36.8c0.9,1.9,2.2,3.5,3.8,4.8c0.8,0.2,1.6,0.2,2.4,0.2c0.4,0,0.9,0,1.3-0.1c-1.4-0.7-2.7-1.6-3.8-2.8
			C106.9,38.5,105.7,37.7,104.6,36.8z M104.3,25c-0.8,1.7-1.2,3.7-1.2,5.7c0,0.7,0,1.4,0.1,2c0.7,1.1,1.7,2.1,2.7,2.9
			c-0.6-1.4-1-2.9-1-4.5c-0.5-1.4-0.7-3-0.7-4.6C104.3,26,104.3,25.5,104.3,25z M112.4,17.4c-1.6,0.6-3.1,1.5-4.4,2.6
			c-1,1.6-1.6,3.5-1.8,5.4c1.8-3.8,5.4-6.6,9.8-7C114.8,17.9,113.6,17.6,112.4,17.4z"/>
		<path class="st1" d="M103.3,32.7c0.2,1.5,0.6,2.8,1.3,4.1c1.1,0.9,2.4,1.7,3.7,2.2c-0.9-1-1.7-2.1-2.2-3.4
			C105,34.8,104.1,33.8,103.3,32.7z"/>
		<path class="st1" d="M108,20c-1.5,1.4-2.8,3-3.6,4.9c-0.1,0.5-0.1,1-0.1,1.6c0,1.6,0.3,3.1,0.7,4.6c0-0.1,0-0.3,0-0.4
			c0-1.9,0.4-3.6,1.2-5.2C106.3,23.5,107,21.6,108,20z"/>
		<path class="st0" d="M100.9,19.5c-2.6,2.6-4.2,6.1-4.2,10.1c0,7.8,6.3,14.1,14,14.1c0.3,0,0.6,0,1,0c-1.2-0.5-2.4-1.2-3.4-2.1
			c-5.6-1.1-9.8-6.1-9.8-12c0-1.6,0.3-3.1,0.9-4.5C99.5,23.1,100.1,21.2,100.9,19.5z M112.8,15.6c-0.9,0.5-1.8,1-2.5,1.7
			c0.2,0,0.3,0,0.5,0c0.5,0,1.1,0,1.6,0.1c1.2-0.5,2.5-0.7,3.9-0.8C115.2,16.1,114,15.8,112.8,15.6z M109.5,15.5
			c-1.3,0.1-2.6,0.4-3.8,0.9c-1.4,1.1-2.5,2.6-3.3,4.2c1.4-1.3,3-2.3,4.8-2.8C107.9,17,108.7,16.2,109.5,15.5z"/>
		<path class="st1" d="M105.7,16.4c-1.8,0.7-3.4,1.8-4.8,3.1c-0.8,1.7-1.4,3.5-1.5,5.5c0.7-1.7,1.7-3.2,3-4.4
			C103.2,19,104.3,17.5,105.7,16.4z"/>
		<path class="st1" d="M110.8,15.4c-0.4,0-0.8,0-1.2,0.1c-0.8,0.7-1.6,1.5-2.3,2.3c1-0.3,2-0.5,3-0.5c0.8-0.7,1.6-1.3,2.5-1.7
			C112.1,15.5,111.4,15.4,110.8,15.4z"/>
		<path class="st0" d="M116.3,40.5c-1.3,0.7-2.7,1.1-4.3,1.3c1.1,0.5,2.3,0.9,3.6,1.1c1.4-0.5,2.7-1.3,3.9-2.2
			c-0.4,0-0.8,0.1-1.2,0.1C117.6,40.7,117,40.6,116.3,40.5z M123.3,35.9c-1.2,1.2-2.6,2.1-4.1,2.8c0.9-0.1,1.8-0.2,2.6-0.5
			C122.4,37.6,122.9,36.8,123.3,35.9z M117.2,18.4c-0.4,0-0.9,0-1.3,0.1c4.2,2,7,6.2,7,11.1c0,1.9-0.4,3.7-1.2,5.3
			c1.3-1.2,2.3-2.7,3-4.4c0-0.3,0-0.6,0-0.8c0-4.4-2-8.4-5.2-10.9C118.9,18.5,118,18.4,117.2,18.4L117.2,18.4z"/>
		<path class="st1" d="M124.8,30.4c-0.7,1.7-1.7,3.2-3,4.4c-0.7,1.5-1.7,2.9-3,4c0.1,0,0.2,0,0.4,0c1.5-0.7,2.9-1.7,4.1-2.8
			C124.2,34.3,124.7,32.4,124.8,30.4z"/>
		<path class="st1" d="M121.8,38.3c-0.8,0.3-1.7,0.4-2.6,0.5c-0.2,0.1-0.5,0.2-0.7,0.3c-0.7,0.6-1.4,1.1-2.2,1.5
			c0.7,0.1,1.3,0.1,2,0.1c0.4,0,0.8,0,1.2-0.1C120.4,39.9,121.2,39.1,121.8,38.3z"/>
		<path class="st1" d="M119.2,38.8c-0.1,0-0.2,0-0.4,0c-0.1,0.1-0.2,0.2-0.3,0.3C118.7,39,119,38.9,119.2,38.8z"/>
		<path class="st1" d="M108.3,41.6c1,0.8,2.2,1.5,3.4,2.1c1.4-0.1,2.7-0.4,3.9-0.8c-1.3-0.2-2.5-0.5-3.6-1.1c-0.4,0-0.8,0.1-1.3,0.1
			C109.9,41.9,109.1,41.8,108.3,41.6z M116.3,16.5c-1.4,0.1-2.7,0.4-3.9,0.8c1.3,0.2,2.5,0.5,3.6,1.1c0.4,0,0.8-0.1,1.3-0.1
			c0.8,0,1.7,0.1,2.4,0.2C118.6,17.8,117.5,17.1,116.3,16.5z"/>
		<g>
			<path class="st0" d="M12.9,42.2c-4.4,0-6.6-2.1-6.6-6.7V19.8H2v-1.5l5.4-3.7l4.1-6.3h2.1V16H22v3.7h-8.4v13.1
				c0,2.4,0.3,3.6,1.4,4.4c1,0.7,2.1,0.8,3.9,0.8c0.9,0,2.1-0.1,3.2-0.2l0.1,1.7C20.1,40.9,16.2,42.2,12.9,42.2z"/>
			<path class="st0" d="M40.1,20.1c-2,0-3.2,0.5-5.2,1.6v16.9l3,1.2v1.6H24.1v-1.6l3.6-1.2V6.4l-3.8-2.4V2.6l10-2.6l1.1,0.6v18.7
				l0.6,0.1c2.6-2.3,5.6-4.1,9-4.1c4.7,0,7.1,3.1,7.1,7.7v15.6l3.6,1.2v1.6H41.4v-1.6l3-1.2V25.4C44.4,22.2,43.2,20.1,40.1,20.1z"/>
			<path class="st0" d="M62.5,28.5c0.1,6.1,2.7,9.5,8.3,9.5c2.6,0,4.8-0.5,8-1.7l0.6,1.3c-3.4,2.8-7.6,4.8-11.2,4.8
				c-7.9,0-13-5.3-13-13c0-8,6.3-14,13.2-14c8.3,0,11.5,6.1,11.3,13.2H62.5z M72.6,26c-0.1-5.7-1.5-8.4-4.6-8.4
				c-3.1,0-5.2,3.3-5.4,8.9L72.6,26z"/>
		</g>
		<path class="st1" d="M90.9,49.7c-2.2,2.4-5,3.3-8.7,3.3c-3.7,0-5.7-2-5.7-3.9c0-1.8,1.3-3.1,3.2-3.1c2.2,0,3.6,1.6,4.3,4.5
			c1.8-1,2.3-2.8,2.3-6.8V21.2l-3.5-2.4v-1.5l9.8-2.2l0.9,0.6v24C93.7,45.2,92.9,47.6,90.9,49.7z"/>
		<path class="st1" d="M164.6,38.8v1.4l-9.6,2.2l-1.1-0.6l0.4-4l-0.7-0.1c-3.4,3.1-6.1,4.6-9.3,4.6c-4.7,0-7.1-3.2-7.1-7.7V21
			l-3.4-2.3v-1.3l9.7-2.2l1,0.7v16.2c0,3.5,1.2,5.4,4.2,5.4c1.9,0,3.1-0.5,5-1.5V21l-3.5-2.3v-1.3l9.7-2.2l1.1,0.7v20.9L164.6,38.8z
			"/>
		<path class="st1" d="M186.1,24.2c-2.2,0-3.5-1.6-3.8-3.5c-1.8,0.4-3.2,1.6-4.4,3.2v14.8l3.9,1.2v1.6h-14.8v-1.6l3.6-1.2V21.2
			l-3.5-2.4v-1.5l9.5-2.2l1.1,0.7l-0.6,5.4l0.7,0.2c2.3-3.8,4.6-6.1,7.8-6.1c2.6,0,4.5,1.7,4.5,4.4
			C190.1,22.3,188.4,24.2,186.1,24.2z"/>
		<path class="st1" d="M219.6,38.6l3.5,1.2v1.6h-13.8v-1.6l3-1.2V25.5c0-3.3-1.2-5.3-4.2-5.3c-1.9,0-3.1,0.6-5,1.6v16.9l2.9,1.2v1.6
			h-13.8v-1.6l3.6-1.2V21.2l-3.5-2.4v-1.5l9.5-2.2l1.1,0.7l-0.4,4l0.7,0.1c3.4-3.1,6.3-4.6,9.3-4.6c4.6,0,7.1,2.9,7.1,7.7
			L219.6,38.6L219.6,38.6z"/>
		<path class="st1" d="M247.4,36.1c0,1.9,0.8,3.1,4.1,3.1l0.1,1.5c-1.6,0.6-4.1,1.3-6.2,1.3c-2.6,0-4-1.1-4.4-3.7l-0.7-0.1
			c-2.5,2.4-4.9,3.7-7.8,3.7c-4,0-6.8-2.2-6.8-6c0-4.8,4.9-8,14.9-8.7v-3.1c0-4.2-1.7-5.6-5.8-5.6c-1.1,0-2.1,0.2-2.8,0.5
			c1,0.8,1.6,1.8,1.6,3c0,1.8-1.2,3.2-3.3,3.2c-2,0-3.5-1.6-3.5-3.4c0-3.9,6.1-6.5,11.9-6.5c6.1,0,8.9,2.3,8.9,7.8L247.4,36.1
			L247.4,36.1z M240.5,29c-5.9,0.2-8.1,2.3-8.1,5.1c0,2.6,1.4,4,4,4c1.1,0,2.6-0.5,4.1-1.5V29z"/>
		<path class="st1" d="M267.1,39.8v1.6h-14.4v-1.6l3.7-1.2V6.5l-3.8-2.4V2.7l10-2.6l1.1,0.6v38L267.1,39.8z"/>
		<path class="st0" d="M273.7,42.4c-2.5,0-4.5-2-4.5-4.5s2-4.5,4.5-4.5c2.4,0,4.4,2,4.4,4.5C278.1,40.3,276.1,42.4,273.7,42.4z"/>
		<path class="st0" d="M280.7,18.9v-1.5l9.8-2.2l0.9,0.6v22.9l3.4,1.2v1.6h-14.4v-1.6l3.7-1.2V21.2L280.7,18.9z M287.9,0.8
			c2.7,0,4.6,2,4.6,4.5c0,2.5-2,4.8-4.8,4.8c-2.5,0-4.5-1.9-4.5-4.5C283.1,3.2,285.1,0.8,287.9,0.8z"/>
		<path class="st0" d="M303.8,28.5c0.1,6.1,2.7,9.5,8.3,9.5c2.6,0,4.8-0.5,8-1.7l0.6,1.3c-3.4,2.8-7.6,4.7-11.2,4.7
			c-7.9,0-13-5.3-13-13c0-8,6.3-14,13.2-14c8.3,0,11.5,6.1,11.3,13.2L303.8,28.5z M314,26c-0.1-5.7-1.5-8.4-4.6-8.4
			c-3.1,0-5.2,3.3-5.4,8.9L314,26z"/>
	</g>
</g>
</svg>
