<?xml version="1.0" encoding="utf-8"?>
<!-- Generator: Adobe Illustrator 24.1.0, SVG Export Plug-In . SVG Version: 6.00 Build 0)  -->
<svg version="1.1" id="Layer_1" xmlns="http://www.w3.org/2000/svg" xmlns:xlink="http://www.w3.org/1999/xlink" x="0px" y="0px"
	 viewBox="0 0 589.5 102.6" style="enable-background:new 0 0 589.5 102.6;" xml:space="preserve">
<style type="text/css">
	.st0{fill:#1F4D7A;}
</style>
<polygon class="st0" points="124.7,57.3 101.4,57.3 101.4,0 82.4,0 82.4,73.8 124.7,73.8 "/>
<path class="st0" d="M160.5,74.4V0h-19v69.1c0,11.3-4.1,15.3-13.1,12.8c-0.5-0.1-1-0.3-1.5-0.5l-4.5,16c1,0.5,2,0.9,3.1,1.3
	C146.6,106.6,160.5,94.9,160.5,74.4"/>
<polygon class="st0" points="373.9,58.1 342.7,58.1 342.7,45.3 367.4,45.3 367.4,29.5 342.7,29.5 342.7,16.2 371.4,16.2 371.4,0 
	323.8,0 323.8,73.8 373.9,73.8 "/>
<polygon class="st0" points="439.2,58.1 408,58.1 408,45.3 432.7,45.3 432.7,29.5 408,29.5 408,16.2 436.6,16.2 436.6,0 389.1,0 
	389.1,73.8 439.2,73.8 "/>
<path class="st0" d="M27.2,43.4l7-23.4l7,23.4H27.2z M23.7,0L-1.4,73.8h19l4.3-13.5h24.3l4.1,13.5h20.1L44.7,0H23.7z"/>
<path class="st0" d="M200.3,43.4l7-23.4l7,23.4H200.3z M223.3,73.8h20.1L217.7,0h-20.9l-25.1,73.8h18.9l4.3-13.5h24.3L223.3,73.8z"
	/>
<path class="st0" d="M546.3,43.4l7-23.4l7,23.4H546.3z M563.8,0h-20.9l-25.2,73.8h19l4.3-13.5h24.3l4.1,13.5h20.1L563.8,0z"/>
<path class="st0" d="M486.3,27.8c-1.1,1.3-2.6,1.9-6.2,2.2h-1.6h-5.6V16.2h5.6c0.5,0,0.9,0.1,1.4,0.1c2.9,0.1,4.1,0.4,5.3,1.2
	C488.3,19.4,489,24.4,486.3,27.8 M502.2,47c-2.8-6.6-3.8-7.9-6.4-9.1c0.5-0.1,0.9-0.3,1.3-0.5c8.3-3.8,12.2-13.3,9.1-23.9
	c-2.6-8.7-9.3-13.5-22-13.5h-29.9v73.8h19V46.2h4.3c3.1,0,4.9,1.3,6.5,5.2l1,2.4l0.5,1.3l7.2,18.6h19.6l-9.2-24.2
	C502.8,48.7,502.5,47.9,502.2,47"/>
<polygon class="st0" points="307.8,57.5 280.3,57.5 307.2,18.8 307.2,0 256.3,0 256.3,16.2 282.5,16.2 255.5,54.9 255.5,73.8 
	307.8,73.8 "/>
</svg>
