<svg width="326" height="53" viewBox="0 0 326 53" fill="none" xmlns="http://www.w3.org/2000/svg">
<g clip-path="url(#clip0)">
<path d="M106.048 35.6228C106.6 36.8784 107.351 38.0213 108.262 39.0113C109.869 39.6552 111.619 40.0174 113.457 40.0174C113.657 40.0174 113.857 40.0093 114.049 40.0013C112.346 39.454 110.78 38.5847 109.421 37.466C108.198 37.0313 107.055 36.4036 106.048 35.6228ZM121.802 34.826C119.812 36.7094 117.19 37.9328 114.297 38.126C115.551 38.5686 116.902 38.8101 118.309 38.8101C118.485 38.8101 118.653 38.8101 118.82 38.802C120.059 37.6994 121.082 36.3472 121.802 34.826ZM124.615 20.902C125.287 22.4231 125.654 24.1053 125.654 25.8679C125.654 27.4696 125.351 28.9988 124.791 30.4074C124.679 32.3793 124.152 34.2465 123.312 35.9287C125.894 33.3612 127.493 29.8037 127.493 25.8679C127.493 25.1838 127.445 24.5077 127.349 23.8477C126.605 22.7209 125.678 21.731 124.615 20.902ZM102.427 20.6203C101.133 21.8436 100.109 23.3487 99.438 25.0309C99.4221 25.3126 99.4141 25.5862 99.4141 25.8679C99.4141 30.2705 101.42 34.2063 104.553 36.7979C103.938 35.5182 103.506 34.1339 103.299 32.6771C102.004 30.7293 101.252 28.3872 101.252 25.8679C101.26 23.9926 101.676 22.2139 102.427 20.6203ZM118.309 14.2377C118.029 14.2377 117.749 14.2458 117.47 14.2699C119.372 14.938 121.058 16.0648 122.401 17.5216C123.752 18.0689 124.999 18.8093 126.11 19.7269C125.215 17.8596 123.92 16.2257 122.345 14.9299C121.074 14.4792 119.716 14.2377 118.309 14.2377ZM113.457 11.7266C107.982 11.7266 103.235 14.8977 100.917 19.5096C102.275 18.1574 103.906 17.0869 105.72 16.3787C107.615 14.8092 109.98 13.8031 112.57 13.618C114.153 12.9017 115.887 12.4751 117.717 12.3946C116.375 11.96 114.944 11.7266 113.457 11.7266Z" fill="#006AA0" fill-opacity="0.5"/>
<path d="M118.509 39.068C117.118 39.6154 115.615 39.9373 114.049 40.0017C114.776 40.2351 115.528 40.4122 116.303 40.5248C117.094 40.1144 117.829 39.6234 118.509 39.068ZM129.363 31.7277C127.9 34.8586 125.167 37.2813 121.826 38.2873C121.154 39.1485 120.387 39.9292 119.548 40.6053C122.601 40.3397 125.383 39.0761 127.565 37.1444C128.556 35.5508 129.187 33.7077 129.363 31.7277ZM106.152 25.4579C105.417 27.0354 105.001 28.8061 105.001 30.6573C105.001 30.7941 105.001 30.9309 105.009 31.0758C105.864 33.6031 107.415 35.8084 109.421 37.4664C110.684 37.909 112.043 38.1586 113.449 38.1586C113.729 38.1586 114.017 38.1505 114.289 38.1264C109.525 36.4523 106.096 31.8807 106.096 26.5203C106.104 26.1661 106.12 25.812 106.152 25.4579ZM110.26 17.2966C109.221 17.3368 108.214 17.5139 107.255 17.8037C105.68 19.8239 104.641 22.2867 104.346 24.9669C105.177 23.0674 106.416 21.3772 107.95 20.0251C108.59 19.0109 109.365 18.0854 110.26 17.2966ZM113.457 13.5862C113.162 13.5862 112.866 13.5942 112.57 13.6184C111.483 14.1094 110.46 14.7452 109.541 15.4857C109.949 15.4535 110.356 15.4293 110.772 15.4293C111.451 15.4293 112.123 15.4776 112.778 15.5742C114.201 14.8418 115.791 14.383 117.47 14.2703C116.207 13.8277 114.864 13.5862 113.457 13.5862ZM118.309 12.3789C118.109 12.3789 117.917 12.3789 117.718 12.395C119.42 12.9423 120.987 13.8116 122.337 14.9303C126.965 16.5642 130.33 20.9426 130.498 26.1098C130.978 27.5425 131.241 29.0717 131.241 30.6653C131.241 31.1885 131.209 31.7036 131.153 32.2187C131.921 30.4802 132.344 28.5485 132.344 26.5283C132.352 18.7292 126.054 12.3789 118.309 12.3789Z" fill="#006AA0" fill-opacity="0.5"/>
<path d="M109.42 37.4659C110.771 38.5847 112.337 39.4539 114.048 40.0012C115.614 39.9368 117.117 39.6068 118.508 39.0676C118.612 38.979 118.715 38.8905 118.819 38.802C118.652 38.81 118.476 38.81 118.308 38.81C116.901 38.81 115.558 38.5686 114.295 38.1259C114.016 38.142 113.736 38.1581 113.456 38.1581C112.042 38.1581 110.683 37.9086 109.42 37.4659ZM117.716 12.3945C115.894 12.475 114.152 12.9016 112.569 13.6179C112.865 13.5938 113.153 13.5857 113.456 13.5857C114.863 13.5857 116.214 13.8272 117.469 14.2699C117.748 14.2538 118.028 14.2377 118.308 14.2377C119.723 14.2377 121.081 14.4791 122.344 14.9298C120.985 13.8111 119.419 12.9418 117.716 12.3945Z" fill="#006AA0"/>
<path d="M131.161 32.2104C130.33 34.1098 129.091 35.8001 127.556 37.1522C125.398 40.6292 121.562 42.9472 117.206 42.9472C116.67 42.9472 116.143 42.915 115.623 42.8426C114.392 43.3013 113.089 43.5911 111.723 43.6796C113.409 44.404 115.255 44.7984 117.206 44.7984C124.431 44.7984 130.394 39.2851 131.161 32.2104ZM126.102 19.727C126.717 21.0067 127.149 22.3911 127.356 23.8479C128.651 25.7957 129.411 28.1458 129.411 30.657C129.411 31.0192 129.395 31.3733 129.363 31.7194C130.098 30.1419 130.514 28.3793 130.514 26.52C130.514 26.3832 130.514 26.2464 130.506 26.1015C129.65 23.5903 128.108 21.385 126.102 19.727ZM117.206 16.5156C116.886 16.5156 116.566 16.5237 116.255 16.5478C117.485 17.079 118.628 17.7793 119.651 18.6163C121.49 18.9946 123.176 19.7914 124.615 20.9021C124.063 19.6465 123.312 18.5117 122.401 17.5137C120.786 16.8778 119.036 16.5156 117.206 16.5156Z" fill="#006AA0"/>
<path d="M122.395 17.5215C123.306 18.5115 124.057 19.6544 124.609 20.9099C125.672 21.7309 126.599 22.7289 127.35 23.8557C127.142 22.3989 126.711 21.0146 126.095 19.7349C124.992 18.8093 123.745 18.0607 122.395 17.5215Z" fill="#006AA0"/>
<path d="M130.498 26.1094C130.498 26.2462 130.506 26.383 130.506 26.5279C130.506 28.3871 130.09 30.1498 129.355 31.7273C129.187 33.7073 128.548 35.5584 127.557 37.1521C129.091 35.7999 130.33 34.1177 131.161 32.2102C131.217 31.7032 131.249 31.18 131.249 30.6568C131.249 29.0713 130.986 27.534 130.498 26.1094Z" fill="#006AA0"/>
<path d="M104.553 36.7977C105.448 38.665 106.743 40.3069 108.325 41.6027C109.117 41.7637 109.932 41.8523 110.771 41.8523C111.203 41.8523 111.626 41.8281 112.042 41.7879C110.611 41.1118 109.325 40.1621 108.261 39.0031C106.911 38.4638 105.664 37.7153 104.553 36.7977ZM104.345 24.9744C103.586 26.7129 103.162 28.6445 103.162 30.6647C103.162 31.3488 103.21 32.0249 103.306 32.6849C104.049 33.8117 104.976 34.8097 106.047 35.6307C105.432 34.2302 105.064 32.693 105.016 31.0832C104.529 29.6506 104.273 28.1214 104.273 26.5277C104.265 25.9965 104.289 25.4814 104.345 24.9744ZM112.354 17.3926C110.723 17.9962 109.237 18.8977 107.958 20.0325C106.967 21.6342 106.327 23.4854 106.159 25.4653C107.934 21.6503 111.602 18.8977 115.943 18.4469C114.824 17.9157 113.617 17.5536 112.354 17.3926Z" fill="#006AA0"/>
<path d="M103.307 32.6777C103.514 34.1345 103.946 35.5189 104.562 36.7986C105.672 37.7162 106.919 38.4647 108.27 39.0039C107.359 38.014 106.6 36.8711 106.056 35.6155C104.977 34.8026 104.05 33.8045 103.307 32.6777Z" fill="#006AA0"/>
<path d="M107.958 20.0332C106.424 21.3854 105.185 23.0756 104.353 24.975C104.297 25.4821 104.273 26.0053 104.273 26.5284C104.273 28.122 104.537 29.6513 105.017 31.0839C105.009 30.9471 105.009 30.8103 105.009 30.6654C105.009 28.8062 105.424 27.0435 106.16 25.466C106.32 23.478 106.959 21.6349 107.958 20.0332Z" fill="#006AA0"/>
<path d="M100.917 19.5096C98.3349 22.0772 96.7363 25.6346 96.7363 29.5704C96.7363 37.3695 103.035 43.7118 110.78 43.7118C111.099 43.7118 111.419 43.7037 111.731 43.6796C110.5 43.1484 109.357 42.4481 108.334 41.6111C102.779 40.4682 98.5826 35.5022 98.5826 29.5704C98.5826 27.9687 98.8864 26.4395 99.4459 25.031C99.5498 23.0591 100.069 21.1918 100.917 19.5096ZM112.778 15.5739C111.867 16.0407 111.019 16.6202 110.26 17.2963C110.428 17.2882 110.604 17.2882 110.772 17.2882C111.307 17.2882 111.835 17.3204 112.354 17.3929C113.585 16.9341 114.888 16.6443 116.255 16.5558C115.16 16.0809 113.993 15.751 112.778 15.5739ZM109.541 15.4854C108.206 15.6061 106.919 15.9119 105.72 16.3787C104.337 17.5216 103.202 18.9704 102.427 20.6204C103.786 19.3406 105.432 18.3587 107.255 17.8114C107.926 16.9502 108.693 16.1695 109.541 15.4854Z" fill="#006AA0" fill-opacity="0.5"/>
<path d="M105.72 16.3789C103.905 17.0872 102.275 18.1576 100.916 19.5098C100.077 21.1839 99.5574 23.0512 99.4375 25.0311C100.109 23.3409 101.132 21.8439 102.427 20.6205C103.202 18.9706 104.337 17.5218 105.72 16.3789Z" fill="#006AA0"/>
<path d="M110.771 15.4287C110.355 15.4287 109.939 15.4448 109.54 15.4851C108.693 16.1692 107.925 16.9499 107.254 17.803C108.213 17.5133 109.22 17.3362 110.259 17.296C111.019 16.6199 111.866 16.0404 112.777 15.5736C112.122 15.477 111.45 15.4287 110.771 15.4287Z" fill="#006AA0"/>
<path d="M116.303 40.5167C115 41.1847 113.562 41.6274 112.043 41.7884C113.154 42.3115 114.361 42.6737 115.624 42.8427C117.054 42.3115 118.373 41.5549 119.54 40.6133C119.133 40.6455 118.725 40.6696 118.309 40.6696C117.63 40.6616 116.959 40.6133 116.303 40.5167ZM123.313 35.929C122.122 37.1121 120.731 38.078 119.196 38.7782C120.1 38.7138 120.987 38.5448 121.826 38.2872C122.394 37.5548 122.897 36.766 123.313 35.929ZM117.206 18.375C116.775 18.375 116.351 18.3991 115.935 18.4394C120.092 20.4032 122.969 24.6529 122.969 29.5706C122.969 31.4459 122.545 33.2327 121.794 34.8263C123.089 33.6029 124.12 32.0979 124.783 30.4157C124.799 30.142 124.807 29.8603 124.807 29.5786C124.807 25.168 122.793 21.2242 119.644 18.6326C118.861 18.4635 118.046 18.375 117.206 18.375Z" fill="#006AA0" fill-opacity="0.5"/>
<path d="M124.791 30.4072C124.12 32.0974 123.096 33.5945 121.802 34.8179C121.082 36.339 120.067 37.6912 118.82 38.7939C118.948 38.7858 119.068 38.7778 119.196 38.7697C120.739 38.0695 122.129 37.1037 123.312 35.9205C124.151 34.2545 124.679 32.3872 124.791 30.4072Z" fill="#006AA0"/>
<path d="M121.826 38.2871C120.986 38.5447 120.107 38.7056 119.196 38.7781C118.972 38.8827 118.741 38.9793 118.509 39.0678C117.829 39.6312 117.094 40.1222 116.303 40.5246C116.958 40.6212 117.63 40.6695 118.301 40.6695C118.717 40.6695 119.132 40.6534 119.532 40.6132C120.387 39.929 121.154 39.1483 121.826 38.2871Z" fill="#006AA0"/>
<path d="M119.197 38.7783C119.069 38.7864 118.949 38.7944 118.821 38.8025C118.718 38.891 118.614 38.9795 118.51 39.0681C118.742 38.9715 118.973 38.8749 119.197 38.7783Z" fill="#006AA0"/>
<path d="M108.326 41.6112C109.349 42.4563 110.492 43.1565 111.723 43.6797C113.082 43.5911 114.393 43.3014 115.624 42.8426C114.361 42.6736 113.154 42.3195 112.043 41.7882C111.627 41.8285 111.204 41.8526 110.772 41.8526C109.933 41.8607 109.117 41.7721 108.326 41.6112ZM116.255 16.5479C114.896 16.6444 113.585 16.9261 112.355 17.3849C113.617 17.5459 114.824 17.9081 115.935 18.4393C116.351 18.399 116.774 18.3749 117.206 18.3749C118.045 18.3749 118.861 18.4634 119.652 18.6244C118.629 17.7793 117.486 17.0791 116.255 16.5479Z" fill="#006AA0"/>
<path d="M12.9232 42.1587C8.53521 42.1587 6.31323 40.0339 6.31323 35.5025V19.7917H2.03711V18.2785L7.42422 14.5359L11.5325 8.21777H13.5866V16.0491H22.027V19.7917H13.5866V32.8787C13.5866 35.2289 13.9223 36.4522 15.0333 37.241C16.0324 37.909 17.0874 38.0781 18.9178 38.0781C19.805 38.0781 20.9719 38.0217 22.1389 37.909L22.1948 39.6395C20.1407 40.9273 16.1923 42.1587 12.9232 42.1587Z" fill="#006AA0" fill-opacity="0.5"/>
<path d="M40.1031 20.1295C38.1049 20.1295 36.8821 20.6285 34.9398 21.691V38.5769L37.9371 39.8083V41.4261H24.1096V39.8083L27.6664 38.5769V6.43083L23.8379 4.08064V2.62384L33.8848 0L34.9398 0.611693V19.3408L35.5473 19.4535C38.1049 17.1596 41.1022 15.3165 44.5391 15.3165C49.2069 15.3165 51.6447 18.391 51.6447 22.9787V38.5769L55.2014 39.8083V41.4261H41.374V39.8083L44.3713 38.5769V25.4416C44.3792 22.198 43.2123 20.1295 40.1031 20.1295Z" fill="#006AA0" fill-opacity="0.5"/>
<path d="M62.5195 28.5159C62.5754 34.6087 65.1811 38.0213 70.792 38.0213C73.3497 38.0213 75.5636 37.5142 78.8407 36.2908L79.4481 37.5786C76.0033 40.4278 71.895 42.3353 68.2343 42.3353C60.2975 42.3353 55.2461 37.0796 55.2461 29.3046C55.2461 21.256 61.5204 15.3242 68.4581 15.3242C76.7865 15.3242 80.0076 21.417 79.7279 28.5159H62.5195ZM72.6303 25.9967C72.5744 20.2902 71.1277 17.61 68.0185 17.61C64.9653 17.61 62.7992 20.9099 62.5754 26.5037L72.6303 25.9967Z" fill="#006AA0" fill-opacity="0.5"/>
<path d="M90.9482 49.7081C88.7821 52.0583 85.9527 53.0081 82.284 53.0081C78.6234 53.0081 76.6172 50.9959 76.6172 49.0964C76.6172 47.2533 77.952 45.9655 79.7823 45.9655C81.9483 45.9655 83.387 47.5833 84.0584 50.4969C85.8888 49.4908 86.3923 47.704 86.3923 43.7361V21.2L82.8915 18.8498V17.385L92.7226 15.1475L93.6657 15.7028V39.744C93.6737 45.1768 92.8904 47.5753 90.9482 49.7081Z" fill="#006AA0"/>
<path d="M164.612 38.7704V40.1708L155.06 42.4083L154.005 41.7966L154.397 37.7723L153.733 37.6597C150.345 40.7906 147.627 42.3037 144.406 42.3037C139.738 42.3037 137.3 39.1165 137.3 34.5851V21.0474L133.855 18.7535V17.4094L143.575 15.1719L144.574 15.8399V32.0578C144.574 35.5268 145.797 37.4262 148.794 37.4262C150.68 37.4262 151.903 36.9192 153.789 35.9131V21.0474L150.289 18.7535V17.4094L160.008 15.1719L161.063 15.8399V36.7019L164.612 38.7704Z" fill="#006AA0"/>
<path d="M186.104 24.1783C183.938 24.1783 182.603 22.5605 182.331 20.653C180.557 21.0474 179.166 22.2144 177.943 23.8402V38.6013L181.884 39.8328V41.4505H167.113V39.8408L170.67 38.6094V21.2164L167.169 18.8662V17.4094L176.665 15.1719L177.72 15.8399L177.112 21.2083L177.776 21.3773C180.054 17.5784 182.331 15.2846 185.6 15.2846C188.206 15.2846 190.1 17.015 190.1 19.7032C190.1 22.2788 188.382 24.1783 186.104 24.1783Z" fill="#006AA0"/>
<path d="M219.585 38.6094L223.086 39.8408V41.4586H209.314V39.8408L212.311 38.6094V25.466C212.311 22.1661 211.144 20.154 208.091 20.154C206.205 20.154 204.982 20.7093 203.096 21.7154V38.6013L206.037 39.8328V41.4505H192.266V39.8408L195.822 38.6094V21.2164L192.322 18.8662V17.4094L201.817 15.1719L202.872 15.8399L202.48 19.8642L203.144 19.9769C206.533 16.846 209.418 15.3328 212.471 15.3328C217.027 15.3328 219.577 18.2384 219.577 22.9951V38.6094H219.585Z" fill="#006AA0"/>
<path d="M247.352 36.1467C247.352 38.0461 248.183 39.2212 251.404 39.2776L251.516 40.7344C249.91 41.3461 247.464 42.0222 245.298 42.0222C242.74 42.0222 241.302 40.9597 240.854 38.3278L240.191 38.2152C237.697 40.5654 235.307 41.9578 232.366 41.9578C228.369 41.9578 225.588 39.7766 225.588 35.9213C225.588 31.1646 230.471 27.9291 240.47 27.1966V24.1221C240.47 19.9288 238.808 18.5283 234.644 18.5283C233.533 18.5283 232.534 18.7537 231.814 19.0273C232.813 19.8644 233.373 20.8141 233.373 22.0455C233.373 23.8323 232.15 25.2328 230.04 25.2328C228.042 25.2328 226.539 23.6633 226.539 21.8202C226.539 17.9649 232.645 15.333 238.48 15.333C244.531 15.333 247.36 17.6269 247.36 23.108V36.1467H247.352ZM240.462 29.0478C234.524 29.2732 232.358 31.3417 232.358 34.1345C232.358 36.702 233.804 38.1025 236.354 38.1025C237.465 38.1025 238.968 37.5954 240.462 36.6457V29.0478Z" fill="#006AA0"/>
<path d="M267.119 39.8408V41.4586H252.74V39.8408L256.401 38.6094V6.45524L252.572 4.10505V2.6563L262.619 0.0244141L263.674 0.636107V38.6013L267.119 39.8408Z" fill="#006AA0"/>
<path d="M273.664 42.3514C271.162 42.3514 269.164 40.3393 269.164 37.8764C269.164 35.4135 271.162 33.4014 273.664 33.4014C276.11 33.4014 278.108 35.4135 278.108 37.8764C278.1 40.3393 276.102 42.3514 273.664 42.3514Z" fill="#006AA0" fill-opacity="0.5"/>
<path d="M280.707 18.8735V17.4168L290.538 15.1792L291.481 15.7346V38.6007L294.926 39.8321V41.4499H280.547V39.8401L284.216 38.6087V21.2157L280.707 18.8735ZM287.868 0.8125C290.538 0.8125 292.424 2.76831 292.424 5.34386C292.424 7.86307 290.426 10.1489 287.644 10.1489C285.095 10.1489 283.153 8.2494 283.153 5.67385C283.145 3.15464 285.143 0.8125 287.868 0.8125Z" fill="#006AA0" fill-opacity="0.5"/>
<path d="M303.848 28.5403C303.904 34.6331 306.509 38.0457 312.12 38.0457C314.678 38.0457 316.892 37.5386 320.169 36.3152L320.776 37.603C317.331 40.4522 313.223 42.3517 309.563 42.3517C301.626 42.3517 296.566 37.0959 296.566 29.329C296.566 21.2804 302.841 15.3486 309.778 15.3486C318.107 15.3486 321.328 21.4414 321.048 28.5403H303.848ZM313.959 26.0291C313.903 20.3227 312.464 17.6425 309.347 17.6425C306.294 17.6425 304.128 20.9424 303.904 26.5362L313.959 26.0291Z" fill="#006AA0" fill-opacity="0.5"/>
</g>
<defs>
<clipPath id="clip0">
<rect width="326" height="53" fill="white"/>
</clipPath>
</defs>
</svg>
