<?xml version="1.0" encoding="utf-8"?>
<!-- Generator: Adobe Illustrator 24.1.0, SVG Export Plug-In . SVG Version: 6.00 Build 0)  -->
<svg version="1.1" id="Layer_1" xmlns="http://www.w3.org/2000/svg" xmlns:xlink="http://www.w3.org/1999/xlink" x="0px" y="0px"
	 viewBox="0 0 531 274.5" style="enable-background:new 0 0 531 274.5;" xml:space="preserve">
<style type="text/css">
	.st0{fill-rule:evenodd;clip-rule:evenodd;fill:#1B4F7C;}
	.st1{fill:#1B4F7C;}
	.st2{fill:#FFFFFF;}
</style>
<g>
	<g>
		<path class="st0" d="M354.8,63.3L377.4,83l15.3-16.2l41.1,31.7l0,0c8.3,6.7,18.9,6.5,26.1-2.1l0,0l39.7-45.8L459,50.6l-15.7,17.2
			l-38.4-30l0,0c-8.7-6.8-21.9-9.4-29.5,0l0,0L354.8,63.3L354.8,63.3"/>
		<path class="st0" d="M356.7,89.7l-31.8-21.6l3.4,46.6l0,0c1.3,12,13.8,17,24.8,16l0,0l48.5-4.4l3.9,23l33.2-4.3l-4.3-35l0,0
			c-1.4-11.1-12.4-17.2-23-16l0,0l-52.8,5.7L356.7,89.7L356.7,89.7"/>
		<path class="st0" d="M475.7,185.9h25.8l0,0c2.9,0,4.5,1.6,4.5,4.6l0,0v0.9h-25.8v15.2h44.3v-21.9l0,0c0-4.1-1.6-7.7-4.6-10.6
			c-3.1-3-6.8-4.3-11.1-4.3l0,0h-42.3v7.4h-9.3v36.6l0,0c0,4.2,1.5,7.5,4.6,10.5c3.1,2.9,6.8,4.4,11.1,4.4l0,0l52.8,0l-24.2-16.2
			h-21.3l0,0c-2.9,0-4.5-1.6-4.5-4.5l0,0V185.9L475.7,185.9"/>
		<path class="st0" d="M355.4,208L355.4,208L355.4,208c0,2.9-1.6,4.5-4.6,4.5l0,0H325v-22.1l0,0c0-2.9,1.5-4.5,4.6-4.5l0,0h21.2
			v-16.2h-28.6l0,0c-4.3,0-8.1,1.4-11.1,4.3c-3.1,2.9-4.6,6.5-4.6,10.6l0,0v36.6h9.3v7.4H358l0,0c4.5,0,8.2-1.5,11.3-4.4
			c3.1-3,4.6-6.3,4.6-10.5l0,0v-63.3h-18.5V208L355.4,208"/>
		<path class="st0" d="M94.5,186L94.5,186L94.5,186c3.1,0,4.6,1.6,4.6,4.5l0,0v38.3h18.5v-44l0,0c0-4.2-1.5-7.7-4.6-10.6
			c-3.1-3-6.8-4.3-11.1-4.3l0,0h-33l-0.1-19.4H50.4l0.1,78.3h18.5V186H94.5L94.5,186"/>
		<path class="st0" d="M144.1,185.9h25.8l0,0c2.9,0,4.5,1.6,4.5,4.6l0,0v0.9h-25.8v15.2h44.3v-21.9l0,0c0-4.1-1.6-7.7-4.6-10.7
			c-3.1-3-6.8-4.3-11.1-4.3l0,0h-42.3v7.4h-9.3v36.6l0,0c0,4.2,1.6,7.5,4.6,10.5c3.1,2.9,6.8,4.4,11.1,4.4l0,0h28.6v-16.2h-21.3l0,0
			c-2.9,0-4.5-1.6-4.5-4.5l0,0V185.9L144.1,185.9"/>
		<path class="st0" d="M249.7,185.9h25.8l0,0c2.9,0,4.5,1.6,4.5,4.6l0,0v0.9h-25.8v15.2h44.3v-21.9l0,0c0-4.1-1.6-7.7-4.6-10.7
			c-3.1-3-6.8-4.3-11.1-4.3l0,0h-42.3v7.4h-9.2v36.6l0,0c0,4.2,1.5,7.5,4.6,10.5c3.1,2.9,6.8,4.4,11.2,4.4l0,0h28.5v-16.2h-21.3l0,0
			c-2.9,0-4.5-1.6-4.5-4.5l0,0V185.9L249.7,185.9"/>
		<path class="st0" d="M430.8,208L430.8,208L430.8,208c0,2.9-1.6,4.5-4.5,4.5l0,0h-25.8v-22.1l0,0c0-2.9,1.5-4.5,4.6-4.5l0,0h21.2
			v-16.2h-28.6l0,0c-4.3,0-8,1.4-11.1,4.3c-3.1,2.9-4.6,6.5-4.6,10.7l0,0v36.5h9.3v7.4h42.3l0,0c4.3,0,8-1.5,11.1-4.4
			c3.1-3,4.6-6.3,4.6-10.5l0,0v-44h-18.5V208L430.8,208"/>
		<path class="st0" d="M400.1,242.2l-16.5,17.4h46.2l0,0l0,0c5.4,0,10-1.5,13.9-4.6c3.9-3.1,5.8-6.9,5.8-11.2l0,0v-10.6h-23.2v4.3
			l0,0c0,3.1-1.9,4.8-5.8,4.8l0,0H400.1L400.1,242.2"/>
		<path class="st0" d="M431.5,6.2c-10.5,0-19.1,8.3-19.1,18.5c0,10.2,8.5,18.5,19.1,18.5c10.6,0,19.1-8.3,19.1-18.5
			C450.6,14.5,442,6.2,431.5,6.2L431.5,6.2"/>
		<path class="st0" d="M28.8,228.7h13.9v-16.2h-6.5l0,0c-3.1,0-4.6-1.5-4.6-4.5l0,0V186h11.1v-16.2H31.5v-7.9L13,145v68.7l0,0
			c0,4.2,1.6,7.5,4.6,10.5C20.7,227.2,24.4,228.7,28.8,228.7L28.8,228.7"/>
	</g>
	<rect x="13" y="234.8" class="st1" width="361.6" height="31.6"/>
	<g>
		<path class="st2" d="M36.6,255c0,1.4-0.3,2.3-0.8,2.8c-0.5,0.5-1.5,0.7-3,0.7h-9.3c-1.5,0-2.6-0.3-3-0.8c-0.5-0.5-0.7-1.6-0.7-3.1
			l3.1-0.6v1.8h10.7v-3.4H24c-1.4,0-2.4-0.2-2.9-0.7c-0.5-0.5-0.8-1.4-0.8-2.8V247c0-1.4,0.3-2.3,0.8-2.8c0.5-0.5,1.5-0.7,2.9-0.7
			h8.6c1.4,0,2.4,0.2,3,0.7c0.5,0.5,0.8,1.5,0.8,2.9l-3.1,0.7v-1.7h-9.9v3.2h9.4c1.4,0,2.4,0.2,3,0.7c0.5,0.5,0.8,1.4,0.8,2.8V255z"
			/>
		<path class="st2" d="M58.7,249.7c0,1.9-1.1,2.9-3.4,2.9h-9.5v5.9h-3.4v-15h12.9c2.3,0,3.4,1,3.4,2.9V249.7z M55.3,248.9v-1.6
			c0-0.5-0.1-0.8-0.4-1c-0.2-0.1-0.6-0.2-1.1-0.2h-7.9v4h7.9c0.5,0,0.9-0.1,1.1-0.2C55.2,249.7,55.3,249.4,55.3,248.9z"/>
		<path class="st2" d="M80.9,255c0,1.4-0.3,2.3-0.8,2.8c-0.5,0.5-1.5,0.7-2.9,0.7H66.1c-1.4,0-2.4-0.2-2.9-0.7
			c-0.5-0.5-0.8-1.4-0.8-2.8V247c0-1.4,0.3-2.3,0.8-2.8c0.5-0.5,1.5-0.7,2.9-0.7h11.1c1.4,0,2.4,0.2,2.9,0.7
			c0.5,0.5,0.8,1.4,0.8,2.8V255z M77.4,255.7v-9.5H65.8v9.5H77.4z"/>
		<path class="st2" d="M104.7,258.5h-5l-6.1-5.7h-3.3v5.7h-3.4v-15h12.9c2.3,0,3.4,1,3.4,2.9v3.5c0,1.5-0.6,2.4-1.8,2.7
			c-0.4,0.1-1.7,0.2-3.6,0.2L104.7,258.5z M99.8,249.1v-1.8c0-0.5-0.1-0.8-0.4-1c-0.2-0.1-0.6-0.2-1.1-0.2h-7.9v4.2h7.9
			c0.5,0,0.9-0.1,1.1-0.2C99.6,249.9,99.8,249.6,99.8,249.1z"/>
		<path class="st2" d="M122.8,246.2h-7v12.4h-3.5v-12.4h-6.9v-2.7h17.4V246.2z"/>
		<path class="st2" d="M142,255c0,1.4-0.3,2.3-0.8,2.8c-0.5,0.5-1.5,0.7-3,0.7h-9.3c-1.5,0-2.6-0.3-3-0.8c-0.5-0.5-0.7-1.6-0.7-3.1
			l3.1-0.6v1.8h10.7v-3.4h-9.4c-1.4,0-2.4-0.2-2.9-0.7c-0.5-0.5-0.8-1.4-0.8-2.8V247c0-1.4,0.3-2.3,0.8-2.8c0.5-0.5,1.5-0.7,2.9-0.7
			h8.6c1.4,0,2.4,0.2,3,0.7c0.5,0.5,0.8,1.5,0.8,2.9l-3.1,0.7v-1.7h-9.9v3.2h9.4c1.4,0,2.4,0.2,3,0.7c0.5,0.5,0.8,1.4,0.8,2.8V255z"
			/>
		<path class="st2" d="M174.1,255c0,1.4-0.3,2.3-0.8,2.8c-0.5,0.5-1.5,0.7-3,0.7H161c-1.5,0-2.6-0.3-3-0.8c-0.5-0.5-0.7-1.6-0.7-3.1
			l3.1-0.6v1.8H171v-3.4h-9.4c-1.4,0-2.4-0.2-2.9-0.7s-0.8-1.4-0.8-2.8V247c0-1.4,0.3-2.3,0.8-2.8c0.5-0.5,1.5-0.7,2.9-0.7h8.6
			c1.4,0,2.4,0.2,3,0.7c0.5,0.5,0.8,1.5,0.8,2.9l-3.1,0.7v-1.7h-9.9v3.2h9.4c1.4,0,2.4,0.2,3,0.7c0.5,0.5,0.8,1.4,0.8,2.8V255z"/>
		<path class="st2" d="M196.9,255c0,1.4-0.3,2.3-0.8,2.8c-0.5,0.5-1.5,0.7-2.9,0.7h-9.5c-1.4,0-2.4-0.2-2.9-0.7
			c-0.5-0.5-0.8-1.4-0.8-2.8v-11.5h3.5v12.2h10v-12.2h3.5V255z"/>
		<path class="st2" d="M219.5,249.7c0,1.9-1.1,2.9-3.4,2.9h-9.5v5.9h-3.4v-15h12.9c2.3,0,3.4,1,3.4,2.9V249.7z M216.1,248.9v-1.6
			c0-0.5-0.1-0.8-0.4-1c-0.2-0.1-0.6-0.2-1.1-0.2h-7.9v4h7.9c0.5,0,0.9-0.1,1.1-0.2C215.9,249.7,216.1,249.4,216.1,248.9z"/>
		<path class="st2" d="M239,258.5h-15.6v-15h15.4v2.6h-11.9v3.4h7v2.6h-7v3.7H239V258.5z"/>
		<path class="st2" d="M261.9,258.5h-5l-6.1-5.7h-3.3v5.7H244v-15H257c2.3,0,3.4,1,3.4,2.9v3.5c0,1.5-0.6,2.4-1.8,2.7
			c-0.4,0.1-1.7,0.2-3.6,0.2L261.9,258.5z M257,249.1v-1.8c0-0.5-0.1-0.8-0.4-1c-0.2-0.1-0.6-0.2-1.1-0.2h-7.9v4.2h7.9
			c0.5,0,0.9-0.1,1.1-0.2C256.8,249.9,257,249.6,257,249.1z"/>
		<path class="st2" d="M282.4,255c0,1.4-0.3,2.3-0.8,2.8c-0.5,0.5-1.5,0.7-3,0.7h-9.3c-1.5,0-2.6-0.3-3-0.8
			c-0.5-0.5-0.7-1.6-0.7-3.1l3.1-0.6v1.8h10.7v-3.4h-9.4c-1.4,0-2.4-0.2-2.9-0.7s-0.8-1.4-0.8-2.8V247c0-1.4,0.3-2.3,0.8-2.8
			c0.5-0.5,1.5-0.7,2.9-0.7h8.6c1.4,0,2.4,0.2,3,0.7c0.5,0.5,0.8,1.5,0.8,2.9l-3.1,0.7v-1.7h-9.9v3.2h9.4c1.4,0,2.4,0.2,3,0.7
			c0.5,0.5,0.8,1.4,0.8,2.8V255z"/>
		<path class="st2" d="M302.2,246.2h-7v12.4h-3.5v-12.4h-6.9v-2.7h17.4V246.2z"/>
		<path class="st2" d="M323.3,255c0,1.4-0.3,2.3-0.8,2.8c-0.5,0.5-1.5,0.7-2.9,0.7h-11.1c-1.4,0-2.4-0.2-2.9-0.7
			c-0.5-0.5-0.8-1.4-0.8-2.8V247c0-1.4,0.3-2.3,0.8-2.8c0.5-0.5,1.5-0.7,2.9-0.7h11.1c1.4,0,2.4,0.2,2.9,0.7
			c0.5,0.5,0.8,1.4,0.8,2.8V255z M319.8,255.7v-9.5h-11.6v9.5H319.8z"/>
		<path class="st2" d="M347.1,258.5h-5l-6.1-5.7h-3.3v5.7h-3.5v-15h12.9c2.3,0,3.4,1,3.4,2.9v3.5c0,1.5-0.6,2.4-1.8,2.7
			c-0.4,0.1-1.7,0.2-3.6,0.2L347.1,258.5z M342.2,249.1v-1.8c0-0.5-0.1-0.8-0.4-1c-0.2-0.1-0.6-0.2-1.1-0.2h-7.9v4.2h7.9
			c0.5,0,0.9-0.1,1.1-0.2C342,249.9,342.2,249.6,342.2,249.1z"/>
		<path class="st2" d="M366.8,258.5h-15.6v-15h15.4v2.6h-11.9v3.4h7v2.6h-7v3.7h12.1V258.5z"/>
	</g>
</g>
</svg>
