<?xml version="1.0" encoding="UTF-8"?> <svg xmlns="http://www.w3.org/2000/svg" id="Layer_1" data-name="Layer 1" width="195" height="45.49" viewBox="0 0 195 45.49"><defs><style>.cls-1{fill:#010101;}.cls-2{fill:#e65125;}.cls-3{fill:#e41954;}</style></defs><path class="cls-1" d="M17.55,43.57l-.84-2.89a6.72,6.72,0,0,1-6,3.73c-5.59,0-9.12-4-9.12-9.64V9.58C1.55,4.5,5.79,0,11.89,0S22,4.5,22,9.58v7.06H14.21V9.45a1.92,1.92,0,0,0-2.19-2,1.9,1.9,0,0,0-2.12,2V35.09a2,2,0,0,0,2.19,2.12,2.06,2.06,0,0,0,2.25-2.12v-7H12.15V22.3H22.3V43.57Z"></path><path class="cls-1" d="M36.19,20.18c.9,0,1.41-.58,1.41-1.93V9.64c0-1.41-.51-1.93-1.41-1.93H33.87V20.18Zm-1.1,6.23H33.87V43.57H25.58V.77H37.34c4.25,0,8.1,2.57,8.1,8.55v8.74c0,3.08-1,5.14-3.21,6.3l3.92,19.21H38.5Z"></path><path class="cls-1" d="M58.24,13.37,56.37,30h3.28Zm2.7,30.2-.58-6.87H55.47l-.7,6.87H47.31L53.54.77h9.52l6.17,42.8Z"></path><rect class="cls-1" x="109.78" y="12.18" width="8.29" height="31.39"></rect><polygon class="cls-1" points="132.33 8.29 132.33 43.58 124.1 43.58 124.1 8.29 109.78 8.29 109.78 0.77 146.65 0.77 146.65 8.29 132.33 8.29"></polygon><rect class="cls-1" x="138.36" y="12.18" width="8.29" height="31.39"></rect><path class="cls-2" d="M164.49,35.61a6.14,6.14,0,1,1-6.14-6.14,6.13,6.13,0,0,1,6.14,6.14"></path><path class="cls-3" d="M164.49,20.15A6.14,6.14,0,1,1,158.35,14a6.13,6.13,0,0,1,6.14,6.14"></path><polygon class="cls-1" points="71.24 8.29 71.24 43.28 79.41 43.28 79.41 25.17 85.8 25.17 85.8 18.07 79.41 18.07 79.41 8.13 88.28 8.13 88.28 7.78 88.28 0.67 71.24 0.67 71.24 8.29"></polygon><polygon class="cls-1" points="90.41 0.67 90.41 8.29 90.41 43.28 98.93 43.28 98.93 25.17 104.97 25.17 104.97 18.07 98.93 18.07 98.93 8.13 107.46 8.13 107.46 7.78 107.46 0.67 90.41 0.67"></polygon></svg> 