<svg id="Layer_1" data-name="Layer 1" xmlns="http://www.w3.org/2000/svg" viewBox="0 0 459.24 413.36"><path d="M8.57,358.63a28.34,28.34,0,0,0-8,19.82c0,8,2.73,15.08,8.69,20.46a30.08,30.08,0,0,0,20.32,8c4.38,0,7.75-1.07,12.42-2.51V387.5a16.21,16.21,0,0,1-12.14,5.74c-8.75,0-14.64-6.18-14.64-14.72s5.82-15,14.43-15a15.28,15.28,0,0,1,12.35,6V352.61a32.9,32.9,0,0,0-12.85-2.74A29.39,29.39,0,0,0,8.57,358.63Z" style="fill:#006c8b"/><path d="M63.64,374.64H63.5v-6H50.43v36.84H63.5V390.59c0-6.32,1.79-11.13,9-11.13a10.65,10.65,0,0,1,5.53,1.21V368.11H75.56C70.46,368.11,66.15,370.12,63.64,374.64Z" style="fill:#006c8b"/><path d="M100.61,367.39c-12,0-20.39,7.4-20.39,19.67,0,12.71,9.12,19.61,21.33,19.61,8.4,0,16.66-3.95,18.74-12.64H107.72a6.52,6.52,0,0,1-6.25,3.37c-5.38,0-8.18-2.86-8.18-8.18h27.5v-1.37C120.79,375.29,113.4,367.39,100.61,367.39Zm-7.1,14.29c.79-3.8,3.95-5.82,7.75-5.82a7.36,7.36,0,0,1,7.4,5.82Z" style="fill:#006c8b"/><path d="M154.46,372.2c-2.73-3.23-7.18-4.81-11.41-4.81-10.92,0-18.46,9.05-18.46,19.6s7.69,19.68,18.6,19.68c4.31,0,8.83-1.65,11.13-5.32h.14v4.1h13.07v-59.6H154.46Zm-8,23.13c-5.31,0-8.4-3.6-8.4-8.27a8.4,8.4,0,0,1,16.8,0C154.89,391.73,151.8,395.33,146.49,395.33Z" style="fill:#006c8b"/><rect x="175.71" y="368.61" width="13.07" height="36.83" style="fill:#006c8b"/><path d="M182.25,347.15a7.32,7.32,0,1,0,7.32,7.32A7.35,7.35,0,0,0,182.25,347.15Z" style="fill:#006c8b"/><polygon points="211.68 357.56 198.62 357.56 198.62 368.61 194.38 368.61 194.38 379.38 198.62 379.38 198.62 405.45 211.68 405.45 211.68 379.38 219.08 379.38 219.08 368.61 211.68 368.61 211.68 357.56" style="fill:#006c8b"/><path d="M281,379.81c0,7-.5,14.73-9.54,14.73s-9.55-7.69-9.55-14.73v-28.5H247.86v30.44c0,7,.29,13.86,5.67,19.11,4.53,4.44,11.64,6,18,6s13.42-1.58,17.95-6c5.38-5.25,5.67-12.15,5.67-19.11V351.31H281Z" style="fill:#006c8b"/><path d="M328.7,367.39c-5.09,0-8.75,1.51-11.76,6h-.15v-4.74H303.73v36.84h13.06V386.34c0-4.59,1.51-8.54,6.82-8.54,6.46,0,5.88,6.18,5.88,9.7v17.95h13.08V382.69C342.57,373.63,338.62,367.39,328.7,367.39Z" style="fill:#006c8b"/><path d="M357.72,347.15a7.32,7.32,0,1,0,7.32,7.32A7.35,7.35,0,0,0,357.72,347.15Z" style="fill:#006c8b"/><rect x="351.19" y="368.61" width="13.06" height="36.83" style="fill:#006c8b"/><path d="M392.32,367.39c-11.85,0-22.18,7.11-22.18,19.67s10.41,19.61,22.18,19.61,22.19-7.11,22.19-19.61S404.17,367.39,392.32,367.39Zm0,27.94c-5.31,0-8.4-3.6-8.4-8.27a8.4,8.4,0,0,1,16.8,0C400.72,391.73,397.63,395.33,392.32,395.33Z" style="fill:#006c8b"/><path d="M445.38,367.39c-5.1,0-8.76,1.51-11.78,6h-.14v-4.74H420.4v36.84h13.06V386.34c0-4.59,1.5-8.54,6.82-8.54,6.46,0,5.89,6.18,5.89,9.7v17.95h13.07V382.69C459.24,373.63,455.29,367.39,445.38,367.39Z" style="fill:#006c8b"/><path d="M71.31,179.24c4.26,18.48,60.88,68,63.5,70.87,10.42,11.19,5,13.89-15.47,61.15h77.45s13.92-68.14,14.72-76.65-4.69-20.92-10.12-25.55-50.78-45.15-55.76-49.6c-6.92-6.15-25.52,3.91-16.24,14,5.62,6,21.32,17.61,24,24,5.54,13.15-7.81,5.63-7.81,5.63s-28.15-20.85-41.71-31.17c-9.91-7.55-18.31-51.79-20.15-58.1C81.94,107.7,69.28,91,63.63,101,59.23,108.88,70.37,175.16,71.31,179.24Z" style="fill:#006c8b"/><path d="M388.52,179.24c-4.25,18.48-60.87,68-63.49,70.87-10.42,11.19-5,13.89,15.46,61.15H263.05s-13.92-68.14-14.73-76.65,4.7-20.92,10.12-25.55,50.79-45.15,55.77-49.6c6.91-6.15,25.52,3.91,16.24,14-5.63,6-21.32,17.61-24,24-5.53,13.15,7.82,5.63,7.82,5.63s28.15-20.85,41.7-31.17c9.92-7.55,18.32-51.79,20.15-58.1,1.77-6.1,14.44-22.85,20.09-12.77C400.61,108.88,389.46,175.16,388.52,179.24Z" style="fill:#006c8b"/><path d="M337.47,30.06C309.4,14.6,272.32,5.94,232.8,5.54c-1,0-1.92,0-2.89,0s-1.92,0-2.88,0c-39.52.4-76.6,9.06-104.67,24.52-29,16-45,37.34-45,60.12s16,44.14,45,60.12c28.06,15.45,65.14,24.1,104.67,24.51,1,0,1.92,0,2.88,0s1.93,0,2.89,0c39.53-.41,76.61-9.06,104.67-24.51,29-16,45-37.33,45-60.12S366.5,46.05,337.47,30.06ZM196.61,10.45c-24,7.38-43.8,22.52-55.14,41.88H97.28C117.34,31.43,153.45,15.83,196.61,10.45Zm-21,44.78h23.81c0,1.24.08,2.46,0,3.57-.71,10.44-2.33,22.24-10.52,29.86-.71.72-2.06-2.07-2.23-2.85C185.18,79,183.4,72.2,179.2,68.15c-2.42-2.26-9.33-5-13.94-2.36C158,69.87,156.5,80,154.15,87.64a14.42,14.42,0,0,0-.6,4.18H134c0-.55,0-1.09,0-1.64a71.41,71.41,0,0,1,9.22-35h14.4a7.18,7.18,0,0,0,2.57,4,7.55,7.55,0,0,0,2.66,1.54c2.48.42,5,.42,7.28,1.15a3.05,3.05,0,0,0,2.25-.43A5.89,5.89,0,0,0,175.62,55.23Zm23.85,68.65c0,2.07.05,4.34.26,6.67H180.49a106.48,106.48,0,0,1,2.63-24.7c.28-1.13.55-2.25.91-3.39.49-1.68,5.6,3.08,8,.89s5.17-4.54,5.78-8.13c1.88,1.72,1.83,4,1.37,6.14a29.07,29.07,0,0,0-.7,4.49C198,112,199.42,117.92,199.47,123.88Zm-29.31,11.06c.47-.5,3.06-1.06,3.33.58,1.12,5.77-1.47,11-.06,17.07.75,3.28,3.68,4.35,5.24,6.7A97.4,97.4,0,0,1,165.88,151a48.7,48.7,0,0,1,2.9-8C169.76,140.61,168.33,137,170.16,134.94Zm-23.69-4.39a72.65,72.65,0,0,1-12.4-35.83h19.7c.58,3.76,2.17,7.47,3.55,11.13a37.65,37.65,0,0,1,2.11,7.34,78.67,78.67,0,0,1,.12,17.36Zm12.85,2.91c-.32,3.78-.64,7.58-.73,11.38a85.1,85.1,0,0,1-10.08-11.38ZM80.25,90.18c0-12.5,5.18-24.35,14.39-35h45.2a74.16,74.16,0,0,0-8.82,35c0,.55,0,1.09,0,1.64H80.29C80.27,91.27,80.25,90.73,80.25,90.18Zm20.33,41.1C89,120.43,81.82,108,80.48,94.72h50.68A75.09,75.09,0,0,0,143,130.55H100.58Zm2.41,2.18h42a87.51,87.51,0,0,0,13.64,15.3c0,.73,0,1.45.08,2.17a6.5,6.5,0,0,0,5.8,6.26l1-.21c.39-.16.51-.48.39-.73,0,0-.05.27-.17-.69a8.77,8.77,0,0,1-.1-1.14,103.8,103.8,0,0,0,31,15.48C157.28,165,123.8,151.61,103,133.46ZM200.41,168a104.45,104.45,0,0,1-18.92-7.24c-.24-9.09-.9-18.22-1-27.29h19.59A37,37,0,0,0,201,138c2,7.19,2.25,14.83,1.86,22.31C202.76,163.32,198.68,166.24,200.41,168Zm28.05,3.94A110.85,110.85,0,0,1,203,168.67c2.38-.56,5.08-3.53,7.76-4.87,1.51-.74,1.16-3.44,1.32-5.11.78-8.45-1.51-16.89-1.2-25.23h8.63a127.85,127.85,0,0,1-.83,28.35c3,0,4.74,3.06,7.74,3.11-1,1.32,1.11,1.9.77,3.07h1.26Zm-12.87-59.68a105.33,105.33,0,0,1,3.65,18.3h-8.12a29.17,29.17,0,0,1,.6-3.42C213,122.14,210.16,115.92,215.59,112.25Zm12.87-70.4c-6.69-2.11-14.67.84-22.07,1.9-4.07.57-6.06,3.23-6.79,7.39-.06.39-.1.79-.13,1.19H174.69a12.07,12.07,0,0,0-4.8-5.79c-1.57-.85-3.62-1.89-5.56-1.68a12.39,12.39,0,0,0-3.82,1.59,6.4,6.4,0,0,0-3.63,5.88h-12c15.84-25.75,47.32-43.45,83.61-43.91Zm134.1,10.48h-44.2C307,33,287.26,17.83,263.22,10.45,306.38,15.83,342.5,31.43,362.56,52.33Zm-52.08,64.42a33.79,33.79,0,0,1-2.14-10.9,17.6,17.6,0,0,1,.58-5.07c.72-2.53,4-3.72,3.73-6.06h13.11a71.92,71.92,0,0,1-9.68,31.47c-.08-.18-.16-.37-.25-.55C314.34,122.61,311.5,119.89,310.48,116.75Zm.84,16.71A84.94,84.94,0,0,1,301.08,145a39.54,39.54,0,0,1,2.24-9.12,6.14,6.14,0,0,1,1.68-2.42Zm0-41.64A7.48,7.48,0,0,0,309.28,89c-8.19-6.26-17.41-5.9-24.49,2.77l-.05.06h-4c-3.58-10.5-7.42-20.55-10.54-31.36a32.9,32.9,0,0,0-2-5.23h48.5a71.41,71.41,0,0,1,9.22,35c0,.55,0,1.09,0,1.64Zm-14.42,56.85c-1.11.93-2.24,1.82-3.4,2.7.59-1.57,1.64-2.91,2.58-2.87A3.33,3.33,0,0,1,296.91,148.67Zm-14.68-18.12H265a10.84,10.84,0,0,1,6.29-5.91c.64-6.41-.3-12.62-1.55-18.79-.74-3.71-1.57-7.41-2.19-11.13h9.62c.36.49.71,1,1.08,1.46,1.32,1.65,6.9-1.2,8.87-.15,3.44,1.91,1.16,6-.19,9.82a12.84,12.84,0,0,0-.78,3.26c-.46,6.14-2.69,12.18-4.23,18.57-.16.56-1.52.81-2.1,1.62A12,12,0,0,1,282.23,130.55ZM267,79c0-.16,2.35-.28,2.47,0a61.12,61.12,0,0,0,5.82,12.75h-8.14A47.65,47.65,0,0,1,267,79ZM231.36,8.42c36.3.46,67.78,18.16,83.63,43.91H266.46a13.5,13.5,0,0,0-5.41-4.66c-4.92-2.26-9.16.47-11.88,4.66h-8.72a30.83,30.83,0,0,0-8.48-8.8c-.2-.14-.4-.24-.61-.36Zm16.26,46.81a20.57,20.57,0,0,0-1.36,4.32c-.06.33-1,.73-1.25,1.59a53.35,53.35,0,0,0-2.81-5.91ZM231.36,88.37c1.31-4.68,6-10.2,12.06-9.83a6.06,6.06,0,0,1,2.73,1.21,62.35,62.35,0,0,1-.08,12.07H231.36Zm0,6.35h14.39c-.48,3.73-1.17,7.43-1.92,11.13-1.25,6.47-2.71,13-3.46,19.56a10.8,10.8,0,0,1,5.88,5.14H231.36Zm0,77.21V133.46h16a51.88,51.88,0,0,1,1.36,7.34A26.7,26.7,0,0,0,249,145c1.92,6.54.62,13.76.62,20.71.43-2.72,4.19-2.65,4.65-5.37,1.53,1.61,2.21,3.19,3.6,4.85.46.52.59,1.89,1,2.85.63-9.05-1.69-18.23,2.27-27.12,1.05-2.28,1.74-4.91,2.63-7.41h26.06c-.7,6.51,2.43,12.69,1.89,19.18C275.4,164.43,254.35,171.64,231.36,171.93Zm31.86-2a102.67,102.67,0,0,0,36-19.35,8.65,8.65,0,0,1,1.51,3.93c-.08-1.73-.07-3.49,0-5.24a88,88,0,0,0,14.18-15.78h42C336,151.61,302.55,165,263.22,169.9Zm96-38.58v-.77H318a10.56,10.56,0,0,1-.54-1.06,75.11,75.11,0,0,0,11.18-34.77h50.68C378,108,370.84,120.46,359.21,131.32Zm-30.42-39.5c0-.55,0-1.09,0-1.64a74.16,74.16,0,0,0-8.82-35h45.22c9.21,10.6,14.38,22.45,14.38,35,0,.55,0,1.09,0,1.64Z" style="fill:#006c8b"/><path d="M217.32,38.57c3,1,5.21-1.34,6.08-3.59s1.42-4.31,2-6.57c.86-3.16-.93-5.77-2-8.46-1.57-3.94-6.36-4-9.91-2.59-1.43.57-2,2.44-2.08,3.74-.54,5.17.68,10.22,1.88,15.4C213.67,38.16,215.77,38,217.32,38.57Z" style="fill:#006c8b"/><path d="M251.11,41a15.08,15.08,0,0,0,14.33-2.81c3-2.4,3.81-7,2.41-10.82a7.11,7.11,0,0,0-8.67-4.13,11.79,11.79,0,0,0-6.4,5.37c-.85,1.4-2.34,2.33-2.56,4.08s.39,3.4-.28,5.09A2.44,2.44,0,0,0,251.11,41Z" style="fill:#006c8b"/><path d="M303.54,65.37a10.29,10.29,0,0,0-3.8-1.86,9.15,9.15,0,0,0-8,1.41c-3.14,2.21-4,6-3.36,9.56.38,2,2.14,2.51,4.06,2.72-.23,1,1.31.65,1.16,1.57,1.11.11,2,1,2.8,1.28,2.64.88,6.5.26,7.35-3.23,0,0,.52.1.65,0s0-.54.1-.68.57,0,.68-.08,0-.65.06-.67c2.3-.74,2.78-4,2.1-5.78A10.39,10.39,0,0,0,303.54,65.37Z" style="fill:#006c8b"/></svg>