<?xml version="1.0" encoding="utf-8"?>
<!-- Generator: Adobe Illustrator 23.0.1, SVG Export Plug-In . SVG Version: 6.00 Build 0)  -->
<svg version="1.1" id="TG4_logo_gradient" xmlns="http://www.w3.org/2000/svg" xmlns:xlink="http://www.w3.org/1999/xlink" x="0px"
	 y="0px" viewBox="0 0 683 250" enable-background="new 0 0 683 250" xml:space="preserve">
<g>
	
		<radialGradient id="SVGID_1_" cx="410.8222" cy="-245.6679" r="407.7237" gradientTransform="matrix(5.522704e-17 0.9019 -1.6245 9.947495e-17 4.9227 -579.8463)" gradientUnits="userSpaceOnUse">
		<stop  offset="0.5781" style="stop-color:#343434"/>
		<stop  offset="1" style="stop-color:#000000"/>
	</radialGradient>
	<path fill="url(#SVGID_1_)" d="M414,0v250H0V0H414z M683,0v250H432.1V0H683z"/>
	<linearGradient id="SVGID_2_" gradientUnits="userSpaceOnUse" x1="336.5327" y1="82.7331" x2="348.5283" y2="180.9601">
		<stop  offset="0.1988" style="stop-color:#FFFFFF"/>
		<stop  offset="0.9133" style="stop-color:#C3C3C3"/>
	</linearGradient>
	<path fill="url(#SVGID_2_)" d="M184.8,67.4l16.2-33H36.2v33h60.6v151.8h38V67.4H184.8z M285.3,219.2c50.1,0,92.4-37.1,92.4-93.3
		V115h-83.8l-15.7,31.7H336c-6.8,21.5-24.4,36.3-50,36.3c-32.5,0-55.5-23.9-55.5-57.2c0-33.6,22-57.9,53-57.9
		c18.6,0,32.1,9.5,39.4,20h47.7c-18.1-38-52.5-56.2-87-56.2c-50.7,0-92.9,37.1-92.9,93.3C190.6,179.3,231,219.2,285.3,219.2z
		 M641.4,168.6v-33h-29.1v-103c-5.4-0.9-12.7-0.9-17.2-0.9c-67.6,0-122.3,49.5-122.3,121.4c0,4.5,0.2,10.3,0.9,15.6h100.5v56.1
		l38.1-11.8v-44.3H641.4z M512,135.6c4-33.8,29.9-60.4,62.2-66.6v66.6H512z"/>
</g>
</svg>
