<svg enable-background="new 0 0 2017.5 202.7" viewBox="0 0 2017.5 202.7" xmlns="http://www.w3.org/2000/svg"><g fill="#1f4d7a"><path d="m0 37.2c.5-1.4 1.2-2.7 1.6-4.1 8.3-30.1 46.1-40.2 68.3-18.2 24.3 24.1 48.5 48.3 72.5 72.6 12.5 12.6 15.3 27.9 9 44.2-6.5 16.7-19.7 25.1-37.4 25.8-11.3.5-21.4-3.6-29.5-11.6-24.2-24-48.4-48.3-72.5-72.5-5.6-5.5-9-12.2-11-19.7-.2-.8-.7-1.5-1-2.2 0-4.8 0-9.5 0-14.3z"/><path d="m2017.5 56c-.8 1.6-1.7 3.2-2.4 4.9-16.5 45.1-33 90.2-49.4 135.3-.7 1.8-1.2 2.9-3.5 2.9-10.6-.1-21.2-.1-31.9-.1-.6 0-1.2-.1-2.2-.2 3.1-8.7 6-17.1 9-25.5 2.3-6.5 4.7-12.9 6.8-19.4.6-1.9.6-4.5-.1-6.3-11.9-29.3-24-58.6-36.1-87.9-.6-1.3-1-2.7-1.6-4.5 1.5-.1 2.6-.2 3.7-.2 10.9 0 21.7.1 32.6-.1 2.9 0 4.2 1 5.1 3.6 4.5 13.2 9.1 26.4 13.7 39.6.6 1.6 1.2 3.2 2.1 5.8.8-1.9 1.3-2.9 1.6-4 4.7-13.8 9.4-27.6 13.9-41.5.9-2.7 2.2-3.6 5.1-3.6 9.9.2 19.7.1 29.6.1 1.4 0 2.7.3 4.1.4-.1.2-.1.4-.1.7z"/><path d="m258.1 59.2c5.8-6.1 11.5-12 17.3-17.9 8.7-8.8 17.5-17.5 26.2-26.2 15.5-15.5 41.1-15.9 57.3-.9 16.1 14.9 17.6 40.9 2.7 57.1-10.6 11.6-22.1 22.4-33.2 33.6-13.2 13.3-26.4 26.5-39.7 39.7-17 16.9-43.5 17.8-60.7 1.1-22.1-21.3-43.6-43.3-65.3-65-5.6-5.6-11.5-11-15.2-18.3-12.5-24.8 4.3-55.9 32-58.8 13.8-1.5 25.5 2.7 35.3 12.6 13.2 13.3 26.5 26.5 39.8 39.7.8.8 1.8 1.7 3.5 3.3z"/><path d="m492.2 91.5c1.2-4.8 2.4-9.5 3.5-14.3 5.1-21.5 10.3-43 15.2-64.5.7-3.1 1.9-4.3 5.2-4.2 11.4.2 22.7.1 34.1 0 2.8 0 4.1.8 4.8 3.7 5.8 25.5 11.9 51 17.9 76.4.2.8.5 1.6 1.2 3.4.6-1.7 1-2.6 1.3-3.6 6.5-25.2 13.1-50.4 19.5-75.7.8-3.3 2.1-4.4 5.5-4.3 11.5.2 23 .1 34.5.1 1.1 0 2.2.1 3.8.2-1.4 4.7-2.7 9.1-4.1 13.5-13.7 44-27.5 88-41.1 132-.9 2.8-2.1 3.6-5 3.6-9.7-.2-19.5-.1-29.2 0-2.5 0-3.7-.6-4.3-3.3-6.6-27.5-13.3-55-20-82.5-.3-1.2-.7-2.4-1.7-3.7-.3.9-.7 1.8-1 2.8-7.2 27.8-14.4 55.5-21.4 83.3-.7 2.6-1.7 3.4-4.3 3.4-9.7-.1-19.5-.2-29.2 0-2.8 0-4.1-.7-5-3.6-14.6-47.2-29.3-94.3-44-141.4-.4-1.2-.6-2.4-1-4 1.5-.1 2.7-.3 3.9-.3 11.4 0 22.8.1 34.1-.1 3.3-.1 4.8.9 5.6 4.2 6.2 24.6 12.5 49.1 18.9 73.6.5 1.7 1 3.5 1.6 5.2.2.1.5.1.7.1z"/><path d="m1314.6 83c1.1-2.1 1.9-3.6 2.7-5.1 11-22 22-44 32.9-66 1.1-2.3 2.3-3.4 5-3.4 11.2.1 22.5.1 33.7 0 2.5 0 3.5.7 3.5 3.4-.1 47.8-.1 95.7-.1 143.5 0 .6-.1 1.2-.3 2.1-12.9 0-25.7 0-39 0 0-23.9 0-47.8 0-71.6-.3-.1-.7-.3-1-.4-.7 1.1-1.6 2.2-2.2 3.3-7 12.9-14.1 25.9-20.9 38.9-1.3 2.5-2.8 3.3-5.5 3.2-6-.2-12-.2-18 0-2.9.1-4.4-.8-5.8-3.4-7.1-13.6-14.4-27.1-21.6-40.6-.4-.7-.8-1.4-2-2-.1 1.2-.2 2.3-.2 3.5 0 21.6-.1 43.2 0 64.8 0 3.5-.8 4.8-4.5 4.7-10.2-.3-20.5-.1-30.7-.1-1.3 0-2.7 0-4.2 0-.1-1.7-.2-2.9-.2-4.1 0-47 0-93.9-.1-140.9 0-3.2.7-4.4 4.1-4.3 11 .2 22 .2 33 0 2.8 0 4.1 1.1 5.4 3.5 11.2 22.5 22.5 44.8 33.8 67.3.6 1.1 1.2 2.1 2.2 3.7z"/><path d="m1571.4 149.6c-.1 2.9-.2 5.3-.4 8.1-1.5.1-2.8.2-4.2.2-8.9 0-17.7-.2-26.6.1-3.7.1-4.9-.8-4.8-4.7.2-37.8.1-75.6.1-113.5 0-11 .1-22-.1-33 0-2.8.6-4 3.7-3.9 10.1.2 20.2.2 30.4 0 3-.1 3.8.9 3.8 3.8-.1 17.7-.1 35.5-.1 53.2v5c3.1-2.4 5.3-4.6 7.9-6.2 15.1-9.7 36.4-7.1 49.7 5.9 9.8 9.5 14.5 21.3 15.7 34.7 1.4 15.2-.9 29.6-10 42.4-13 18.4-38.1 22.5-54.1 15.2-3.8-1.8-7-4.6-11-7.3zm37.9-43c.1-8.8-4.3-16.4-11.6-19.4-7.1-2.9-15.3-1.1-20.6 4.5-6.1 6.4-7.2 18.1-2.5 26.2 3.9 6.8 10 10 17.8 9.4 7.9-.6 13-5.3 15.5-12.7.8-2.5.9-5.3 1.4-8z"/><path d="m947.4 64.9c0-21 0-41 0-61.6 1.5-.1 2.8-.3 4.2-.3 9.7 0 19.5.1 29.2-.1 3.4-.1 4.3 1 4.2 4.2-.1 22 0 43.9 0 65.9v79.4c0 5.4 0 5.4-5.6 5.4-8.7 0-17.5 0-26.2 0-1.2 0-2.4 0-4.2 0 0-3 0-5.7 0-9.5-6.2 7.3-13.3 10.6-21.5 11.5-24 2.7-44.2-10.2-50.9-33.6-6.1-21.7-4.1-42.5 11.5-60 14.1-15.9 40.8-18.8 56.8-3.1.6.6 1.2.9 2.5 1.8zm1.5 41.9c.1-11.4-7.2-20.2-17.2-21-12.4-.9-21.4 8.6-20.5 21.9.6 8.2 3.5 15.2 11.7 18.5 13.2 5.3 25.9-4.4 26-19.4z"/><path d="m1458.9 160.1c-12.4-.3-28.3-6.1-40.1-21.2-18.6-23.9-14.9-76 33.9-85 12.4-2.3 24.7-1.6 36.5 3.2 18.8 7.6 29.6 21.7 32 41.7 2.4 20.6-3.4 38.3-20.8 51-9.6 7-21.7 10.4-41.5 10.3zm-12.3-53.5v2.2c.7 11 10.5 19.7 20.5 18.2 9.1-1.3 14.4-6.9 16.2-17 1.6-9.2-2.2-17.9-9.5-21.8-12.9-7-27.3 2.7-27.2 18.4z"/><path d="m756.3 157.6c0-34.2 0-67.9 0-102.1 1.2-.1 2.4-.3 3.6-.3 10 0 20 .1 30-.1 3.3-.1 4.2 1.2 3.9 4.1-.2 1.9 0 3.9 0 6.5 2.3-2 3.8-3.4 5.5-4.7 13.3-10.1 27.9-10.7 42.8-4.4 10.3 4.3 14.6 13.6 16.5 23.9 1 5.5 1.4 11.1 1.5 16.7.2 18.6.1 37.2.1 55.8v4.3c-12.7 0-25 0-37.7 0 0-1.6 0-3 0-4.5 0-16.2 0-32.5 0-48.7 0-2.7-.2-5.5-.7-8.2-1.4-6.8-4.2-9.3-11-10.1-6-.7-12 1.9-14 7.1-1.6 4.2-2.5 8.9-2.6 13.4-.3 15.6-.2 31.2-.1 46.8 0 3.3-.7 4.6-4.3 4.5-9.7-.3-19.5-.1-29.2-.1-1.6.3-2.8.2-4.3.1z"/><path d="m674.8 55.3v4.9c0 16.2 0 32.5.1 48.7 0 3.4.7 7 1.7 10.3 1.3 4.6 4.7 7.3 9.5 7.9s8.9-.6 12-4.5c4.1-5.1 4.5-11.3 4.5-17.4.1-14.6 0-29.2 0-43.8 0-7-.4-6.1 5.9-6.1h27 4.3v102.6c-2 0-4 0-5.9 0-9.2 0-18.5-.1-27.7.1-2.8.1-3.8-.9-3.6-3.6.2-2.2 0-4.4 0-7.5-2.5 2.3-4.1 3.8-5.7 5.3-13.7 12.2-40.4 10.2-50.5-3.3-5.6-7.5-8.3-16-8.5-25.1-.5-21.7-.4-43.4-.5-65.2 0-1.6-.3-3.4 2.3-3.4 11.4.1 22.9.1 35.1.1z"/><path d="m1036.2 116c.5 5.2 3.2 8.4 6.9 10.9 8.9 5.8 23 4.7 32.4-2.4 1.7-1.3 3.2-2.7 5.3-4.4 6.7 7.3 13.2 14.6 20 22-4.1 5.3-9.2 9.1-15.1 11.6-17.5 7.6-35.5 9.4-53.6 2.7-19.8-7.3-30.4-22.4-32.7-43.2-2.8-24.8 8.7-47.8 32.4-56.6 30.5-11.3 65.5 3 71.5 38.7 1 5.7.3 11.7.4 17.5.1 2.9-1.9 2.9-4.1 2.9-19.5 0-39 0-58.5 0-1.4.1-3 .2-4.9.3zm.1-20.8h31.4c-1.1-9.3-7.8-14.5-17.4-13.9-7.6.6-14.1 6.8-14 13.9z"/><path d="m1839.2 22.5c12.4-1.2 24.5-2.4 37.1-3.6v17.9c0 4.7.1 9.5-.1 14.2-.1 2.9.7 4 3.8 3.9 5-.2 10 .1 15-.1 2.6-.1 3.8.6 3.8 3.5-.2 7.9-.1 15.7 0 23.6 0 2.3-.7 3.1-3 3-5.2-.1-10.5.1-15.7-.1-3.1-.1-3.8 1-3.7 3.9.2 9.5 0 19 .1 28.5 0 9.8 3 12.1 12.4 10 .5-.1.9-.2 1.6-.4.4.8.9 1.5 1.2 2.2 2.5 6.9 4.9 13.9 7.4 20.8.7 2 .6 3.2-1.4 4.2-11.7 6.1-24.2 7.8-37 5.1-12.2-2.6-20.9-13.7-21.4-27.1-.5-14.2-.3-28.5-.2-42.7 0-3.4-.9-4.8-4.4-4.4-2.1.2-4.2 0-6.6 0 0-10.1 0-19.8 0-30.1 2.4 0 4.7-.2 7 0 2.9.3 4-.8 3.9-3.8-.2-8.4-.1-16.7-.1-25.1.1-.9.2-1.9.3-3.4z"/><path d="m1720 3.2h37c.1 1.5.3 2.9.3 4.4 0 48.6 0 97.1.1 145.7 0 3.8-.9 4.9-4.8 4.8-9.7-.3-19.5-.2-29.2 0-2.7 0-3.7-.6-3.7-3.5.1-49.4.1-98.9.1-148.3 0-1 .1-1.8.2-3.1z"/><path d="m1156.3 55v13.6c8.1-9.6 16.9-15.7 29.1-15.6v39.6c-1.2.1-2.3.1-3.5.2-2.7.1-5.5.1-8.2.4-10.8 1.3-17.1 8-17.2 19-.2 13.7-.1 27.5-.1 41.2v4.3c-12.6 0-24.8 0-37.4 0-.1-1.3-.3-2.6-.3-3.9 0-31.5 0-62.9-.1-94.4 0-3.6.9-4.8 4.6-4.7 9.6.3 19.2.1 28.9.1 1.2 0 2.6.1 4.2.2z"/><path d="m1662.4 55c1.2-.1 2.4-.2 3.6-.2 10 0 20 .1 30-.1 2.8 0 4 .6 4 3.7-.1 31.9-.1 63.9-.1 95.8 0 1.1-.2 2.2-.3 3.5-12.5 0-24.7 0-37.2 0 0-34.1 0-68.2 0-102.7z"/><path d="m1777.9 157.5c-.1-1.4-.2-2.6-.2-3.8 0-31.5.1-62.9-.1-94.4 0-3.6 1.1-4.4 4.4-4.4 9.5.2 19 .3 28.5 0 3.9-.1 4.9 1.2 4.9 4.8-.1 23.3-.1 46.7-.2 70 0 8.1-.1 16.2 0 24.3 0 2.7-.7 3.7-3.6 3.7-10.4-.2-20.7-.1-31.1-.1-.7.2-1.6 0-2.6-.1z"/><path d="m1795.8 43.3c-11.4 0-20.4-8.5-20.5-20.1-.1-11.5 8.8-20.1 20.9-20.3 8.3-.1 15.4 2.4 19.7 9.8 4 6.9 3.9 14.2-.4 20.9-4.4 7-11.1 9.8-19.7 9.7z"/><path d="m1681.1 43.2c-11.1.9-21.4-7.8-21.7-19.5-.3-12 9.1-20.7 21.7-20.8 12.6 0 21.3 8.3 21.3 20.2 0 11.6-9.6 21-21.3 20.1z"/></g></svg>