<?xml version="1.0" encoding="utf-8"?>
<!-- Generator: Adobe Illustrator 24.1.0, SVG Export Plug-In . SVG Version: 6.00 Build 0)  -->
<svg version="1.1" id="Layer_1" xmlns="http://www.w3.org/2000/svg" xmlns:xlink="http://www.w3.org/1999/xlink" x="0px" y="0px"
	 viewBox="0 0 300 33.6" style="enable-background:new 0 0 300 33.6;" xml:space="preserve">
<style type="text/css">
	.st0{fill:#1F4D7A;}
</style>
<g id="Group_1236">
	<g id="Group_1235">
		<g>
			<g id="Group_1234">
				<path id="Path_3942" class="st0" d="M56.1,16.6c0.1,4.3-1.6,8.5-4.6,11.6c-5.8,6.2-15.5,6.5-21.7,0.7c-0.2-0.2-0.4-0.4-0.6-0.6
					c-3-3-4.7-7.1-4.7-11.4C24.3,12.4,26,8.2,29,5c2.8-3.2,6.9-4.9,11.1-4.9c4.3-0.1,8.4,1.7,11.3,4.8C54.5,8,56.2,12.2,56.1,16.6
					 M46.6,16.6c0-1.7-0.6-3.4-1.9-4.7C43.6,10.7,42,10,40.3,10c-1.7,0-3.3,0.7-4.5,1.9c-1.2,1.2-1.9,2.9-1.9,4.6
					c0,1.8,0.6,3.5,1.8,4.7c1.1,1.3,2.8,2,4.5,2c1.7,0,3.3-0.7,4.5-1.9C45.9,20,46.6,18.3,46.6,16.6"/>
				<path id="Path_3943" class="st0" d="M119.3,0.9h-9.2c-0.3,0-0.5,0.2-0.5,0.5v5.1l0,0V20c0,2.2-0.5,3.8-2.8,3.8
					c-2.1,0-2.7-1.6-2.7-3.8v-0.7l0,0V1.4c0-0.3-0.2-0.5-0.5-0.5h-9.2c-0.3,0-0.5,0.2-0.5,0.5v19.9c-0.1,3.2,1.2,6.3,3.5,8.4
					c2.4,2.2,5.7,3.4,9,3.3h0h0.7h0c3.3,0.1,6.5-1.1,9-3.3c2.3-2.2,3.6-5.2,3.5-8.4V1.4C119.7,1.1,119.5,0.9,119.3,0.9"/>
				<path id="Path_3944" class="st0" d="M143.3,14.3c-0.4-0.2-0.9-0.4-1.3-0.6l0,0c-0.3-0.1-0.6-0.2-0.9-0.3
					c-1.1-0.4-2.2-0.8-3.3-1.4c-1.5-0.8-1.8-1.4-1.7-1.9c0.5-2.7,3.4-2.4,3.5-2.4c2.1,0,4.5,3.5,4.5,3.5c0.1,0.2,0.3,0.2,0.5,0.1
					c0,0,0.1-0.1,0.1-0.1l4.1-6.3c0.1-0.2,0.1-0.5-0.1-0.7L148.4,4l0,0c-0.1-0.1-0.1-0.1-0.2-0.1l-0.4-0.3c0,0,0,0,0,0
					c-1.1-0.9-2.3-1.6-3.6-2.3c-1.6-0.7-3.3-1.1-5-1.2l0,0c-7.4-0.7-12.9,3.5-13.3,9.7c-0.2,3.5,0.7,5.9,3.9,8.2l0,0
					c1.6,0.7,2.7,1.5,4.1,2s2.1,0.8,3.2,1.2c1.6,0.7,2.2,1.8,2.1,2.3c-0.1,1.3-0.9,1.9-2.4,2.1c-0.4,0-0.7,0.1-1.1,0
					c-1.6-0.1-3.1-1-4-2.4l-0.8-1c0,0,0,0,0,0c0,0,0,0,0-0.1l0,0c-0.1-0.2-0.4-0.2-0.5-0.2l-5.1,5.9l0,0c-0.2,0.2-0.2,0.5,0,0.8l0,0
					c1.7,1.4,3.5,2.7,5.5,3.6c1.6,0.7,3.4,1.1,5.1,1.2l0,0c7.7,0.7,13.3-3.6,13.8-10C150,19.2,147.8,16.5,143.3,14.3"/>
				<path id="Path_3945" class="st0" d="M88.6,28.3l-4.1-6.6c-0.3-0.4-0.8-0.5-1.3-0.3l-1.6,1c-1.1,0.6-2.4,1-3.7,1
					c-1.8,0-3.6-0.7-4.9-1.9c-2.6-2.4-2.7-6.4-0.4-8.9c0.1-0.1,0.2-0.2,0.4-0.4c1.3-1.3,3-2,4.8-1.9c1.4,0,2.8,0.3,4.1,1.1l0.9,0.6
					c0.5,0.4,1,0.1,1.3-0.5l3.7-6.7c0.3-0.6,0.3-1.5-1.1-2.2l0,0c-2.7-1.5-5.7-2.3-8.8-2.2c-4.6-0.1-9,1.6-12.3,4.8
					c-6.4,5.9-6.8,16-0.9,22.4c0.3,0.3,0.6,0.6,0.9,0.9c3.3,3.2,7.7,4.9,12.3,4.8c3.5-0.1,6.8-1.1,9.8-3c0.2-0.1,0.4-0.3,0.6-0.4
					C88.8,29.5,88.9,28.8,88.6,28.3"/>
				<path id="Path_3946" class="st0" d="M17.3,13.8h-5.6c-0.3,0-0.3-0.2-0.2-0.4l9.5-12.3c0.1-0.2,0.1-0.5-0.1-0.6
					c-0.1,0-0.2-0.1-0.2-0.1H0.5C0.2,0.5,0,0.7,0,0.9V32c0,0.3,0.2,0.5,0.5,0.5H12c0.3,0,0.5-0.2,0.5-0.5v-5.2
					c0-0.3,0.2-0.5,0.5-0.5h4.4c0.3,0,0.5-0.2,0.5-0.5l0-11.6C17.8,14,17.6,13.8,17.3,13.8"/>
				<path id="Path_3947" class="st0" d="M164.8,0.2h-5.6v32h5.6V0.2z M185.2,10.1c-0.5-0.1-0.9-0.1-1.4-0.1
					c-2.7-0.2-5.3,1.3-6.4,3.8v-3.5h-5.2v22h5.3V21.7c0-4.1,1.9-6.4,6-6.4c0.6,0,1.2,0,1.7,0.1V10.1z M193.1,18.8
					c0.2-2.8,2.6-4.9,5.4-4.9c3.7,0,5.4,2.3,5.5,4.9H193.1z M204.6,24.5c-0.7,2.4-3,4-5.6,3.8c-3.3,0.1-6-2.5-6.1-5.7h16.3
					c0.1-0.5,0.2-1.1,0.1-1.7c0-6.9-4-11.4-10.9-11.4c-5.6,0-10.8,4.6-10.8,11.5c0,7.4,5.3,11.8,11.4,11.8c5.3,0,8.9-3.1,10.1-6.9
					L204.6,24.5z M219.7-0.5h-5.3v32.6h5.3V-0.5z M225.1,26.2c0,3.5,2.9,6.6,7.5,6.6c2.7,0.1,5.3-1.2,6.9-3.5c0,0.9,0,1.9,0.2,2.8
					h4.9c-0.2-1.2-0.3-2.3-0.3-3.5V17.8c0-4.4-2.6-8.2-9.5-8.2c-5.5,0-9,3.4-9.4,7.2l4.8,1.1c0.2-2.3,2.2-4.1,4.5-4c0,0,0,0,0,0
					c2.9,0,4.2,1.5,4.2,3.3c0,0.8-0.4,1.4-1.6,1.6l-5.7,0.9C228,20.2,225.1,22.3,225.1,26.2 M233.6,28.8c-1.6,0.2-3.1-1-3.2-2.6
					c0-0.1,0-0.2,0-0.2c0-1.8,1.3-2.7,3-3l5.8-0.9v1C239.2,27.4,236.6,28.8,233.6,28.8 M256.1,19.5c0-2.9,1.6-5.2,4.6-5.2
					c3.3,0,4.6,2.2,4.6,4.9v13h5.3V18.3c0-4.8-2.6-8.7-8-8.7c-2.7-0.1-5.2,1.3-6.6,3.6v-2.9h-5.2v22h5.3L256.1,19.5z M280.6,21.1
					c0-4.2,2.6-6.9,6-6.9s5.8,2.6,5.8,6.8s-2.4,7-5.9,7C282.9,28.1,280.6,25.3,280.6,21.1 M297.6-0.5h-5.2v13.3
					c-0.7-1.4-2.7-3.2-6.5-3.2c-6.3,0-10.6,5.2-10.6,11.5c0,6.6,4.3,11.6,10.7,11.6c2.6,0.1,5.1-1.2,6.5-3.4c0,0.9,0.1,1.9,0.2,2.8
					h5.1c-0.2-1.3-0.2-2.7-0.2-4L297.6-0.5z"/>
			</g>
		</g>
	</g>
</g>
</svg>
