<?xml version="1.0" encoding="utf-8"?>
<!-- Generator: Adobe Illustrator 24.1.0, SVG Export Plug-In . SVG Version: 6.00 Build 0)  -->
<svg version="1.1" id="Layer_1" xmlns="http://www.w3.org/2000/svg" xmlns:xlink="http://www.w3.org/1999/xlink" x="0px" y="0px"
	 viewBox="0 0 595.3 296" style="enable-background:new 0 0 595.3 296;" xml:space="preserve">
<style type="text/css">
	.st0{fill:#1F4D7A;}
</style>
<path class="st0" d="M297,296c-99.7,0-199.3,0-299,0C-2,197.3-2,98.7-2,0c99.3,0,198.7,0,298,0c0.1,1.8,0.2,3.7,0.2,5.5
	c0.2,95,0.3,190,0.5,285.1C296.7,292.4,296.9,294.2,297,296z M183.9,157c2.2,0,4,0,5.8,0c7.5-0.2,14.9-0.4,22.4-0.5
	c2.6,0,4.5-0.4,4.8-3.7c1-12.4-11.8-24.9-24.2-23.4c-11.2,1.3-19.3,9.9-20.4,21.7c-0.9,9.2,6.5,20.1,15.8,23.2
	c10.8,3.6,24.1-3,26.3-13.3c-4.2-0.5-7.9-1.1-11.7,2.6C196.5,169.5,186,166,183.9,157z M70.6,151.7c0,12.4,11.1,23.2,23.9,23.2
	c12.2,0,23.8-10.9,23.3-22.6c-0.5-14.1-10.9-22.9-23.2-23.4C81.6,128.3,70.6,139.3,70.6,151.7z M125.2,152
	C125.2,152,125.2,152,125.2,152c0,6,0.2,12,0,18c-0.1,3.8,2.1,4.2,5.1,4.4c3.4,0.2,4.2-1.4,4.2-4.5c-0.1-7.5-0.1-15,0-22.5
	c0.1-6,3.8-9.8,9.4-10.1c7.8-0.4,10.6,1.4,11.2,8.5c0.7,8.3,0.5,16.6,0.6,24.9c0,3,1.5,3.7,4.1,3.6c2.5-0.1,4.7,0.1,4.7-3.5
	c-0.1-8.2,0.4-16.3-0.2-24.5c-0.9-13.6-12.9-20.6-25.4-15.5c-1.6,0.6-3.9,0.3-5.5-0.3c-5.6-2.2-8.1-0.7-8.1,5.4
	C125.1,141.3,125.2,146.6,125.2,152z"/>
<path class="st0" d="M303,0c98.3,0,196.7,0,295,0c0,98.7,0,197.3,0,296c-98,0-196,0-294,0c-0.2-47.6-0.6-95.1-0.7-142.7
	c-0.1-48.9,0-97.9,0-146.8C303.3,4.3,303.1,2.2,303,0z M413.3,72.3c0.3,0.5,0.6,1,0.9,1.6c4.8-1.5,9.6-3.5,14.5-4.5
	c9-1.7,12.2,0.7,12.8,9.7c0.5,7.3,0.1,14.7,0.3,22c0.1,3.3-0.9,4.9-4.3,6.1c-17.2,6.2-28.9,23.3-28.9,41.5c0,18.6,11.4,35.2,29,42.2
	c1.8,0.7,4.2,2.9,4.2,4.4c0.3,8.5,0.2,17-0.2,25.5c-0.5,9.6-4,13.4-13.3,15.3c-3.3,0.7-6.6,0.9-9.9,1.6c-1.1,0.2-2,1.3-3.1,1.9
	c1.1,0.7,2.2,1.7,3.4,2.1c1.1,0.4,2.3,0.1,3.5,0.1c17.8,0.1,35.7,0.1,53.5,0.2c4.2,0,8.3,0.3,12.5,0.2c1.2,0,2.3-1.3,3.4-2.1
	c-1.1-0.7-2.1-1.9-3.3-2.1c-3.4-0.6-7-0.7-10.4-1.1c-8.9-1.2-12.6-5.3-12.8-14.2c-0.1-8.3,0.2-16.7-0.2-25c-0.2-3.9,1.6-5.6,4.9-6.9
	c17.2-6.8,28.5-23.1,28.5-40.8c-0.1-19.3-11.1-35.9-29-42.6c-3.7-1.4-4.3-3.2-4.3-6.6c0.1-16.5,0-33,0-49.5c0-1.8,0-3.5,0-7.1
	C447,53.9,429.8,62.4,413.3,72.3z"/>
<path class="st0" d="M205.5,148.5c-1.8,0.1-3.3,0.2-4.7,0.2c-5.6,0-11.3,0-16.8,0c-0.8-5.6,3.4-10,9.4-10.4
	C200.4,137.8,205.4,141.7,205.5,148.5z"/>
<path class="st0" d="M93.9,137.4c8.5-0.1,14.6,6,14.7,14.8c0.1,7.7-6.4,14.4-14.2,14.4c-7.8,0-15-6.9-14.9-14.3
	C79.6,144.1,86,137.5,93.9,137.4z"/>
<path class="st0" d="M454,176.8c-16.2,0-28.3-11.7-28.3-27.2c0-16.6,11.6-28.3,28.2-28.3c15.5,0,27.5,12.2,27.7,28.1
	C481.7,164.4,469.3,176.8,454,176.8z"/>
</svg>
