<svg id="Layer_1" data-name="Layer 1" xmlns="http://www.w3.org/2000/svg" viewBox="0 0 500 221.19"><path d="M440.63,160.48a88.68,88.68,0,0,1-13.2-1.16l.47-8.53a58.45,58.45,0,0,0,12.15,1.75c5,0,8.17-2.1,8.17-6.07,0-3.62-1.52-5.61-8.52-7.36-7.95-2.1-12.27-5.26-12.27-13.43,0-7.48,5.26-12.62,16-12.62a35.35,35.35,0,0,1,9.35.93c2.1.47,2.69,1.41,2.57,3.27l-.47,5.85A28.91,28.91,0,0,0,444,121c-4.91,0-7.36,1.87-7.36,4.56,0,3.27,2.22,4.56,8.18,6.19,9.57,2.57,12.38,6.43,12.38,13.9,0,9.23-5.61,14.83-16.59,14.83" style="fill:#2d0288"/><path d="M18.1,160.6a22.2,22.2,0,0,1-8.52-1.52v14.6H0V114.46H4.32c2.22,0,4.09,2.22,4.91,3.85a13,13,0,0,1,10.86-5.13c11.68,0,18.11,9.57,18.11,22.54,0,15.18-8.76,24.88-20.1,24.88m-.46-39.13c-5.26,0-8.06,3.5-8.06,8.76v20.44a18.72,18.72,0,0,0,7.36,1.4c7,0,10.86-6.3,10.86-16.12,0-10.28-4.09-14.48-10.16-14.48" style="fill:#2d0288"/><path d="M78.86,139.57H52.11c.35,8.53,4.67,12.5,11.21,12.5a25.48,25.48,0,0,0,10.28-2.22,4.94,4.94,0,0,1,1.29-.23c1.63,0,2.22,1,2,3L76.41,158c-3,1.52-7.71,2.57-13.9,2.57-11.8,0-20.45-9.23-20.45-23.6,0-14.83,7.25-23.82,20-23.82,11.44,0,17.05,9.34,17.05,21.84,0,1.28-.11,3.15-.23,4.55M61.45,121.12c-5.72,0-8.87,4.32-9.22,10.63H69.17c-.12-6.54-2.46-10.63-7.72-10.63" style="fill:#2d0288"/><path d="M109.81,125c-1.87-1.17-4.44-1.87-8.06-1.87-5.14,0-8.06,3.74-8.06,9.58v27H84.12v-45.2h4.32c2,0,4,1.17,5.14,5.49,2.45-4.32,5.6-6.19,9.81-6.19a19.26,19.26,0,0,1,4.79.58c1.4.35,1.87.94,1.87,2.1Z" style="fill:#2d0288"/><path d="M163.89,159.66V127.78c0-4-2.22-6.78-6.77-6.78a7.85,7.85,0,0,0-8.18,7.94v30.72h-9.58V128c0-4.56-2.45-7-6.89-7-5.84,0-9.11,4.55-9.11,10.4v28.26h-9.58v-45.2H118c2.1,0,3.85,1.28,5.14,4.56a14.55,14.55,0,0,1,12-5.85c6.42,0,9.34,2.69,11,6.31,3.27-3.74,6.78-6.31,13.32-6.31,9.46,0,14,5.38,14,13.56v32.93Z" style="fill:#2d0288"/><path d="M207.81,159.66l-.23-4.32a13.32,13.32,0,0,1-11.21,5.26c-10.28,0-17.29-7.95-17.29-22.66,0-14.49,9.93-23.83,23.36-23.83a65.94,65.94,0,0,1,9.11.7c4,.82,5,1.52,5,4.09v40.76ZM207,123c-1.86,0-3.5-.12-5-.12-7.59,0-12.73,5-12.73,15.07s4,14.36,8.88,14.36c5.84,0,8.87-3.5,8.87-9.11Z" style="fill:#2d0288"/><path d="M251,159.66V128.83c0-4.67-2.22-7.83-7.59-7.83-6.54,0-10.28,4.9-10.28,11.8v26.86h-9.58v-45.2h4.21c2.1,0,3.85,1.28,5.13,4.56A16.54,16.54,0,0,1,246,113.17c9.93,0,14.6,6.2,14.6,15.31v31.18Z" style="fill:#2d0288"/><path d="M302.51,139.57H275.76c.35,8.53,4.68,12.5,11.22,12.5a25.52,25.52,0,0,0,10.28-2.22,4.79,4.79,0,0,1,1.28-.23c1.64,0,2.22,1,2,3l-.47,5.38c-3,1.52-7.71,2.57-13.9,2.57-11.8,0-20.44-9.23-20.44-23.6,0-14.83,7.24-23.82,20-23.82,11.45,0,17.06,9.34,17.06,21.84,0,1.28-.12,3.15-.24,4.55m-17.4-18.45c-5.73,0-8.88,4.32-9.23,10.63h16.94c-.12-6.54-2.46-10.63-7.71-10.63" style="fill:#2d0288"/><path d="M335.22,159.66V128.83c0-4.67-2.22-7.83-7.6-7.83-6.54,0-10.27,4.9-10.27,11.8v26.86h-9.58v-45.2H312c2.1,0,3.86,1.28,5.14,4.56a16.53,16.53,0,0,1,13.08-5.85c9.93,0,14.6,6.2,14.6,15.31v31.18Z" style="fill:#2d0288"/><path d="M376,159.31c-2.1.82-4.79,1.29-9.81,1.29-6.54,0-11.44-4.67-11.44-12.73V122.28h-7v-7.82h7V103.6H360a4,4,0,0,1,4.32,4.08v6.78h6.78a4.17,4.17,0,0,1,4.55,4.56v3.26H364.3v24.3c0,3.86,1.52,5.61,5.61,5.61a11.75,11.75,0,0,0,4.09-.7c1.63-.47,2.33-.12,2.21,1.17Z" style="fill:#2d0288"/><path d="M423.64,159.31c-2.1.82-4.79,1.29-9.81,1.29-6.55,0-11.45-4.67-11.45-12.73V122.28h-7v-7.82h7V103.6h5.26a4,4,0,0,1,4.32,4.08v6.78h6.77a4.18,4.18,0,0,1,4.56,4.56v3.26H412v24.3c0,3.86,1.51,5.61,5.6,5.61a11.75,11.75,0,0,0,4.09-.7c1.64-.47,2.34-.12,2.22,1.17Z" style="fill:#2d0288"/><path d="M476.43,160.6a45.27,45.27,0,0,1-15.53-2.69V94.14h4.43c3.16,0,4.68,1.28,5,2.92a2.48,2.48,0,0,1,.12.93v19.74a13.54,13.54,0,0,1,10.28-4.55c11.8,0,18.45,9,18.45,22.89,0,15.53-8.87,24.53-22.78,24.53m2.46-39.13c-6.2,0-8.41,4.2-8.41,8.29v21.38a25.75,25.75,0,0,0,6.77.93c7.36,0,11.45-5.14,11.45-15.53s-4-15.07-9.81-15.07" style="fill:#2d0288"/><path d="M447.37,38.75a7.69,7.69,0,1,1,7.68-7.68A7.69,7.69,0,0,1,447.37,38.75Z" style="fill:#ff6c00"/><path d="M376,38.67a9.35,9.35,0,1,1,9.35-9.35A9.36,9.36,0,0,1,376,38.67Z" style="fill:#ff6c00"/><path d="M412.73,32a11.83,11.83,0,1,1,11.83-11.83A11.83,11.83,0,0,1,412.73,32Z" style="fill:#ff6c00"/><path d="M384.1,95.61a3,3,0,0,1-2.62-1.53,9.4,9.4,0,0,1-.94-4.76l0-10.37c0-.06.07-4.75-1.95-6.81a3,3,0,0,0-2.23-.93,9.33,9.33,0,0,0-4.93,2l-12.6,8.33a4.34,4.34,0,0,1-2.39.94c-1.22,0-2.67-.81-2.67-4.67V64c0-.19.17-19,19.79-22.56a17.49,17.49,0,0,1,3.54-.32,22.89,22.89,0,0,1,13,4.06,34,34,0,0,1,22.71-10.68c.72-.05,1.45-.08,2.17-.08a35.41,35.41,0,0,1,22.6,8.49,21.77,21.77,0,0,1,8.78-1.8,23.32,23.32,0,0,1,15.37,6l.59.5-.55.54L431.67,78.26a6.55,6.55,0,0,1-4.27,2.06c-2.18,0-4-1.59-5.37-4.72,0-.07-2.42-5.64-6.68-5.64-1.88,0-3.91,1.07-6,3.19l-19.2,19.13c-.13.13-3.32,3.33-6,3.33Z" style="fill:#ff6c00"/></svg>