<?xml version="1.0" encoding="utf-8"?>
<!-- Generator: Adobe Illustrator 24.1.0, SVG Export Plug-In . SVG Version: 6.00 Build 0)  -->
<svg version="1.1" id="TG4_logo_gradient" xmlns="http://www.w3.org/2000/svg" xmlns:xlink="http://www.w3.org/1999/xlink" x="0px"
	 y="0px" viewBox="0 0 80 29.3" style="enable-background:new 0 0 80 29.3;" xml:space="preserve">
<style type="text/css">
	.st0{fill:url(#SVGID_1_);}
	.st1{fill:url(#SVGID_2_);}
</style>
<g>
	
		<radialGradient id="SVGID_1_" cx="-747.3029" cy="-2324.3635" r="47.7568" gradientTransform="matrix(5.522704e-17 0.9019 -1.6245 9.947495e-17 -3728.6067 649.4741)" gradientUnits="userSpaceOnUse">
		<stop  offset="0.5781" style="stop-color:#343434"/>
		<stop  offset="1" style="stop-color:#000000"/>
	</radialGradient>
	<path class="st0" d="M48.5,0v29.3H0V0H48.5z M80,0v29.3H50.6V0H80z"/>
	
		<linearGradient id="SVGID_2_" gradientUnits="userSpaceOnUse" x1="39.4127" y1="2094.4849" x2="40.8177" y2="2105.9902" gradientTransform="matrix(1 0 0 1 0 -2084.7937)">
		<stop  offset="0.1988" style="stop-color:#FFFFFF"/>
		<stop  offset="0.9133" style="stop-color:#C3C3C3"/>
	</linearGradient>
	<path class="st1" d="M21.6,7.9L23.5,4H4.2v3.9h7.1v17.8h4.4V7.9H21.6z M33.4,25.7c5.9,0,10.8-4.4,10.8-10.9v-1.3h-9.8l-1.8,3.7h6.8
		c-0.8,2.5-2.8,4.2-5.8,4.2c-3.8,0-6.5-2.8-6.5-6.7c0-3.9,2.6-6.8,6.2-6.8c2.2,0,3.8,1.1,4.6,2.4h5.6c-2.1-4.5-6.2-6.6-10.2-6.6
		c-5.9,0-10.9,4.4-10.9,10.9C22.3,21,27,25.7,33.4,25.7z M75.1,19.8v-3.9h-3.4V3.8c-0.6-0.1-1.5-0.1-2-0.1
		c-7.9,0-14.3,5.8-14.3,14.2c0,0.5,0,1.2,0.1,1.8h11.8v6.6l4.5-1.4v-5.2L75.1,19.8L75.1,19.8z M60,15.9c0.5-4,3.5-7.1,7.3-7.8v7.8
		H60z"/>
</g>
</svg>
