<?xml version="1.0" encoding="utf-8"?>
<!-- Generator: Adobe Illustrator 24.1.0, SVG Export Plug-In . SVG Version: 6.00 Build 0)  -->
<svg version="1.1" id="Layer_1" xmlns="http://www.w3.org/2000/svg" xmlns:xlink="http://www.w3.org/1999/xlink" x="0px" y="0px"
	 viewBox="0 0 459.2 413.4" style="enable-background:new 0 0 459.2 413.4;" xml:space="preserve">
<style type="text/css">
	.st0{fill:#1F4D7A;}
</style>
<path class="st0" d="M8.6,358.6c-5.2,5.3-8,12.4-8,19.8c0,8,2.7,15.1,8.7,20.5c5.5,5.1,12.8,8,20.3,8c4.4,0,7.8-1.1,12.4-2.5v-16.9
	c-3,3.6-7.5,5.7-12.1,5.7c-8.8,0-14.6-6.2-14.6-14.7s5.8-15,14.4-15c4.8-0.1,9.4,2.2,12.3,6v-16.9c-4.1-1.8-8.4-2.7-12.9-2.7
	C21.4,350,14,353.1,8.6,358.6z"/>
<path class="st0" d="M63.6,374.6h-0.1v-6H50.4v36.8h13.1v-14.9c0-6.3,1.8-11.1,9-11.1c1.9-0.1,3.8,0.3,5.5,1.2v-12.6h-2.5
	C70.5,368.1,66.2,370.1,63.6,374.6z"/>
<path class="st0" d="M100.6,367.4c-12,0-20.4,7.4-20.4,19.7c0,12.7,9.1,19.6,21.3,19.6c8.4,0,16.7-4,18.7-12.6h-12.6
	c-1.2,2.3-3.7,3.6-6.2,3.4c-5.4,0-8.2-2.9-8.2-8.2h27.5v-1.4C120.8,375.3,113.4,367.4,100.6,367.4z M93.5,381.7
	c0.8-3.8,3.9-5.8,7.8-5.8c3.5-0.1,6.7,2.3,7.4,5.8H93.5z"/>
<path class="st0" d="M154.5,372.2c-2.7-3.2-7.2-4.8-11.4-4.8c-10.9,0-18.5,9-18.5,19.6s7.7,19.7,18.6,19.7c4.3,0,8.8-1.6,11.1-5.3
	h0.1v4.1h13.1v-59.6h-13.1V372.2z M146.5,395.3c-5.3,0-8.4-3.6-8.4-8.3c0-4.6,3.8-8.4,8.4-8.4c4.6,0,8.4,3.8,8.4,8.4
	C154.9,391.7,151.8,395.3,146.5,395.3L146.5,395.3z"/>
<rect x="175.7" y="368.6" class="st0" width="13.1" height="36.8"/>
<path class="st0" d="M182.2,347.1c-4,0-7.3,3.3-7.3,7.3s3.3,7.3,7.3,7.3c4,0,7.3-3.3,7.3-7.3C189.6,350.4,186.3,347.2,182.2,347.1z"
	/>
<polygon class="st0" points="211.7,357.6 198.6,357.6 198.6,368.6 194.4,368.6 194.4,379.4 198.6,379.4 198.6,405.5 211.7,405.5 
	211.7,379.4 219.1,379.4 219.1,368.6 211.7,368.6 "/>
<path class="st0" d="M281,379.8c0,7-0.5,14.7-9.5,14.7s-9.5-7.7-9.5-14.7v-28.5h-14.1v30.4c0,7,0.3,13.9,5.7,19.1
	c4.5,4.4,11.6,6,18,6s13.4-1.6,18-6c5.4-5.2,5.7-12.1,5.7-19.1v-30.4H281V379.8z"/>
<path class="st0" d="M328.7,367.4c-5.1,0-8.8,1.5-11.8,6h-0.1v-4.7h-13.1v36.8h13.1v-19.2c0-4.6,1.5-8.5,6.8-8.5
	c6.5,0,5.9,6.2,5.9,9.7v18h13.1v-22.8C342.6,373.6,338.6,367.4,328.7,367.4z"/>
<path class="st0" d="M357.7,347.1c-4,0-7.3,3.3-7.3,7.3c0,4,3.3,7.3,7.3,7.3c4,0,7.3-3.3,7.3-7.3C365,350.4,361.8,347.2,357.7,347.1
	z"/>
<rect x="351.2" y="368.6" class="st0" width="13.1" height="36.8"/>
<path class="st0" d="M392.3,367.4c-11.9,0-22.2,7.1-22.2,19.7s10.4,19.6,22.2,19.6s22.2-7.1,22.2-19.6S404.2,367.4,392.3,367.4z
	 M392.3,395.3c-5.3,0-8.4-3.6-8.4-8.3c0-4.6,3.8-8.4,8.4-8.4c4.6,0,8.4,3.8,8.4,8.4C400.7,391.7,397.6,395.3,392.3,395.3
	L392.3,395.3z"/>
<path class="st0" d="M445.4,367.4c-5.1,0-8.8,1.5-11.8,6h-0.1v-4.7h-13.1v36.8h13.1v-19.2c0-4.6,1.5-8.5,6.8-8.5
	c6.5,0,5.9,6.2,5.9,9.7v18h13.1v-22.8C459.2,373.6,455.3,367.4,445.4,367.4z"/>
<path class="st0" d="M71.3,179.2c4.3,18.5,60.9,68,63.5,70.9c10.4,11.2,5,13.9-15.5,61.1h77.4c0,0,13.9-68.1,14.7-76.6
	s-4.7-20.9-10.1-25.6s-50.8-45.2-55.8-49.6c-6.9-6.1-25.5,3.9-16.2,14c5.6,6,21.3,17.6,24,24c5.5,13.1-7.8,5.6-7.8,5.6
	s-28.2-20.9-41.7-31.2c-9.9-7.6-18.3-51.8-20.2-58.1C81.9,107.7,69.3,91,63.6,101C59.2,108.9,70.4,175.2,71.3,179.2z"/>
<path class="st0" d="M388.5,179.2c-4.2,18.5-60.9,68-63.5,70.9c-10.4,11.2-5,13.9,15.5,61.1H263c0,0-13.9-68.1-14.7-76.6
	s4.7-20.9,10.1-25.6s50.8-45.2,55.8-49.6c6.9-6.1,25.5,3.9,16.2,14c-5.6,6-21.3,17.6-24,24c-5.5,13.1,7.8,5.6,7.8,5.6
	s28.1-20.9,41.7-31.2c9.9-7.6,18.3-51.8,20.1-58.1c1.8-6.1,14.4-22.8,20.1-12.8C400.6,108.9,389.5,175.2,388.5,179.2z"/>
<path class="st0" d="M337.5,30.1C309.4,14.6,272.3,5.9,232.8,5.5c-1,0-1.9,0-2.9,0s-1.9,0-2.9,0c-39.5,0.4-76.6,9.1-104.7,24.5
	c-29,16-45,37.3-45,60.1s16,44.1,45,60.1c28.1,15.4,65.1,24.1,104.7,24.5c1,0,1.9,0,2.9,0s1.9,0,2.9,0c39.5-0.4,76.6-9.1,104.7-24.5
	c29-16,45-37.3,45-60.1S366.5,46,337.5,30.1z M196.6,10.4c-24,7.4-43.8,22.5-55.1,41.9H97.3C117.3,31.4,153.4,15.8,196.6,10.4z
	 M175.6,55.2h23.8c0,1.2,0.1,2.5,0,3.6c-0.7,10.4-2.3,22.2-10.5,29.9c-0.7,0.7-2.1-2.1-2.2-2.8c-1.5-6.8-3.3-13.6-7.5-17.7
	c-2.4-2.3-9.3-5-13.9-2.4c-7.3,4.1-8.8,14.2-11.1,21.8c-0.4,1.4-0.6,2.8-0.6,4.2H134c0-0.6,0-1.1,0-1.6c0-12.3,3.2-24.3,9.2-35h14.4
	c0.4,1.6,1.3,3,2.6,4c0.8,0.7,1.7,1.2,2.7,1.5c2.5,0.4,5,0.4,7.3,1.2c0.8,0.2,1.6,0,2.2-0.4C174.7,60.3,176,57.8,175.6,55.2
	L175.6,55.2z M199.5,123.9c0,2.1,0.1,4.3,0.3,6.7h-19.2c-0.1-8.3,0.8-16.6,2.6-24.7c0.3-1.1,0.6-2.2,0.9-3.4c0.5-1.7,5.6,3.1,8,0.9
	s5.2-4.5,5.8-8.1c1.9,1.7,1.8,4,1.4,6.1c-0.4,1.5-0.6,3-0.7,4.5C198,112,199.4,117.9,199.5,123.9L199.5,123.9z M170.2,134.9
	c0.5-0.5,3.1-1.1,3.3,0.6c1.1,5.8-1.5,11-0.1,17.1c0.8,3.3,3.7,4.4,5.2,6.7c-4.5-2.4-8.7-5.2-12.8-8.3c0.7-2.7,1.7-5.4,2.9-8
	C169.8,140.6,168.3,137,170.2,134.9L170.2,134.9z M146.5,130.6c-7.2-10.6-11.5-23-12.4-35.8h19.7c0.6,3.8,2.2,7.5,3.6,11.1
	c1,2.4,1.7,4.8,2.1,7.3c0.7,5.8,0.7,11.6,0.1,17.4H146.5z M159.3,133.5c-0.3,3.8-0.6,7.6-0.7,11.4c-3.7-3.5-7.1-7.3-10.1-11.4H159.3
	z M80.2,90.2c0-12.5,5.2-24.3,14.4-35h45.2c-5.8,10.8-8.8,22.8-8.8,35c0,0.6,0,1.1,0,1.6H80.3C80.3,91.3,80.2,90.7,80.2,90.2z
	 M100.6,131.3C89,120.4,81.8,108,80.5,94.7h50.7c0.8,12.8,4.9,25.1,11.8,35.8h-42.4V131.3z M103,133.5h42
	c3.9,5.6,8.5,10.8,13.6,15.3c0,0.7,0,1.4,0.1,2.2c0.1,3.2,2.6,5.9,5.8,6.3l1-0.2c0.4-0.2,0.5-0.5,0.4-0.7c0,0-0.1,0.3-0.2-0.7
	c-0.1-0.4-0.1-0.8-0.1-1.1c9.4,6.9,19.9,12.1,31,15.5C157.3,165,123.8,151.6,103,133.5L103,133.5z M200.4,168
	c-6.5-1.8-12.9-4.2-18.9-7.2c-0.2-9.1-0.9-18.2-1-27.3h19.6c0.2,1.5,0.5,3,0.9,4.5c2,7.2,2.2,14.8,1.9,22.3
	C202.8,163.3,198.7,166.2,200.4,168z M228.5,171.9c-8.6-0.1-17.1-1.2-25.5-3.3c2.4-0.6,5.1-3.5,7.8-4.9c1.5-0.7,1.2-3.4,1.3-5.1
	c0.8-8.4-1.5-16.9-1.2-25.2h8.6c0.8,9.5,0.5,19-0.8,28.4c3,0,4.7,3.1,7.7,3.1c-1,1.3,1.1,1.9,0.8,3.1h1.3L228.5,171.9z M215.6,112.3
	c1.8,6,3,12.1,3.6,18.3h-8.1c0.1-1.2,0.3-2.3,0.6-3.4C213,122.1,210.2,115.9,215.6,112.3L215.6,112.3z M228.5,41.9
	c-6.7-2.1-14.7,0.8-22.1,1.9c-4.1,0.6-6.1,3.2-6.8,7.4c-0.1,0.4-0.1,0.8-0.1,1.2h-24.8c-0.9-2.4-2.6-4.4-4.8-5.8
	c-1.6-0.8-3.6-1.9-5.6-1.7c-1.4,0.3-2.6,0.8-3.8,1.6c-2.3,1.1-3.7,3.4-3.6,5.9h-12c15.8-25.8,47.3-43.5,83.6-43.9L228.5,41.9z
	 M362.6,52.3h-44.2C307,33,287.3,17.8,263.2,10.4C306.4,15.8,342.5,31.4,362.6,52.3L362.6,52.3z M310.5,116.8
	c-1.3-3.5-2-7.2-2.1-10.9c-0.1-1.7,0.1-3.4,0.6-5.1c0.7-2.5,4-3.7,3.7-6.1h13.1c-0.7,11.1-4.1,21.9-9.7,31.5
	c-0.1-0.2-0.2-0.4-0.2-0.6C314.3,122.6,311.5,119.9,310.5,116.8L310.5,116.8z M311.3,133.5c-3.1,4.1-6.5,8-10.2,11.5
	c0.4-3.1,1.1-6.2,2.2-9.1c0.4-0.9,0.9-1.8,1.7-2.4L311.3,133.5z M311.3,91.8c-0.4-1.1-1.1-2.1-2-2.8c-8.2-6.3-17.4-5.9-24.5,2.8
	l0,0.1h-4c-3.6-10.5-7.4-20.5-10.5-31.4c-0.5-1.8-1.2-3.5-2-5.2h48.5c6,10.7,9.2,22.7,9.2,35c0,0.6,0,1.1,0,1.6L311.3,91.8z
	 M296.9,148.7c-1.1,0.9-2.2,1.8-3.4,2.7c0.6-1.6,1.6-2.9,2.6-2.9C296.4,148.5,296.6,148.6,296.9,148.7L296.9,148.7z M282.2,130.6
	H265c1.2-2.8,3.5-4.9,6.3-5.9c0.6-6.4-0.3-12.6-1.5-18.8c-0.7-3.7-1.6-7.4-2.2-11.1h9.6c0.4,0.5,0.7,1,1.1,1.5
	c1.3,1.7,6.9-1.2,8.9-0.2c3.4,1.9,1.2,6-0.2,9.8c-0.4,1-0.7,2.1-0.8,3.3c-0.5,6.1-2.7,12.2-4.2,18.6c-0.2,0.6-1.5,0.8-2.1,1.6
	C280.7,129.6,281.5,130,282.2,130.6L282.2,130.6z M267,79c0-0.2,2.4-0.3,2.5,0c1.4,4.5,3.4,8.7,5.8,12.8h-8.1
	C266.5,87.5,266.5,83.2,267,79z M231.4,8.4c36.3,0.5,67.8,18.2,83.6,43.9h-48.5c-1.4-2-3.2-3.6-5.4-4.7c-4.9-2.3-9.2,0.5-11.9,4.7
	h-8.7c-2.2-3.5-5.1-6.5-8.5-8.8c-0.2-0.1-0.4-0.2-0.6-0.4L231.4,8.4z M247.6,55.2c-0.6,1.4-1.1,2.8-1.4,4.3c-0.1,0.3-1,0.7-1.2,1.6
	c-0.8-2-1.8-4-2.8-5.9H247.6z M231.4,88.4c1.3-4.7,6-10.2,12.1-9.8c1,0.2,1.9,0.6,2.7,1.2c0.4,4,0.3,8.1-0.1,12.1h-14.7V88.4z
	 M231.4,94.7h14.4c-0.5,3.7-1.2,7.4-1.9,11.1c-1.2,6.5-2.7,13-3.5,19.6c2.5,0.9,4.6,2.8,5.9,5.1h-14.9V94.7z M231.4,171.9v-38.5h16
	c0.6,2.4,1.1,4.9,1.4,7.3c0,1.4,0.1,2.8,0.3,4.2c1.9,6.5,0.6,13.8,0.6,20.7c0.4-2.7,4.2-2.6,4.6-5.4c1.5,1.6,2.2,3.2,3.6,4.9
	c0.5,0.5,0.6,1.9,1,2.9c0.6-9.1-1.7-18.2,2.3-27.1c1-2.3,1.7-4.9,2.6-7.4h26.1c-0.7,6.5,2.4,12.7,1.9,19.2
	C275.4,164.4,254.4,171.6,231.4,171.9z M263.2,169.9c13.2-4,25.4-10.6,36-19.4c0.8,1.2,1.3,2.5,1.5,3.9c-0.1-1.7-0.1-3.5,0-5.2
	c5.3-4.7,10.1-10,14.2-15.8h42C336,151.6,302.5,165,263.2,169.9L263.2,169.9z M359.2,131.3v-0.8H318c-0.2-0.3-0.4-0.7-0.5-1.1
	c6.5-10.5,10.4-22.4,11.2-34.8h50.7C378,108,370.8,120.5,359.2,131.3L359.2,131.3z M328.8,91.8c0-0.6,0-1.1,0-1.6
	c0-12.2-3-24.2-8.8-35h45.2c9.2,10.6,14.4,22.4,14.4,35c0,0.6,0,1.1,0,1.6H328.8z"/>
<path class="st0" d="M217.3,38.6c3,1,5.2-1.3,6.1-3.6s1.4-4.3,2-6.6c0.9-3.2-0.9-5.8-2-8.5c-1.6-3.9-6.4-4-9.9-2.6
	c-1.4,0.6-2,2.4-2.1,3.7c-0.5,5.2,0.7,10.2,1.9,15.4C213.7,38.2,215.8,38,217.3,38.6z"/>
<path class="st0" d="M251.1,41c4.9,1.6,10.4,0.5,14.3-2.8c3-2.4,3.8-7,2.4-10.8c-1.4-3.4-5.1-5.2-8.7-4.1c-2.7,0.9-5,2.9-6.4,5.4
	c-0.9,1.4-2.3,2.3-2.6,4.1c-0.2,1.8,0.4,3.4-0.3,5.1C249.4,39,249.9,40.4,251.1,41z"/>
<path class="st0" d="M303.5,65.4c-1.1-0.9-2.4-1.5-3.8-1.9c-2.7-0.8-5.7-0.3-8,1.4c-3.1,2.2-4,6-3.4,9.6c0.4,2,2.1,2.5,4.1,2.7
	c-0.2,1,1.3,0.7,1.2,1.6c1.1,0.1,2,1,2.8,1.3c2.6,0.9,6.5,0.3,7.4-3.2c0,0,0.5,0.1,0.6,0s0-0.5,0.1-0.7s0.6,0,0.7-0.1s0-0.7,0.1-0.7
	c2.3-0.7,2.8-4,2.1-5.8C306.5,67.9,305.2,66.4,303.5,65.4z"/>
</svg>
