<?xml version="1.0" encoding="utf-8"?>
<!-- Generator: Adobe Illustrator 24.1.0, SVG Export Plug-In . SVG Version: 6.00 Build 0)  -->
<svg version="1.1" id="Layer_1" xmlns="http://www.w3.org/2000/svg" xmlns:xlink="http://www.w3.org/1999/xlink" x="0px" y="0px"
	 viewBox="0 0 150 43" style="enable-background:new 0 0 150 43;" xml:space="preserve">
<style type="text/css">
	.st0{fill:#1F4D7A;}
</style>
<path class="st0" d="M0,1.8c0.7,0,1.5,0,2.2,0c3.7,0,7.5,0,11.2,0c1.9,0,3.7,0.4,5.3,1.2c2.4,1.2,3.9,3,4.3,5.6
	c0.3,2.2,0.1,4.2-1.2,6.1c-0.8,1.2-2,2-3.4,2.6c-0.1,0-0.2,0.1-0.3,0.2c2.2,3.2,4.3,6.4,6.5,9.7c-0.2,0-0.4,0-0.5,0
	c-2.8,0-5.6,0-8.4,0c-0.3,0-0.5-0.1-0.6-0.4c-1-1.6-2-3.2-3-4.8c-0.4-0.6-0.7-1.2-1.1-1.8c-0.4-0.7-0.6-0.8-1.4-0.6
	c-0.2,0-0.5,0.1-0.7,0.1c-0.4,0-0.6,0.1-0.6,0.5c0,2.2,0,4.3,0,6.5c0,0.2,0,0.3,0,0.6c-2.8,0-5.6,0-8.3,0C0,18.7,0,10.2,0,1.8z
	 M8.2,13.9c0.9,0,1.8,0.1,2.7,0c0.8-0.1,1.5-0.3,2.2-0.6c0.9-0.4,1.3-1.2,1.4-2.2c0.1-1.3-0.3-2.7-2-3c-0.5-0.1-1-0.2-1.5-0.2
	c-0.9,0-1.9,0-2.9,0C8.2,9.9,8.2,11.9,8.2,13.9z"/>
<path class="st0" d="M0,32.8c0.8,0,1.5,0,2.3,0c0.5,0,1.1,0.1,1.6,0.2c1.2,0.3,1.8,1.8,0.9,2.8c-0.2,0.2-0.4,0.3-0.7,0.5
	c0.2,0.1,0.4,0.2,0.6,0.4c1,0.8,0.9,2.4-0.3,3c-0.4,0.2-1,0.3-1.5,0.4c-1,0.1-2,0-3,0C0,37.7,0,35.2,0,32.8z M1.1,39.1
	c0.7,0,1.4,0,2.1,0c0.6,0,1-0.4,1.1-0.8c0.1-0.7-0.1-1.1-0.8-1.2c-0.8-0.1-1.6-0.1-2.4-0.1C1.1,37.7,1.1,38.4,1.1,39.1z M1.1,36
	c0.7,0,1.4-0.1,2.1-0.1c0.5-0.1,0.9-0.6,0.9-1c0-0.4-0.3-1-0.7-1c-0.8-0.1-1.5-0.1-2.3-0.2C1.1,34.5,1.1,35.2,1.1,36z"/>
<path class="st0" d="M116,43c-0.4-0.2-0.8-0.4-1.2-0.6c-0.8-0.5-0.6-1.9,0.4-2.2c-0.7-0.7-0.7-1.5,0.3-2c-0.9-0.5-0.9-1.3-0.7-2.1
	c0.1-0.8,0.9-1.3,1.7-1.4c0.4-0.1,0.9-0.1,1.2,0c0.7,0.3,1.4,0.1,2.1,0.1c0,0.3,0,0.6,0,1c-0.3-0.1-0.6-0.1-0.8-0.1
	c0,0.5,0.1,1,0,1.5c-0.1,0.8-0.8,1.3-1.6,1.4c-0.4,0.1-0.7,0.1-1.1,0c-0.4-0.1-0.7,0.1-0.7,0.4c0,0.1,0.3,0.4,0.5,0.5
	c0.6,0.1,1.2,0.1,1.8,0.1c0.4,0,0.8,0.1,1.1,0.2c0.7,0.3,0.9,1.1,0.6,1.8c-0.3,0.8-1,1.1-1.8,1.3c-0.1,0-0.1,0.1-0.2,0.1
	C117.1,43,116.6,43,116,43z M117.1,42.2c0.4-0.1,0.9-0.2,1.3-0.5c0.2-0.1,0.4-0.5,0.4-0.7c0-0.2-0.3-0.5-0.5-0.5
	c-0.7-0.1-1.4-0.1-2-0.1c-0.4,0-0.9,0.5-0.9,0.7c0,0.4,0.2,0.7,0.8,0.9C116.4,42.1,116.7,42.1,117.1,42.2z M117,37.8
	c0.6,0.1,1.2-0.5,1.2-1.2c0-0.6-0.5-1.2-1.2-1.2c-0.7,0-1.2,0.5-1.2,1.2C115.8,37.3,116.2,37.7,117,37.8z"/>
<path class="st0" d="M71.8,43c-0.3-0.1-0.5-0.2-0.8-0.3c-0.5-0.2-0.9-0.6-0.9-1.2c-0.1-0.7,0.3-1.1,0.9-1.4c0.1-0.1,0.2-0.1,0.4-0.2
	c-0.3-1-0.3-1.1,0.7-1.8c-0.7-0.9-0.8-1.7-0.1-2.7c0.3-0.5,0.8-0.7,1.4-0.8c0.5-0.1,1.1-0.1,1.6,0.2c0.2,0.1,0.6,0.1,0.9,0.1
	c0.3,0,0.7-0.1,1-0.1c0,0.4,0,0.7,0,1c-0.3,0-0.6,0-0.9-0.1c0,0.5,0.1,0.9,0,1.3c-0.1,0.8-1.1,1.6-2,1.6c-0.3,0-0.7-0.1-1-0.1
	c-0.2,0-0.4,0.2-0.5,0.3c0,0.1,0.1,0.4,0.3,0.4c0.6,0.2,1.2,0.3,1.8,0.5c0.5,0.2,1.1,0.4,1.3,1c0.3,1-0.4,1.7-1.1,2
	c-0.3,0.1-0.5,0.2-0.8,0.3C73.1,43,72.5,43,71.8,43z M73,42.2c0.5-0.1,1-0.2,1.4-0.4c0.5-0.2,0.5-0.8,0-1c-0.6-0.2-1.3-0.3-1.9-0.5
	c-0.4-0.1-0.7,0-1,0.2c-0.5,0.4-0.5,1.1,0.1,1.3C72,42,72.5,42.1,73,42.2z M73.7,35.4c-0.7,0-1.2,0.5-1.2,1.2c0,0.7,0.5,1.1,1.2,1.1
	c0.7,0,1.2-0.5,1.3-1.2C74.9,35.9,74.6,35.4,73.7,35.4z"/>
<path class="st0" d="M119.2,14.7c3.1,4.2,6.3,8.4,9.5,12.6c-0.3,0-0.4,0-0.6,0c-2.6,0-5.2,0-7.7,0c-0.4,0-0.6-0.1-0.8-0.4
	c-1.1-1.4-2.1-2.9-3.2-4.3c-1.9-2.6-3.8-5.1-5.7-7.7c0,0-0.1,0-0.1-0.1c0,4.1,0,8.3,0,12.4c-2.8,0-5.5,0-8.3,0c0-8.4,0-16.8,0-25.2
	c2.7,0,5.5,0,8.3,0c0,4.1,0,8.2,0,12.3c0,0,0.1,0,0.1,0c0.3-0.4,0.6-0.8,0.9-1.2c1.7-2.3,3.4-4.6,5.2-6.9c1-1.4,2-2.7,3.1-4.1
	c0.1-0.1,0.2-0.2,0.3-0.2c2.8,0,5.7,0,8.6,0C125.5,6.3,122.4,10.5,119.2,14.7z"/>
<path class="st0" d="M47.2,8C43,8,38.9,8,34.7,8c0,1.1,0,2.1,0,3.2c3.3,0,6.5,0,9.8,0c0,2.1,0,4.2,0,6.3c-3.3,0-6.6,0-9.9,0
	c0,1.1,0,2.2,0,3.3c4.1,0,8.3,0,12.4,0c0,2.1,0,4.2,0,6.3c-6.8,0-13.7,0-20.6,0c0-8.4,0-16.8,0-25.2c6.9,0,13.7,0,20.6,0
	C47.2,3.9,47.2,5.9,47.2,8z"/>
<path class="st0" d="M100.7,27.1c-2.8,0-5.5,0-8.3,0c-0.5-1.4-1-2.9-1.5-4.3c-0.1-0.4-0.3-0.5-0.7-0.5c-2.6,0-5.3,0-7.9,0
	c-0.1,0-0.3,0-0.4,0c-0.5,1.5-1,3-1.5,4.4c-0.1,0.2-0.2,0.4-0.4,0.4c-2.6,0-5.1,0-7.7,0c0,0-0.1,0-0.2,0c0.1-0.3,0.2-0.6,0.3-0.9
	c0.7-1.9,1.4-3.9,2.1-5.8c1-2.9,2.1-5.8,3.1-8.6c1-2.9,2.1-5.8,3.2-8.8c0.4-1.1,0.4-1.1,1.6-1.1c3.1,0,6.3,0,9.5,0
	C94.7,10.2,97.7,18.6,100.7,27.1z M89.1,16.3c-0.9-2.8-1.8-5.6-2.7-8.5c0,0-0.1,0-0.1,0c-0.9,2.8-1.9,5.6-2.8,8.5
	C85.4,16.3,87.2,16.3,89.1,16.3z"/>
<path class="st0" d="M59.5,20.2c0,2.4,0,4.6,0,6.9c-2.8,0-5.6,0-8.4,0c0-8.4,0-16.8,0-25.3c0.2,0,0.4,0,0.6,0c4,0,8-0.1,12,0
	c2.6,0.1,5.1,0.8,7.1,2.4c1.7,1.3,2.7,3,3,5.1c0.3,2,0.1,4-0.7,5.8c-0.9,2-2.6,3.4-4.8,4.2c-1.5,0.6-3,0.9-4.6,0.9
	C62.3,20.2,60.9,20.2,59.5,20.2z M59.2,7.9c0,2.2,0,4.3,0,6.5c0.9,0,1.7,0,2.6,0c0.3,0,0.6,0,0.9-0.1c0.7-0.2,1.4-0.4,2-0.9
	c0.5-0.5,0.8-1.1,0.9-1.8c0.2-1.3-0.3-2.8-1.9-3.3C62.2,7.8,60.7,7.9,59.2,7.9z"/>
<path class="st0" d="M61.5,34.9c0.2-0.9,0.3-1.7,0.5-2.6c0.3,0,0.7-0.1,1.1-0.2c-0.5,2.7-1.1,5.3-1.6,8c-0.4-0.1-0.8,0.2-1.1-0.2
	c-0.5,0.4-1.2,0.6-1.8,0.4c-0.9-0.3-1.5-0.9-1.6-1.9c-0.2-1.4,0.3-2.5,1.6-3.4c0.7-0.5,1.6-0.5,2.4-0.3
	C61.1,34.7,61.3,34.8,61.5,34.9z M60,35.4C60,35.4,60,35.5,60,35.4c-0.2,0.1-0.4,0.1-0.5,0.1c-1.1,0.3-1.7,1.7-1.5,2.6
	c0.1,0.6,0.5,1.1,1.2,1.2c0.6,0.1,1.5-0.3,1.6-0.8c0.2-0.8,0.3-1.5,0.5-2.3c0-0.1-0.1-0.3-0.2-0.4C60.7,35.7,60.4,35.6,60,35.4z"/>
<path class="st0" d="M93.4,34.7c0.4,0,0.8,0,1.1,0c0.5,1.3,1,2.6,1.5,3.9c0,0,0.1,0,0.1,0c0.5-1.3,1-2.6,1.5-3.9c0.3,0,0.7,0,1.1,0
	c-0.2,0.4-0.3,0.8-0.5,1.2c-0.7,1.8-1.5,3.6-2.2,5.4c-0.3,0.6-0.6,1.3-1.4,1.5c-0.6,0.1-1.1,0-1.7-0.2c0-0.1,0.1-0.2,0.1-0.4
	c0.1-0.6,0.1-0.6,0.7-0.4c0.5,0.2,0.9,0.1,1.1-0.4c0.2-0.4,0.4-0.9,0.6-1.3c0-0.1,0-0.2,0-0.3C94.8,38.1,94.1,36.4,93.4,34.7z"/>
<path class="st0" d="M87.6,37.6c-1.2,0-2.4,0-3.6,0c-0.1,0.7,0.2,1.1,0.7,1.5c0.9,0.6,1.7,0.3,2.7-0.1c0.1,0.3,0.2,0.6,0.2,0.9
	c-0.8,0.5-1.6,0.6-2.5,0.4c-1.1-0.2-1.9-0.8-2.2-1.8c-0.3-1.1-0.1-2.2,0.7-3.1c0.8-0.8,2.6-1,3.4-0.3c0.6,0.5,0.7,1.2,0.7,1.9
	C87.8,37.1,87.7,37.3,87.6,37.6z M86.7,36.8c-0.1-0.9-0.4-1.3-1.1-1.3c-0.9,0-1.5,0.4-1.6,1.3C84.9,36.8,85.8,36.8,86.7,36.8z"/>
<path class="st0" d="M26.1,37.7c0.1,0.8,0.5,1.5,1.3,1.6c0.7,0.1,1.5-0.1,2.2-0.2c0,0.1,0.1,0.3,0.1,0.5c0,0.1-0.1,0.3-0.2,0.4
	c-1.6,0.7-3.8,0.4-4.4-1.7c-0.4-1.4,0.2-3.1,1.9-3.6c1.1-0.3,2.3,0,2.6,0.9c0.2,0.5,0.2,1.1,0.2,1.7c0,0.1-0.3,0.2-0.4,0.2
	c-0.6,0-1.2,0-1.8,0C27.1,37.5,26.6,37.6,26.1,37.7z M26.2,36.8c0.9,0,1.8,0,2.7,0c0.1-0.7-0.3-1.3-0.9-1.3
	C27,35.4,26.2,35.9,26.2,36.8z"/>
<path class="st0" d="M48.5,40.3c0-0.2,0.1-0.4,0.1-0.6c-0.4,0.2-0.7,0.3-1,0.5c-0.7,0.3-1.3,0.2-1.9-0.2c-0.5-0.4-0.5-0.9-0.5-1.4
	c0-0.3,0.1-0.6,0.2-0.9c0.2-0.8,0.3-1.7,0.5-2.5c0-0.1,0.1-0.2,0.1-0.3c0.3,0,0.6,0,1,0c-0.1,0.6-0.3,1.3-0.4,1.9
	c-0.1,0.5-0.2,1.1-0.3,1.6c-0.1,0.8,0.4,1.2,1.2,1c0.8-0.2,1.3-0.5,1.5-1.4c0.1-1.1,0.4-2.1,0.6-3.2c0.4,0,0.7,0,1.1,0
	c-0.4,1.7-0.7,3.5-1.1,5.2c0,0.1-0.1,0.2-0.2,0.2C49.1,40.2,48.8,40.2,48.5,40.3z"/>
<path class="st0" d="M10.2,34.7c0.3,0,0.6,0,1,0c0,0.3,0,0.6,0,0.8c0,1.3,0,2.7,0,4c0,0.4,0,0.7-0.6,0.6c-0.1,0-0.3,0.1-0.4,0.1
	c0-0.2,0-0.4-0.1-0.7c-0.4,0.2-0.7,0.4-1.1,0.5c-1.3,0.3-2.4,0-2.5-1.6c-0.1-1.3,0-2.5,0-3.8c0.4,0,0.7,0,1.1,0c0,0.2,0,0.4,0,0.6
	c0,1,0,1.9,0,2.9c0,0.7,0.4,1.1,1.1,1c0.4-0.1,0.9-0.3,1.3-0.5c0.1,0,0.1-0.3,0.1-0.4c0-1.2,0-2.3,0-3.5
	C10.1,34.8,10.1,34.8,10.2,34.7z"/>
<path class="st0" d="M52,34.7c0.4-0.1,0.7-0.1,1.1-0.1c0,0.2,0,0.4,0,0.6c0.2-0.2,0.4-0.3,0.6-0.4c0.9-0.5,2.1-0.3,2.6,0.4
	c0.3,0.5,0.2,1.1,0.1,1.6c-0.2,1.1-0.4,2.1-0.7,3.2c-0.3,0-0.7,0-1.1,0c0.2-1.2,0.5-2.4,0.7-3.6c0.1-0.5-0.4-1.1-1-1
	c-0.4,0.1-0.9,0.3-1.2,0.5c-0.5,0.3-0.4,0.8-0.5,1.3c-0.2,0.8-0.3,1.7-0.5,2.5c0,0.1-0.2,0.2-0.3,0.2c-0.2,0-0.5,0-0.8,0
	C51.2,38.3,51.6,36.5,52,34.7z"/>
<path class="st0" d="M68.8,40.1c0.2-1.1,0.4-2.1,0.6-3.1c0.1-0.3,0.1-0.6,0.1-0.9c-0.1-0.5-0.5-0.5-0.9-0.5c-0.6,0-1.1,0.2-1.5,0.7
	c-0.2,0.2-0.2,0.6-0.3,0.8c-0.2,1-0.4,2-0.6,3c-0.3,0-0.6,0-1,0c0.1-0.6,0.2-1.1,0.3-1.7c0.2-1.1,0.5-2.1,0.6-3.2
	c0.1-0.5,0.4-0.5,0.7-0.6c0.1,0,0.3,0,0.4,0c0,0.2,0,0.4-0.1,0.7c0.6-0.5,1.3-0.7,2-0.7c0.7,0.1,1.4,0.6,1.3,1.3
	c-0.1,1-0.3,2.1-0.5,3.1c0,0.1,0,0.2,0,0.3C69.8,40.2,69.8,40.2,68.8,40.1z"/>
<path class="st0" d="M109.1,40.1c0-1.8,0-3.5,0-5.3c0.3,0,0.6-0.1,1-0.1c0,0.2,0,0.4,0,0.7c0.2-0.1,0.3-0.2,0.5-0.3
	c0.7-0.5,2.2-0.5,2.7,0.2c0.2,0.2,0.4,0.5,0.4,0.8c0,1.4,0,2.8,0,4.2c-0.3,0-0.6,0-1,0c0-0.4,0-0.9,0-1.3c0-0.7,0-1.4,0-2
	c0-1.2-0.8-1.3-1.7-1.1c-0.6,0.2-0.9,0.5-0.8,1.2c0.1,1.1,0,2.1,0,3.2C109.8,40.1,109.4,40.1,109.1,40.1z"/>
<path class="st0" d="M20.5,40.1c-0.4,0-0.7,0-1,0c0-1.8,0-3.5,0-5.3c0.3,0,0.6-0.1,1-0.1c0,0.3,0,0.4,0,0.7c0.6-0.4,1.2-0.7,1.9-0.6
	c0.9,0.1,1.6,0.6,1.6,1.4c0,1.3,0,2.7,0,4.1c-0.3,0-0.6,0-1,0c0-1.1,0-2.1,0-3.2c0-0.2,0-0.3,0-0.5c-0.2-0.8-1.1-1.1-2-0.6
	c-0.4,0.2-0.6,0.4-0.6,0.9C20.5,37.8,20.5,38.9,20.5,40.1z"/>
<path class="st0" d="M46.2,32.4c-0.1,0.2-0.1,0.4-0.3,0.6c-0.1,0.1-0.3,0.2-0.4,0.1c-1.1-0.4-1.3-0.3-1.6,0.8
	c-0.1,0.2-0.1,0.5-0.2,0.7c0.5,0,1,0,1.5,0c0,0.3,0,0.6,0,1c-0.5,0-1.1,0-1.7,0c-0.3,1.5-0.6,2.9-0.9,4.4c-0.4,0-0.7,0-1.1,0
	c0.3-1.4,0.6-2.9,0.9-4.3c-0.3-0.1-0.6-0.1-0.9-0.2c-0.2-0.5,0-0.7,0.5-0.7c0.2,0,0.4-0.1,0.5-0.1c0.3-0.8,0.5-1.5,0.9-2.1
	c0.2-0.3,0.6-0.5,0.9-0.6C44.9,32,45.6,32,46.2,32.4z"/>
<path class="st0" d="M16,34.8c-0.1,0.5-0.2,0.8-0.3,1.1c-0.5-0.1-0.8-0.3-1.2-0.3c-0.3,0-0.6,0-0.8,0.1c-0.2,0.1-0.4,0.3-0.5,0.5
	c0,0.1,0.2,0.4,0.4,0.5c0.5,0.2,1,0.4,1.5,0.6c0.8,0.3,1.1,0.8,1.1,1.6c0,0.6-0.6,1.3-1.2,1.4c-0.9,0.2-1.8,0.1-2.6-0.2
	c-0.2-0.1-0.3-0.2-0.2-0.4c0.1-0.2,0.1-0.4,0.2-0.6c0.5,0.2,1,0.4,1.5,0.4c0.3,0,0.7,0,1-0.2c0.5-0.3,0.4-0.8-0.2-1.1
	c-0.4-0.2-0.9-0.3-1.3-0.4c-0.9-0.3-1.3-0.8-1.2-1.6c0.1-0.7,0.8-1.4,1.6-1.4C14.5,34.6,15.2,34.7,16,34.8z"/>
<path class="st0" d="M39,34.8c-0.1,0.4-0.2,0.7-0.3,1c-0.4-0.1-0.8-0.2-1.2-0.3c-0.2,0-0.5,0-0.8,0c-0.3,0-0.6,0.3-0.6,0.6
	c0,0.2,0.3,0.5,0.5,0.6c0.4,0.2,0.9,0.3,1.3,0.5c0.8,0.3,1.2,0.8,1.1,1.5c-0.1,0.7-0.6,1.3-1.3,1.5c-0.9,0.2-1.7,0.1-2.5-0.2
	c-0.2-0.1-0.3-0.2-0.2-0.4c0.1-0.2,0.1-0.4,0.2-0.6c0.5,0.2,1,0.4,1.5,0.4c0.3,0,0.7,0,1-0.2c0.5-0.3,0.4-0.8-0.2-1.1
	c-0.4-0.2-0.9-0.3-1.3-0.4c-0.8-0.3-1.3-0.9-1.2-1.6c0.1-0.7,0.8-1.4,1.6-1.3C37.5,34.6,38.2,34.7,39,34.8z"/>
<path class="st0" d="M30.4,39.8c0.1-0.3,0.2-0.6,0.3-0.8c0.5,0.1,1,0.3,1.5,0.4c0.3,0,0.7,0,1-0.2c0.5-0.2,0.4-0.8-0.1-1
	c-0.5-0.2-1.1-0.4-1.6-0.6c-0.9-0.4-1-0.8-0.9-1.7c0.1-0.5,0.6-1,1.3-1.2c0.9-0.1,1.7-0.1,2.5,0.3c-0.1,0.3-0.2,0.6-0.3,0.8
	c-0.6-0.1-1.2-0.2-1.8-0.3c-0.4,0-0.7,0.2-0.8,0.6c-0.1,0.3,0.2,0.5,0.5,0.7c0.2,0.1,0.3,0.1,0.5,0.2c0.2,0.1,0.5,0.1,0.7,0.2
	c1.1,0.4,1.3,0.9,1.2,1.8c-0.1,0.6-0.9,1.3-1.6,1.3C32,40.3,31.2,40.2,30.4,39.8z"/>
<path class="st0" d="M92.8,38.9c0,0.1,0,0.2,0,0.3c0.1,0.7,0.1,0.8-0.6,0.9c-0.7,0.2-1.5,0.2-2.2,0c-1.1-0.4-1.5-1.2-1.7-2.2
	c-0.1-1.1,0.1-2.1,1-2.8c0.4-0.3,0.9-0.5,1.4-0.5c0.8-0.1,1.5-0.1,2.2,0.4c-0.1,0.3-0.2,0.6-0.3,0.9c-1-0.6-2.1-0.6-2.7,0
	c-0.6,0.6-0.7,2-0.3,2.6C90.3,39.4,91,39.5,92.8,38.9z"/>
<path class="st0" d="M103.2,35.9c-1.7-0.8-2.4-0.4-2.8,0.1c-0.7,0.8-0.6,2,0,2.7c0.4,0.6,1.3,0.9,2.9,0.2c0.1,0.3,0.1,0.5,0.2,0.8
	c0,0.1-0.1,0.2-0.2,0.2c-1,0.4-2.1,0.5-3.1,0c-1-0.5-1.2-1.4-1.3-2.4c-0.1-1.6,0.9-2.6,2-2.8c0.8-0.2,1.6-0.2,2.4,0.2
	c0.1,0.1,0.2,0.3,0.2,0.5C103.4,35.6,103.3,35.7,103.2,35.9z"/>
<path class="st0" d="M82.4,35.8c-1.2-0.4-1.6-0.2-2.2,0.7c-0.1,0.1-0.1,0.3-0.1,0.5c0,1,0,2.1,0,3.1c-0.4,0-0.7,0-1.1,0
	c0-1.8,0-3.5,0-5.3c0.3,0,0.7-0.1,1-0.1c0,0.2,0,0.4,0.1,0.6c1.1-0.7,1.7-0.8,2.5-0.4C82.6,35.2,82.5,35.5,82.4,35.8z"/>
<path class="st0" d="M105.4,40.1c-0.3,0-0.6,0-1,0c0-2.6,0-5.2,0-7.8c0.3,0,0.6-0.1,1-0.1C105.4,34.8,105.4,37.4,105.4,40.1z"/>
<path class="st0" d="M107.8,40.1c-0.4,0-0.7,0-1.1,0c0-1.8,0-3.6,0-5.3c0.3,0,0.7-0.1,1.1-0.1C107.8,36.4,107.8,38.2,107.8,40.1z"/>
<path class="st0" d="M62.8,40.1c0.4-1.8,0.7-3.5,1.1-5.3c0.4-0.1,0.7-0.1,1.1-0.1c-0.2,0.8-0.3,1.6-0.4,2.3
	c-0.2,0.9-0.4,1.7-0.5,2.6c-0.1,0.4-0.3,0.5-0.6,0.5C63.2,40.1,63,40.1,62.8,40.1z"/>
<path class="st0" d="M18,40.1c-0.3,0-0.6,0-1,0c0-1.8,0-3.5,0-5.3c0.3,0,0.6-0.1,1-0.1C18,36.5,18,38.2,18,40.1z"/>
<path class="st0" d="M65.5,32.9c0,0.4-0.3,0.8-0.7,0.7c-0.4,0-0.7-0.3-0.7-0.7c0-0.4,0.3-0.8,0.7-0.7C65.3,32.3,65.5,32.4,65.5,32.9
	z"/>
<path class="st0" d="M106.6,32.9c0-0.5,0.2-0.7,0.6-0.7c0.5,0,0.7,0.2,0.7,0.7c0,0.5-0.2,0.7-0.6,0.7
	C106.8,33.7,106.6,33.4,106.6,32.9z"/>
<path class="st0" d="M17.5,32.2c0.5,0,0.7,0.3,0.7,0.7c0,0.4-0.3,0.7-0.7,0.7c-0.4,0-0.7-0.3-0.7-0.8C16.9,32.5,17.2,32.2,17.5,32.2
	z"/>
<path class="st0" d="M140.1,4.5c-6.7-0.4-11,4.7-11.3,9.4c-0.4,6.4,4.8,11,10.6,11c5.8,0,10.7-4.4,10.6-10.2
	C150.1,9,145.1,4.8,140.1,4.5z M140.6,21.1c-0.6,0.2-1.3,0.2-2,0.4c0,0.5,0,1.1,0,1.9c-0.8-0.3-1.4-0.6-2-0.9
	c-1.5-0.9-2.7-2-3.8-3.3c-0.5-0.7-0.4-1.4,0.4-2.2c1.1-1.1,2.5-1.7,4.1-2c0.4-0.1,0.8-0.1,1.3-0.2c0,0.8,0,1.6,0,2.5
	c0.6-0.1,1.1-0.2,1.5-0.4c1.9-0.8,3.6-1.8,4.6-3.7c0.3-0.5,0.3-0.9-0.1-1.4c-1.4-1.9-3.1-3.3-5.4-4.1c-0.1,0-0.2-0.1-0.3-0.1
	c-0.1,0-0.2,0-0.3,0c0,0.7,0,1.5,0,2.2c-0.5,0.1-1,0.1-1.5,0.1c-2.3,0.2-4.3,0.9-5.9,2.5c-0.8,0.8-1.3,1.9-1.4,3
	c0,0.3-0.1,0.5-0.2,0.8c-0.3-1.4-0.2-2.7,0.2-4.1c0.4-1.5,1.2-2.9,2.3-4c1.6-1.6,3.5-2.6,5.8-3c2.1-0.4,4.1,0.1,5.8,1.3
	c1.8,1.2,3.2,2.7,3.7,4.8c0.3,1.4,0.2,2.8-0.4,4.1C145.8,18.2,143.7,20.1,140.6,21.1z"/>
</svg>
