<?xml version="1.0" encoding="utf-8"?>
<!-- Generator: Adobe Illustrator 24.1.0, SVG Export Plug-In . SVG Version: 6.00 Build 0)  -->
<svg version="1.1" id="Layer_1" xmlns="http://www.w3.org/2000/svg" xmlns:xlink="http://www.w3.org/1999/xlink" x="0px" y="0px"
	 viewBox="0 0 500 173.7" style="enable-background:new 0 0 500 173.7;" xml:space="preserve">
<style type="text/css">
	.st0{fill:#2D0288;}
	.st1{fill:#FF6C00;}
</style>
<path class="st0" d="M440.6,160.5c-4.4-0.1-8.8-0.4-13.2-1.2l0.5-8.5c4,1,8,1.6,12.1,1.8c5,0,8.2-2.1,8.2-6.1c0-3.6-1.5-5.6-8.5-7.4
	c-8-2.1-12.3-5.3-12.3-13.4c0-7.5,5.3-12.6,16-12.6c3.1-0.1,6.3,0.2,9.4,0.9c2.1,0.5,2.7,1.4,2.6,3.3l-0.5,5.8
	c-3.5-1.4-7.2-2.1-10.9-2.1c-4.9,0-7.4,1.9-7.4,4.6c0,3.3,2.2,4.6,8.2,6.2c9.6,2.6,12.4,6.4,12.4,13.9
	C457.2,154.9,451.6,160.5,440.6,160.5"/>
<path class="st0" d="M18.1,160.6c-2.9,0.1-5.8-0.5-8.5-1.5v14.6H0v-59.2h4.3c2.2,0,4.1,2.2,4.9,3.8c2.6-3.4,6.6-5.3,10.9-5.1
	c11.7,0,18.1,9.6,18.1,22.5C38.2,150.9,29.4,160.6,18.1,160.6 M17.6,121.5c-5.3,0-8.1,3.5-8.1,8.8v20.4c2.3,1,4.8,1.4,7.4,1.4
	c7,0,10.9-6.3,10.9-16.1C27.8,125.7,23.7,121.5,17.6,121.5"/>
<path class="st0" d="M78.9,139.6H52.1c0.3,8.5,4.7,12.5,11.2,12.5c3.5,0,7-0.8,10.3-2.2c0.4-0.1,0.9-0.2,1.3-0.2c1.6,0,2.2,1,2,3
	l-0.5,5.4c-3,1.5-7.7,2.6-13.9,2.6c-11.8,0-20.5-9.2-20.5-23.6c0-14.8,7.2-23.8,20-23.8c11.4,0,17,9.3,17,21.8
	C79.1,136.3,79,138.1,78.9,139.6 M61.5,121.1c-5.7,0-8.9,4.3-9.2,10.6h16.9C69,125.2,66.7,121.1,61.5,121.1"/>
<path class="st0" d="M109.8,125c-1.9-1.2-4.4-1.9-8.1-1.9c-5.1,0-8.1,3.7-8.1,9.6v27h-9.6v-45.2h4.3c2,0,4,1.2,5.1,5.5
	c2.4-4.3,5.6-6.2,9.8-6.2c1.6,0,3.2,0.2,4.8,0.6c1.4,0.3,1.9,0.9,1.9,2.1L109.8,125z"/>
<path class="st0" d="M163.9,159.7v-31.9c0-4-2.2-6.8-6.8-6.8c-4.3-0.2-8,3.2-8.2,7.5c0,0.1,0,0.3,0,0.4v30.7h-9.6V128
	c0-4.6-2.4-7-6.9-7c-5.8,0-9.1,4.6-9.1,10.4v28.3h-9.6v-45.2h4.2c2.1,0,3.8,1.3,5.1,4.6c2.8-3.8,7.3-6,12-5.8c6.4,0,9.3,2.7,11,6.3
	c3.3-3.7,6.8-6.3,13.3-6.3c9.5,0,14,5.4,14,13.6v32.9L163.9,159.7z"/>
<path class="st0" d="M207.8,159.7l-0.2-4.3c-2.6,3.5-6.8,5.5-11.2,5.3c-10.3,0-17.3-7.9-17.3-22.7c0-14.5,9.9-23.8,23.4-23.8
	c3,0,6.1,0.3,9.1,0.7c4,0.8,5,1.5,5,4.1v40.8L207.8,159.7z M207,123c-1.9,0-3.5-0.1-5-0.1c-7.6,0-12.7,5-12.7,15.1s4,14.4,8.9,14.4
	c5.8,0,8.9-3.5,8.9-9.1L207,123z"/>
<path class="st0" d="M251,159.7v-30.8c0-4.7-2.2-7.8-7.6-7.8c-6.5,0-10.3,4.9-10.3,11.8v26.9h-9.6v-45.2h4.2c2.1,0,3.9,1.3,5.1,4.6
	c3.3-3.8,8.1-6,13.1-5.9c9.9,0,14.6,6.2,14.6,15.3v31.2H251z"/>
<path class="st0" d="M302.5,139.6h-26.8c0.4,8.5,4.7,12.5,11.2,12.5c3.5,0,7-0.8,10.3-2.2c0.4-0.1,0.8-0.2,1.3-0.2c1.6,0,2.2,1,2,3
	l-0.5,5.4c-3,1.5-7.7,2.6-13.9,2.6c-11.8,0-20.4-9.2-20.4-23.6c0-14.8,7.2-23.8,20-23.8c11.5,0,17.1,9.3,17.1,21.8
	C302.8,136.3,302.7,138.1,302.5,139.6 M285.2,121.1c-5.7,0-8.9,4.3-9.2,10.6h16.9C292.7,125.2,290.4,121.1,285.2,121.1"/>
<path class="st0" d="M335.2,159.7v-30.8c0-4.7-2.2-7.8-7.6-7.8c-6.5,0-10.3,4.9-10.3,11.8v26.9h-9.6v-45.2h4.2
	c2.1,0,3.9,1.3,5.1,4.6c3.2-3.8,8.1-6,13.1-5.8c9.9,0,14.6,6.2,14.6,15.3v31.2H335.2z"/>
<path class="st0" d="M376,159.3c-2.1,0.8-4.8,1.3-9.8,1.3c-6.5,0-11.4-4.7-11.4-12.7v-25.6h-7v-7.8h7v-10.9h5.2
	c2.2-0.2,4.1,1.5,4.3,3.7c0,0.1,0,0.3,0,0.4v6.8h6.8c2.3-0.2,4.3,1.5,4.6,3.8c0,0.3,0,0.5,0,0.8v3.3h-11.4v24.3
	c0,3.9,1.5,5.6,5.6,5.6c1.4,0,2.8-0.2,4.1-0.7c1.6-0.5,2.3-0.1,2.2,1.2L376,159.3z"/>
<path class="st0" d="M423.6,159.3c-2.1,0.8-4.8,1.3-9.8,1.3c-6.5,0-11.5-4.7-11.5-12.7v-25.6h-7v-7.8h7v-10.9h5.3
	c2.2-0.2,4.1,1.5,4.3,3.7c0,0.1,0,0.3,0,0.4v6.8h6.8c2.3-0.2,4.3,1.5,4.6,3.8c0,0.3,0,0.5,0,0.8v3.3H412v24.3c0,3.9,1.5,5.6,5.6,5.6
	c1.4,0,2.8-0.2,4.1-0.7c1.6-0.5,2.3-0.1,2.2,1.2L423.6,159.3z"/>
<path class="st0" d="M476.4,160.6c-5.3,0-10.6-0.9-15.5-2.7V94.1h4.4c3.2,0,4.7,1.3,5,2.9c0.1,0.3,0.1,0.6,0.1,0.9v19.7
	c2.6-2.9,6.4-4.6,10.3-4.6c11.8,0,18.5,9,18.5,22.9C499.2,151.6,490.3,160.6,476.4,160.6 M478.9,121.5c-6.2,0-8.4,4.2-8.4,8.3v21.4
	c2.2,0.6,4.5,0.9,6.8,0.9c7.4,0,11.5-5.1,11.5-15.5S484.7,121.5,478.9,121.5"/>
<path class="st1" d="M447.4,38.8c-4.2,0-7.7-3.4-7.7-7.7s3.4-7.7,7.7-7.7c4.2,0,7.7,3.4,7.7,7.7c0,0,0,0,0,0
	C455,35.3,451.6,38.7,447.4,38.8z"/>
<path class="st1" d="M376,38.7c-5.2,0-9.4-4.2-9.4-9.4s4.2-9.3,9.4-9.3c5.2,0,9.4,4.2,9.4,9.4C385.3,34.5,381.2,38.7,376,38.7z"/>
<path class="st1" d="M412.7,32c-6.5,0-11.8-5.3-11.8-11.8s5.3-11.8,11.8-11.8s11.8,5.3,11.8,11.8c0,0,0,0,0,0
	C424.6,26.7,419.3,32,412.7,32z"/>
<path class="st1" d="M384.1,95.6c-1.1,0-2.1-0.6-2.6-1.5c-0.7-1.5-1-3.1-0.9-4.8V78.9c0-0.1,0.1-4.8-2-6.8c-0.6-0.6-1.4-0.9-2.2-0.9
	c-1.8,0.2-3.5,0.9-4.9,2l-12.6,8.3c-0.7,0.5-1.5,0.9-2.4,0.9c-1.2,0-2.7-0.8-2.7-4.7V64c0-0.2,0.2-19,19.8-22.6
	c1.2-0.2,2.4-0.3,3.5-0.3c4.6,0,9.2,1.4,13,4.1c5.9-6.3,14.1-10.1,22.7-10.7c0.7,0,1.5-0.1,2.2-0.1c8.3,0.1,16.3,3.1,22.6,8.5
	c2.8-1.2,5.8-1.8,8.8-1.8c5.7,0.1,11.1,2.2,15.4,6l0.6,0.5l-0.5,0.5l-30.1,30.1c-1.1,1.2-2.6,1.9-4.3,2.1c-2.2,0-4-1.6-5.4-4.7
	c0-0.1-2.4-5.6-6.7-5.6c-1.9,0-3.9,1.1-6,3.2l-19.2,19.1C390,92.4,386.8,95.6,384.1,95.6L384.1,95.6z"/>
</svg>
