<?xml version="1.0" encoding="utf-8"?>
<!-- Generator: Adobe Illustrator 24.1.0, SVG Export Plug-In . SVG Version: 6.00 Build 0)  -->
<svg version="1.1" id="Layer_1" xmlns="http://www.w3.org/2000/svg" xmlns:xlink="http://www.w3.org/1999/xlink" x="0px" y="0px"
	 viewBox="0 0 300 300" style="enable-background:new 0 0 300 300;" xml:space="preserve">
<style type="text/css">
	.st0{fill:#1F4D7A;}
</style>
<g>
	<g>
		<path class="st0" d="M1,254L1,254L1,254L1,254l-1-2v-1l0,0v-1v-2v-1l0,0l0,0v-1v-1v-1l0,0l0,0v-2v-1v-4v-1l0,0v-1v-1v-1v-1v-1v-2
			l1-1l0,0v-1l1-1v-1l1-2l1-1l1-1v-1l0,0l1-1l1-2l1-1h1v-1l1,1v-1l2-1v1h1l0,0l0,0h1l1-1h1h1l0,0v-1l0,0l0,0h1l0,0h1h2l0,0l1,1l1-1
			h1h2l0,0h1h1l0,0h1h1h2h1l0,0l0,0h1l2,1l0,0h1h1l0,0h1l1,1l0,2v1l0,0l1,1l1,1l0,0l0,0l1,1l1,2l1,3l0,0l1,4v3v7v3v1l1,1l1,1l0,0
			l0,0l0,0v1l0,0v-1l0,0l0,0l0,0l0,0l0,0h4h1l1,1v-1h3v1l0,0h1l2,2v1h1v1l-1,1l0,0h1l0,0l0,0v1v1v1v1v1l0,0l-1,2v1v1l-1,1h-1h-1h-1
			h-3h-1h-2h0h-1h-3h-2h-1l0,0l0,0h-1h-1h-2h-1h-1h-4h-1l-1-1l-1,1l0,0h-1l-2-1h-2l0,0h-2h-4v-1l0,0l-1,1h-2h-3l0,0h-1h-1h-1H9H8H6
			H4l0,0H3H2l0,0l0,0l0,0H1l-1-1l0,0v-1l0,0l0,0h0v-1l0,0v-1L1,254L1,254z M57,261L57,261L57,261L57,261L57,261z M18,260L18,260
			L18,260L18,260L18,260z M16,260L16,260L16,260L16,260z M39,259L39,259L39,259L39,259L39,259z M10,258L10,258L10,258L10,258L10,258
			z M45,258L45,258L45,258L45,258L45,258L45,258z M14,258L14,258L14,258h1l0,0H14L14,258L14,258z M29,257L29,257h-2v1h1L29,257
			L29,257z M20,258L20,258L20,258L20,258L20,258L20,258L20,258z M34,257L34,257L34,257L34,257L34,257L34,257L34,257z M47,257L47,257
			L47,257L47,257L47,257z M18,257L18,257L18,257L18,257L18,257z M13,257L13,257L13,257L13,257L13,257z M25,257L25,257v-1l0,0V257
			L25,257z M41,256L41,256L41,256L41,256L41,256z M16,256L16,256L16,256L16,256L16,256L16,256z M19,256L19,256L19,256L19,256L19,256
			z M23,256L23,256l-1,1L23,256L23,256L23,256z M27,256L27,256L27,256L27,256L27,256L27,256L27,256z M30,256L30,256L30,256L30,256
			L30,256L30,256z M21,256L21,256L21,256L21,256L21,256L21,256z M14,255L14,255L14,255L14,255L14,255L14,255z M19,255L19,255L19,255
			L19,255L19,255L19,255z M32,255L32,255L32,255L32,255L32,255L32,255z M40,255L40,255L40,255L40,255L40,255z M10,255L10,255L10,255
			L10,255L10,255L10,255z M38,255L38,255L38,255L38,255L38,255z M31,255L31,255L31,255L31,255L31,255z M7,254L7,254l1-1H7V254L7,254
			L7,254z M24,254L24,254L24,254L24,254L24,254L24,254L24,254z M38,254L38,254L38,254L38,254L38,254z M54,254L54,254L54,254L54,254
			L54,254z M17,254L17,254L17,254L17,254L17,254z M23,254L23,254L23,254l-1-1l0,0L23,254L23,254z M15,254L15,254L15,254L15,254z
			 M29,254L29,254L29,254L29,254L29,254z M13,254L13,254L13,254L13,254h-1H13L13,254z M26,254L26,254L26,254L26,254L26,254L26,254
			L26,254z M7,253L7,253L7,253L7,253L7,253z M56,253L56,253L56,253L56,253L56,253z M48,253L48,253L48,253h-1H48L48,253z M18,253
			L18,253L18,253L18,253z M9,253L9,253L9,253L9,253L9,253z M16,252L16,252L16,252L16,252L16,252L16,252z M23,252L23,252L23,252v-1
			l0,0V252L23,252z M15,252L15,252L15,252L15,252L15,252z M30,252L30,252L30,252L30,252L30,252z M28,252L28,252L28,252L28,252
			L28,252z M37,252L37,252L37,252L37,252L37,252z M7,252L7,252L7,252L7,252L7,252L7,252z M21,251h-1l0,0l0,0H21L21,251z M35,251
			L35,251L35,251L35,251z M26,251L26,251L26,251h-1H26L26,251L26,251L26,251z M33,251L33,251L33,251L33,251z M42,251L42,251L42,251
			L42,251L42,251z M38,250L38,250L38,250L38,250L38,250L38,250z M12,251L12,251L12,251L12,251L12,251z M31,250L31,250L31,250L31,250
			L31,250L31,250z M10,250L10,250L10,250L10,250L10,250L10,250z M17,251L17,251v-1V251L17,251L17,251z M24,251L24,251L24,251L24,251
			L24,251z M16,250L16,250L16,250h-1H16L16,250z M35,250L35,250L35,250L35,250z M51,250L51,250L51,250L51,250L51,250z M6,250L6,250
			L6,250L6,250L6,250z M19,249L19,249L19,249L19,249L19,249L19,249z M11,249L11,249L11,249L11,249z M41,249L41,249L41,249L41,249
			L41,249L41,249z M32,249L32,249L32,249L32,249z M18,248L18,248L18,248L18,248z M24,249L24,249L24,249L24,249L24,249z M39,248
			L39,248L39,248L39,248L39,248L39,248z M4,249L4,249L4,249L4,249L4,249z M37,249L37,249L37,249L37,249L37,249L37,249z M14,247
			L14,247L14,247L14,247L14,247z M12,248L12,248L12,248v-1V248L12,248L12,248z M42,248L42,248L42,248L42,248L42,248L42,248L42,248z
			 M5,247L5,247L5,247L5,247L5,247L5,247z M40,247L40,247L40,247L40,247L40,247L40,247z M14,240L14,240l1,2v2v1v1v-1l0,0l2,1l0,0h1
			h1l0,0l0,0l0,0l0,0l0,0l0,0l1,1l0,0l0,0h1v1l0,0l1-1l0,0v1l1-1h1h1l0,0h1h1h1l0,0h1l1-2l0,0v-2v-4v-3l-1-2l0,0l-1-1v-1l2-2l-2-1
			l-2-1h-1h-1h-1l0,0l0,0l-1,1h-1v-1h-1l-1,1l-1,1l-1,2h-1l-1,2v1h-1l0,0l-1,1l0,0l0,0l0,0v2L14,240L14,240z M10,247L10,247L10,247
			L10,247L10,247z M52,246L52,246L52,246L52,246z M38,246L38,246L38,246L38,246L38,246L38,246z M36,245L36,245L36,245L36,245L36,245
			z M8,246L8,246L8,246L8,246z M45,246L45,246L45,246L45,246L45,246L45,246z M41,245L41,245L41,245L41,245L41,245L41,245z M39,245
			L39,245L39,245L39,245L39,245L39,245z M9,244L9,244L9,244L9,244z M44,243L44,243L44,243L44,243L44,243z M41,244L41,244L41,244
			L41,244L41,244L41,244L41,244z M11,243L11,243L11,243L11,243L11,243z M40,243L40,243L40,243L40,243L40,243z M38,242L38,242L38,242
			L38,242L38,242L38,242z M5,241L5,241L5,241L5,241L5,241z M41,239L41,239L41,239l-1-1l0,0L41,239L41,239z M5,237L5,237L5,237L5,237
			z M34,237L34,237L34,237L34,237z M37,236L37,236L37,236L37,236L37,236z M34,232L34,232L34,232L34,232z M9,233L9,233L9,233L9,233
			L9,233z M11,231L11,231L11,231L11,231L11,231z M13,230L13,230L13,230L13,230L13,230z M37,230L37,230L37,230L37,230L37,230L37,230z
			 M6,229L6,229L6,229L6,229z M15,229L15,229L15,229L15,229z M12,229L12,229L12,229L12,229L12,229L12,229z M9,228L9,228L9,228L9,228
			L9,228z M37,227L37,227L37,227L37,227L37,227L37,227z M12,227L12,227L12,227L12,227L12,227z M35,227L35,227L35,227L35,227L35,227z
			 M33,226L33,226L33,226L33,226L33,226L33,226L33,226z M26,226L26,226L26,226L26,226z M9,226L9,226L9,226L9,226L9,226L9,226z
			 M38,225L38,225v1V225L38,225z M40,225L40,225h-1l0,0H40L40,225z M42,226L42,226L42,226L42,226L42,226z M30,225L30,225L30,225
			L30,225L30,225z M14,225L14,225L14,225L14,225L14,225z M21,225L21,225L21,225L21,225z M18,225L18,225L18,225L18,225L18,225L18,225
			z M27,224L27,224L27,224L27,224z M41,225L41,225L41,225L41,225L41,225z M8,223L8,223L8,223L8,223L8,223L8,223z M15,224L15,224
			L15,224L15,224L15,224z M34,224L34,224L34,224L34,224L34,224L34,224z M10,224L10,224L10,224L10,224L10,224z M24,224L24,224L24,224
			L24,224L24,224L24,224L24,224z M25,224L25,224L25,224L25,224z M37,224L37,224L37,224L37,224L37,224z M39,224L39,224L39,224L39,224
			L39,224L39,224z M21,223L21,223L21,223L21,223L21,223z M34,223L34,223L34,223L34,223L34,223L34,223L34,223L34,223L34,223L34,223z
			 M28,223L28,223L28,223L28,223L28,223z M44,223L44,223L44,223L44,223z M26,222L26,222L26,222L26,222L26,222z M18,222L18,222
			L18,222l-1-1l0,0L18,222L18,222z M33,222L33,222L33,222L33,222h-1H33L33,222L33,222z M31,222L31,222L31,222L31,222L31,222z
			 M26,221L26,221L26,221L26,221h-1H26L26,221L26,221z M28,220L28,220h-1l0,0H28L28,220L28,220z M41,221L41,221L41,221L41,221
			L41,221z M19,220L19,220L19,220L19,220L19,220z M30,220L30,220L30,220L30,220L30,220L30,220L30,220z M17,220L17,220L17,220L17,220
			L17,220z M32,219L32,219L32,219L32,219L32,219z M22,219L22,219L22,219h-1H22L22,219L22,219z M34,219L34,219L34,219L34,219L34,219z
			 M33,218L33,218L33,218L33,218L33,218z M8,218L8,218L8,218L8,218z M19,218L19,218L19,218L19,218L19,218z M27,218L27,218L27,218
			L27,218h-1H27L27,218z M24,218L24,218L24,218L24,218L24,218z M29,217L29,217L29,217L29,217L29,217L29,217L29,217z M18,217L18,217
			L18,217L18,217z M32,217L32,217L32,217L32,217L32,217L32,217z M21,217L21,217L21,217v-1h-1L21,217L21,217z M27,216L27,216L27,216
			L27,216L27,216L27,216z M18,217L18,217L18,217L18,217L18,217z M37,216L37,216L37,216L37,216z M25,216L25,216L25,216L25,216L25,216
			L25,216z M23,216L23,216L23,216h-1H23L23,216L23,216z"/>
		<path class="st0" d="M1,201L1,201L1,201v-2l-1-4v-2l1-2l0,0h1l0,0h3h4h1h1h1l0,0l0,0l0,0v-1h1h1l0,0l0,0h1h1h1h4h2l0,0l0,0l1-1
			l0,0h2l0,0l0,0h1l0,0l0,0l2-1h1h1l1-1h1h2h1l0,0h1l0,0h1h1l3-2l1-1h1l2-5v-2h1l0,0l0,0v-1v-1l0,0v-1l0,0l0,0v-1v-1v-1l-2-2v-1l0,0
			l0,0h-1l-1-1v-1l0,0h-2h-1l0,0v1l-2-1l-3-1l0,0h-1l0,0h-2h-1h-1h-1l0,0l0,0l0,0h-1h-1v-1l0,0l-1,1h-1h-1h-1h-1l0,0h-2h-1h-1h-2h-1
			h-2h-2l0,0l-1,1H8H7l0,0l0,0H6l0,0l0,0H5l-2-1l-3,1v-1v-3v-1l0,0v-1v-2h1v-1v-1l-1-1l1-1v-1l1-1h1h1h4h1h3l0,0l0,0l0,0l1-1h3h1h1
			h1l0,0h2l1,1v-1l1,1l0,0v-1l1,1l1-1h1v1l2-1l0,0l0,0l0,0v-1h1h1h1l0,0l0,0h1h1l0,0l0,0l0,0l0,0h1h1h1v1v-1h1h1v1l0,0l0,0l4,1v1h1
			h1h1l4,2h1v1h1l1,1h1l1,1l1,2l1,1v1h1v1l1,1l1,1l0,0l-1,0v1l1,1v1l0,0l1,0l0,0v1v1l1,1v1l1,1v1v2v1l0,0l0,0v1v4v1l-1,2v2v1v2l-1,0
			v1v1l-1,3l0,0l-1,1v1l-1,1v1l-1,1l-2,1l-1,2l0,0h-1l0,0v1l-2,1h-2l-2,0h-1h-1h-1l0,0l-1,1h-1h-2h-1l0,0h-1h-1l0,0h-1v-1l0,0v1l0,0
			h-1h-1l0,0l-3,1h-2l0,0h-1h-1h-1l0,0h-2h-2h1h-1l0,0h-1l-3,1h-1l0,0h-1h-2l0,0h-1h-2H6H5H3H2H1l0,0v-2v-2v-1L1,201L1,201L1,201z
			 M33,204L33,204L33,204L33,204L33,204L33,204z M44,204L44,204L44,204L44,204L44,204L44,204z M13,204L13,204L13,204L13,204z
			 M13,204L13,204L13,204L13,204L13,204z M26,204L26,204L26,204L26,204L26,204z M25,203L25,203L25,203L25,203L25,203L25,203z
			 M36,202L36,202L36,202L36,202L36,202z M38,202L38,202L38,202L38,202z M22,202L22,202L22,202L22,202L22,202z M28,202L28,202
			L28,202L28,202L28,202z M25,202L25,202L25,202L25,202L25,202L25,202z M40,202L40,202L40,202L40,202L40,202L40,202z M32,201L32,201
			L32,201L32,201L32,201L32,201z M23,200L23,200L23,200L23,200L23,200z M30,199v1l0,0V199L30,199L30,199z M38,200L38,200L38,200
			L38,200L38,200z M51,200L51,200L51,200L51,200L51,200z M35,199L35,199L35,199l-1,1L35,199L35,199L35,199z M29,199L29,199L29,199
			L29,199L29,199z M44,200L44,200L44,200L44,200L44,200z M19,200L19,200L19,200L19,200L19,200z M13,200L13,200L13,200L13,200L13,200
			z M48,199L48,199L48,199L48,199L48,199L48,199z M33,198L33,198L33,198L33,198L33,198L33,198L33,198z M31,198L31,198L31,198L31,198
			L31,198z M38,198L38,198L38,198L38,198L38,198z M45,198L45,198L45,198L45,198z M51,198L51,198L51,198L51,198z M27,198L27,198
			L27,198L27,198v-1V198L27,198L27,198z M36,197L36,197L36,197L36,197L36,197z M25,198L25,198L25,198L25,198L25,198L25,198z M34,198
			L34,198L34,198L34,198L34,198z M50,198L50,198L50,198L50,198L50,198z M11,197h1H11L11,197L11,197L11,197L11,197z M40,197L40,197
			L40,197L40,197z M32,197L32,197h-1H32L32,197L32,197z M48,197L48,197L48,197L48,197L48,197L48,197z M30,196L30,196L30,196L30,196
			L30,196L30,196z M44,196L44,196L44,196L44,196L44,196L44,196z M46,196L46,196h-1H46L46,196L46,196z M21,195L21,195L21,195L21,195
			L21,195L21,195L21,195z M36,195L36,195L36,195L36,195L36,195L36,195z M16,196L16,196L16,196L16,196L16,196z M41,196L41,196L41,196
			l-1-1L41,196L41,196L41,196z M33,196L33,196L33,196L33,196L33,196L33,196z M49,195L49,195L49,195L49,195z M42,195L42,195L42,195
			L42,195z M32,195L32,195L32,195L32,195L32,195L32,195L32,195z M47,195L47,195L47,195L47,195h-1H47L47,195z M38,194L38,194L38,194
			L38,194L38,194z M43,193L43,193L43,193L43,193L43,193z M51,194L51,194L51,194L51,194L51,194L51,194z M34,193L34,193L34,193L34,193
			L34,193z M19,193L19,193L19,193L19,193z M32,193L32,193L32,193L32,193L32,193z M44,192L44,192L44,192L44,192L44,192z M30,192
			L30,192L30,192L30,192L30,192z M57,191L57,191L57,191L57,191L57,191z M52,190L52,190L52,190L52,190L52,190L52,190L52,190L52,190z
			 M54,191L54,191L54,191L54,191L54,191z M45,190L45,190L45,190L45,190L45,190z M50,190L50,190L50,190L50,190L50,190z M54,188
			L54,188h-1l0,0H54L54,188z M51,187L51,187L51,187L51,187L51,187L51,187z M49,187L49,187L49,187L49,187z M56,186L56,186L56,186
			L56,186L56,186z M53,187L53,187L53,187L53,187L53,187z M53,186L53,186L53,186L53,186L53,186L53,186z M50,185L50,185v1V185L50,185
			L50,185z M48,185L48,185L48,185L48,185L48,185z M53,184L53,184L53,184L53,184L53,184L53,184z M51,183L51,183h-1H51L51,183L51,183z
			 M58,183L58,183L58,183L58,183L58,183L58,183z M56,182L56,182L56,182L56,182L56,182z M47,182L47,182L47,182L47,182L47,182z
			 M57,181L57,181L57,181L57,181L57,181L57,181z M55,180L55,180L55,180L55,180L55,180L55,180z M53,180L53,180L53,180L53,180L53,180z
			 M59,180L59,180L59,180L59,180L59,180L59,180z M55,179L55,179L55,179L55,179z M54,178L54,178L54,178L54,178L54,178L54,178L54,178z
			 M52,177L52,177L52,177L52,177L52,177L52,177L52,177z M57,177L57,177L57,177L57,177L57,177z M59,177L59,177L59,177L59,177L59,177z
			 M51,177L51,177L51,177L51,177L51,177z M55,176L55,176L55,176L55,176L55,176L55,176z M52,175L52,175L52,175L52,175L52,175L52,175
			L52,175z M57,174L57,174L57,174L57,174L57,174L57,174z M50,175L50,175L50,175L50,175z M55,174L55,174L55,174L55,174L55,174L55,174
			z M53,174L53,174L53,174h-1H53L53,174L53,174z M56,172L56,172l-1,1L56,172L56,172L56,172z M57,172L57,172L57,172L57,172L57,172z
			 M49,172L49,172L49,172L49,172L49,172L49,172z M46,172L46,172L46,172L46,172L46,172z M51,172L51,172L51,172v-1V172L51,172z
			 M53,172L53,172L53,172L53,172L53,172z M60,171L60,171L60,171L60,171z M50,171L50,171L50,171L50,171L50,171z M53,171L53,171
			L53,171h1l0,0l0,0H53L53,171L53,171z M46,169L46,169L46,169L46,169L46,169z M51,169L51,169L51,169L51,169h-1H51L51,169z M49,168
			L49,168L49,168L49,168L49,168L49,168z M53,168L53,168L53,168L53,168L53,168z M56,168L56,168L56,168L56,168L56,168L56,168z M45,167
			L45,167L45,167L45,167L45,167L45,167z M50,167L50,167L50,167L50,167l-1-1L50,167L50,167L50,167L50,167z M47,167L47,167L47,167
			L47,167L47,167L47,167L47,167z M55,166L55,166L55,166L55,166L55,166L55,166z M52,166L52,166L52,166L52,166L52,166L52,166L52,166z
			 M36,165L36,165L36,165L36,165L36,165L36,165z M43,165L43,165L43,165v-1V165L43,165L43,165z M41,165L41,165L41,165L41,165L41,165
			L41,165L41,165z M28,165L28,165L28,165L28,165L28,165L28,165L28,165z M46,164L46,164L46,164L46,164L46,164L46,164z M38,164L38,164
			L38,164L38,164L38,164L38,164z M52,163h-1l0,0l0,0H52L52,163z M17,164L17,164L17,164L17,164L17,164z M57,163L57,163L57,163L57,163
			L57,163z M14,163L14,163L14,163L14,163L14,163L14,163z M40,163L40,163L40,163L40,163z M8,163L8,163L8,163L8,163z M22,163L22,163
			L22,163L22,163L22,163L22,163z M43,163L43,163L43,163v-1l0,0l0,0V163L43,163z M14,163L14,163L14,163L14,163L14,163L14,163L14,163z
			 M34,163L34,163L34,163L34,163L34,163z M27,163L27,163L27,163L27,163L27,163z M50,163L50,163L50,163L50,163L50,163z M40,162
			L40,162L40,162h-1H40L40,162z M24,162L24,162L24,162L24,162L24,162z M32,162L32,162L32,162L32,162L32,162L32,162L32,162z M11,162
			L11,162L11,162L11,162L11,162L11,162L11,162z M10,161L10,161L10,161L10,161L10,161z M18,162L18,162L18,162L18,162L18,162L18,162z
			 M29,161L29,161L29,161L29,161L29,161z M6,161L6,161H5l0,0H6L6,161z M50,161L50,161L50,161L50,161L50,161z M20,161L20,161L20,161
			L20,161L20,161L20,161z M18,160L18,160L18,160L18,160L18,160z M34,160L34,160L34,160L34,160L34,160z M42,161L42,161v-1l0,0h-1
			L42,161L42,161z M9,160L9,160v-1V160L9,160L9,160z M49,160L49,160L49,160L49,160L49,160L49,160z M26,160L26,160l-1-1l0,0L26,160
			L26,160L26,160z M44,160L44,160L44,160L44,160l1-1L44,160L44,160L44,160z M17,160L17,160L17,160L17,160L17,160L17,160z M15,159
			L15,159L15,159L15,159L15,159z M20,159L20,159L20,159L20,159L20,159L20,159L20,159z M43,159L43,159L43,159L43,159z M14,158L14,158
			L14,158L14,158L14,158z M21,159L21,159L21,159v-1V159L21,159z M11,159L11,159L11,159L11,159L11,159z M25,158L25,158L25,158L25,158
			L25,158L25,158z M40,158L40,158L40,158L40,158L40,158L40,158z M16,158L16,158L16,158L16,158L16,158L16,158z M14,158L14,158v-1l0,0
			l0,0V158L14,158L14,158z M43,157L43,157L43,157L43,157L43,157z M27,157L27,157L27,157L27,157L27,157z M31,157L31,157h1l0,0l0,0H31
			L31,157L31,157L31,157z M19,157L19,157L19,157L19,157L19,157z M15,156L15,156v-1l0,0V156L15,156z M17,156L17,156L17,156L17,156
			L17,156z M37,156L37,156L37,156L37,156L37,156z M26,155L26,155L26,155L26,155L26,155L26,155L26,155z M13,155L13,155L13,155L13,155
			L13,155z M18,155L18,155L18,155L18,155L18,155z M31,153L31,153L31,153L31,153L31,153z"/>
		<path class="st0" d="M23,92h1h1h1h1l3,1l0,0h1l2,1l1,1l0,0l0,0l0,0l0,0l1,1l0,0h1l1,1l3,2v1l0,0l2,2l0,0h1l0,0l1-1l0,0l1-1h1v-1
			l1-1l1-1h2l0,0l0,0l2-1l1-1l0,0h1l0,0l1-1l1-1h1l2-1l0,0h1v2v1v1v6v3v1v2v1l0,0l0,0v1l-2,1h-1l-1,1h-1l0,0h-1h-1v1l0,0l-2,3h-1h-1
			l0,0l0,0l0,0v1l0,0l0,0l0,0l0,0v2h-1l-3,0h-1l0,0h-1l1,1v1v1l0,0v1l0,0l0,0v1v2l0,0h1l0,0l1,1l2,1l1-1l0,0h1l0,0l0,0h1l0,0l0,0v-1
			l0,0l0,0h1h1h3v1h1v1v2l3,0l0,0v1l0,0h1v2l-1,2v1h-1v1v2v1h-1l2,1v1l0,0l-1,1h-1h-1h-1h-1l0,0h-1l0,0l-1-1l0,0v1h-1h-2l0,0h-1h-1
			l0,0h-1h-1h-2l0,0l0,0h-2l0,0h-1h-2h-1h-1l0,0l0,0v1l0,0l0,0l-1,1h-1h-2h-1l0,0h-2l0,0h-1h-4h-1l0,0h-1h-2h-1h-1h-1l0,0l-2-1l-1,1
			v-1l0,0l-1,1h-1h-2l0,0h-1H9H7l0,0H6H5l0,0l-1-1H1v-1v-1v-1v-1v-1v-1l0,0l0,0l0,0v-1v-1v-1l0,0v-1v-1v-4v-1l0,0v-1l0,0v-1v-1l0,0
			v-2l0,0l0,0l0,0v-1l0,0v-1v-5v-1l0,0l0,0l-1-2v-1v-1l1-1l0,0l1-2h1H1l1-1v-1v-2l0,0h1v-1l1-2l0,0v-1h1v-1v-1l1-1l1-1l0,0h1h1l1-1
			h1l0,0v-1l3-1h1l1-1h1h2h1l0,0h1H23L23,92L23,92z M15,141L15,141L15,141L15,141L15,141L15,141L15,141z M38,141L38,141L38,141
			L38,141L38,141z M42,141L42,141L42,141L42,141L42,141z M8,141L8,141L8,141L8,141L8,141z M35,140L35,140L35,140L35,140L35,140z
			 M28,140L28,140L28,140L28,140L28,140z M31,140L31,140L31,140L31,140L31,140L31,140z M16,139L16,139L16,139L16,139L16,139z M9,139
			L9,139L9,139L9,139L9,139L9,139z M14,138L14,138L14,138L14,138L14,138L14,138z M21,139L21,139L21,139L21,139L21,139L21,139L21,139
			z M29,138L29,138L29,138L29,138L29,138L29,138L29,138z M7,139L7,139L7,139L7,139z M12,138L12,138L12,138L12,138L12,138L12,138z
			 M45,138L45,138L45,138L45,138L45,138z M51,139L51,139L51,139L51,139z M28,138L28,138L28,138L28,138z M19,137L19,137L19,137
			L19,137L19,137L19,137z M40,137L40,137L40,137h-1l0,0H40L40,137L40,137z M2,137L2,137L2,137L2,137z M7,137L7,137L7,137L7,137
			L7,137L7,137L7,137L7,137z M6,137L6,137L6,137L6,137z M31,137L31,137L31,137L31,137z M19,136L19,136L19,136L19,136L19,136z
			 M44,136L44,136L44,136L44,136L44,136L44,136z M49,136L49,136L49,136L49,136L49,136L49,136L49,136z M52,136L52,136L52,136L52,136
			L52,136z M28,136L28,136L28,136L28,136L28,136z M13,136L13,136L13,136L13,136L13,136z M33,136L33,136L33,136L33,136L33,136L33,136
			L33,136L33,136z M41,135L41,135L41,135L41,135L41,135L41,135z M11,136L11,136L11,136L11,136L11,136z M16,135L16,135L16,135L16,135
			L16,135z M48,135L48,135L48,135L48,135L48,135z M14,135L14,135L14,135L14,135L14,135L14,135L14,135z M46,135L46,135L46,135L46,135
			L46,135z M6,135L6,135L6,135L6,135L6,135L6,135z M23,134L23,134L23,134L23,134L23,134L23,134z M7,134L7,134L7,134L7,134L7,134z
			 M51,134L51,134L51,134L51,134z M44,134L44,134h-1H44L44,134L44,134L44,134z M37,135L37,135L37,135L37,135L37,135z M13,134L13,134
			L13,134L13,134z M12,134L12,134L12,134L12,134z M42,133L42,133L42,133L42,133L42,133z M48,133L48,133L48,133L48,133L48,133z
			 M33,133L33,133L33,133L33,133L33,133L33,133z M30,133L30,133L30,133L30,133z M45,133L45,133L45,133L45,133L45,133L45,133z
			 M29,133L29,133L29,133L29,133L29,133z M38,132L38,132L38,132L38,132L38,132z M51,132L51,132L51,132L51,132L51,132L51,132L51,132
			L51,132z M37,132L37,132L37,132L37,132L37,132L37,132z M6,133L6,133L6,133L6,133L6,133L6,133z M43,132L43,132L43,132L43,132
			L43,132L43,132z M18,131L18,131L18,131L18,131L18,131z M46,131L46,131L46,131L46,131L46,131L46,131L46,131z M14,131L14,131L14,131
			L14,131L14,131L14,131z M32,131L32,131L32,131L32,131L32,131z M13,130L13,130L13,130L13,130z M6,130L6,130L6,130L6,130L6,130
			L6,130z M3,130L3,130L3,130L3,130L3,130L3,130L3,130z M33,130L33,130L33,130L33,130L33,130z M17,129L17,129L17,129L17,129L17,129z
			 M38,129L38,129L38,129L38,129L38,129L38,129L38,129z M43,129L43,129L43,129L43,129L43,129L43,129z M36,128L36,128L36,128L36,128
			L36,128L36,128z M11,128L11,128L11,128h-1H11z M41,128L41,128L41,128L41,128L41,128z M30,118L30,118v-2v-1l0,0v-1v-1l0,0l-1-3
			l-2-1h-1l0-1h-1l0,0l-1-1h-5l-3,3l0,0l-1,2v1l0,0h-1l0,0h1v1v1v1v2v1v1l0,0v1l0,0l-1,1v1v1v1v2l2,1h5h1h1h6l1-2v-2v-1l0,0l0,0l0,0
			l0,0l0,0l0,0v-2v-1v-1V118L30,118L30,118z M34,128L34,128L34,128L34,128L34,128L34,128z M5,128L5,128L5,128L5,128L5,128z M41,127
			L41,127L41,127L41,127L41,127z M38,126L38,126L38,126L38,126L38,126z M12,126L12,126L12,126L12,126z M40,125L40,125L40,125L40,125
			L40,125L40,125L40,125L40,125z M8,125L8,125L8,125L8,125L8,125L8,125z M39,124L39,124L39,124l-2,1L39,124L39,124
			C39,125,39,124,39,124z M36,124L36,124L36,124L36,124L36,124L36,124z M5,122L5,122L5,122L5,122L5,122L5,122z M10,121L10,121h1H10
			L10,121L10,121L10,121z M35,122L35,122L35,122L35,122L35,122L35,122z M13,121L13,121L13,121L13,121L13,121z M41,121L41,121L41,121
			L41,121L41,121z M9,121L9,121L9,121L9,121z M38,120L38,120L38,120v1V120L38,120z M7,120L7,120L7,120L7,120L7,120L7,120z M10,119
			L10,119L10,119L10,119L10,119L10,119L10,119L10,119z M11,120L11,120L11,120L11,120z M41,119L41,119L41,119L41,119L41,119L41,119
			L41,119z M39,118L39,118L39,118L39,118L39,118z M44,118L44,118L44,118L44,118L44,118z M3,118L3,118L3,118L3,118L3,118z M36,117
			L36,117L36,117h-1l0,0H36L36,117z M42,117L42,117L42,117L42,117L42,117z M8,116L8,116l1,1L8,116L8,116L8,116z M40,116L40,116
			L40,116h-2l0,0l0,0l0,0l0,0H40L40,116L40,116z M40,117L40,117L40,117L40,117z M2,117L2,117L2,117L2,117L2,117z M6,116L6,116L6,116
			L6,116L6,116z M34,115L34,115L34,115L34,115L34,115z M7,115L7,115L7,115L7,115L7,115L7,115z M46,114L46,114L46,114L46,114L46,114
			L46,114z M39,114L39,114L39,114L39,114L39,114z M37,114L37,114L37,114L37,114L37,114z M42,114L42,114L42,114v-1V114L42,114L42,114
			z M12,114L12,114L12,114L12,114L12,114L12,114z M44,113L44,113L44,113L44,113L44,113L44,113z M10,113L10,113L10,113L10,113L10,113
			z M35,112L35,112L35,112L35,112L35,112v1V112L35,112L35,112z M49,113L49,113L49,113L49,113z M47,112L47,112L47,112L47,112L47,112
			L47,112z M9,112l-1-1L9,112L9,112z M6,112L6,112L6,112h1H6L6,112L6,112L6,112z M33,112L33,112L33,112L33,112z M38,112L38,112
			L38,112L38,112L38,112z M45,111L45,111L45,111L45,111L45,111L45,111z M50,112L50,112L50,112L50,112L50,112z M12,112L12,112L12,112
			L12,112L12,112L12,112L12,112z M36,112L36,112L36,112L36,112L36,112z M9,111L9,111L9,111L9,111L9,111L9,111z M43,111L43,111
			L43,111L43,111L43,111L43,111z M48,110L48,110L48,110L48,110L48,110z M33,110L33,110L33,110L33,110L33,110z M39,110L39,110L39,110
			L39,110L39,110L39,110L39,110z M6,110L6,110L6,110L6,110L6,110L6,110z M37,109L37,109h1l0,0H37L37,109L37,109L37,109z M53,110
			L53,110L53,110L53,110L53,110z M35,110L35,110L35,110L35,110L35,110L35,110z M51,109L51,109L51,109L51,109z M10,109L10,109L10,109
			L10,109L10,109L10,109L10,109z M49,109L49,109L49,109L49,109L49,109z M43,109L43,109L43,109L43,109L43,109z M40,109L40,109L40,109
			L40,109L40,109L40,109L40,109z M33,109L33,109L33,109L33,109L33,109z M9,109L9,109L9,109L9,109z M31,108L31,108L31,108L31,108z
			 M7,108L7,108L7,108L7,108L7,108L7,108z M52,108L52,108L52,108L52,108L52,108z M4,108L4,108L4,108L4,108L4,108z M50,107L50,107
			L50,107L50,107L50,107L50,107L50,107z M43,107L43,107L43,107L43,107L43,107z M34,107L34,107L34,107L34,107L34,107L34,107z M36,107
			L36,107L36,107L36,107L36,107z M10,107L10,107L10,107v-1V107L10,107L10,107z M41,107L41,107L41,107L41,107L41,107z M39,106L39,106
			L39,106L39,106L39,106L39,106z M9,106L9,106L9,106L9,106L9,106z M44,105L44,105L44,105L44,105L44,105L44,105L44,105z M46,106
			L46,106L46,106L46,106L46,106L46,106L46,106L46,106z M14,106L14,106h1H14L14,106L14,106z M30,106L30,106L30,106L30,106L30,106z
			 M33,105L33,105L33,105L33,105L33,105L33,105L33,105z M42,105L42,105L42,105L42,105L42,105L42,105z M49,105L49,105L49,105L49,105
			L49,105L49,105z M8,104L8,104L8,104h1l0,0H8L8,104z M35,105L35,105L35,105L35,105L35,105z M38,104L38,104L38,104L38,104L38,104
			L38,104L38,104z M11,104L11,104L11,104L11,104L11,104z M40,104L40,104L40,104L40,104L40,104z M22,105L22,105L22,105L22,105z
			 M13,103L13,103L13,103L13,103L13,103L13,103L13,103z M36,103L36,103L36,103L36,103z M29,103L29,103L29,103L29,103L29,103z
			 M51,103L51,103L51,103L51,103L51,103L51,103z M19,103L19,103L19,103h-1l0,0H19L19,103L19,103z M16,103L16,103L16,103L16,103
			L16,103L16,103L16,103z M24,102L24,102L24,102L24,102L24,102L24,102z M8,102L8,102L8,102L8,102L8,102L8,102z M21,102L21,102
			L21,102L21,102L21,102z M13,102L13,102L13,102L13,102L13,102L13,102L13,102L13,102z M37,102L37,102L37,102L37,102L37,102z M26,101
			L26,101L26,101L26,101z M18,101L18,101L18,101v-1V101L18,101L18,101L18,101L18,101z M20,101L20,101L20,101L20,101L20,101z M31,100
			L31,100L31,100L31,100L31,100L31,100z M15,101L15,101L15,101L15,101L15,101L15,101z M23,100L23,100L23,100L23,100L23,100L23,100z
			 M28,99L28,99L28,99L28,99L28,99L28,99L28,99z M12,99L12,99L12,99L12,99L12,99L12,99z M16,98L16,98v1l0,0V98L16,98L16,98z M25,99
			L25,99L25,99l2-1l0,0L25,99L25,99L25,99z M33,98L33,98L33,98h-1H33L33,98z M30,98L30,98L30,98L30,98L30,98z M14,98L14,98L14,98
			L14,98L14,98L14,98z M24,98L24,98L24,98L24,98L24,98z M20,97L20,97L20,97L20,97L20,97L20,97L20,97L20,97z M22,97L22,97L22,97
			L22,97L22,97L22,97z M16,97L16,97L16,97L16,97z M24,96L24,96L24,96L24,96L24,96z M21,95L21,95L21,95L21,95L21,95z"/>
		<path class="st0" d="M7,39L7,39h2h2l1-1l3,1l1,1v2v1l0,0v1v3v1v1v2v1l0,0l0,0v1v2l-1,1h1v4v3l0,0l-1,1v2l0,0h-1l1,1v1l1,1l0,0h1h1
			l0,0h1l0,0l0,0h1l2-1h1v-1l1-1v-2l0,0l0,0v-2v-1v-1v-1l0,0l1-1l0,0l0,0l0,0l0,0v-2v-2l0,0l0,0v-3v-1v-1v-3l1-1h1h3h1h-1l0,0l1-1h1
			l0,0l0,0l0,0h1h1l0,0l0,0h2v1l0,0h1h1l0,0l0,0l0,0l0,0l1,1l0,0v1h1v2v2v1v2h-1l0,0l-1,1v1l0,0v1l0,0l0,0v2h-1l0,0l0,0l0,0v4v2v1v1
			l3,2h4h1l1-1v-2v-1v-1v-2l0,0l0,0l1-1l0,0l0,0l0,0l0,0v-1v-3v-1l0,0l0,0l0,0l0,0l0,0v-1l0,0l0,0l0,0l0,0l1-1l0,0l0,0l0,0v-1v-2v-1
			l0,0l0,0h-1v-1l-2-4v-1v-1l0,0l0,0l1-2l1-1l0,0h1h1l0,0l0,0h1h3l0,0l1-1l0,0h1v-1h1l0,0l0,0l0,0l0,0l4,3l0,0l0,0v1v3v1v1l0,0v2
			l0,0l0,0v2l0,0l0,0v1v1v1l0,0v1l0,0l0,0l0,0l0,0l0,0v1v3v1v1l0,0v1l0,0v1v2v1l0,0l0,0v2l0,0v1v1v2l0,0v2l1,1v2v1v1v1l0,0v1v1v1v1
			l-2,1l0,0l0,0l0,0l0,0l0,0l0,0v-1h-1l-4,1l0,0l0,0h-2h-1h-2h-2h-1l0,0h-1h-1l0,0l0,0h-2h-1l0,0v-1l-1,1l0,0l0,0l0,0h-2l0,0v-1v1
			h-2h-1h-1l0,0h-2h-1h-4h-1h-3h-1h-1l0,0h-2l0,0l0,0l0,0h-1h-1h-1h-1l0,0h-2l0,0h-1h-1l0,0H9H7l0,0H6H4H2H1l0,0v-7l1-1l0,0l0,0v-1
			l0,0l-2-4v-1l0,0l0,0l0,0l0,0v-1l1-1l-1-1v-6v-1v-1v-1v-2v-1l0,0v-1v-4v-3v-1v-2v0v-1v-1v-2l1-2h2h3H7L7,39z M43,84L43,84L43,84
			L43,84z M56,84L56,84L56,84L56,84L56,84z M45,83L45,83L45,83L45,83L45,83L45,83z M14,83L14,83L14,83L14,83z M50,82L50,82L50,82
			L50,82L50,82L50,82z M17,82L17,82L17,82L17,82L17,82L17,82z M20,82L20,82L20,82L20,82z M9,82L9,82L9,82L9,82L9,82z M25,82L25,82
			L25,82l-1-1l0,0L25,82L25,82z M55,82L55,82L55,82L55,82L55,82L55,82z M39,82L39,82L39,82h-1v1L39,82L39,82L39,82z M16,82L16,82
			L16,82L16,82L16,82z M23,81L23,81L23,81L23,81L23,81z M31,81L31,81L31,81L31,81L31,81L31,81z M46,81L46,81L46,81L46,81L46,81z
			 M44,81L44,81h-1l0,0H44L44,81L44,81z M35,81L35,81L35,81L35,81L35,81z M14,81L14,81L14,81L14,81z M12,80L12,80L12,80L12,80z
			 M35,80L35,80L35,80L35,80L35,80L35,80z M50,80L50,80h-1l0,0l0,0l0,0H50L50,80z M40,80L40,80v-1l0,0V80L40,80L40,80z M19,80L19,80
			L19,80L19,80L19,80L19,80z M26,80L26,80L26,80L26,80z M17,80L17,80L17,80L17,80h-1H17L17,80z M38,80L38,80L38,80L38,80L38,80z
			 M8,80L8,80L8,80L8,80L8,80z M3,80L3,80L3,80L3,80z M45,80L45,80v-1l0,0l0,0l0,0V80L45,80L45,80z M54,79L54,79l-1,1L54,79L54,79
			L54,79z M24,79L24,79L24,79L24,79L24,79z M6,79H5l0,0H6L6,79L6,79z M22,79L22,79L22,79L22,79L22,79L22,79L22,79L22,79L22,79z
			 M30,79L30,79L30,79L30,79L30,79L30,79L30,79z M52,79L52,79L52,79L52,79L52,79L52,79z M13,79L13,79h1l0,0H13L13,79L13,79L13,79z
			 M15,79L15,79L15,79L15,79z M26,78L26,78L26,78L26,78L26,78l1,1l0,0L26,78L26,78z M35,79L35,79L35,79L35,79L35,79z M50,78L50,78
			L50,78L50,78L50,78L50,78z M11,78L11,78L11,78z M42,78L42,78L42,78L42,78z M18,78L18,78l-1-1L18,78L18,78L18,78L18,78z M32,78
			L32,78L32,78L32,78L32,78z M49,78L49,78L49,78h-2v1l0,0L49,78L49,78L49,78z M3,78L3,78L3,78L3,78L3,78z M40,77L40,77L40,77L40,77
			L40,77L40,77z M33,78L33,78L33,78L33,78L33,78z M53,77L53,77L53,77L53,77h-1H53L53,77L53,77L53,77z M10,77L10,77L10,77L10,77
			L10,77L10,77z M47,77L47,77L47,77L47,77L47,77L47,77L47,77z M7,77L7,77L7,77L7,77L7,77L7,77z M28,77L28,77L28,77L28,77L28,77
			L28,77z M22,77L22,77L22,77L22,77L22,77L22,77z M21,76L21,76L21,76L21,76L21,76L21,76z M13,76L13,76h-1v1L13,76L13,76L13,76L13,76
			z M27,76L27,76l-2-1v1l0,0l0,0l0,0H27L27,76z M36,76L36,76L36,76L36,76L36,76L36,76z M49,75L49,75L49,75L49,75L49,75L49,75z M6,76
			L6,76L6,76L6,76L6,76z M33,76L33,76L33,76L33,76L33,76L33,76L33,76z M18,75L18,75L18,75L18,75L18,75L18,75L18,75z M30,76L30,76
			L30,76h1l0,0H30L30,76L30,76L30,76L30,76z M47,76L47,76L47,76L47,76L47,76L47,76L47,76L47,76z M10,75L10,75L10,75L10,75L10,75z
			 M1,76L1,76L1,76L1,76z M9,75L9,75L9,75L9,75z M52,75L52,75L52,75l1-1h-2L52,75L52,75L52,75z M15,75L15,75L15,75L15,75L15,75z
			 M22,75L22,75l-1-1l0,0L22,75L22,75z M39,75L39,75L39,75L39,75L39,75L39,75L39,75z M7,75L7,75L7,75L7,75L7,75L7,75L7,75z M30,75
			L30,75L30,75L30,75L30,75z M44,75L44,75L44,75L44,75L44,75L44,75L44,75z M27,74L27,74L27,74L27,74L27,74L27,74L27,74L27,74z
			 M36,74L36,74L36,74L36,74z M37,75L37,75L37,75L37,75L37,75z M56,75L56,75L56,75L56,75v-1V75L56,75L56,75z M20,74h-1l0,0l0,0H20
			L20,74L20,74z M25,74L25,74L25,74l-1-1l0,0L25,74L25,74z M35,74L35,74L35,74L35,74L35,74z M49,74L49,74L49,74L49,74L49,74L49,74z
			 M32,73L32,73L32,73L32,73L32,73L32,73z M9,74L9,74L9,74L9,74L9,74z M12,73L12,73L12,73h-1H12L12,73L12,73L12,73z M30,73L30,73
			L30,73L30,73h-1H30L30,73L30,73z M56,73L56,73L56,73L56,73z M10,73L10,73L10,73L10,73L10,73L10,73z M17,73L17,73L17,73h-1l0,0H17
			L17,73z M38,73L38,73L38,73L38,73L38,73L38,73z M35,73L35,73L35,73L35,73L35,73z M54,73L54,73L54,73L54,73L54,73L54,73z M51,73
			L51,73L51,73L51,73l-1-1L51,73L51,73z M36,73L36,73L36,73L36,73L36,73z M26,73L26,73L26,73L26,73L26,73L26,73z M6,72L6,72L6,72
			L6,72L6,72z M10,72L10,72L10,72L10,72L10,72L10,72z M19,72L19,72L19,72L19,72L19,72z M34,72L34,72L34,72L34,72L34,72z M55,72
			L55,72L55,72L55,72L55,72L55,72L55,72L55,72z M24,71L24,71L24,71L24,71L24,71L24,71L24,71z M4,72L4,72L4,72L4,72z M31,72L31,72v-1
			V72L31,72L31,72z M29,71L29,71L29,71L29,71L29,71L29,71L29,71z M15,71L15,71L15,71L15,71L15,71L15,71L15,71z M36,71L36,71L36,71
			L36,71L36,71L36,71z M7,71L7,71L7,71L7,71L7,71L7,71z M53,70L53,70L53,70L53,70z M33,71L33,71h1l0,0H33L33,71L33,71L33,71z M50,71
			L50,71L50,71L50,71L50,71z M14,70L14,70L14,70L14,70z M27,70L27,70L27,70L27,70z M5,70L5,70L5,70L5,70L5,70z M55,70v-1h-1L55,70
			L55,70L55,70z M11,70L11,70L11,70L11,70z M32,70L32,70L32,70L32,70L32,70z M28,68L28,68L28,68L28,68L28,68z M6,68L6,68L6,68L6,68z
			 M32,68L32,68L32,68L32,68L32,68L32,68L32,68z M13,68L13,68L13,68L13,68z M56,67L56,67L56,67L56,67L56,67z M13,67L13,67L13,67
			L13,67L13,67L13,67z M59,66L59,66L59,66L59,66L59,66z M27,66L27,66L27,66L27,66L27,66z M32,66L32,66L32,66v-1V66L32,66L32,66z
			 M7,65L7,65L7,65L7,65L7,65z M29,64L29,64L29,64L29,64L29,64z M33,64L33,64L33,64L33,64L33,64z M31,63L31,63L31,63v-1V63L31,63z
			 M55,63L55,63L55,63L55,63z M30,62L30,62L30,62L30,62z M27,63L27,63L27,63L27,63z M52,62L52,62L52,62L52,62L52,62L52,62z M11,62
			L11,62L11,62L11,62L11,62z M32,62L32,62L32,62L32,62L32,62L32,62L32,62z M30,61L30,61L30,61L30,61L30,61L30,61L30,61L30,61z
			 M54,61L54,61L54,61L54,61L54,61z M36,59L36,59h-1H36L36,59z M58,60L58,60L58,60L58,60z M32,59L32,59L32,59L32,59L32,59L32,59
			L32,59z M30,58L30,58L30,58L30,58L30,58z M34,58L34,58L34,58L34,58L34,58z M30,56L30,56L30,56L30,56z M28,56L28,56L28,56L28,56z
			 M35,56L35,56L35,56L35,56L35,56z M52,55L52,55L52,55L52,55L52,55z M33,55L33,55L33,55h-1H33L33,55L33,55z M54,55L54,55L54,55
			L54,55L54,55L54,55z M9,54L9,54L9,54L9,54L9,54L9,54z M30,54L30,54L30,54L30,54L30,54z M59,53L59,53L59,53L59,53L59,53z M27,53
			L27,53L27,53L27,53z M58,52L58,52L58,52L58,52L58,52L58,52z M4,52L4,52L4,52L4,52L4,52L4,52z M33,52L33,52L33,52L33,52z M50,51
			L50,51L50,51L50,51z M31,50L31,50L31,50L31,50L31,50z M53,50L53,50L53,50L53,50L53,50z M57,50L57,50L57,50L57,50L57,50L57,50z
			 M46,48L46,48L46,48L46,48L46,48z M33,48L33,48L33,48L33,48z M31,48L31,48L31,48L31,48L31,48z M56,47L56,47L56,47L56,47L56,47
			L56,47z M47,47L47,47L47,47L47,47z M58,46L58,46L58,46L58,46L58,46z M53,45L53,45L53,45L53,45L53,45z M52,44L52,44L52,44L52,44z
			 M46,44L46,44L46,44L46,44L46,44z M59,43L59,43L59,43L59,43L59,43z M54,43L54,43L54,43L54,43L54,43z M53,42L53,42L53,42L53,42
			L53,42z M52,40L52,40L52,40L52,40L52,40z"/>
	</g>
	<g>
		<path class="st0" d="M180,117L180,117l-1,1v1l-1,2h-1v1v1h-1v2l-1,0l-2,1v1v1h-1h-1v1l-1,2l-1,1l-3,1v1h-1l-1,1l-1,1h-1l-1,1l-5,2
			l-1,1h-1l-4,3l-2,1h-3l-1,1h-1h-1h-2l-1-1h-1h-1v1h-1l-3,1l-3-1l-1,1l-1-1h-1h-1h-2l-3-1l-1,1v-1l-1,1l-4-1v-2h-1l-1,1h-1v-1h-2
			v-1v-1l0,0v1l-3-1l-6-4l-3-1l-1-1l-2-1l-5-5l-1-1v-1h-1l-1-2l-2-1l-1-2l-2-4l-1-1v-1v-1v-1h-1l-1-2v-1l-1-2v-1l-2-1v-3l-1-6v-2v-2
			v-1v-1v-1v-3l1-3v-1v-1v-4l1-3v-1h1h1l-1-1v-1l2-3v-1h1h1v-1v-1v-1l1-2l1-1h1v-2h1l1-1h1v-2h1v-1l1-2l1-1h1v-1l0,0v-1l3-1l1-2h1
			l1-2l2,0v-1v-1l1,1h1l1-2h1l2-2l5-2h2l1-1h3h2l1-1l3-1h1l1,1l4-1l1-1h3l1,1l1-1h1l1,1h5l3,1l1,1l1,1l1-1h1l8,3l1,1h1v1l4,3v1l2,1
			l2,2l6,7v1v1h1l1,3l5,2v1l-1,1h-1l-1,1l-1,1l-6,3l-1,1h-1l-1,1h-1h-1l-1,1h-1h-1v-1l-1,1v1h-2l-1,1l-3-1l-1-1l1-1v-1l-1-1h-1l-3-1
			l-4-3l1-1v-1h-1h-1h-1v-1l1-1h-1l-3,1l0,0h-1v-1h-2h-9l-1,1h-2l-3,1h-1l-3,0l-2,1l-3,2l-1,1h-1l-3,1v2l-1,1l-2,4l-2,2v2l-1,1v1
			l-1,4l1,1v1v3v1h-1l1,1l1,1v1v1l1,1v1v2h1h1l1,3l4,5h1l2,2l1,1l1,3l6,3h1l2,1h9l3-1h1l3-1l2-1l2-1h1v-2h2l3-3l2-3h3v-2h2v1l2,1
			l1,1v1l3-1l2,1h1v1l1,1l1-2h1v1v1h2l2,1h1v1v1h1h1l2,1L180,117L180,117z M81,87L81,87L81,87L81,87L81,87z M82,98L82,98L82,98
			L82,98L82,98z M83,75L83,75L83,75L83,75z M83,84L83,84h1v-1L83,84L83,84L83,84z M85,97L85,97L85,97L85,97L85,97z M87,102v-1l-1-1
			v1L87,102L87,102L87,102z M87,106l-1-1v1H87z M86,74L86,74L86,74L86,74L86,74z M87,77L87,77L87,77L87,77L87,77L87,77z M87,98
			L87,98L87,98L87,98L87,98z M88,112v-1h-1L88,112L88,112L88,112L88,112z M90,68L90,68v-1l0,0V68h-1C88,68,90,68,90,68z M89,95
			L89,95L89,95L89,95L89,95z M90,119L90,119L90,119L90,119L90,119z M90,63L90,63v1V63L90,63L90,63L90,63z M90,77L90,77l1-1h-1V77
			L90,77z M90,79L90,79L90,79L90,79L90,79z M91,116l-1-1v1H91L91,116z M91,88L91,88L91,88L91,88z M91,104L91,104L91,104L91,104z
			 M91,72L91,72L91,72L91,72L91,72L91,72z M93,81v-1h-2v1v1L93,81L93,81z M92,84L92,84v1V84L92,84L92,84z M93,110L93,110L93,110
			L93,110L93,110z M92,69L92,69L92,69L92,69L92,69z M93,65L93,65L93,65v1V65L93,65z M93,61L93,61v1h1v-1H93L93,61z M95,98L95,98h-1
			h-1v1L95,98L95,98L95,98z M94,105L94,105L94,105L94,105z M94,120L94,120L94,120L94,120L94,120z M94,70L94,70L94,70l1,1v-1H94
			L94,70L94,70z M94,74L94,74L94,74L94,74z M95,126L95,126L95,126L95,126z M95,59L95,59L95,59L95,59z M95,86L95,86L95,86L95,86
			L95,86z M95,71L95,71L95,71L95,71L95,71z M97,80L97,80l-1-2v1L97,80L97,80z M96,68L96,68L96,68L96,68L96,68z M97,105l-1,2v1h1l1-4
			l-1-1v1V105L97,105L97,105z M98,63l-1,1v1h1V63L98,63L98,63z M98,120L98,120v-1V120L98,120L98,120z M97,60v1h1v-1v-1L97,60L97,60z
			 M98,116L98,116L98,116L98,116L98,116z M98,111L98,111L98,111L98,111L98,111z M100,69L100,69v-1h-1v1v1h1V69L100,69z M99,58L99,58
			L99,58L99,58L99,58z M99,71L99,71v1V71L99,71L99,71z M100,123L100,123L100,123v1V123z M100,53v1h1v-1H100L100,53L100,53L100,53z
			 M101,63L101,63h2v-1L101,63L101,63z M101,114L101,114L101,114L101,114L101,114z M101,58L101,58l1,1l1-1H101L101,58z M104,68
			L104,68l-1-1h-1v1H104L104,68z M103,56L103,56L103,56v-1V56z M104,52L104,52L104,52l1,1v-1v-1L104,52L104,52z M105,132L105,132
			L105,132L105,132L105,132z M105,62l1-1h-1h-1v1H105L105,62z M106,70L106,70L106,70L106,70L106,70z M106,58L106,58L106,58L106,58
			L106,58z M107,121L107,121L107,121L107,121L107,121z M107,65L107,65L107,65L107,65z M109,60L109,60h1H109L109,60z M109,54L109,54
			l1,1v-1H109L109,54L109,54z M111,66L111,66L111,66L111,66L111,66z M113,129L113,129v-1V129h-1H113L113,129z M114,143L114,143
			L114,143L114,143z M114,125L114,125L114,125L114,125L114,125z M114,54L114,54L114,54L114,54z M115,50L115,50h1H115L115,50z
			 M116,47L116,47L116,47L116,47L116,47z M118,55L118,55L118,55v1V55L118,55z M119,52L119,52L119,52L119,52L119,52z M119,49L119,49
			L119,49L119,49L119,49L119,49z M123,133L123,133l-1,1h1V133z M122,49L122,49v1h1v-1H122L122,49z M123,47L123,47L123,47L123,47
			L123,47z M126,132L126,132l1-1h-1h-1L126,132L126,132L126,132z M127,48L127,48L127,48L127,48z M128,136L128,136L128,136L128,136
			L128,136L128,136L128,136z M131,127L131,127L131,127L131,127z M131,46L131,46v-1h-1v1H131z M131,55L131,55L131,55h1H131z M135,127
			L135,127L135,127L135,127L135,127z M137,52L137,52L137,52L137,52z M138,47L138,47L138,47L138,47L138,47z M144,50L144,50L144,50
			L144,50L144,50L144,50z M147,124L147,124l-1-1L147,124L147,124z M152,47L152,47L152,47L152,47L152,47z M154,56L154,56v-1l0,0V56z
			 M154,53L154,53L154,53L154,53L154,53z M155,64L155,64L155,64L155,64z M156,73L156,73L156,73L156,73L156,73L156,73L156,73z
			 M157,125L157,125v-1h-1v1H157L157,125z M156,129L156,129L156,129L156,129L156,129z M158,54L158,54L158,54L158,54L158,54L158,54z
			 M158,107L158,107L158,107L158,107L158,107z M159,131L159,131L159,131L159,131z M160,135L160,135L160,135L160,135L160,135z
			 M172,126L172,126L172,126L172,126L172,126z"/>
		<path class="st0" d="M300,85l-1-2v-4v-2l-1-2v-2l-1-2l-1-1h-1v-1l0,0l-1-1l-1-1v-2l-1-2v-1l-1-1l-1,0v-1h-1v-1h-1v-1h1v-1l-1-1
			l-3-1v-1l-1-1v-1h-1v-1l0,0l-1-1l-2-2l-2-1h-1v-1l-2-1l-7-4h-2v-1l-1-1h-2l-1-1v-1h-4h-1l-3-1l-1-1h-2h-3h-1h-1h-2l-7,1l0-1l-1,1
			h-2h-1h-2l-1,1h-1h-1l-3,1l-6,2l-3,2l-1,1h-1v1l-4,3l-1,1v1h-2l-1,1v1l1,1v1h-1h-2l-1,2h-1h-2h1v1h-1v1l-1,1v1v-1l-3,4v2l-1,1v2
			l-1,1l-1,1v2l-3,2l-1,3l-1,3l1,1l-1,1v4l-1,3l1,2v1v5l1,2l-1,1l1,1l1,5h1v1h-1v1v1l1,5l1,1l1,1v2l2,3v1l2,2l3,2l3,2l1,1h1l1,2l2,2
			l1,1h2v1v1l3,1l1,1h1l2,1l1,1h1h1l4,2l1-1l2,1h2h1l2,1h2h1h1l1,1l2-1l1,1h1h3h2l1-1h1h3l5-1l1,1l1-2h1l1,1l5-2l4-1l1-1l3-1l1-1
			l2-1l6-5l5-4v-1l1-1v-1l1,0v-1l1-1l3-6v-3l4-6v-2l2-5V85z M194,96L194,96L194,96L194,96L194,96L194,96z M194,93L194,93L194,93
			L194,93z M280,62L280,62L280,62h-1v-1L280,62z M279,67L279,67v1l-1-1v-1h1V67z M279,76L279,76L279,76L279,76L279,76z M275,68
			L275,68L275,68L275,68L275,68z M277,100L277,100L277,100L277,100L277,100z M275,106L275,106l-1,1v-1H275L275,106z M276,114h1v2v1
			h-1V114L276,114z M277,81L277,81L277,81L277,81L277,81z M277,49L277,49L277,49L277,49L277,49L277,49z M274,54L274,54l1,1h-1V54
			L274,54L274,54z M270,58c2-2,5-2,6,0c2,2,2,5,0,6c-2,2-5,2-6,0C268,62,268,60,270,58z M273,114h-1v-1L273,114L273,114z M272,69
			L272,69L272,69L272,69L272,69z M268,51L268,51L268,51L268,51l1,1h-1V51L268,51z M268,54L268,54L268,54L268,54L268,54L268,54
			L268,54z M268,53L268,53L268,53L268,53L268,53z M267,58L267,58L267,58L267,58L267,58z M265,49L265,49h1H265L265,49L265,49z
			 M264,52L264,52l1,1h-1V52L264,52z M266,62L266,62h-1H266z M263,57L263,57L263,57h1H263L263,57L263,57L263,57z M262,58v2h-1l-1-1
			v-1L262,58L262,58z M261,50L261,50L261,50v1V50L261,50z M259,61L259,61L259,61L259,61L259,61z M255,56L255,56L255,56v1V56L255,56z
			 M255,60L255,60L255,60L255,60L255,60z M254,48L254,48L254,48L254,48z M252,46L252,46L252,46L252,46L252,46z M250,49L250,49v1V49
			L250,49L250,49z M248,56L248,56h1H248L248,56z M241,44L241,44L241,44L241,44L241,44z M243,44c2,0,4,2,4,4c0,2-2,4-4,4
			c-2,0-4-2-4-4C239,46,241,44,243,44z M246,54L246,54L246,54L246,54L246,54z M238,54L238,54L238,54L238,54z M237,41L237,41L237,41
			L237,41L237,41z M235,51L235,51L235,51L235,51L235,51z M228,49L228,49L228,49L228,49z M223,52L223,52L223,52L223,52L223,52z
			 M217,48L217,48L217,48L217,48L217,48z M211,58c2-2,5-2,6,0c2,2,2,5,0,6c-2,2-5,2-6,0C209,62,209,60,211,58z M216,69L216,69
			L216,69L216,69L216,69L216,69z M215,111L215,111L215,111L215,111L215,111z M214,75L214,75l-1,1v-1v-1L214,75L214,75z M211,99
			L211,99L211,99L211,99L211,99z M210,86L210,86L210,86L210,86L210,86z M209,65L209,65L209,65L209,65L209,65L209,65z M208,68L208,68
			L208,68L208,68z M206,59L206,59v1V59L206,59z M207,62L207,62L207,62L207,62z M207,63L207,63L207,63L207,63z M205,81L205,81L205,81
			L205,81z M203,74L203,74L203,74L203,74L203,74L203,74z M204,85L204,85L204,85L204,85L204,85L204,85z M197,103L197,103L197,103
			l-1-1L197,103L197,103L197,103z M200,104L200,104v-2h1L200,104L200,104z M199,100L199,100L199,100l1,1L199,100L199,100z M201,113
			L201,113v-1V113L201,113z M201,96L201,96L201,96L201,96L201,96z M202,95c-2,0-4-2-4-4s2-4,4-4c2,0,4,2,4,4C206,93,204,95,202,95z
			 M204,99L204,99L204,99v-1V99L204,99L204,99z M205,108L205,108L205,108l2-1v1H205L205,108z M205,116L205,116L205,116L205,116
			L205,116z M206,120L206,120l-1-1h1V120z M207,97L207,97L207,97L207,97L207,97L207,97z M207,100L207,100v-1h1L207,100L207,100z
			 M209,77L209,77L209,77L209,77L209,77L209,77z M209,82L209,82L209,82L209,82L209,82z M211,127L211,127L211,127L211,127L211,127z
			 M214,128L214,128L214,128L214,128z M216,127L216,127v-1v-1h1L216,127L216,127L216,127z M217,123c-2,2-5,2-6,0c-2-2-2-5,0-6
			c2-2,5-2,6,0C219,119,219,121,217,123z M218,114L218,114l1,2l0,0L218,114z M220,124L220,124h-1H220L220,124L220,124z M221,132
			L221,132L221,132h1H221z M222,129h-1v-1v-1h1V129z M224,123h-1v-1h1V123L224,123L224,123z M226,127L226,127h-1H226L226,127
			L226,127z M226,136v-1h1v1H226L226,136z M230,125L230,125L230,125v-1V125z M231,135L231,135l-1-2v-1l1,1V135z M232,131L232,131
			L232,131L232,131z M235,136L235,136v-1h1L235,136L235,136z M235,134L235,134L235,134v-2h1L235,134L235,134z M238,138L238,138
			L238,138L238,138L238,138z M238,131h-1v-2l1-1h1L238,131L238,131z M237,126L237,126h1H237L237,126z M243,137c-2,0-4-2-4-4s2-4,4-4
			s4,2,4,4C248,135,246,137,243,137z M247,127L247,127L247,127L247,127h1H247z M248,128L248,128l-1,1L248,128L248,128L248,128z
			 M249,125L249,125L249,125L249,125L249,125z M250,134L250,134L250,134L250,134z M251,131L251,131l-1-1h1v-1h1L251,131z M252,126
			h-1v-1h1h1v1H252z M252,124L252,124L252,124L252,124z M255,129L255,129L255,129l-1-2h1V129L255,129z M254,124L254,124l1-2h1v2H254
			L254,124L254,124z M256,137L256,137L256,137L256,137L256,137L256,137z M256,133L256,133l1-1v1H256z M259,127h-2v-1h1L259,127
			L259,127L259,127z M258,122L258,122l1-1h1h1v1v1L258,122z M260,135L260,135L260,135L260,135L260,135z M262,131L262,131h-1v-1
			L262,131L262,131L262,131z M261,126L261,126L261,126L261,126L261,126z M263,121v-1h1v1H263L263,121z M265,131L265,131l-1-1v-2h1
			l1,1L265,131L265,131z M268,106l-1,1l-1,1l-1,1l-1,3h-2l-3,1l-1,2l-1,1h-1v1l-3,2l-1-1l-1,1l-1,0h-3h-1h-1l-1,1l-2-1h-1v1l-1-1h-1
			h-1l-1-1l-4-1l-3-2h-1l-1-1h-1h-1l-6-7l-4-6v-3l-1-3v-1l-1-2v-1v-2l1-1v-2v-1l1-2v-2l3-4l1-2v-2h1l3-4l1-1l1-1h1l1-1l6-3v-1h2h2h1
			h3h1l1-1h1l1,1h1l0,0v-1l1,1l2,1l0-1h1v1l1,1l5,2v-2l1,2v1h2v1v1h1h2v1l1,1v1l1,1l1,1l2,1h-1v1v-1h1v1l-1,1l1,3l1,3v2l1,2v3v7v2
			l-1,1l1,2h0l-1,1l-1,1v1l2,0h-1h-1V106z M271,112L271,112l-1,1L271,112L271,112z M276,123c-2,2-4,2-6,0s-2-5,0-6c2-2,5-2,6,0
			C278,119,278,121,276,123z M279,105l-1,1v-1v-1v-1h1V105L279,105z M279,102L279,102l-1-1L279,102L279,102z M279,66L279,66L279,66
			L279,66L279,66z M281,114L281,114L281,114L281,114L281,114L281,114z M289,82L289,82L289,82L289,82L289,82z M287,74L287,74L287,74
			L287,74z M285,60L285,60L285,60L285,60L285,60z M284,68L284,68L284,68v1V68L284,68z M284,72L284,72L284,72L284,72L284,72z M284,75
			L284,75v2h-1v-2v-1L284,75L284,75z M282,64L282,64L282,64L282,64L282,64z M282,79L282,79L282,79h-1H282L282,79z M281,70h1H281
			L281,70L281,70L281,70z M282,103L282,103l1-1v1H282L282,103L282,103z M284,113L284,113l-1-1l1-1V113L284,113L284,113z M284,96
			L284,96h1H284L284,96z M285,109L285,109L285,109L285,109L285,109z M286,106L286,106L286,106L286,106L286,106z M287,103L287,103
			l-1-2v-1l2,1v1L287,103L287,103z M287,111L287,111v-2V111L287,111L287,111L287,111z M285,95c-2,0-4-2-4-4s2-4,4-4s5,1,5,4
			C290,93,288,95,285,95z M290,76L290,76L290,76L290,76z M291,100L291,100v-1V100h1H291z M292,81L292,81h1H292L292,81L292,81z
			 M293,89L293,89L293,89L293,89L293,89z"/>
		<path class="st0" d="M178,195v2v2l-1,1l1,1l-1,5h-1v1l-2,4l-1,4h-1h-1v1h1l-1,2h-1v1l-1,2l-4,4h-2v1l-3,3h-1v1l-1,1l1,2v1l2,2l1,2
			l1,1l1,2l1,1v1h1l1,1l2,3l1,1h1v3h1l1,1l1,1l1,2l2,3v1l-1,3h-3l-1,1h-2h-10h-5l-2,1l-5-1l-1-1l0,0v-1h-1l-1-2l-1-1l-2-2l-1-1h-1
			v-1l-1-1l-1-1v-1l-2-4l-1-1l-1-1h1v-1v-1l-1-1l-1-1v-1l1-1v-1l-4-1l-1-2h1v-2h-1v-1l-1,1l-2-1h-1h-1h-1v-1l-1,1h-1l-3-1v1v1h-1
			l-2,2l-1,4l1,1v1v2v1l-1,1v3v1h-1l1,1v1l-1,1l1,1v2v5h-2v1h-1l-3,1l1-1h-1h-1h-1l1,1h-3h-3h-1v-1l-2,1h-3h-2v-1l-1,1h-1l-1-1l-1-1
			l-1-2v-3v-2l1-1l-1-1v-1v-1l1-1v-1l-1-1l1-3v-3v-1v-2l1-1v-1v-1v-2l1-3v-1l-1-1l1-3v-1v-1v-4v-2l1-1h1v-1l-6,1v-1h1l-1-1v-2v-3v-2
			v-1v-4v-1l1-1v-2v-1v-1v-2l1-3l-1-1l1-2v-1v-1l1-4l-1-2l1-1v-1l-4-2l1-2l1-3v-1l-1-1v-2v-3v-1l1-1l-1-1v-1l1-2v-1l2,0h2h2l1,1l1-1
			h2l1,1l1-2l0,0l1,1l2-1h2l1,1l2-1h2h6h1h1h1h1l1-1h1h1h1h1l1,1v1l2-1h1l1-1h5h1h1v1l3-1h2h2l1,1l1-1l3,1v2l1-2l1,1h1h3h1l1,1h1
			l4,2v1h2v1h1l1,1l1,1l1,1h1v1l1,1l2,2v2v1l1,1l1,5l1,1l1,1v1l1,3v2v1v3v2L178,195L178,195z M91,180L91,180L91,180L91,180L91,180
			L91,180L91,180z M92,221L92,221L92,221L92,221L92,221z M92,229l1,1L92,229L92,229L92,229z M92,170L92,170L92,170L92,170L92,170z
			 M93,217L93,217L93,217L93,217L93,217z M93,205L93,205L93,205L93,205L93,205z M93,209L93,209L93,209L93,209L93,209L93,209z
			 M95,183L95,183L95,183L95,183L95,183z M95,171L95,171L95,171L95,171L95,171L95,171z M96,179L96,179L96,179v1V179L96,179z M96,192
			L96,192h1v-1h-1V192L96,192z M97,207L97,207l-1-1v1v1L97,207L97,207z M96,168L96,168L96,168L96,168z M96,177L96,177h1H96L96,177
			L96,177z M96,235L96,235L96,235L96,235L96,235z M96,244L96,244L96,244L96,244z M97,204L97,204L97,204L97,204z M98,188L98,188
			L98,188L98,188L98,188L98,188z M99,225L99,225v-2h-1h-1v2H99L99,225z M98,158L98,158L98,158L98,158z M98,168L98,168v1h1L98,168
			L98,168L98,168L98,168z M98,166L98,166L98,166L98,166z M99,209L99,209L99,209L99,209z M100,189L100,189L100,189L100,189L100,189z
			 M101,233L101,233h-2v1L101,233L101,233z M101,242L101,242l-1-1l0,0L101,242L101,242L101,242z M100,246L100,246L100,246L100,246
			L100,246z M100,204L100,204L100,204L100,204L100,204z M100,178L100,178L100,178L100,178L100,178z M101,213L101,213L101,213v1h1
			L101,213L101,213L101,213z M102,227L102,227h-2v1L102,227L102,227z M100,175L100,175L100,175L100,175L100,175z M101,182L101,182
			L101,182L101,182L101,182z M102,239L102,239L102,239L102,239L102,239z M102,180L102,180L102,180L102,180L102,180L102,180L102,180z
			 M102,236L102,236L102,236L102,236L102,236z M102,165L102,165l1-1v-1h-1V165z M103,195L103,195L103,195l-1,1l1,1V195z M103,167
			L103,167l-1-1L103,167L103,167z M103,245L103,245L103,245L103,245z M104,232v-2l-1-1l-1,1v1L104,232L104,232z M103,220L103,220
			L103,220L103,220L103,220z M104,178L104,178L104,178L104,178z M104,176L104,176L104,176L104,176z M105,229L105,229L105,229
			L105,229L105,229z M105,240L105,240L105,240L105,240L105,240z M105,212L105,212L105,212v-1V212L105,212z M105,207v1V207L105,207z
			 M106,234L106,234L106,234L106,234L106,234L106,234z M106,206L106,206L106,206L106,206L106,206z M107,221L107,221L107,221L107,221
			L107,221z M107,245L107,245l-1-1v1H107L107,245L107,245z M107,220L107,220v-1h-1L107,220L107,220z M106,166L106,166h1v-1L106,166
			L106,166z M108,230L108,230L108,230L108,230L108,230L108,230z M109,186L109,186L109,186L109,186L109,186z M110,236L110,236v-1h-1
			L110,236L110,236L110,236z M109,180L109,180h1H109L109,180L109,180z M109,211L109,211L109,211L109,211L109,211z M111,178L111,178
			L111,178L111,178z M110,165L110,165l1-1h-1V165z M111,160L111,160v1h1L111,160L111,160L111,160z M111,213L111,213L111,213L111,213
			L111,213z M112,185L112,185L112,185L112,185L112,185z M112,222L112,222h2v-1h-1L112,222L112,222z M113,230L113,230L113,230
			L113,230L113,230L113,230z M115,218L115,218L115,218l-1-1L115,218L115,218z M114,175h1l-1-1v-1V175z M115,227L115,227L115,227
			L115,227L115,227z M133,208L133,208h3h1l1-1l2-1h2h1l4-2l2-2l1-1l1-1v-1v-1l1-1l-1-8l-5-6h-1l-3-2h-1v-1v-1h-1v2l-2-1l-1,1l-1-1
			h-3h-1l-2,1h-1h-2h-1l-2-1l-1,1h-1h-3h-3l-2,3v9l1,1v2v10l3,2h3h2v1v1l1-1h1v-1h1h2h1l1,1h2L133,208L133,208z M115,214L115,214
			L115,214L115,214L115,214L115,214z M115,163L115,163l1-1L115,163L115,163z M116,227L116,227L116,227L116,227L116,227z M117,222
			L117,222L117,222L117,222L117,222z M118,176L118,176L118,176L118,176z M120,226L120,226v-1l0,0V226L120,226L120,226L120,226z
			 M120,170L120,170L120,170h1H120L120,170z M121,223l1-1v-1h-1l0,0V223L121,223z M121,218L121,218L121,218L121,218L121,218L121,218
			z M125,164L125,164L125,164v1V164L125,164z M126,172L126,172v2l1-1L126,172L126,172L126,172z M126,217L126,217L126,217L126,217
			L126,217L126,217z M126,178L126,178L126,178L126,178L126,178z M127,228L127,228L127,228L127,228L127,228z M127,170L127,170
			L127,170L127,170z M129,222L129,222l1-1h-2L129,222L129,222z M128,167L128,167L128,167v-2V167z M130,172L130,172l1,1v-1v-1h-1V172
			L130,172z M129,175L129,175L129,175L129,175z M131,227L131,227v-1h-1L131,227v1V227z M132,224L132,224L132,224L132,224L132,224z
			 M133,233L133,233L133,233L133,233L133,233z M133,160L133,160L133,160L133,160L133,160z M133,218L133,218l1-2v-1l-1,0V218L133,218
			z M134,229L134,229L134,229L134,229L134,229z M135,169h-1l1,2h1L135,169L135,169z M135,225L135,225v-2v-1v-1h-1v1v1l-1,3L135,225
			L135,225z M135,226L135,226L135,226L135,226z M134,159L134,159L134,159L134,159L134,159z M136,165L136,165L136,165L136,165
			L136,165z M138,215L138,215L138,215L138,215L138,215z M138,168L138,168L138,168l1-1L138,168L138,168z M140,236L140,236L140,236h-1
			H140L140,236z M139,224L139,224L139,224L139,224L139,224z M140,221L140,221L140,221L140,221L140,221z M139,229L139,229l1,1h1
			L139,229L139,229L139,229z M140,176L140,176L140,176L140,176L140,176L140,176z M140,233L140,233v-1V233L140,233L140,233z M141,173
			L141,173l1,1L141,173L141,173z M143,217L143,217l-1-1v-1l-1-1l-1,2h1L143,217L143,217z M142,241L142,241L142,241L142,241z
			 M142,238L142,238l-1-1L142,238v1V238z M142,171l2-2h-2V171z M142,166L142,166v2h1v-1v-1L142,166L142,166z M142,213L142,213
			L142,213L142,213z M142,221l1,1L142,221L142,221L142,221z M144,234L144,234h-1H144L144,234L144,234z M143,243L143,243L143,243
			L143,243L143,243z M143,176L143,176h1v-1h-1V176L143,176z M143,219L143,219L143,219L143,219L143,219z M145,171L145,171h-1v1
			L145,171L145,171z M145,231L145,231L145,231L145,231L145,231L145,231z M146,239L146,239L146,239L146,239L146,239z M146,213
			L146,213L146,213L146,213L146,213z M146,224L146,224l1,1l1-1H146L146,224L146,224z M146,165L146,165h1v-1L146,165L146,165z
			 M147,220l-1,1v1h1V220L147,220L147,220L147,220z M147,248L147,248L147,248L147,248L147,248z M147,217L147,217l1,1v-1H147L147,217
			L147,217z M147,246L147,246L147,246L147,246z M147,173L147,173v1h1l1-2L147,173L147,173z M147,241L147,241L147,241L147,241
			L147,241z M148,230L148,230L148,230L148,230L148,230z M148,226L148,226l1,1v-2L148,226L148,226L148,226z M149,213L149,213L149,213
			L149,213L149,213z M149,171L149,171L149,171L149,171z M149,210L149,210L149,210L149,210z M150,167L150,167v1V167L150,167L150,167z
			 M150,247L150,247L150,247L150,247L150,247z M150,163L150,163L150,163L150,163L150,163z M151,244L151,244v-1h-1L151,244L151,244
			L151,244z M151,231L151,231l-1-1L151,231L151,231z M151,216L151,216h1H151L151,216L151,216z M151,219L151,219L151,219L151,219
			L151,219L151,219z M151,172v1h1l1-1v-1L151,172L151,172z M152,227L152,227L152,227L152,227L152,227z M154,224L154,224l-1-1v1H154
			L154,224z M153,170L153,170L153,170L153,170L153,170z M154,233v-2h-2v1v1H154L154,233z M154,236l-1-1h-1v1H154L154,236L154,236
			L154,236z M154,180L154,180v2V180L154,180L154,180z M154,208L154,208L154,208L154,208L154,208z M155,213L155,213l-1-1L155,213
			L155,213L155,213L155,213z M155,229L155,229h-1H155L155,229L155,229z M156,242v-1h-1v1H156L156,242z M156,169L156,169l-1,1l1,1h1
			L156,169L156,169z M156,217L156,217L156,217L156,217L156,217z M157,221L157,221h-1v1h1V221L157,221z M156,175L156,175l-1-1
			L156,175L156,175z M157,225h-1v1L157,225L157,225z M156,194L156,194L156,194L156,194z M158,178L158,178l-1,1l1,1h1L158,178
			L158,178z M158,218L158,218L158,218L158,218z M158,205h-1v1h1V205z M158,245L158,245l1-2h-1V245L158,245z M159,189L159,189l1-1
			l-1-1h-1L159,189L159,189L159,189z M159,183L159,183l1,1L159,183L159,183L159,183L159,183z M160,197L160,197l1-1L160,197L160,197
			L160,197z M160,169L160,169L160,169L160,169L160,169L160,169z M160,192L160,192L160,192L160,192L160,192z M161,178L161,178h1v-1
			h-2l0,0L161,178L161,178z M161,220L161,220L161,220L161,220L161,220z M162,201L162,201L162,201L162,201z M162,186L162,186l1,1l1-2
			v-1h-1h-1V186L162,186z M162,189L162,189L162,189L162,189L162,189z M163,210L163,210l1-1h-1V210L163,210z M163,182L163,182
			L163,182L163,182L163,182L163,182z M165,195L165,195v-1h-1L165,195L165,195z M166,203L166,203l-1-1l-1,1H166L166,203z M165,176
			L165,176L165,176L165,176L165,176L165,176z M168,184L168,184h-2v1h1L168,184L168,184z M165,198L165,198v2l1,1v-1L165,198L165,198
			L165,198z M167,213L167,213v-2h-1L167,213L167,213z M167,208L167,208L167,208L167,208L167,208z M167,180L167,180L167,180L167,180
			L167,180L167,180z M168,197L168,197L168,197L168,197L168,197z M169,189L169,189h1H169l1-1h-1V189L169,189z M169,193v-1h-1L169,193
			L169,193L169,193z M170,183L170,183L170,183L170,183z M170,198L170,198L170,198L170,198L170,198z M173,192L173,192L173,192
			L173,192L173,192z"/>
		<path class="st0" d="M222,243L222,243l2,1l-1,1v1v1h1h1l-1,2v1l1,3h-1l1,3v2v3l-1,1l-1,1h-1h-4h-1l-1-1l-2,1h-3l-5-1h-2l-1-1l-1,1
			l-1-1h-1l-1-1l-2-2v-1v-1l-1-1l1-2v-3v-2l1-1l-2-2l2-1l-1-4v-1h1l1-3h-1v1l0,0v-1l1-1l-1-1h1l-1-1v-1h1v-4l-3-3l1-1v-1l-1-6l1-1
			v-1h-1v-1v-4v-2l1-1h-1v-2v-2l1-1l-1-3v-2l1-1l1-1h-1l-1-1v-1h1v-1l1-1h1v-1v-1l-1-1l1-2v-3l-1-2l1-1v-1l-1-1v-2l1,1h1l-3-2v-1v-2
			h1h1v-1h-1h-1v-1h1v-1v-1h-1h-1v-1v-1h1l-1-3v-2l1-2l1-2h1l1-2h1v1h1l1-1h1v1h1l1-1h1l1,1l3-1h2l1,1l1-1h1v1h1v-1h0h3l1,1l1,1v1
			l1,1h1v-1v-1h1v3v1l0,0v1l1,1v1h-1l1,1v5v1l-1,1v2l-1,1l1,1l1,3v6l1,3l2-1l1-1h1v-1v-1l2-1v-1l1-1v-2l1-1l1,1v-1v-1l2-1v-1l1-1v-1
			h1h0l1-2l2-3l1-1v-1v-1l1-1l1-1v-2h1l1,1l1-1l0,4l1-1l1-1v-1l5-5l2-1l1,1l6-1l2,1l1-1h1h1h1l1-1h1h5l1,1l1-1l3,1h1v-1l1,1v-1l2,1
			l0,0h-1l2,2v1l-2,1v1v1l-1,1h-1l-1,2l-1,1h-1v1l-1,2l-1,1l-2,1v2h-1l-2,2l-1,1l-1,1h-1l-1,2l-5,6h-1l-1,2l-2,2v1h-1l-1,1l-2,3
			l-2,2l-1,2l-2,1l1,1v3l6,8v1l7,9v1h-1l6,6v1v1l1,1v1l1,1h1l6,8l1,2h1l4,6l2,3l1,1h1v2l2,2v1h-1v1l1,1v1l-1,2h-5h-1h-1l-1,1h-7h-2
			l-1,1h-1h-1l-6-1h-2l-3-4l-1-1l-1-1v-1h-1l-1-2l-1,0v-1v-1h-1v-1l-1-2h-1h-1l-1-2l-1-3l-3-2l-1-1v-2l-1-1h-1l-2-4l-1-2l-3-2l-4-5
			l0-1l-3-1l-1,1l-2,2l-1,1v1l-1,2l-1,1v4l-1-1l1,1v1v1v5l-1-1L222,243L222,243z M197,204L197,204L197,204L197,204L197,204z
			 M198,163L198,163L198,163L198,163z M199,179h-1H199L199,179z M198,250L198,250l-1-1L198,250L198,250z M198,173L198,173h2v-1
			L198,173L198,173z M200,202L200,202L200,202L200,202L200,202z M201,194L201,194L201,194L201,194z M201,178L201,178L201,178h1H201
			L201,178z M202,189L202,189l1,1h1v-1H202L202,189z M204,203L204,203l-2-1v1v1L204,203L204,203z M202,231l4,2v-1l-2-1H202L202,231z
			 M202,247L202,247l1-1h-1V247L202,247z M202,175h1v-1v-1h-1V175L202,175L202,175z M203,182l1,1h1v-1v-1L203,182L203,182z M203,212
			L203,212l1,1l1-1H203L203,212z M204,228L204,228l-1-2L204,228L204,228z M204,172L204,172L204,172v-1V172z M205,197L205,197l1-1h-1
			V197L205,197z M205,210L205,210l1-1v-1h-1v1V210L205,210L205,210z M205,237L205,237L205,237L205,237L205,237z M205,180L205,180h1
			H205L205,180L205,180z M205,164L205,164L205,164L205,164L205,164L205,164z M205,245h2l-1-1l-1-1V245L205,245z M205,193L205,193h1
			H205L205,193z M205,229L205,229L205,229h1H205L205,229z M206,206v-1h-1L206,206L206,206z M206,177L206,177h1H206L206,177z
			 M206,241l1,1v-1H206L206,241z M207,218v-2h-1L207,218L207,218z M207,202L207,202l1-1l-2-1L207,202L207,202z M207,214L207,214
			L207,214L207,214L207,214z M207,223L207,223v1V223l2,1L207,223L207,223z M207,188L207,188L207,188L207,188z M208,170h1h1v-1h-1h-1
			V170L208,170L208,170z M208,182L208,182L208,182h1H208z M208,248L208,248l1-1l-1-1V248L208,248z M209,228L209,228h1h1H209L209,228
			z M209,235v-1h-1L209,235L209,235z M209,175h2v-1h-1L209,175L209,175z M210,179v-1h-1h-1L210,179L210,179L210,179z M209,190
			L209,190l3,1v-1h-1H209L209,190z M209,204L209,204l2-1L209,204L209,204L209,204z M210,243v-1h-1L210,243L210,243z M211,171
			L211,171l-1-1v1H211L211,171z M211,186L211,186L211,186L211,186z M211,217v-1v-1V217L211,217z M210,184h2v-1L210,184L210,184z
			 M212,237L212,237l-1-1L212,237L212,237z M211,224L211,224L211,224L211,224L211,224L211,224z M212,209L212,209v-1h-1v1H212
			L212,209z M212,180L212,180l1,1h1v-1H212L212,180z M212,213L212,213L212,213L212,213L212,213z M213,196L213,196v-1h-1L213,196
			L213,196z M213,233L213,233l-1-1v1H213L213,233z M212,203L212,203l1,1h1l-1-1H212z M212,217L212,217l1,1v-1H212L212,217z M213,245
			L213,245l1-1L213,245L213,245z M214,173L214,173L214,173L214,173z M214,189L214,189L214,189L214,189z M213,230L213,230L213,230
			L213,230L213,230L213,230L213,230z M213,241l1,1h1v-2h-1L213,241L213,241z M214,213L214,213h1v-1L214,213L214,213z M214,169
			L214,169L214,169l2,1v-1H214L214,169z M214,193L214,193L214,193L214,193z M214,226L214,226L214,226h1H214z M215,202L215,202
			L215,202L215,202L215,202z M215,186L215,186l1-2h-1V186L215,186z M215,220h1l1-1l-1-1L215,220L215,220z M216,224L216,224v-2h-1
			l-1,1L216,224L216,224z M216,239L216,239L216,239L216,239z M217,178l-1-1v1v1L217,178L217,178z M215,211L215,211L215,211L215,211
			L215,211z M216,182h1v-1h-1V182L216,182z M217,167v-2h-1v1L217,167L217,167z M216,192L216,192l2-1h-1h-1V192L216,192z M217,195
			L217,195v-3h-1L217,195L217,195z M218,232v-1v-1h-1v1v1H218L218,232z M217,186L217,186l1,1v-1H217L217,186z M218,203L218,203v-2
			h-1v1L218,203L218,203z M218,225L218,225L218,225L218,225L218,225z M218,210L218,210l1-1l1-1h-1L218,210L218,210z M218,212
			L218,212L218,212v-1V212z M220,197L220,197l-1-2L220,197L220,197L220,197z M219,205L219,205L219,205l2,1v-1h-1H219L219,205z
			 M220,222L220,222l1-1l0,0L220,222L220,222z M220,234L220,234L220,234v-1V234L220,234z M221,192L221,192L221,192L221,192z
			 M221,190L221,190l1-1L221,190L221,190L221,190z M222,215l-1-1h-1v1H222L222,215z M221,218h1H221L221,218z M222,199L222,199
			L222,199L222,199z M222,223L222,223v-1h-1L222,223L222,223z M223,205L223,205L223,205L223,205L223,205z M224,219L224,219l1-1h-1
			V219L224,219z M224,195L224,195L224,195L224,195L224,195z M224,203L224,203L224,203h1H224L224,203z M225,212L225,212h2v-1h-1
			L225,212L225,212z M226,208L226,208l1-1v-1h-1V208L226,208z M227,197v-1h-1L227,197L227,197z M228,193L228,193l-1-1L228,193
			L228,193z M227,200L227,200L227,200l2,1v-1H227L227,200z M230,197L230,197L230,197L230,197L230,197z M230,210L230,210L230,210
			L230,210L230,210z M230,205L230,205L230,205L230,205L230,205L230,205z M231,220L231,220l-1-2v1L231,220L231,220z M232,216L232,216
			v-1h-1L232,216L232,216z M231,203L231,203L231,203L231,203L231,203z M233,213v-1v-1h-1L233,213L233,213z M233,194L233,194l1-1v-1
			h-1V194L233,194z M233,216L233,216l1,1h1v-1v-1L233,216L233,216z M235,205v-1h-1L235,205L235,205z M235,192L235,192L235,192
			L235,192L235,192z M235,203l1-3h-1V203L235,203z M237,207L237,207l1-1h-1V207L237,207L237,207z M236,210L236,210L236,210L236,210z
			 M237,219L237,219l1-1l0,0h-1V219L237,219z M239,191L239,191v-2l-1,1v1v1L239,191L239,191z M237,195L237,195L237,195L237,195
			L237,195z M238,215L238,215l1,1h1v-1H238L238,215z M239,200L239,200l1-1v-1h-1V200L239,200L239,200z M240,219L240,219l1,1L240,219
			L240,219L240,219z M240,209L240,209l1-1v-1h-1V209L240,209z M241,204L241,204L241,204L241,204z M242,206L242,206L242,206L242,206
			L242,206z M241,193L241,193L241,193L241,193L241,193z M243,214L243,214v-1h-1v1H243L243,214z M242,217L242,217L242,217L242,217
			L242,217L242,217z M243,187l-1-2h-1v1v1H243L243,187z M243,189L243,189L243,189L243,189z M243,222L243,222L243,222L243,222
			L243,222z M243,199h1v-1l0,0h-1V199L243,199z M243,195h1l-1-2h-1L243,195L243,195z M244,210L244,210l-1-1v1H244L244,210z M245,218
			L245,218l-1-1v1H245L245,218z M244,204L244,204l1-2l-1-1v1V204L244,204z M247,188v-1h-1v1H247L247,188z M247,193L247,193L247,193
			L247,193L247,193z M247,221L247,221L247,221L247,221z M249,233L249,233L249,233L249,233L249,233z M250,175L250,175v-1h-1L250,175
			L250,175L250,175z M249,186L249,186l2-1h-1L249,186L249,186z M250,214L250,214L250,214L250,214z M252,176l1,1l1-1v-1h-1L252,176
			L252,176z M252,180L252,180L252,180L252,180z M253,229L253,229v-1h-1L253,229L253,229L253,229z M253,207L253,207L253,207L253,207z
			 M254,238v-2h-1L254,238L254,238L254,238z M255,217L255,217h1H255L255,217z M257,164L257,164h-1H257L257,164z M256,233L256,233
			l1-1h-1V233L256,233z M256,174L256,174L256,174L256,174z M256,226L256,226l1-1h-1V226L256,226z M257,182v1h1l1-1v-1L257,182
			L257,182z M257,230L257,230v-1V230L257,230z M259,236L259,236L259,236L259,236L259,236z M259,243v1h1v-1H259L259,243z M260,228
			L260,228L260,228v-1V228z M261,253L261,253L261,253L261,253L261,253z M261,169L261,169L261,169L261,169z M262,238L262,238l1-2h-1
			h-1v1L262,238L262,238z M263,182L263,182l-1-1L263,182L263,182z M262,233L262,233L262,233h1H262L262,233z M263,229L263,229
			L263,229L263,229z M264,245v-1h-1L264,245L264,245z M266,165L266,165L266,165L266,165z M266,251L266,251L266,251h1H266L266,251z
			 M267,235L267,235L267,235L267,235z M268,244L268,244L268,244L268,244z M270,249L270,249l-1-1L270,249L270,249z M271,244L271,244
			l1-1v-1v-1l-1,1V244z M273,251L273,251L273,251L273,251L273,251L273,251z"/>
	</g>
</g>
</svg>
