<?xml version="1.0" encoding="utf-8"?>
<!-- Generator: Adobe Illustrator 24.1.0, SVG Export Plug-In . SVG Version: 6.00 Build 0)  -->
<svg version="1.1" id="TG4_logo_gradient" xmlns="http://www.w3.org/2000/svg" xmlns:xlink="http://www.w3.org/1999/xlink" x="0px"
	 y="0px" viewBox="0 0 683 250" style="enable-background:new 0 0 683 250;" xml:space="preserve">
<style type="text/css">
	.st0{fill:#1F4D7A;}
	.st1{fill:url(#SVGID_1_);}
</style>
<path class="st0" d="M414,0v250H0V0H414z M683,0v250H432.1V0H683z"/>
<linearGradient id="SVGID_1_" gradientUnits="userSpaceOnUse" x1="336.5085" y1="167.815" x2="348.5041" y2="69.5881" gradientTransform="matrix(1 0 0 -1 0 250.5511)">
	<stop  offset="0.1988" style="stop-color:#FFFFFF"/>
	<stop  offset="0.9133" style="stop-color:#C3C3C3"/>
</linearGradient>
<path class="st1" d="M184.8,67.4l16.2-33H36.2v33h60.6v151.8h38V67.4H184.8z M285.3,219.2c50.1,0,92.4-37.1,92.4-93.3V115h-83.8
	l-15.7,31.7H336c-6.8,21.5-24.4,36.3-50,36.3c-32.5,0-55.5-23.9-55.5-57.2c0-33.6,22-57.9,53-57.9c18.6,0,32.1,9.5,39.4,20h47.7
	c-18.1-38-52.5-56.2-87-56.2c-50.7,0-92.9,37.1-92.9,93.3C190.6,179.3,231,219.2,285.3,219.2z M641.4,168.6v-33h-29.1v-103
	c-5.4-0.9-12.7-0.9-17.2-0.9c-67.6,0-122.3,49.5-122.3,121.4c0,4.5,0.2,10.3,0.9,15.6h100.5v56.1l38.1-11.8v-44.3h29.1V168.6z
	 M512,135.6c4-33.8,29.9-60.4,62.2-66.6v66.6H512z"/>
</svg>
