<svg id="Layer_1" data-name="Layer 1" xmlns="http://www.w3.org/2000/svg" viewBox="0 0 500 221.19"><path d="M441,162.69a88.55,88.55,0,0,1-13.2-1.16l.46-8.53a58.55,58.55,0,0,0,12.15,1.75c5,0,8.18-2.1,8.18-6.07,0-3.62-1.52-5.61-8.53-7.36-7.94-2.1-12.26-5.26-12.26-13.43,0-7.48,5.25-12.62,16-12.62a34.75,34.75,0,0,1,9.34.94c2.11.46,2.69,1.4,2.58,3.26l-.47,5.85a29,29,0,0,0-10.86-2.11c-4.91,0-7.36,1.87-7.36,4.56,0,3.27,2.21,4.56,8.17,6.19,9.58,2.57,12.38,6.43,12.38,13.9,0,9.23-5.6,14.83-16.58,14.83" style="fill:#1d4e7b"/><path d="M18.5,162.81A22.29,22.29,0,0,1,10,161.29v14.6H.4V116.67H4.72c2.22,0,4.09,2.22,4.9,3.85a13,13,0,0,1,10.87-5.13c11.68,0,18.1,9.57,18.1,22.54,0,15.18-8.76,24.88-20.09,24.88M18,123.68c-5.25,0-8.06,3.5-8.06,8.76v20.44a18.72,18.72,0,0,0,7.36,1.4c7,0,10.87-6.3,10.87-16.12,0-10.28-4.09-14.48-10.17-14.48" style="fill:#1d4e7b"/><path d="M79.26,141.78H52.51c.35,8.53,4.67,12.5,11.21,12.5A25.48,25.48,0,0,0,74,152.06a4.79,4.79,0,0,1,1.28-.23c1.64,0,2.22,1,2,3l-.47,5.38c-3,1.52-7.71,2.57-13.9,2.57-11.8,0-20.44-9.23-20.44-23.6,0-14.83,7.24-23.82,20-23.82,11.44,0,17,9.34,17,21.84,0,1.28-.12,3.15-.23,4.55M61.85,123.33c-5.72,0-8.88,4.32-9.23,10.63H69.56c-.12-6.54-2.45-10.63-7.71-10.63" style="fill:#1d4e7b"/><path d="M110.21,127.18c-1.87-1.17-4.44-1.87-8.06-1.87-5.14,0-8.06,3.74-8.06,9.58v27H84.51v-45.2h4.32c2,0,4,1.17,5.14,5.49,2.46-4.32,5.61-6.19,9.82-6.19a19.12,19.12,0,0,1,4.78.58c1.4.35,1.87.94,1.87,2.1Z" style="fill:#1d4e7b"/><path d="M164.29,161.87V130c0-4-2.22-6.78-6.78-6.78a7.85,7.85,0,0,0-8.17,7.94v30.72h-9.58V130.22c0-4.56-2.45-7-6.89-7-5.84,0-9.11,4.55-9.11,10.4v28.26h-9.58v-45.2h4.2c2.11,0,3.86,1.28,5.14,4.56a14.56,14.56,0,0,1,12-5.84c6.43,0,9.35,2.68,11,6.3,3.28-3.74,6.78-6.3,13.32-6.3,9.46,0,14,5.37,14,13.55v32.93Z" style="fill:#1d4e7b"/><path d="M208.21,161.87l-.23-4.32c-2.22,2.92-5.73,5.26-11.22,5.26-10.28,0-17.29-7.94-17.29-22.66,0-14.48,9.93-23.83,23.37-23.83a65.94,65.94,0,0,1,9.11.7c4,.82,5,1.52,5,4.09v40.76Zm-.82-36.67c-1.87,0-3.5-.12-5-.12-7.59,0-12.73,5-12.73,15.07s4,14.36,8.87,14.36c5.84,0,8.88-3.5,8.88-9.11Z" style="fill:#1d4e7b"/><path d="M251.4,161.87V131c0-4.67-2.22-7.83-7.6-7.83-6.54,0-10.28,4.91-10.28,11.8v26.86h-9.58v-45.2h4.21c2.1,0,3.86,1.28,5.14,4.56a16.52,16.52,0,0,1,13.08-5.84c9.93,0,14.61,6.19,14.61,15.3v31.18Z" style="fill:#1d4e7b"/><path d="M302.91,141.78H276.16c.35,8.53,4.67,12.5,11.21,12.5a25.48,25.48,0,0,0,10.28-2.22,4.8,4.8,0,0,1,1.29-.23c1.63,0,2.22,1,2,3l-.47,5.38c-3,1.52-7.71,2.57-13.9,2.57-11.79,0-20.44-9.23-20.44-23.6,0-14.83,7.25-23.82,20-23.82,11.45,0,17.05,9.34,17.05,21.84,0,1.28-.11,3.15-.23,4.55M285.5,123.33c-5.72,0-8.87,4.32-9.23,10.63h16.94c-.11-6.54-2.45-10.63-7.71-10.63" style="fill:#1d4e7b"/><path d="M335.61,161.87V131c0-4.67-2.21-7.83-7.59-7.83-6.54,0-10.28,4.91-10.28,11.8v26.86h-9.58v-45.2h4.21c2.1,0,3.85,1.28,5.14,4.56a16.49,16.49,0,0,1,13.08-5.84c9.93,0,14.6,6.19,14.6,15.3v31.18Z" style="fill:#1d4e7b"/><path d="M376.38,161.52c-2.1.82-4.79,1.29-9.81,1.29-6.55,0-11.45-4.67-11.45-12.73V124.5h-7v-7.83h7V105.81h5.26a4,4,0,0,1,4.32,4.08v6.78h6.77a4.18,4.18,0,0,1,4.56,4.56v3.27H364.7v24.29c0,3.86,1.52,5.61,5.6,5.61a11.75,11.75,0,0,0,4.09-.7c1.64-.47,2.34-.12,2.22,1.17Z" style="fill:#1d4e7b"/><path d="M424,161.52c-2.11.82-4.8,1.29-9.82,1.29-6.54,0-11.44-4.67-11.44-12.73V124.5h-7v-7.83h7V105.81H408a4.06,4.06,0,0,1,4.33,4.08v6.78h6.77a4.18,4.18,0,0,1,4.56,4.56v3.27H412.36v24.29c0,3.86,1.51,5.61,5.6,5.61a11.75,11.75,0,0,0,4.09-.7c1.64-.47,2.34-.12,2.22,1.17Z" style="fill:#1d4e7b"/><path d="M476.83,162.81a45.38,45.38,0,0,1-15.54-2.69V96.35h4.44c3.15,0,4.67,1.28,5,2.92a2.7,2.7,0,0,1,.11.93v19.74a13.57,13.57,0,0,1,10.28-4.55c11.8,0,18.45,9,18.45,22.89,0,15.53-8.87,24.53-22.77,24.53m2.45-39.13c-6.19,0-8.41,4.2-8.41,8.29v21.38a25.9,25.9,0,0,0,6.78.93c7.36,0,11.45-5.14,11.45-15.53s-4-15.07-9.82-15.07" style="fill:#1d4e7b"/><path d="M447.76,41a7.69,7.69,0,1,1,7.69-7.68A7.68,7.68,0,0,1,447.76,41Z" style="fill:#1d4e7b"/><path d="M376.38,40.88a9.35,9.35,0,1,1,9.34-9.35A9.36,9.36,0,0,1,376.38,40.88Z" style="fill:#1d4e7b"/><path d="M413.12,34.17A11.83,11.83,0,1,1,425,22.34,11.84,11.84,0,0,1,413.12,34.17Z" style="fill:#1d4e7b"/><path d="M384.49,97.82a3,3,0,0,1-2.62-1.53,9.41,9.41,0,0,1-.93-4.76l0-10.37c0-.06.07-4.74-1.95-6.81a3,3,0,0,0-2.24-.93,9.36,9.36,0,0,0-4.93,2l-12.6,8.33a4.31,4.31,0,0,1-2.39.94c-1.21,0-2.66-.81-2.66-4.67V66.23c0-.19.17-19.05,19.78-22.56a17.62,17.62,0,0,1,3.54-.32,22.92,22.92,0,0,1,13,4.06,33.94,33.94,0,0,1,22.7-10.68c.72,0,1.45-.08,2.17-.08A35.41,35.41,0,0,1,438,45.14a21.86,21.86,0,0,1,8.78-1.8,23.35,23.35,0,0,1,15.38,6l.59.5-.55.54L432.06,80.47a6.52,6.52,0,0,1-4.27,2.06c-2.17,0-4-1.59-5.36-4.72,0-.07-2.42-5.64-6.68-5.64-1.88,0-3.91,1.07-6,3.19l-19.2,19.13c-.13.13-3.33,3.33-6,3.33Z" style="fill:#1d4e7b"/></svg>