<?xml version="1.0" encoding="utf-8"?>
<!-- Generator: Adobe Illustrator 24.1.0, SVG Export Plug-In . SVG Version: 6.00 Build 0)  -->
<svg version="1.1" id="Layer_1" xmlns="http://www.w3.org/2000/svg" xmlns:xlink="http://www.w3.org/1999/xlink" x="0px" y="0px"
	 viewBox="0 0 300 230.3" style="enable-background:new 0 0 300 230.3;" xml:space="preserve">
<style type="text/css">
	.st0{fill:#78CDD1;}
	.st1{fill:#E63B2F;}
</style>
<g>
	<g>
		<path class="st0" d="M1,219L1,219L1,219L1,219l-1-2v-1l0,0v-1v-2v-1l0,0l0,0v-1v-1v-1l0,0l0,0v-2v-1v-4v-1l0,0v-1v-1v-1v-1v-1v-2
			l1-1l0,0v-1l1-1v-1l1-2l1-1l1-1v-1l0,0l1-1l1-2l1-1h1v-1l1,1v-1l2-1v1h1l0,0l0,0h1l1-1h1h1l0,0v-1l0,0l0,0h1l0,0h1h2l0,0l1,1l1-1
			h1h2l0,0h1h1l0,0h1h1h2h1l0,0l0,0h1l2,1l0,0h1h1l0,0h1l1,1v2v1l0,0l1,1l1,1l0,0l0,0l1,1l1,2l1,3l0,0l1,4v3v7v3v1l1,1l1,1l0,0l0,0
			l0,0v1l0,0v-1l0,0l0,0l0,0l0,0l0,0h4h1l1,1v-1h3v1l0,0h1l2,2v1h1v1l-1,1l0,0h1l0,0l0,0v1v1v1v1v1l0,0l-1,2v1v1l-1,1h-1h-1h-1h-3
			h-1h-2l0,0h-1h-3h-2h-1l0,0l0,0h-1h-1h-2h-1h-1h-4h-1l-1-1l-1,1l0,0h-1l-2-1h-2l0,0h-2h-4v-1l0,0l-1,1h-2h-3l0,0h-1h-1h-1H9H8H6H4
			l0,0H3H2l0,0l0,0l0,0H1l-1-1l0,0v-1l0,0l0,0l0,0v-1l0,0v-1L1,219L1,219z M57,226L57,226L57,226L57,226L57,226z M18,225L18,225
			L18,225L18,225L18,225z M16,225L16,225L16,225L16,225z M39,224L39,224L39,224L39,224L39,224z M10,223L10,223L10,223L10,223L10,223
			z M45,223L45,223L45,223L45,223L45,223L45,223z M14,223L14,223L14,223h1l0,0H14L14,223L14,223z M29,222L29,222h-2v1h1L29,222
			L29,222z M20,223L20,223L20,223L20,223L20,223L20,223L20,223z M34,222L34,222L34,222L34,222L34,222L34,222L34,222z M47,222L47,222
			L47,222L47,222L47,222z M18,222L18,222L18,222L18,222L18,222z M13,222L13,222L13,222L13,222L13,222z M25,222L25,222v-1l0,0V222
			L25,222z M41,221L41,221L41,221L41,221L41,221z M16,221L16,221L16,221L16,221L16,221L16,221z M19,221L19,221L19,221L19,221L19,221
			z M23,221L23,221l-1,1L23,221L23,221L23,221z M27,221L27,221L27,221L27,221L27,221L27,221L27,221z M30,221L30,221L30,221L30,221
			L30,221L30,221z M21,221L21,221L21,221L21,221L21,221L21,221z M14,220L14,220L14,220L14,220L14,220L14,220z M19,220L19,220L19,220
			L19,220L19,220L19,220z M32,220L32,220L32,220L32,220L32,220L32,220z M40,220L40,220L40,220L40,220L40,220z M10,220L10,220L10,220
			L10,220L10,220L10,220z M38,220L38,220L38,220L38,220L38,220z M31,220L31,220L31,220L31,220L31,220z M7,219L7,219l1-1H7V219L7,219
			L7,219z M24,219L24,219L24,219L24,219L24,219L24,219L24,219z M38,219L38,219L38,219L38,219L38,219z M54,219L54,219L54,219L54,219
			L54,219z M17,219L17,219L17,219L17,219L17,219z M23,219L23,219L23,219l-1-1l0,0L23,219L23,219z M15,219L15,219L15,219L15,219z
			 M29,219L29,219L29,219L29,219L29,219z M13,219L13,219L13,219L13,219h-1H13L13,219z M26,219L26,219L26,219L26,219L26,219L26,219
			L26,219z M7,218L7,218L7,218L7,218L7,218z M56,218L56,218L56,218L56,218L56,218z M48,218L48,218L48,218h-1H48L48,218z M18,218
			L18,218L18,218L18,218z M9,218L9,218L9,218L9,218L9,218z M16,217L16,217L16,217L16,217L16,217L16,217z M23,217L23,217L23,217v-1
			l0,0V217L23,217z M15,217L15,217L15,217L15,217L15,217z M30,217L30,217L30,217L30,217L30,217z M28,217L28,217L28,217L28,217
			L28,217z M37,217L37,217L37,217L37,217L37,217z M7,217L7,217L7,217L7,217L7,217L7,217z M21,216h-1l0,0l0,0H21L21,216z M35,216
			L35,216L35,216L35,216z M26,216L26,216L26,216h-1H26L26,216L26,216L26,216z M33,216L33,216L33,216L33,216z M42,216L42,216L42,216
			L42,216L42,216z M38,215L38,215L38,215L38,215L38,215L38,215z M12,216L12,216L12,216L12,216L12,216z M31,215L31,215L31,215L31,215
			L31,215L31,215z M10,215L10,215L10,215L10,215L10,215L10,215z M17,216L17,216v-1V216L17,216L17,216z M24,216L24,216L24,216L24,216
			L24,216z M16,215L16,215L16,215h-1H16L16,215z M35,215L35,215L35,215L35,215z M51,215L51,215L51,215L51,215L51,215z M6,215L6,215
			L6,215L6,215L6,215z M19,214L19,214L19,214L19,214L19,214L19,214z M11,214L11,214L11,214L11,214z M41,214L41,214L41,214L41,214
			L41,214L41,214z M32,214L32,214L32,214L32,214z M18,213L18,213L18,213L18,213z M24,214L24,214L24,214L24,214L24,214z M39,213
			L39,213L39,213L39,213L39,213L39,213z M4,214L4,214L4,214L4,214L4,214z M37,214L37,214L37,214L37,214L37,214L37,214z M14,212
			L14,212L14,212L14,212L14,212z M12,213L12,213L12,213v-1V213L12,213L12,213z M42,213L42,213L42,213L42,213L42,213L42,213L42,213z
			 M5,212L5,212L5,212L5,212L5,212L5,212z M40,212L40,212L40,212L40,212L40,212L40,212z M14,205L14,205l1,2v2v1v1v-1l0,0l2,1l0,0h1
			h1l0,0l0,0l0,0l0,0l0,0l0,0l1,1l0,0l0,0h1v1l0,0l1-1l0,0v1l1-1h1h1l0,0h1h1h1l0,0h1l1-2l0,0v-2v-4v-3l-1-2l0,0l-1-1v-1l2-2l-2-1
			l-2-1h-1h-1h-1l0,0l0,0l-1,1h-1v-1h-1l-1,1l-1,1l-1,2h-1l-1,2v1h-1l0,0l-1,1l0,0l0,0l0,0v2L14,205L14,205z M10,212L10,212L10,212
			L10,212L10,212z M52,211L52,211L52,211L52,211z M38,211L38,211L38,211L38,211L38,211L38,211z M36,210L36,210L36,210L36,210L36,210
			z M8,211L8,211L8,211L8,211z M45,211L45,211L45,211L45,211L45,211L45,211z M41,210L41,210L41,210L41,210L41,210L41,210z M39,210
			L39,210L39,210L39,210L39,210L39,210z M9,209L9,209L9,209L9,209z M44,208L44,208L44,208L44,208L44,208z M41,209L41,209L41,209
			L41,209L41,209L41,209L41,209z M11,208L11,208L11,208L11,208L11,208z M40,208L40,208L40,208L40,208L40,208z M38,207L38,207L38,207
			L38,207L38,207L38,207z M5,206L5,206L5,206L5,206L5,206z M41,204L41,204L41,204l-1-1l0,0L41,204L41,204z M5,202L5,202L5,202L5,202
			z M34,202L34,202L34,202L34,202z M37,201L37,201L37,201L37,201L37,201z M34,197L34,197L34,197L34,197z M9,198L9,198L9,198L9,198
			L9,198z M11,196L11,196L11,196L11,196L11,196z M13,195L13,195L13,195L13,195L13,195z M37,195L37,195L37,195L37,195L37,195L37,195z
			 M6,194L6,194L6,194L6,194z M15,194L15,194L15,194L15,194z M12,194L12,194L12,194L12,194L12,194L12,194z M9,193L9,193L9,193L9,193
			L9,193z M37,192L37,192L37,192L37,192L37,192L37,192z M12,192L12,192L12,192L12,192L12,192z M35,192L35,192L35,192L35,192L35,192z
			 M33,191L33,191L33,191L33,191L33,191L33,191L33,191z M26,191L26,191L26,191L26,191z M9,191L9,191L9,191L9,191L9,191L9,191z
			 M38,190L38,190v1V190L38,190z M40,190L40,190h-1l0,0H40L40,190z M42,191L42,191L42,191L42,191L42,191z M30,190L30,190L30,190
			L30,190L30,190z M14,190L14,190L14,190L14,190L14,190z M21,190L21,190L21,190L21,190z M18,190L18,190L18,190L18,190L18,190L18,190
			z M27,189L27,189L27,189L27,189z M41,190L41,190L41,190L41,190L41,190z M8,188L8,188L8,188L8,188L8,188L8,188z M15,189L15,189
			L15,189L15,189L15,189z M34,189L34,189L34,189L34,189L34,189L34,189z M10,189L10,189L10,189L10,189L10,189z M24,189L24,189L24,189
			L24,189L24,189L24,189L24,189z M25,189L25,189L25,189L25,189z M37,189L37,189L37,189L37,189L37,189z M39,189L39,189L39,189L39,189
			L39,189L39,189z M21,188L21,188L21,188L21,188L21,188z M34,188L34,188L34,188L34,188L34,188L34,188L34,188L34,188L34,188L34,188z
			 M28,188L28,188L28,188L28,188L28,188z M44,188L44,188L44,188L44,188z M26,187L26,187L26,187L26,187L26,187z M18,187L18,187
			L18,187l-1-1l0,0L18,187L18,187z M33,187L33,187L33,187L33,187h-1H33L33,187L33,187z M31,187L31,187L31,187L31,187L31,187z
			 M26,186L26,186L26,186L26,186h-1H26L26,186L26,186z M28,185L28,185h-1l0,0H28L28,185L28,185z M41,186L41,186L41,186L41,186
			L41,186z M19,185L19,185L19,185L19,185L19,185z M30,185L30,185L30,185L30,185L30,185L30,185L30,185z M17,185L17,185L17,185L17,185
			L17,185z M32,184L32,184L32,184L32,184L32,184z M22,184L22,184L22,184h-1H22L22,184L22,184z M34,184L34,184L34,184L34,184L34,184z
			 M33,183L33,183L33,183L33,183L33,183z M8,183L8,183L8,183L8,183z M19,183L19,183L19,183L19,183L19,183z M27,183L27,183L27,183
			L27,183h-1H27L27,183z M24,183L24,183L24,183L24,183L24,183z M29,182L29,182L29,182L29,182L29,182L29,182L29,182z M18,182L18,182
			L18,182L18,182z M32,182L32,182L32,182L32,182L32,182L32,182z M21,182L21,182L21,182v-1h-1L21,182L21,182z M27,181L27,181L27,181
			L27,181L27,181L27,181z M18,182L18,182L18,182L18,182L18,182z M37,181L37,181L37,181L37,181z M25,181L25,181L25,181L25,181L25,181
			L25,181z M23,181L23,181L23,181h-1H23L23,181L23,181z"/>
		<path class="st0" d="M1,166L1,166L1,166v-2l-1-4v-2l1-2l0,0h1l0,0h3h4h1h1h1l0,0l0,0l0,0v-1h1h1l0,0l0,0h1h1h1h4h2l0,0l0,0l1-1
			l0,0h2l0,0l0,0h1l0,0l0,0l2-1h1h1l1-1h1h2h1l0,0h1l0,0h1h1l3-2l1-1h1l2-5v-2h1l0,0l0,0v-1v-1l0,0v-1l0,0l0,0v-1v-1v-1l-2-2v-1l0,0
			l0,0h-1l-1-1v-1l0,0h-2h-1l0,0v1l-2-1l-3-1l0,0h-1l0,0h-2h-1h-1h-1l0,0l0,0l0,0h-1h-1v-1l0,0l-1,1h-1h-1h-1h-1l0,0h-2h-1h-1h-2h-1
			h-2h-2l0,0l-1,1H8H7l0,0l0,0H6l0,0l0,0H5l-2-1l-3,1v-1v-3v-1l0,0v-1v-2h1v-1v-1l-1-1l1-1v-1l1-1h1h1h4h1h3l0,0l0,0l0,0l1-1h3h1h1
			h1l0,0h2l1,1v-1l1,1l0,0v-1l1,1l1-1h1v1l2-1l0,0l0,0l0,0v-1h1h1h1l0,0l0,0h1h1l0,0l0,0l0,0l0,0h1h1h1v1v-1h1h1v1l0,0l0,0l4,1v1h1
			h1h1l4,2h1v1h1l1,1h1l1,1l1,2l1,1v1h1v1l1,1l1,1l0,0h-1v1l1,1v1l0,0h1l0,0v1v1l1,1v1l1,1v1v2v1l0,0l0,0v1v4v1l-1,2v2v1v2h-1v1v1
			l-1,3l0,0l-1,1v1l-1,1v1l-1,1l-2,1l-1,2l0,0h-1l0,0v1l-2,1h-2h-2h-1h-1h-1l0,0l-1,1h-1h-2h-1l0,0h-1h-1l0,0h-1v-1l0,0v1l0,0h-1h-1
			l0,0l-3,1h-2l0,0h-1h-1h-1l0,0h-2h-2h1h-1l0,0h-1l-3,1h-1l0,0h-1h-2l0,0h-1h-2H6H5H3H2H1l0,0v-2v-2v-1V166L1,166L1,166z M33,169
			L33,169L33,169L33,169L33,169L33,169z M44,169L44,169L44,169L44,169L44,169L44,169z M13,169L13,169L13,169L13,169z M13,169L13,169
			L13,169L13,169L13,169z M26,169L26,169L26,169L26,169L26,169z M25,168L25,168L25,168L25,168L25,168L25,168z M36,167L36,167L36,167
			L36,167L36,167z M38,167L38,167L38,167L38,167z M22,167L22,167L22,167L22,167L22,167z M28,167L28,167L28,167L28,167L28,167z
			 M25,167L25,167L25,167L25,167L25,167L25,167z M40,167L40,167L40,167L40,167L40,167L40,167z M32,166L32,166L32,166L32,166L32,166
			L32,166z M23,165L23,165L23,165L23,165L23,165z M30,164v1l0,0V164L30,164L30,164z M38,165L38,165L38,165L38,165L38,165z M51,165
			L51,165L51,165L51,165L51,165z M35,164L35,164L35,164l-1,1L35,164L35,164L35,164z M29,164L29,164L29,164L29,164L29,164z M44,165
			L44,165L44,165L44,165L44,165z M19,165L19,165L19,165L19,165L19,165z M13,165L13,165L13,165L13,165L13,165z M48,164L48,164L48,164
			L48,164L48,164L48,164z M33,163L33,163L33,163L33,163L33,163L33,163L33,163z M31,163L31,163L31,163L31,163L31,163z M38,163L38,163
			L38,163L38,163L38,163z M45,163L45,163L45,163L45,163z M51,163L51,163L51,163L51,163z M27,163L27,163L27,163L27,163v-1V163L27,163
			L27,163z M36,162L36,162L36,162L36,162L36,162z M25,163L25,163L25,163L25,163L25,163L25,163z M34,163L34,163L34,163L34,163L34,163
			z M50,163L50,163L50,163L50,163L50,163z M11,162h1H11L11,162L11,162L11,162L11,162z M40,162L40,162L40,162L40,162z M32,162L32,162
			h-1H32L32,162L32,162z M48,162L48,162L48,162L48,162L48,162L48,162z M30,161L30,161L30,161L30,161L30,161L30,161z M44,161L44,161
			L44,161L44,161L44,161L44,161z M46,161L46,161h-1H46L46,161L46,161z M21,160L21,160L21,160L21,160L21,160L21,160L21,160z M36,160
			L36,160L36,160L36,160L36,160L36,160z M16,161L16,161L16,161L16,161L16,161z M41,161L41,161L41,161l-1-1L41,161L41,161L41,161z
			 M33,161L33,161L33,161L33,161L33,161L33,161z M49,160L49,160L49,160L49,160z M42,160L42,160L42,160L42,160z M32,160L32,160
			L32,160L32,160L32,160L32,160L32,160z M47,160L47,160L47,160L47,160h-1H47L47,160z M38,159L38,159L38,159L38,159L38,159z M43,158
			L43,158L43,158L43,158L43,158z M51,159L51,159L51,159L51,159L51,159L51,159z M34,158L34,158L34,158L34,158L34,158z M19,158L19,158
			L19,158L19,158z M32,158L32,158L32,158L32,158L32,158z M44,157L44,157L44,157L44,157L44,157z M30,157L30,157L30,157L30,157L30,157
			z M57,156L57,156L57,156L57,156L57,156z M52,155L52,155L52,155L52,155L52,155L52,155L52,155L52,155z M54,156L54,156L54,156L54,156
			L54,156z M45,155L45,155L45,155L45,155L45,155z M50,155L50,155L50,155L50,155L50,155z M54,153L54,153h-1l0,0H54L54,153z M51,152
			L51,152L51,152L51,152L51,152L51,152z M49,152L49,152L49,152L49,152z M56,151L56,151L56,151L56,151L56,151z M53,152L53,152L53,152
			L53,152L53,152z M53,151L53,151L53,151L53,151L53,151L53,151z M50,150L50,150v1V150L50,150L50,150z M48,150L48,150L48,150L48,150
			L48,150z M53,149L53,149L53,149L53,149L53,149L53,149z M51,148L51,148h-1H51L51,148L51,148z M58,148L58,148L58,148L58,148L58,148
			L58,148z M56,147L56,147L56,147L56,147L56,147z M47,147L47,147L47,147L47,147L47,147z M57,146L57,146L57,146L57,146L57,146L57,146
			z M55,145L55,145L55,145L55,145L55,145L55,145z M53,145L53,145L53,145L53,145L53,145z M59,145L59,145L59,145L59,145L59,145L59,145
			z M55,144L55,144L55,144L55,144z M54,143L54,143L54,143L54,143L54,143L54,143L54,143z M52,142L52,142L52,142L52,142L52,142L52,142
			L52,142z M57,142L57,142L57,142L57,142L57,142z M59,142L59,142L59,142L59,142L59,142z M51,142L51,142L51,142L51,142L51,142z
			 M55,141L55,141L55,141L55,141L55,141L55,141z M52,140L52,140L52,140L52,140L52,140L52,140L52,140z M57,139L57,139L57,139L57,139
			L57,139L57,139z M50,140L50,140L50,140L50,140z M55,139L55,139L55,139L55,139L55,139L55,139z M53,139L53,139L53,139h-1H53L53,139
			L53,139z M56,137L56,137l-1,1L56,137L56,137L56,137z M57,137L57,137L57,137L57,137L57,137z M49,137L49,137L49,137L49,137L49,137
			L49,137z M46,137L46,137L46,137L46,137L46,137z M51,137L51,137L51,137v-1V137L51,137z M53,137L53,137L53,137L53,137L53,137z
			 M60,136L60,136L60,136L60,136z M50,136L50,136L50,136L50,136L50,136z M53,136L53,136L53,136h1l0,0l0,0H53L53,136L53,136z M46,134
			L46,134L46,134L46,134L46,134z M51,134L51,134L51,134L51,134h-1H51L51,134z M49,133L49,133L49,133L49,133L49,133L49,133z M53,133
			L53,133L53,133L53,133L53,133z M56,133L56,133L56,133L56,133L56,133L56,133z M45,132L45,132L45,132L45,132L45,132L45,132z M50,132
			L50,132L50,132L50,132l-1-1L50,132L50,132L50,132L50,132z M47,132L47,132L47,132L47,132L47,132L47,132L47,132z M55,131L55,131
			L55,131L55,131L55,131L55,131z M52,131L52,131L52,131L52,131L52,131L52,131L52,131z M36,130L36,130L36,130L36,130L36,130L36,130z
			 M43,130L43,130L43,130v-1V130L43,130L43,130z M41,130L41,130L41,130L41,130L41,130L41,130L41,130z M28,130L28,130L28,130L28,130
			L28,130L28,130L28,130z M46,129L46,129L46,129L46,129L46,129L46,129z M38,129L38,129L38,129L38,129L38,129L38,129z M52,128h-1l0,0
			l0,0H52L52,128z M17,129L17,129L17,129L17,129L17,129z M57,128L57,128L57,128L57,128L57,128z M14,128L14,128L14,128L14,128L14,128
			L14,128z M40,128L40,128L40,128L40,128z M8,128L8,128L8,128L8,128z M22,128L22,128L22,128L22,128L22,128L22,128z M43,128L43,128
			L43,128v-1l0,0l0,0V128L43,128z M14,128L14,128L14,128L14,128L14,128L14,128L14,128z M34,128L34,128L34,128L34,128L34,128z
			 M27,128L27,128L27,128L27,128L27,128z M50,128L50,128L50,128L50,128L50,128z M40,127L40,127L40,127h-1H40L40,127z M24,127L24,127
			L24,127L24,127L24,127z M32,127L32,127L32,127L32,127L32,127L32,127L32,127z M11,127L11,127L11,127L11,127L11,127L11,127L11,127z
			 M10,126L10,126L10,126L10,126L10,126z M18,127L18,127L18,127L18,127L18,127L18,127z M29,126L29,126L29,126L29,126L29,126z M6,126
			L6,126H5l0,0H6L6,126z M50,126L50,126L50,126L50,126L50,126z M20,126L20,126L20,126L20,126L20,126L20,126z M18,125L18,125L18,125
			L18,125L18,125z M34,125L34,125L34,125L34,125L34,125z M42,126L42,126v-1l0,0h-1L42,126L42,126z M9,125L9,125v-1V125L9,125L9,125z
			 M49,125L49,125L49,125L49,125L49,125L49,125z M26,125L26,125l-1-1l0,0L26,125L26,125L26,125z M44,125L44,125L44,125L44,125l1-1
			L44,125L44,125L44,125z M17,125L17,125L17,125L17,125L17,125L17,125z M15,124L15,124L15,124L15,124L15,124z M20,124L20,124L20,124
			L20,124L20,124L20,124L20,124z M43,124L43,124L43,124L43,124z M14,123L14,123L14,123L14,123L14,123z M21,124L21,124L21,124v-1V124
			L21,124z M11,124L11,124L11,124L11,124L11,124z M25,123L25,123L25,123L25,123L25,123L25,123z M40,123L40,123L40,123L40,123L40,123
			L40,123z M16,123L16,123L16,123L16,123L16,123L16,123z M14,123L14,123v-1l0,0l0,0V123L14,123L14,123z M43,122L43,122L43,122
			L43,122L43,122z M27,122L27,122L27,122L27,122L27,122z M31,122L31,122h1l0,0l0,0H31L31,122L31,122L31,122z M19,122L19,122L19,122
			L19,122L19,122z M15,121L15,121v-1l0,0V121L15,121z M17,121L17,121L17,121L17,121L17,121z M37,121L37,121L37,121L37,121L37,121z
			 M26,120L26,120L26,120L26,120L26,120L26,120L26,120z M13,120L13,120L13,120L13,120L13,120z M18,120L18,120L18,120L18,120L18,120z
			 M31,118L31,118L31,118L31,118L31,118z"/>
		<path class="st0" d="M23,57h1h1h1h1l3,1l0,0h1l2,1l1,1l0,0l0,0l0,0l0,0l1,1l0,0h1l1,1l3,2v1l0,0l2,2l0,0h1l0,0l1-1l0,0l1-1h1v-1
			l1-1l1-1h2l0,0l0,0l2-1l1-1l0,0h1l0,0l1-1l1-1h1l2-1l0,0h1v2v1v1v6v3v1v2v1l0,0l0,0v1l-2,1h-1l-1,1h-1l0,0h-1h-1v1l0,0l-2,3h-1h-1
			l0,0l0,0l0,0v1l0,0l0,0l0,0l0,0v2h-1h-3h-1l0,0h-1l1,1v1v1l0,0v1l0,0l0,0v1v2l0,0h1l0,0l1,1l2,1l1-1l0,0h1l0,0l0,0h1l0,0l0,0v-1
			l0,0l0,0h1h1h3v1h1v1v2h3l0,0v1l0,0h1v2l-1,2v1h-1v1v2v1h-1l2,1v1l0,0l-1,1h-1h-1h-1h-1l0,0h-1l0,0l-1-1l0,0v1h-1h-2l0,0h-1h-1
			l0,0h-1h-1h-2l0,0l0,0h-2l0,0h-1h-2h-1h-1l0,0l0,0v1l0,0l0,0l-1,1h-1h-2h-1l0,0h-2l0,0h-1h-4h-1l0,0h-1h-2h-1h-1h-1l0,0l-2-1l-1,1
			v-1l0,0l-1,1h-1h-2l0,0h-1H9H7l0,0H6H5l0,0l-1-1H1v-1v-1v-1v-1v-1v-1l0,0l0,0l0,0v-1v-1v-1l0,0v-1v-1v-4v-1l0,0v-1l0,0v-1v-1l0,0
			v-2l0,0l0,0l0,0v-1l0,0v-1v-5v-1l0,0l0,0l-1-2v-1v-1l1-1l0,0l1-2h1H1l1-1v-1v-2l0,0h1v-1l1-2l0,0v-1h1v-1v-1l1-1l1-1l0,0h1h1l1-1
			h1l0,0v-1l3-1h1l1-1h1h2h1l0,0h1H23L23,57L23,57z M15,106L15,106L15,106L15,106L15,106L15,106L15,106z M38,106L38,106L38,106
			L38,106L38,106z M42,106L42,106L42,106L42,106L42,106z M8,106L8,106L8,106L8,106L8,106z M35,105L35,105L35,105L35,105L35,105z
			 M28,105L28,105L28,105L28,105L28,105z M31,105L31,105L31,105L31,105L31,105L31,105z M16,104L16,104L16,104L16,104L16,104z M9,104
			L9,104L9,104L9,104L9,104L9,104z M14,103L14,103L14,103L14,103L14,103L14,103z M21,104L21,104L21,104L21,104L21,104L21,104L21,104
			z M29,103L29,103L29,103L29,103L29,103L29,103L29,103z M7,104L7,104L7,104L7,104z M12,103L12,103L12,103L12,103L12,103L12,103z
			 M45,103L45,103L45,103L45,103L45,103z M51,104L51,104L51,104L51,104z M28,103L28,103L28,103L28,103z M19,102L19,102L19,102
			L19,102L19,102L19,102z M40,102L40,102L40,102h-1l0,0H40L40,102L40,102z M2,102L2,102L2,102L2,102z M7,102L7,102L7,102L7,102
			L7,102L7,102L7,102L7,102z M6,102L6,102L6,102L6,102z M31,102L31,102L31,102L31,102z M19,101L19,101L19,101L19,101L19,101z
			 M44,101L44,101L44,101L44,101L44,101L44,101z M49,101L49,101L49,101L49,101L49,101L49,101L49,101z M52,101L52,101L52,101L52,101
			L52,101z M28,101L28,101L28,101L28,101L28,101z M13,101L13,101L13,101L13,101L13,101z M33,101L33,101L33,101L33,101L33,101L33,101
			L33,101L33,101z M41,100L41,100L41,100L41,100L41,100L41,100z M11,101L11,101L11,101L11,101L11,101z M16,100L16,100L16,100L16,100
			L16,100z M48,100L48,100L48,100L48,100L48,100z M14,100L14,100L14,100L14,100L14,100L14,100L14,100z M46,100L46,100L46,100L46,100
			L46,100z M6,100L6,100L6,100L6,100L6,100L6,100z M23,99L23,99L23,99L23,99L23,99L23,99z M7,99L7,99L7,99L7,99L7,99z M51,99L51,99
			L51,99L51,99z M44,99L44,99h-1H44L44,99L44,99L44,99z M37,100L37,100L37,100L37,100L37,100z M13,99L13,99L13,99L13,99z M12,99
			L12,99L12,99L12,99z M42,98L42,98L42,98L42,98L42,98z M48,98L48,98L48,98L48,98L48,98z M33,98L33,98L33,98L33,98L33,98L33,98z
			 M30,98L30,98L30,98L30,98z M45,98L45,98L45,98L45,98L45,98L45,98z M29,98L29,98L29,98L29,98L29,98z M38,97L38,97L38,97L38,97
			L38,97z M51,97L51,97L51,97L51,97L51,97L51,97L51,97L51,97z M37,97L37,97L37,97L37,97L37,97L37,97z M6,98L6,98L6,98L6,98L6,98
			L6,98z M43,97L43,97L43,97L43,97L43,97L43,97z M18,96L18,96L18,96L18,96L18,96z M46,96L46,96L46,96L46,96L46,96L46,96L46,96z
			 M14,96L14,96L14,96L14,96L14,96L14,96z M32,96L32,96L32,96L32,96L32,96z M13,95L13,95L13,95L13,95z M6,95L6,95L6,95L6,95L6,95
			L6,95z M3,95L3,95L3,95L3,95L3,95L3,95L3,95z M33,95L33,95L33,95L33,95L33,95z M17,94L17,94L17,94L17,94L17,94z M38,94L38,94
			L38,94L38,94L38,94L38,94L38,94z M43,94L43,94L43,94L43,94L43,94L43,94z M36,93L36,93L36,93L36,93L36,93L36,93z M11,93L11,93
			L11,93h-1H11z M41,93L41,93L41,93L41,93L41,93z M30,83L30,83v-2v-1l0,0v-1v-1l0,0l-1-3l-2-1h-1v-1h-1l0,0l-1-1h-5l-3,3l0,0l-1,2v1
			l0,0h-1l0,0h1v1v1v1v2v1v1l0,0v1l0,0l-1,1v1v1v1v2l2,1h5h1h1h6l1-2v-2v-1l0,0l0,0l0,0l0,0l0,0l0,0v-2v-1v-1V83L30,83L30,83z
			 M34,93L34,93L34,93L34,93L34,93L34,93z M5,93L5,93L5,93L5,93L5,93z M41,92L41,92L41,92L41,92L41,92z M38,91L38,91L38,91L38,91
			L38,91z M12,91L12,91L12,91L12,91z M40,90L40,90L40,90L40,90L40,90L40,90L40,90L40,90z M8,90L8,90L8,90L8,90L8,90L8,90z M39,89
			L39,89L39,89l-2,1L39,89L39,89C39,90,39,89,39,89z M36,89L36,89L36,89L36,89L36,89L36,89z M5,87L5,87L5,87L5,87L5,87L5,87z M10,86
			L10,86h1H10L10,86L10,86L10,86z M35,87L35,87L35,87L35,87L35,87L35,87z M13,86L13,86L13,86L13,86L13,86z M41,86L41,86L41,86L41,86
			L41,86z M9,86L9,86L9,86L9,86z M38,85L38,85L38,85v1V85L38,85z M7,85L7,85L7,85L7,85L7,85L7,85z M10,84L10,84L10,84L10,84L10,84
			L10,84L10,84L10,84z M11,85L11,85L11,85L11,85z M41,84L41,84L41,84L41,84L41,84L41,84L41,84z M39,83L39,83L39,83L39,83L39,83z
			 M44,83L44,83L44,83L44,83L44,83z M3,83L3,83L3,83L3,83L3,83z M36,82L36,82L36,82h-1l0,0H36L36,82z M42,82L42,82L42,82L42,82
			L42,82z M8,81L8,81l1,1L8,81L8,81L8,81z M40,81L40,81L40,81h-2l0,0l0,0l0,0l0,0H40L40,81L40,81z M40,82L40,82L40,82L40,82z M2,82
			L2,82L2,82L2,82L2,82z M6,81L6,81L6,81L6,81L6,81z M34,80L34,80L34,80L34,80L34,80z M7,80L7,80L7,80L7,80L7,80L7,80z M46,79L46,79
			L46,79L46,79L46,79L46,79z M39,79L39,79L39,79L39,79L39,79z M37,79L37,79L37,79L37,79L37,79z M42,79L42,79L42,79v-1V79L42,79
			L42,79z M12,79L12,79L12,79L12,79L12,79L12,79z M44,78L44,78L44,78L44,78L44,78L44,78z M10,78L10,78L10,78L10,78L10,78z M35,77
			L35,77L35,77L35,77L35,77v1V77L35,77L35,77z M49,78L49,78L49,78L49,78z M47,77L47,77L47,77L47,77L47,77L47,77z M9,77l-1-1L9,77
			L9,77z M6,77L6,77L6,77h1H6L6,77L6,77L6,77z M33,77L33,77L33,77L33,77z M38,77L38,77L38,77L38,77L38,77z M45,76L45,76L45,76L45,76
			L45,76L45,76z M50,77L50,77L50,77L50,77L50,77z M12,77L12,77L12,77L12,77L12,77L12,77L12,77z M36,77L36,77L36,77L36,77L36,77z
			 M9,76L9,76L9,76L9,76L9,76L9,76z M43,76L43,76L43,76L43,76L43,76L43,76z M48,75L48,75L48,75L48,75L48,75z M33,75L33,75L33,75
			L33,75L33,75z M39,75L39,75L39,75L39,75L39,75L39,75L39,75z M6,75L6,75L6,75L6,75L6,75L6,75z M37,74L37,74h1l0,0H37L37,74L37,74
			L37,74z M53,75L53,75L53,75L53,75L53,75z M35,75L35,75L35,75L35,75L35,75L35,75z M51,74L51,74L51,74L51,74z M10,74L10,74L10,74
			L10,74L10,74L10,74L10,74z M49,74L49,74L49,74L49,74L49,74z M43,74L43,74L43,74L43,74L43,74z M40,74L40,74L40,74L40,74L40,74
			L40,74L40,74z M33,74L33,74L33,74L33,74L33,74z M9,74L9,74L9,74L9,74z M31,73L31,73L31,73L31,73z M7,73L7,73L7,73L7,73L7,73L7,73z
			 M52,73L52,73L52,73L52,73L52,73z M4,73L4,73L4,73L4,73L4,73z M50,72L50,72L50,72L50,72L50,72L50,72L50,72z M43,72L43,72L43,72
			L43,72L43,72z M34,72L34,72L34,72L34,72L34,72L34,72z M36,72L36,72L36,72L36,72L36,72z M10,72L10,72L10,72v-1V72L10,72L10,72z
			 M41,72L41,72L41,72L41,72L41,72z M39,71L39,71L39,71L39,71L39,71L39,71z M9,71L9,71L9,71L9,71L9,71z M44,70L44,70L44,70L44,70
			L44,70L44,70L44,70z M46,71L46,71L46,71L46,71L46,71L46,71L46,71L46,71z M14,71L14,71h1H14L14,71L14,71z M30,71L30,71L30,71L30,71
			L30,71z M33,70L33,70L33,70L33,70L33,70L33,70L33,70z M42,70L42,70L42,70L42,70L42,70L42,70z M49,70L49,70L49,70L49,70L49,70
			L49,70z M8,69L8,69L8,69h1l0,0H8L8,69z M35,70L35,70L35,70L35,70L35,70z M38,69L38,69L38,69L38,69L38,69L38,69L38,69z M11,69
			L11,69L11,69L11,69L11,69z M40,69L40,69L40,69L40,69L40,69z M22,70L22,70L22,70L22,70z M13,68L13,68L13,68L13,68L13,68L13,68
			L13,68z M36,68L36,68L36,68L36,68z M29,68L29,68L29,68L29,68L29,68z M51,68L51,68L51,68L51,68L51,68L51,68z M19,68L19,68L19,68h-1
			l0,0H19L19,68L19,68z M16,68L16,68L16,68L16,68L16,68L16,68L16,68z M24,67L24,67L24,67L24,67L24,67L24,67z M8,67L8,67L8,67L8,67
			L8,67L8,67z M21,67L21,67L21,67L21,67L21,67z M13,67L13,67L13,67L13,67L13,67L13,67L13,67L13,67z M37,67L37,67L37,67L37,67L37,67z
			 M26,66L26,66L26,66L26,66z M18,66L18,66L18,66v-1V66L18,66L18,66L18,66L18,66z M20,66L20,66L20,66L20,66L20,66z M31,65L31,65
			L31,65L31,65L31,65L31,65z M15,66L15,66L15,66L15,66L15,66L15,66z M23,65L23,65L23,65L23,65L23,65L23,65z M28,64L28,64L28,64
			L28,64L28,64L28,64L28,64z M12,64L12,64L12,64L12,64L12,64L12,64z M16,63L16,63v1l0,0V63L16,63L16,63z M25,64L25,64L25,64l2-1l0,0
			L25,64L25,64L25,64z M33,63L33,63L33,63h-1H33L33,63z M30,63L30,63L30,63L30,63L30,63z M14,63L14,63L14,63L14,63L14,63L14,63z
			 M24,63L24,63L24,63L24,63L24,63z M20,62L20,62L20,62L20,62L20,62L20,62L20,62L20,62z M22,62L22,62L22,62L22,62L22,62L22,62z
			 M16,62L16,62L16,62L16,62z M24,61L24,61L24,61L24,61L24,61z M21,60L21,60L21,60L21,60L21,60z"/>
		<path class="st0" d="M7,4L7,4h2h2l1-1l3,1l1,1v2v1l0,0v1v3v1v1v2v1l0,0l0,0v1v2l-1,1h1v4v3l0,0l-1,1v2l0,0h-1l1,1v1l1,1l0,0h1h1
			l0,0h1l0,0l0,0h1l2-1h1v-1l1-1v-2l0,0l0,0v-2v-1v-1v-1l0,0l1-1l0,0l0,0l0,0l0,0v-2v-2l0,0l0,0v-3v-1v-1v-3l1-1h1h3h1h-1l0,0l1-1h1
			l0,0l0,0l0,0h1h1l0,0l0,0h2v1l0,0h1h1l0,0l0,0l0,0l0,0l1,1l0,0v1h1v2v2v1v2h-1l0,0l-1,1v1l0,0v1l0,0l0,0v2h-1l0,0l0,0l0,0v4v2v1v1
			l3,2h4h1l1-1v-2v-1v-1v-2l0,0l0,0l1-1l0,0l0,0l0,0l0,0v-1v-3v-1l0,0l0,0l0,0l0,0l0,0v-1l0,0l0,0l0,0l0,0l1-1l0,0l0,0l0,0v-1v-2v-1
			l0,0l0,0h-1v-1l-2-4V9V8l0,0l0,0l1-2l1-1l0,0h1h1l0,0l0,0h1h3l0,0l1-1l0,0h1V3h1l0,0l0,0l0,0l0,0l4,3l0,0l0,0v1v3v1v1l0,0v2l0,0
			l0,0v2l0,0l0,0v1v1v1l0,0v1l0,0l0,0l0,0l0,0l0,0v1v3v1v1l0,0v1l0,0v1v2v1l0,0l0,0v2l0,0v1v1v2l0,0v2l1,1v2v1v1v1l0,0v1v1v1v1l-2,1
			l0,0l0,0l0,0l0,0l0,0l0,0v-1h-1l-4,1l0,0l0,0h-2h-1h-2h-2h-1l0,0h-1h-1l0,0l0,0h-2h-1l0,0v-1l-1,1l0,0l0,0l0,0h-2l0,0v-1v1h-2h-1
			h-1l0,0h-2h-1h-4h-1h-3h-1h-1l0,0h-2l0,0l0,0l0,0h-1h-1h-1h-1l0,0h-2l0,0h-1h-1l0,0H9H7l0,0H6H4H2H1l0,0v-7l1-1l0,0l0,0v-1l0,0
			l-2-4v-1l0,0l0,0l0,0l0,0v-1l1-1l-1-1v-6v-1v-1v-1v-2v-1l0,0v-1v-4v-3v-1v-2l0,0V9V8V6l1-2h2h3H7L7,4z M43,49L43,49L43,49L43,49z
			 M56,49L56,49L56,49L56,49L56,49z M45,48L45,48L45,48L45,48L45,48L45,48z M14,48L14,48L14,48L14,48z M50,47L50,47L50,47L50,47
			L50,47L50,47z M17,47L17,47L17,47L17,47L17,47L17,47z M20,47L20,47L20,47L20,47z M9,47L9,47L9,47L9,47L9,47z M25,47L25,47L25,47
			l-1-1l0,0L25,47L25,47z M55,47L55,47L55,47L55,47L55,47L55,47z M39,47L39,47L39,47h-1v1L39,47L39,47L39,47z M16,47L16,47L16,47
			L16,47L16,47z M23,46L23,46L23,46L23,46L23,46z M31,46L31,46L31,46L31,46L31,46L31,46z M46,46L46,46L46,46L46,46L46,46z M44,46
			L44,46h-1l0,0H44L44,46L44,46z M35,46L35,46L35,46L35,46L35,46z M14,46L14,46L14,46L14,46z M12,45L12,45L12,45L12,45z M35,45
			L35,45L35,45L35,45L35,45L35,45z M50,45L50,45h-1l0,0l0,0l0,0H50L50,45z M40,45L40,45v-1l0,0V45L40,45L40,45z M19,45L19,45L19,45
			L19,45L19,45L19,45z M26,45L26,45L26,45L26,45z M17,45L17,45L17,45L17,45h-1H17L17,45z M38,45L38,45L38,45L38,45L38,45z M8,45
			L8,45L8,45L8,45L8,45z M3,45L3,45L3,45L3,45z M45,45L45,45v-1l0,0l0,0l0,0V45L45,45L45,45z M54,44L54,44l-1,1L54,44L54,44L54,44z
			 M24,44L24,44L24,44L24,44L24,44z M6,44H5l0,0H6L6,44L6,44z M22,44L22,44L22,44L22,44L22,44L22,44L22,44L22,44L22,44z M30,44
			L30,44L30,44L30,44L30,44L30,44L30,44z M52,44L52,44L52,44L52,44L52,44L52,44z M13,44L13,44h1l0,0H13L13,44L13,44L13,44z M15,44
			L15,44L15,44L15,44z M26,43L26,43L26,43L26,43L26,43l1,1l0,0L26,43L26,43z M35,44L35,44L35,44L35,44L35,44z M50,43L50,43L50,43
			L50,43L50,43L50,43z M11,43L11,43L11,43z M42,43L42,43L42,43L42,43z M18,43L18,43l-1-1L18,43L18,43L18,43L18,43z M32,43L32,43
			L32,43L32,43L32,43z M49,43L49,43L49,43h-2v1l0,0L49,43L49,43L49,43z M3,43L3,43L3,43L3,43L3,43z M40,42L40,42L40,42L40,42L40,42
			L40,42z M33,43L33,43L33,43L33,43L33,43z M53,42L53,42L53,42L53,42h-1H53L53,42L53,42L53,42z M10,42L10,42L10,42L10,42L10,42
			L10,42z M47,42L47,42L47,42L47,42L47,42L47,42L47,42z M7,42L7,42L7,42L7,42L7,42L7,42z M28,42L28,42L28,42L28,42L28,42L28,42z
			 M22,42L22,42L22,42L22,42L22,42L22,42z M21,41L21,41L21,41L21,41L21,41L21,41z M13,41L13,41h-1v1L13,41L13,41L13,41L13,41z
			 M27,41L27,41l-2-1v1l0,0l0,0l0,0H27L27,41z M36,41L36,41L36,41L36,41L36,41L36,41z M49,40L49,40L49,40L49,40L49,40L49,40z M6,41
			L6,41L6,41L6,41L6,41z M33,41L33,41L33,41L33,41L33,41L33,41L33,41z M18,40L18,40L18,40L18,40L18,40L18,40L18,40z M30,41L30,41
			L30,41h1l0,0H30L30,41L30,41L30,41L30,41z M47,41L47,41L47,41L47,41L47,41L47,41L47,41L47,41z M10,40L10,40L10,40L10,40L10,40z
			 M1,41L1,41L1,41L1,41z M9,40L9,40L9,40L9,40z M52,40L52,40L52,40l1-1h-2L52,40L52,40L52,40z M15,40L15,40L15,40L15,40L15,40z
			 M22,40L22,40l-1-1l0,0L22,40L22,40z M39,40L39,40L39,40L39,40L39,40L39,40L39,40z M7,40L7,40L7,40L7,40L7,40L7,40L7,40z M30,40
			L30,40L30,40L30,40L30,40z M44,40L44,40L44,40L44,40L44,40L44,40L44,40z M27,39L27,39L27,39L27,39L27,39L27,39L27,39L27,39z
			 M36,39L36,39L36,39L36,39z M37,40L37,40L37,40L37,40L37,40z M56,40L56,40L56,40L56,40v-1V40L56,40L56,40z M20,39h-1l0,0l0,0H20
			L20,39L20,39z M25,39L25,39L25,39l-1-1l0,0L25,39L25,39z M35,39L35,39L35,39L35,39L35,39z M49,39L49,39L49,39L49,39L49,39L49,39z
			 M32,38L32,38L32,38L32,38L32,38L32,38z M9,39L9,39L9,39L9,39L9,39z M12,38L12,38L12,38h-1H12L12,38L12,38L12,38z M30,38L30,38
			L30,38L30,38h-1H30L30,38L30,38z M56,38L56,38L56,38L56,38z M10,38L10,38L10,38L10,38L10,38L10,38z M17,38L17,38L17,38h-1l0,0H17
			L17,38z M38,38L38,38L38,38L38,38L38,38L38,38z M35,38L35,38L35,38L35,38L35,38z M54,38L54,38L54,38L54,38L54,38L54,38z M51,38
			L51,38L51,38L51,38l-1-1L51,38L51,38z M36,38L36,38L36,38L36,38L36,38z M26,38L26,38L26,38L26,38L26,38L26,38z M6,37L6,37L6,37
			L6,37L6,37z M10,37L10,37L10,37L10,37L10,37L10,37z M19,37L19,37L19,37L19,37L19,37z M34,37L34,37L34,37L34,37L34,37z M55,37
			L55,37L55,37L55,37L55,37L55,37L55,37L55,37z M24,36L24,36L24,36L24,36L24,36L24,36L24,36z M4,37L4,37L4,37L4,37z M31,37L31,37v-1
			V37L31,37L31,37z M29,36L29,36L29,36L29,36L29,36L29,36L29,36z M15,36L15,36L15,36L15,36L15,36L15,36L15,36z M36,36L36,36L36,36
			L36,36L36,36L36,36z M7,36L7,36L7,36L7,36L7,36L7,36z M53,35L53,35L53,35L53,35z M33,36L33,36h1l0,0H33L33,36L33,36L33,36z M50,36
			L50,36L50,36L50,36L50,36z M14,35L14,35L14,35L14,35z M27,35L27,35L27,35L27,35z M5,35L5,35L5,35L5,35L5,35z M55,35v-1h-1L55,35
			L55,35L55,35z M11,35L11,35L11,35L11,35z M32,35L32,35L32,35L32,35L32,35z M28,33L28,33L28,33L28,33L28,33z M6,33L6,33L6,33L6,33z
			 M32,33L32,33L32,33L32,33L32,33L32,33L32,33z M13,33L13,33L13,33L13,33z M56,32L56,32L56,32L56,32L56,32z M13,32L13,32L13,32
			L13,32L13,32L13,32z M59,31L59,31L59,31L59,31L59,31z M27,31L27,31L27,31L27,31L27,31z M32,31L32,31L32,31v-1V31L32,31L32,31z
			 M7,30L7,30L7,30L7,30L7,30z M29,29L29,29L29,29L29,29L29,29z M33,29L33,29L33,29L33,29L33,29z M31,28L31,28L31,28v-1V28L31,28z
			 M55,28L55,28L55,28L55,28z M30,27L30,27L30,27L30,27z M27,28L27,28L27,28L27,28z M52,27L52,27L52,27L52,27L52,27L52,27z M11,27
			L11,27L11,27L11,27L11,27z M32,27L32,27L32,27L32,27L32,27L32,27L32,27z M30,26L30,26L30,26L30,26L30,26L30,26L30,26L30,26z
			 M54,26L54,26L54,26L54,26L54,26z M36,24L36,24h-1H36L36,24z M58,25L58,25L58,25L58,25z M32,24L32,24L32,24L32,24L32,24L32,24
			L32,24z M30,23L30,23L30,23L30,23L30,23z M34,23L34,23L34,23L34,23L34,23z M30,21L30,21L30,21L30,21z M28,21L28,21L28,21L28,21z
			 M35,21L35,21L35,21L35,21L35,21z M52,20L52,20L52,20L52,20L52,20z M33,20L33,20L33,20h-1H33L33,20L33,20z M54,20L54,20L54,20
			L54,20L54,20L54,20z M9,19L9,19L9,19L9,19L9,19L9,19z M30,19L30,19L30,19L30,19L30,19z M59,18L59,18L59,18L59,18L59,18z M27,18
			L27,18L27,18L27,18z M58,17L58,17L58,17L58,17L58,17L58,17z M4,17L4,17L4,17L4,17L4,17L4,17z M33,17L33,17L33,17L33,17z M50,16
			L50,16L50,16L50,16z M31,15L31,15L31,15L31,15L31,15z M53,15L53,15L53,15L53,15L53,15z M57,15L57,15L57,15L57,15L57,15L57,15z
			 M46,13L46,13L46,13L46,13L46,13z M33,13L33,13L33,13L33,13z M31,13L31,13L31,13L31,13L31,13z M56,12L56,12L56,12L56,12L56,12
			L56,12z M47,12L47,12L47,12L47,12z M58,11L58,11L58,11L58,11L58,11z M53,10L53,10L53,10L53,10L53,10z M52,9L52,9L52,9L52,9z M46,9
			L46,9L46,9L46,9L46,9z M59,8L59,8L59,8L59,8L59,8z M54,8L54,8L54,8L54,8L54,8z M53,7L53,7L53,7L53,7L53,7z M52,5L52,5L52,5L52,5
			L52,5z"/>
	</g>
	<g>
		<path class="st1" d="M180,82L180,82l-1,1v1l-1,2h-1v1v1h-1v2h-1l-2,1v1v1h-1h-1v1l-1,2l-1,1l-3,1v1h-1l-1,1l-1,1h-1l-1,1l-5,2
			l-1,1h-1l-4,3l-2,1h-3l-1,1h-1h-1h-2l-1-1h-1h-1v1h-1l-3,1l-3-1l-1,1l-1-1h-1h-1h-2l-3-1l-1,1v-1l-1,1l-4-1v-2h-1l-1,1h-1v-1h-2
			v-1v-1l0,0v1l-3-1l-6-4l-3-1l-1-1l-2-1l-5-5l-1-1v-1h-1l-1-2l-2-1l-1-2l-2-4l-1-1v-1v-1v-1h-1l-1-2v-1l-1-2v-1l-2-1v-3l-1-6v-2v-2
			v-1v-1v-1v-3l1-3v-1v-1v-4l1-3v-1h1h1l-1-1v-1l2-3v-1h1h1v-1v-1v-1l1-2l1-1h1v-2h1l1-1h1v-2h1v-1l1-2l1-1h1v-1l0,0v-1l3-1l1-2h1
			l1-2h2v-1V9l1,1h1l1-2h1l2-2l5-2h2l1-1h3h2l1-1l3-1h1l1,1l4-1l1-1h3l1,1l1-1h1l1,1h5l3,1l1,1l1,1l1-1h1l8,3l1,1h1v1l4,3v1l2,1l2,2
			l6,7v1v1h1l1,3l5,2v1l-1,1h-1l-1,1l-1,1l-6,3l-1,1h-1l-1,1h-1h-1l-1,1h-1h-1v-1l-1,1v1h-2l-1,1l-3-1l-1-1l1-1v-1l-1-1h-1l-3-1
			l-4-3l1-1v-1h-1h-1h-1v-1l1-1h-1l-3,1l0,0h-1v-1h-2h-9l-1,1h-2l-3,1h-1h-3l-2,1l-3,2l-1,1h-1l-3,1v2l-1,1l-2,4l-2,2v2l-1,1v1l-1,4
			l1,1v1v3v1h-1l1,1l1,1v1v1l1,1v1v2h1h1l1,3l4,5h1l2,2l1,1l1,3l6,3h1l2,1h9l3-1h1l3-1l2-1l2-1h1v-2h2l3-3l2-3h3v-2h2v1l2,1l1,1v1
			l3-1l2,1h1v1l1,1l1-2h1v1v1h2l2,1h1v1v1h1h1l2,1V82L180,82z M81,52L81,52L81,52L81,52L81,52z M82,63L82,63L82,63L82,63L82,63z
			 M83,40L83,40L83,40L83,40z M83,49L83,49h1v-1L83,49L83,49L83,49z M85,62L85,62L85,62L85,62L85,62z M87,67v-1l-1-1v1L87,67L87,67
			L87,67z M87,71l-1-1v1H87z M86,39L86,39L86,39L86,39L86,39z M87,42L87,42L87,42L87,42L87,42L87,42z M87,63L87,63L87,63L87,63
			L87,63z M88,77v-1h-1L88,77L88,77L88,77L88,77z M90,33L90,33v-1l0,0V33h-1C88,33,90,33,90,33z M89,60L89,60L89,60L89,60L89,60z
			 M90,84L90,84L90,84L90,84L90,84z M90,28L90,28v1V28L90,28L90,28L90,28z M90,42L90,42l1-1h-1V42L90,42z M90,44L90,44L90,44L90,44
			L90,44z M91,81l-1-1v1H91L91,81z M91,53L91,53L91,53L91,53z M91,69L91,69L91,69L91,69z M91,37L91,37L91,37L91,37L91,37L91,37z
			 M93,46v-1h-2v1v1L93,46L93,46z M92,49L92,49v1V49L92,49L92,49z M93,75L93,75L93,75L93,75L93,75z M92,34L92,34L92,34L92,34L92,34z
			 M93,30L93,30L93,30v1V30L93,30z M93,26L93,26v1h1v-1H93L93,26z M95,63L95,63h-1h-1v1L95,63L95,63L95,63z M94,70L94,70L94,70
			L94,70z M94,85L94,85L94,85L94,85L94,85z M94,35L94,35L94,35l1,1v-1H94L94,35L94,35z M94,39L94,39L94,39L94,39z M95,91L95,91
			L95,91L95,91z M95,24L95,24L95,24L95,24z M95,51L95,51L95,51L95,51L95,51z M95,36L95,36L95,36L95,36L95,36z M97,45L97,45l-1-2v1
			L97,45L97,45z M96,33L96,33L96,33L96,33L96,33z M97,70l-1,2v1h1l1-4l-1-1v1V70L97,70L97,70z M98,28l-1,1v1h1V28L98,28L98,28z
			 M98,85L98,85v-1V85L98,85L98,85z M97,25v1h1v-1v-1L97,25L97,25z M98,81L98,81L98,81L98,81L98,81z M98,76L98,76L98,76L98,76L98,76
			z M100,34L100,34v-1h-1v1v1h1V34L100,34z M99,23L99,23L99,23L99,23L99,23z M99,36L99,36v1V36L99,36L99,36z M100,88L100,88L100,88
			v1V88z M100,18v1h1v-1H100L100,18L100,18L100,18z M101,28L101,28h2v-1L101,28L101,28z M101,79L101,79L101,79L101,79L101,79z
			 M101,23L101,23l1,1l1-1H101L101,23z M104,33L104,33l-1-1h-1v1H104L104,33z M103,21L103,21L103,21v-1V21z M104,17L104,17L104,17
			l1,1v-1v-1L104,17L104,17z M105,97L105,97L105,97L105,97L105,97z M105,27l1-1h-1h-1v1H105L105,27z M106,35L106,35L106,35L106,35
			L106,35z M106,23L106,23L106,23L106,23L106,23z M107,86L107,86L107,86L107,86L107,86z M107,30L107,30L107,30L107,30z M109,25
			L109,25h1H109L109,25z M109,19L109,19l1,1v-1H109L109,19L109,19z M111,31L111,31L111,31L111,31L111,31z M113,94L113,94v-1V94h-1
			H113L113,94z M114,108L114,108L114,108L114,108z M114,90L114,90L114,90L114,90L114,90z M114,19L114,19L114,19L114,19z M115,15
			L115,15h1H115L115,15z M116,12L116,12L116,12L116,12L116,12z M118,20L118,20L118,20v1V20L118,20z M119,17L119,17L119,17L119,17
			L119,17z M119,14L119,14L119,14L119,14L119,14L119,14z M123,98L123,98l-1,1h1V98z M122,14L122,14v1h1v-1H122L122,14z M123,12
			L123,12L123,12L123,12L123,12z M126,97L126,97l1-1h-1h-1L126,97L126,97L126,97z M127,13L127,13L127,13L127,13z M128,101L128,101
			L128,101L128,101L128,101L128,101L128,101z M131,92L131,92L131,92L131,92z M131,11L131,11v-1h-1v1H131z M131,20L131,20L131,20h1
			H131z M135,92L135,92L135,92L135,92L135,92z M137,17L137,17L137,17L137,17z M138,12L138,12L138,12L138,12L138,12z M144,15L144,15
			L144,15L144,15L144,15L144,15z M147,89L147,89l-1-1L147,89L147,89z M152,12L152,12L152,12L152,12L152,12z M154,21L154,21v-1l0,0
			V21z M154,18L154,18L154,18L154,18L154,18z M155,29L155,29L155,29L155,29z M156,38L156,38L156,38L156,38L156,38L156,38L156,38z
			 M157,90L157,90v-1h-1v1H157L157,90z M156,94L156,94L156,94L156,94L156,94z M158,19L158,19L158,19L158,19L158,19L158,19z M158,72
			L158,72L158,72L158,72L158,72z M159,96L159,96L159,96L159,96z M160,100L160,100L160,100L160,100L160,100z M172,91L172,91L172,91
			L172,91L172,91z"/>
		<path class="st1" d="M300,50l-1-2v-4v-2l-1-2v-2l-1-2l-1-1h-1v-1l0,0l-1-1l-1-1v-2l-1-2v-1l-1-1h-1v-1h-1v-1h-1v-1h1v-1l-1-1l-3-1
			v-1l-1-1v-1h-1v-1l0,0l-1-1l-2-2l-2-1h-1v-1l-2-1l-7-4h-2V5l-1-1h-2l-1-1V2h-4h-1l-3-1l-1-1h-2h-3h-1h-1h-2l-7,1V0l-1,1h-2h-1h-2
			l-1,1h-1h-1l-3,1l-6,2l-3,2l-1,1h-1v1l-4,3l-1,1v1h-2l-1,1v1l1,1v1h-1h-2l-1,2h-1h-2h1v1h-1v1l-1,1v1v-1l-3,4v2l-1,1v2l-1,1l-1,1
			v2l-3,2l-1,3l-1,3l1,1l-1,1v4l-1,3l1,2v1v5l1,2l-1,1l1,1l1,5h1v1h-1v1v1l1,5l1,1l1,1v2l2,3v1l2,2l3,2l3,2l1,1h1l1,2l2,2l1,1h2v1v1
			l3,1l1,1h1l2,1l1,1h1h1l4,2l1-1l2,1h2h1l2,1h2h1h1l1,1l2-1l1,1h1h3h2l1-1h1h3l5-1l1,1l1-2h1l1,1l5-2l4-1l1-1l3-1l1-1l2-1l6-5l5-4
			v-1l1-1v-1h1v-1l1-1l3-6v-3l4-6v-2l2-5V50z M194,61L194,61L194,61L194,61L194,61L194,61z M194,58L194,58L194,58L194,58z M280,27
			L280,27L280,27h-1v-1L280,27z M279,32L279,32v1l-1-1v-1h1V32z M279,41L279,41L279,41L279,41L279,41z M275,33L275,33L275,33L275,33
			L275,33z M277,65L277,65L277,65L277,65L277,65z M275,71L275,71l-1,1v-1H275L275,71z M276,79h1v2v1h-1V79L276,79z M277,46L277,46
			L277,46L277,46L277,46z M277,14L277,14L277,14L277,14L277,14L277,14z M274,19L274,19l1,1h-1V19L274,19L274,19z M270,23
			c2-2,5-2,6,0c2,2,2,5,0,6c-2,2-5,2-6,0C268,27,268,25,270,23z M273,79h-1v-1L273,79L273,79z M272,34L272,34L272,34L272,34L272,34z
			 M268,16L268,16L268,16L268,16l1,1h-1V16L268,16z M268,19L268,19L268,19L268,19L268,19L268,19L268,19z M268,18L268,18L268,18
			L268,18L268,18z M267,23L267,23L267,23L267,23L267,23z M265,14L265,14h1H265L265,14L265,14z M264,17L264,17l1,1h-1V17L264,17z
			 M266,27L266,27h-1H266z M263,22L263,22L263,22h1H263L263,22L263,22L263,22z M262,23v2h-1l-1-1v-1H262L262,23z M261,15L261,15
			L261,15v1V15L261,15z M259,26L259,26L259,26L259,26L259,26z M255,21L255,21L255,21v1V21L255,21z M255,25L255,25L255,25L255,25
			L255,25z M254,13L254,13L254,13L254,13z M252,11L252,11L252,11L252,11L252,11z M250,14L250,14v1V14L250,14L250,14z M248,21L248,21
			h1H248L248,21z M241,9L241,9L241,9L241,9L241,9z M243,9c2,0,4,2,4,4s-2,4-4,4s-4-2-4-4S241,9,243,9z M246,19L246,19L246,19L246,19
			L246,19z M238,19L238,19L238,19L238,19z M237,6L237,6L237,6L237,6L237,6z M235,16L235,16L235,16L235,16L235,16z M228,14L228,14
			L228,14L228,14z M223,17L223,17L223,17L223,17L223,17z M217,13L217,13L217,13L217,13L217,13z M211,23c2-2,5-2,6,0c2,2,2,5,0,6
			c-2,2-5,2-6,0C209,27,209,25,211,23z M216,34L216,34L216,34L216,34L216,34L216,34z M215,76L215,76L215,76L215,76L215,76z M214,40
			L214,40l-1,1v-1v-1L214,40L214,40z M211,64L211,64L211,64L211,64L211,64z M210,51L210,51L210,51L210,51L210,51z M209,30L209,30
			L209,30L209,30L209,30L209,30z M208,33L208,33L208,33L208,33z M206,24L206,24v1V24L206,24z M207,27L207,27L207,27L207,27z M207,28
			L207,28L207,28L207,28z M205,46L205,46L205,46L205,46z M203,39L203,39L203,39L203,39L203,39L203,39z M204,50L204,50L204,50L204,50
			L204,50L204,50z M197,68L197,68L197,68l-1-1L197,68L197,68L197,68z M200,69L200,69v-2h1L200,69L200,69z M199,65L199,65L199,65l1,1
			L199,65L199,65z M201,78L201,78v-1V78L201,78z M201,61L201,61L201,61L201,61L201,61z M202,60c-2,0-4-2-4-4s2-4,4-4s4,2,4,4
			S204,60,202,60z M204,64L204,64L204,64v-1V64L204,64L204,64z M205,73L205,73L205,73l2-1v1H205L205,73z M205,81L205,81L205,81
			L205,81L205,81z M206,85L206,85l-1-1h1V85z M207,62L207,62L207,62L207,62L207,62L207,62z M207,65L207,65v-1h1L207,65L207,65z
			 M209,42L209,42L209,42L209,42L209,42L209,42z M209,47L209,47L209,47L209,47L209,47z M211,92L211,92L211,92L211,92L211,92z
			 M214,93L214,93L214,93L214,93z M216,92L216,92v-1v-1h1L216,92L216,92L216,92z M217,88c-2,2-5,2-6,0c-2-2-2-5,0-6c2-2,5-2,6,0
			C219,84,219,86,217,88z M218,79L218,79l1,2l0,0L218,79z M220,89L220,89h-1H220L220,89L220,89z M221,97L221,97L221,97h1H221z
			 M222,94h-1v-1v-1h1V94z M224,88h-1v-1h1V88L224,88L224,88z M226,92L226,92h-1H226L226,92L226,92z M226,101v-1h1v1H226L226,101z
			 M230,90L230,90L230,90v-1V90z M231,100L231,100l-1-2v-1l1,1V100z M232,96L232,96L232,96L232,96z M235,101L235,101v-1h1L235,101
			L235,101z M235,99L235,99L235,99v-2h1L235,99L235,99z M238,103L238,103L238,103L238,103L238,103z M238,96h-1v-2l1-1h1L238,96
			L238,96z M237,91L237,91h1H237L237,91z M243,102c-2,0-4-2-4-4s2-4,4-4s4,2,4,4C248,100,246,102,243,102z M247,92L247,92L247,92
			L247,92h1H247z M248,93L248,93l-1,1L248,93L248,93L248,93z M249,90L249,90L249,90L249,90L249,90z M250,99L250,99L250,99L250,99z
			 M251,96L251,96l-1-1h1v-1h1L251,96z M252,91h-1v-1h1h1v1H252z M252,89L252,89L252,89L252,89z M255,94L255,94L255,94l-1-2h1V94
			L255,94z M254,89L254,89l1-2h1v2H254L254,89L254,89z M256,102L256,102L256,102L256,102L256,102L256,102z M256,98L256,98l1-1v1H256
			z M259,92h-2v-1h1L259,92L259,92L259,92z M258,87L258,87l1-1h1h1v1v1L258,87z M260,100L260,100L260,100L260,100L260,100z M262,96
			L262,96h-1v-1L262,96L262,96L262,96z M261,91L261,91L261,91L261,91L261,91z M263,86v-1h1v1H263L263,86z M265,96L265,96l-1-1v-2h1
			l1,1L265,96L265,96z M268,71l-1,1l-1,1l-1,1l-1,3h-2l-3,1l-1,2l-1,1h-1v1l-3,2l-1-1l-1,1h-1h-3h-1h-1l-1,1l-2-1h-1v1l-1-1h-1h-1
			l-1-1l-4-1l-3-2h-1l-1-1h-1h-1l-6-7l-4-6v-3l-1-3v-1l-1-2v-1v-2l1-1v-2v-1l1-2v-2l3-4l1-2v-2h1l3-4l1-1l1-1h1l1-1l6-3v-1h2h2h1h3
			h1l1-1h1l1,1h1l0,0v-1l1,1l2,1v-1h1v1l1,1l5,2v-2l1,2v1h2v1v1h1h2v1l1,1v1l1,1l1,1l2,1h-1v1v-1h1v1l-1,1l1,3l1,3v2l1,2v3v7v2l-1,1
			l1,2l0,0l-1,1l-1,1v1h2h-1h-1V71z M271,77L271,77l-1,1L271,77L271,77z M276,88c-2,2-4,2-6,0s-2-5,0-6c2-2,5-2,6,0
			C278,84,278,86,276,88z M279,70l-1,1v-1v-1v-1h1V70L279,70z M279,67L279,67l-1-1L279,67L279,67z M279,31L279,31L279,31L279,31
			L279,31z M281,79L281,79L281,79L281,79L281,79L281,79z M289,47L289,47L289,47L289,47L289,47z M287,39L287,39L287,39L287,39z
			 M285,25L285,25L285,25L285,25L285,25z M284,33L284,33L284,33v1V33L284,33z M284,37L284,37L284,37L284,37L284,37z M284,40L284,40
			v2h-1v-2v-1L284,40L284,40z M282,29L282,29L282,29L282,29L282,29z M282,44L282,44L282,44h-1H282L282,44z M281,35h1H281L281,35
			L281,35L281,35z M282,68L282,68l1-1v1H282L282,68L282,68z M284,78L284,78l-1-1l1-1V78L284,78L284,78z M284,61L284,61h1H284L284,61
			z M285,74L285,74L285,74L285,74L285,74z M286,71L286,71L286,71L286,71L286,71z M287,68L287,68l-1-2v-1l2,1v1L287,68L287,68z
			 M287,76L287,76v-2V76L287,76L287,76L287,76z M285,60c-2,0-4-2-4-4s2-4,4-4s5,1,5,4C290,58,288,60,285,60z M290,41L290,41L290,41
			L290,41z M291,65L291,65v-1V65h1H291z M292,46L292,46h1H292L292,46L292,46z M293,54L293,54L293,54L293,54L293,54z"/>
		<path class="st1" d="M178,160v2v2l-1,1l1,1l-1,5h-1v1l-2,4l-1,4h-1h-1v1h1l-1,2h-1v1l-1,2l-4,4h-2v1l-3,3h-1v1l-1,1l1,2v1l2,2l1,2
			l1,1l1,2l1,1v1h1l1,1l2,3l1,1h1v3h1l1,1l1,1l1,2l2,3v1l-1,3h-3l-1,1h-2h-10h-5l-2,1l-5-1l-1-1l0,0v-1h-1l-1-2l-1-1l-2-2l-1-1h-1
			v-1l-1-1l-1-1v-1l-2-4l-1-1l-1-1h1v-1v-1l-1-1l-1-1v-1l1-1v-1l-4-1l-1-2h1v-2h-1v-1l-1,1l-2-1h-1h-1h-1v-1l-1,1h-1l-3-1v1v1h-1
			l-2,2l-1,4l1,1v1v2v1l-1,1v3v1h-1l1,1v1l-1,1l1,1v2v5h-2v1h-1l-3,1l1-1h-1h-1h-1l1,1h-3h-3h-1v-1l-2,1h-3h-2v-1l-1,1h-1l-1-1l-1-1
			l-1-2v-3v-2l1-1l-1-1v-1v-1l1-1v-1l-1-1l1-3v-3v-1v-2l1-1v-1v-1v-2l1-3v-1l-1-1l1-3v-1v-1v-4v-2l1-1h1v-1l-6,1v-1h1l-1-1v-2v-3v-2
			v-1v-4v-1l1-1v-2v-1v-1v-2l1-3l-1-1l1-2v-1v-1l1-4l-1-2l1-1v-1l-4-2l1-2l1-3v-1l-1-1v-2v-3v-1l1-1l-1-1v-1l1-2v-1h2h2h2l1,1l1-1h2
			l1,1l1-2l0,0l1,1l2-1h2l1,1l2-1h2h6h1h1h1h1l1-1h1h1h1h1l1,1v1l2-1h1l1-1h5h1h1v1l3-1h2h2l1,1l1-1l3,1v2l1-2l1,1h1h3h1l1,1h1l4,2
			v1h2v1h1l1,1l1,1l1,1h1v1l1,1l2,2v2v1l1,1l1,5l1,1l1,1v1l1,3v2v1v3v2L178,160L178,160z M91,145L91,145L91,145L91,145L91,145
			L91,145L91,145z M92,186L92,186L92,186L92,186L92,186z M92,194l1,1L92,194L92,194L92,194z M92,135L92,135L92,135L92,135L92,135z
			 M93,182L93,182L93,182L93,182L93,182z M93,170L93,170L93,170L93,170L93,170z M93,174L93,174L93,174L93,174L93,174L93,174z
			 M95,148L95,148L95,148L95,148L95,148z M95,136L95,136L95,136L95,136L95,136L95,136z M96,144L96,144L96,144v1V144L96,144z M96,157
			L96,157h1v-1h-1V157L96,157z M97,172L97,172l-1-1v1v1L97,172L97,172z M96,133L96,133L96,133L96,133z M96,142L96,142h1H96L96,142
			L96,142z M96,200L96,200L96,200L96,200L96,200z M96,209L96,209L96,209L96,209z M97,169L97,169L97,169L97,169z M98,153L98,153
			L98,153L98,153L98,153L98,153z M99,190L99,190v-2h-1h-1v2H99L99,190z M98,123L98,123L98,123L98,123z M98,133L98,133v1h1L98,133
			L98,133L98,133L98,133z M98,131L98,131L98,131L98,131z M99,174L99,174L99,174L99,174z M100,154L100,154L100,154L100,154L100,154z
			 M101,198L101,198h-2v1L101,198L101,198z M101,207L101,207l-1-1l0,0L101,207L101,207L101,207z M100,211L100,211L100,211L100,211
			L100,211z M100,169L100,169L100,169L100,169L100,169z M100,143L100,143L100,143L100,143L100,143z M101,178L101,178L101,178v1h1
			L101,178L101,178L101,178z M102,192L102,192h-2v1L102,192L102,192z M100,140L100,140L100,140L100,140L100,140z M101,147L101,147
			L101,147L101,147L101,147z M102,204L102,204L102,204L102,204L102,204z M102,145L102,145L102,145L102,145L102,145L102,145L102,145z
			 M102,201L102,201L102,201L102,201L102,201z M102,130L102,130l1-1v-1h-1V130z M103,160L103,160L103,160l-1,1l1,1V160z M103,132
			L103,132l-1-1L103,132L103,132z M103,210L103,210L103,210L103,210z M104,197v-2l-1-1l-1,1v1L104,197L104,197z M103,185L103,185
			L103,185L103,185L103,185z M104,143L104,143L104,143L104,143z M104,141L104,141L104,141L104,141z M105,194L105,194L105,194
			L105,194L105,194z M105,205L105,205L105,205L105,205L105,205z M105,177L105,177L105,177v-1V177L105,177z M105,172v1V172L105,172z
			 M106,199L106,199L106,199L106,199L106,199L106,199z M106,171L106,171L106,171L106,171L106,171z M107,186L107,186L107,186L107,186
			L107,186z M107,210L107,210l-1-1v1H107L107,210L107,210z M107,185L107,185v-1h-1L107,185L107,185z M106,131L106,131h1v-1L106,131
			L106,131z M108,195L108,195L108,195L108,195L108,195L108,195z M109,151L109,151L109,151L109,151L109,151z M110,201L110,201v-1h-1
			L110,201L110,201L110,201z M109,145L109,145h1H109L109,145L109,145z M109,176L109,176L109,176L109,176L109,176z M111,143L111,143
			L111,143L111,143z M110,130L110,130l1-1h-1V130z M111,125L111,125v1h1L111,125L111,125L111,125z M111,178L111,178L111,178L111,178
			L111,178z M112,150L112,150L112,150L112,150L112,150z M112,187L112,187h2v-1h-1L112,187L112,187z M113,195L113,195L113,195
			L113,195L113,195L113,195z M115,183L115,183L115,183l-1-1L115,183L115,183z M114,140h1l-1-1v-1V140z M115,192L115,192L115,192
			L115,192L115,192z M133,173L133,173h3h1l1-1l2-1h2h1l4-2l2-2l1-1l1-1v-1v-1l1-1l-1-8l-5-6h-1l-3-2h-1v-1v-1h-1v2l-2-1l-1,1l-1-1
			h-3h-1l-2,1h-1h-2h-1l-2-1l-1,1h-1h-3h-3l-2,3v9l1,1v2v10l3,2h3h2v1v1l1-1h1v-1h1h2h1l1,1h2L133,173L133,173z M115,179L115,179
			L115,179L115,179L115,179L115,179z M115,128L115,128l1-1L115,128L115,128z M116,192L116,192L116,192L116,192L116,192z M117,187
			L117,187L117,187L117,187L117,187z M118,141L118,141L118,141L118,141z M120,191L120,191v-1l0,0V191L120,191L120,191L120,191z
			 M120,135L120,135L120,135h1H120L120,135z M121,188l1-1v-1h-1l0,0V188L121,188z M121,183L121,183L121,183L121,183L121,183L121,183
			z M125,129L125,129L125,129v1V129L125,129z M126,137L126,137v2l1-1L126,137L126,137L126,137z M126,182L126,182L126,182L126,182
			L126,182L126,182z M126,143L126,143L126,143L126,143L126,143z M127,193L127,193L127,193L127,193L127,193z M127,135L127,135
			L127,135L127,135z M129,187L129,187l1-1h-2L129,187L129,187z M128,132L128,132L128,132v-2V132z M130,137L130,137l1,1v-1v-1h-1V137
			L130,137z M129,140L129,140L129,140L129,140z M131,192L131,192v-1h-1L131,192v1V192z M132,189L132,189L132,189L132,189L132,189z
			 M133,198L133,198L133,198L133,198L133,198z M133,125L133,125L133,125L133,125L133,125z M133,183L133,183l1-2v-1h-1V183L133,183z
			 M134,194L134,194L134,194L134,194L134,194z M135,134h-1l1,2h1L135,134L135,134z M135,190L135,190v-2v-1v-1h-1v1v1l-1,3L135,190
			L135,190z M135,191L135,191L135,191L135,191z M134,124L134,124L134,124L134,124L134,124z M136,130L136,130L136,130L136,130
			L136,130z M138,180L138,180L138,180L138,180L138,180z M138,133L138,133L138,133l1-1L138,133L138,133z M140,201L140,201L140,201h-1
			H140L140,201z M139,189L139,189L139,189L139,189L139,189z M140,186L140,186L140,186L140,186L140,186z M139,194L139,194l1,1h1
			L139,194L139,194L139,194z M140,141L140,141L140,141L140,141L140,141L140,141z M140,198L140,198v-1V198L140,198L140,198z M141,138
			L141,138l1,1L141,138L141,138z M143,182L143,182l-1-1v-1l-1-1l-1,2h1L143,182L143,182z M142,206L142,206L142,206L142,206z
			 M142,203L142,203l-1-1L142,203v1V203z M142,136l2-2h-2V136z M142,131L142,131v2h1v-1v-1H142L142,131z M142,178L142,178L142,178
			L142,178z M142,186l1,1L142,186L142,186L142,186z M144,199L144,199h-1H144L144,199L144,199z M143,208L143,208L143,208L143,208
			L143,208z M143,141L143,141h1v-1h-1V141L143,141z M143,184L143,184L143,184L143,184L143,184z M145,136L145,136h-1v1L145,136
			L145,136z M145,196L145,196L145,196L145,196L145,196L145,196z M146,204L146,204L146,204L146,204L146,204z M146,178L146,178
			L146,178L146,178L146,178z M146,189L146,189l1,1l1-1H146L146,189L146,189z M146,130L146,130h1v-1L146,130L146,130z M147,185l-1,1
			v1h1V185L147,185L147,185L147,185z M147,213L147,213L147,213L147,213L147,213z M147,182L147,182l1,1v-1H147L147,182L147,182z
			 M147,211L147,211L147,211L147,211z M147,138L147,138v1h1l1-2L147,138L147,138z M147,206L147,206L147,206L147,206L147,206z
			 M148,195L148,195L148,195L148,195L148,195z M148,191L148,191l1,1v-2L148,191L148,191L148,191z M149,178L149,178L149,178L149,178
			L149,178z M149,136L149,136L149,136L149,136z M149,175L149,175L149,175L149,175z M150,132L150,132v1V132L150,132L150,132z
			 M150,212L150,212L150,212L150,212L150,212z M150,128L150,128L150,128L150,128L150,128z M151,209L151,209v-1h-1L151,209L151,209
			L151,209z M151,196L151,196l-1-1L151,196L151,196z M151,181L151,181h1H151L151,181L151,181z M151,184L151,184L151,184L151,184
			L151,184L151,184z M151,137v1h1l1-1v-1L151,137L151,137z M152,192L152,192L152,192L152,192L152,192z M154,189L154,189l-1-1v1H154
			L154,189z M153,135L153,135L153,135L153,135L153,135z M154,198v-2h-2v1v1H154L154,198z M154,201l-1-1h-1v1H154L154,201L154,201
			L154,201z M154,145L154,145v2V145L154,145L154,145z M154,173L154,173L154,173L154,173L154,173z M155,178L155,178l-1-1L155,178
			L155,178L155,178L155,178z M155,194L155,194h-1H155L155,194L155,194z M156,207v-1h-1v1H156L156,207z M156,134L156,134l-1,1l1,1h1
			L156,134L156,134z M156,182L156,182L156,182L156,182L156,182z M157,186L157,186h-1v1h1V186L157,186z M156,140L156,140l-1-1
			L156,140L156,140z M157,190h-1v1L157,190L157,190z M156,159L156,159L156,159L156,159z M158,143L158,143l-1,1l1,1h1L158,143
			L158,143z M158,183L158,183L158,183L158,183z M158,170h-1v1h1V170z M158,210L158,210l1-2h-1V210L158,210z M159,154L159,154l1-1
			l-1-1h-1L159,154L159,154L159,154z M159,148L159,148l1,1L159,148L159,148L159,148L159,148z M160,162L160,162l1-1L160,162L160,162
			L160,162z M160,134L160,134L160,134L160,134L160,134L160,134z M160,157L160,157L160,157L160,157L160,157z M161,143L161,143h1v-1
			h-2l0,0L161,143L161,143z M161,185L161,185L161,185L161,185L161,185z M162,166L162,166L162,166L162,166z M162,151L162,151l1,1l1-2
			v-1h-1h-1V151L162,151z M162,154L162,154L162,154L162,154L162,154z M163,175L163,175l1-1h-1V175L163,175z M163,147L163,147
			L163,147L163,147L163,147L163,147z M165,160L165,160v-1h-1L165,160L165,160z M166,168L166,168l-1-1l-1,1H166L166,168z M165,141
			L165,141L165,141L165,141L165,141L165,141z M168,149L168,149h-2v1h1L168,149L168,149z M165,163L165,163v2l1,1v-1L165,163L165,163
			L165,163z M167,178L167,178v-2h-1L167,178L167,178z M167,173L167,173L167,173L167,173L167,173z M167,145L167,145L167,145L167,145
			L167,145L167,145z M168,162L168,162L168,162L168,162L168,162z M169,154L169,154h1H169l1-1h-1V154L169,154z M169,158v-1h-1L169,158
			L169,158L169,158z M170,148L170,148L170,148L170,148z M170,163L170,163L170,163L170,163L170,163z M173,157L173,157L173,157
			L173,157L173,157z"/>
		<path class="st1" d="M222,208L222,208l2,1l-1,1v1v1h1h1l-1,2v1l1,3h-1l1,3v2v3l-1,1l-1,1h-1h-4h-1l-1-1l-2,1h-3l-5-1h-2l-1-1l-1,1
			l-1-1h-1l-1-1l-2-2v-1v-1l-1-1l1-2v-3v-2l1-1l-2-2l2-1l-1-4v-1h1l1-3h-1v1l0,0v-1l1-1l-1-1h1l-1-1v-1h1v-4l-3-3l1-1v-1l-1-6l1-1
			v-1h-1v-1v-4v-2l1-1h-1v-2v-2l1-1l-1-3v-2l1-1l1-1h-1l-1-1v-1h1v-1l1-1h1v-1v-1l-1-1l1-2v-3l-1-2l1-1v-1l-1-1v-2l1,1h1l-3-2v-1v-2
			h1h1v-1h-1h-1v-1h1v-1v-1h-1h-1v-1v-1h1l-1-3v-2l1-2l1-2h1l1-2h1v1h1l1-1h1v1h1l1-1h1l1,1l3-1h2l1,1l1-1h1v1h1v-1l0,0h3l1,1l1,1v1
			l1,1h1v-1v-1h1v3v1l0,0v1l1,1v1h-1l1,1v5v1l-1,1v2l-1,1l1,1l1,3v6l1,3l2-1l1-1h1v-1v-1l2-1v-1l1-1v-2l1-1l1,1v-1v-1l2-1v-1l1-1v-1
			h1l0,0l1-2l2-3l1-1v-1v-1l1-1l1-1v-2h1l1,1l1-1v4l1-1l1-1v-1l5-5l2-1l1,1l6-1l2,1l1-1h1h1h1l1-1h1h5l1,1l1-1l3,1h1v-1l1,1v-1l2,1
			l0,0h-1l2,2v1l-2,1v1v1l-1,1h-1l-1,2l-1,1h-1v1l-1,2l-1,1l-2,1v2h-1l-2,2l-1,1l-1,1h-1l-1,2l-5,6h-1l-1,2l-2,2v1h-1l-1,1l-2,3
			l-2,2l-1,2l-2,1l1,1v3l6,8v1l7,9v1h-1l6,6v1v1l1,1v1l1,1h1l6,8l1,2h1l4,6l2,3l1,1h1v2l2,2v1h-1v1l1,1v1l-1,2h-5h-1h-1l-1,1h-7h-2
			l-1,1h-1h-1l-6-1h-2l-3-4l-1-1l-1-1v-1h-1l-1-2h-1v-1v-1h-1v-1l-1-2h-1h-1l-1-2l-1-3l-3-2l-1-1v-2l-1-1h-1l-2-4l-1-2l-3-2l-4-5v-1
			l-3-1l-1,1l-2,2l-1,1v1l-1,2l-1,1v4l-1-1l1,1v1v1v5l-1-1L222,208L222,208z M197,169L197,169L197,169L197,169L197,169z M198,128
			L198,128L198,128L198,128z M199,144h-1H199L199,144z M198,215L198,215l-1-1L198,215L198,215z M198,138L198,138h2v-1L198,138
			L198,138z M200,167L200,167L200,167L200,167L200,167z M201,159L201,159L201,159L201,159z M201,143L201,143L201,143h1H201L201,143z
			 M202,154L202,154l1,1h1v-1H202L202,154z M204,168L204,168l-2-1v1v1L204,168L204,168z M202,196l4,2v-1l-2-1H202L202,196z M202,212
			L202,212l1-1h-1V212L202,212z M202,140h1v-1v-1h-1V140L202,140L202,140z M203,147l1,1h1v-1v-1L203,147L203,147z M203,177L203,177
			l1,1l1-1H203L203,177z M204,193L204,193l-1-2L204,193L204,193z M204,137L204,137L204,137v-1V137z M205,162L205,162l1-1h-1V162
			L205,162z M205,175L205,175l1-1v-1h-1v1V175L205,175L205,175z M205,202L205,202L205,202L205,202L205,202z M205,145L205,145h1H205
			L205,145L205,145z M205,129L205,129L205,129L205,129L205,129L205,129z M205,210h2l-1-1l-1-1V210L205,210z M205,158L205,158h1H205
			L205,158z M205,194L205,194L205,194h1H205L205,194z M206,171v-1h-1L206,171L206,171z M206,142L206,142h1H206L206,142z M206,206
			l1,1v-1H206L206,206z M207,183v-2h-1L207,183L207,183z M207,167L207,167l1-1l-2-1L207,167L207,167z M207,179L207,179L207,179
			L207,179L207,179z M207,188L207,188v1V188l2,1L207,188L207,188z M207,153L207,153L207,153L207,153z M208,135h1h1v-1h-1h-1V135
			L208,135L208,135z M208,147L208,147L208,147h1H208z M208,213L208,213l1-1l-1-1V213L208,213z M209,193L209,193h1h1H209L209,193z
			 M209,200v-1h-1L209,200L209,200z M209,140h2v-1h-1L209,140L209,140z M210,144v-1h-1h-1L210,144L210,144L210,144z M209,155
			L209,155l3,1v-1h-1H209L209,155z M209,169L209,169l2-1L209,169L209,169L209,169z M210,208v-1h-1L210,208L210,208z M211,136
			L211,136l-1-1v1H211L211,136z M211,151L211,151L211,151L211,151z M211,182v-1v-1V182L211,182z M210,149h2v-1L210,149L210,149z
			 M212,202L212,202l-1-1L212,202L212,202z M211,189L211,189L211,189L211,189L211,189L211,189z M212,174L212,174v-1h-1v1H212
			L212,174z M212,145L212,145l1,1h1v-1H212L212,145z M212,178L212,178L212,178L212,178L212,178z M213,161L213,161v-1h-1L213,161
			L213,161z M213,198L213,198l-1-1v1H213L213,198z M212,168L212,168l1,1h1l-1-1H212z M212,182L212,182l1,1v-1H212L212,182z M213,210
			L213,210l1-1L213,210L213,210z M214,138L214,138L214,138L214,138z M214,154L214,154L214,154L214,154z M213,195L213,195L213,195
			L213,195L213,195L213,195L213,195z M213,206l1,1h1v-2h-1L213,206L213,206z M214,178L214,178h1v-1L214,178L214,178z M214,134
			L214,134L214,134l2,1v-1H214L214,134z M214,158L214,158L214,158L214,158z M214,191L214,191L214,191h1H214z M215,167L215,167
			L215,167L215,167L215,167z M215,151L215,151l1-2h-1V151L215,151z M215,185h1l1-1l-1-1L215,185L215,185z M216,189L216,189v-2h-1
			l-1,1L216,189L216,189z M216,204L216,204L216,204L216,204z M217,143l-1-1v1v1L217,143L217,143z M215,176L215,176L215,176L215,176
			L215,176z M216,147h1v-1h-1V147L216,147z M217,132v-2h-1v1L217,132L217,132z M216,157L216,157l2-1h-1h-1V157L216,157z M217,160
			L217,160v-3h-1L217,160L217,160z M218,197v-1v-1h-1v1v1H218L218,197z M217,151L217,151l1,1v-1H217L217,151z M218,168L218,168v-2
			h-1v1L218,168L218,168z M218,190L218,190L218,190L218,190L218,190z M218,175L218,175l1-1l1-1h-1L218,175L218,175z M218,177
			L218,177L218,177v-1V177z M220,162L220,162l-1-2L220,162L220,162L220,162z M219,170L219,170L219,170l2,1v-1h-1H219L219,170z
			 M220,187L220,187l1-1l0,0L220,187L220,187z M220,199L220,199L220,199v-1V199L220,199z M221,157L221,157L221,157L221,157z
			 M221,155L221,155l1-1L221,155L221,155L221,155z M222,180l-1-1h-1v1H222L222,180z M221,183h1H221L221,183z M222,164L222,164
			L222,164L222,164z M222,188L222,188v-1h-1L222,188L222,188z M223,170L223,170L223,170L223,170L223,170z M224,184L224,184l1-1h-1
			V184L224,184z M224,160L224,160L224,160L224,160L224,160z M224,168L224,168L224,168h1H224L224,168z M225,177L225,177h2v-1h-1
			L225,177L225,177z M226,173L226,173l1-1v-1h-1V173L226,173z M227,162v-1h-1L227,162L227,162z M228,158L228,158l-1-1L228,158
			L228,158z M227,165L227,165L227,165l2,1v-1H227L227,165z M230,162L230,162L230,162L230,162L230,162z M230,175L230,175L230,175
			L230,175L230,175z M230,170L230,170L230,170L230,170L230,170L230,170z M231,185L231,185l-1-2v1L231,185L231,185z M232,181L232,181
			v-1h-1L232,181L232,181z M231,168L231,168L231,168L231,168L231,168z M233,178v-1v-1h-1L233,178L233,178z M233,159L233,159l1-1v-1
			h-1V159L233,159z M233,181L233,181l1,1h1v-1v-1L233,181L233,181z M235,170v-1h-1L235,170L235,170z M235,157L235,157L235,157
			L235,157L235,157z M235,168l1-3h-1V168L235,168z M237,172L237,172l1-1h-1V172L237,172L237,172z M236,175L236,175L236,175L236,175z
			 M237,184L237,184l1-1l0,0h-1V184L237,184z M239,156L239,156v-2l-1,1v1v1L239,156L239,156z M237,160L237,160L237,160L237,160
			L237,160z M238,180L238,180l1,1h1v-1H238L238,180z M239,165L239,165l1-1v-1h-1V165L239,165L239,165z M240,184L240,184l1,1L240,184
			L240,184L240,184z M240,174L240,174l1-1v-1h-1V174L240,174z M241,169L241,169L241,169L241,169z M242,171L242,171L242,171L242,171
			L242,171z M241,158L241,158L241,158L241,158L241,158z M243,179L243,179v-1h-1v1H243L243,179z M242,182L242,182L242,182L242,182
			L242,182L242,182z M243,152l-1-2h-1v1v1H243L243,152z M243,154L243,154L243,154L243,154z M243,187L243,187L243,187L243,187
			L243,187z M243,164h1v-1l0,0h-1V164L243,164z M243,160h1l-1-2h-1L243,160L243,160z M244,175L244,175l-1-1v1H244L244,175z M245,183
			L245,183l-1-1v1H245L245,183z M244,169L244,169l1-2l-1-1v1V169L244,169z M247,153v-1h-1v1H247L247,153z M247,158L247,158L247,158
			L247,158L247,158z M247,186L247,186L247,186L247,186z M249,198L249,198L249,198L249,198L249,198z M250,140L250,140v-1h-1L250,140
			L250,140L250,140z M249,151L249,151l2-1h-1L249,151L249,151z M250,179L250,179L250,179L250,179z M252,141l1,1l1-1v-1h-1L252,141
			L252,141z M252,145L252,145L252,145L252,145z M253,194L253,194v-1h-1L253,194L253,194L253,194z M253,172L253,172L253,172L253,172z
			 M254,203v-2h-1L254,203L254,203L254,203z M255,182L255,182h1H255L255,182z M257,129L257,129h-1H257L257,129z M256,198L256,198
			l1-1h-1V198L256,198z M256,139L256,139L256,139L256,139z M256,191L256,191l1-1h-1V191L256,191z M257,147v1h1l1-1v-1L257,147
			L257,147z M257,195L257,195v-1V195L257,195z M259,201L259,201L259,201L259,201L259,201z M259,208v1h1v-1H259L259,208z M260,193
			L260,193L260,193v-1V193z M261,218L261,218L261,218L261,218L261,218z M261,134L261,134L261,134L261,134z M262,203L262,203l1-2h-1
			h-1v1L262,203L262,203z M263,147L263,147l-1-1L263,147L263,147z M262,198L262,198L262,198h1H262L262,198z M263,194L263,194
			L263,194L263,194z M264,210v-1h-1L264,210L264,210z M266,130L266,130L266,130L266,130z M266,216L266,216L266,216h1H266L266,216z
			 M267,200L267,200L267,200L267,200z M268,209L268,209L268,209L268,209z M270,214L270,214l-1-1L270,214L270,214z M271,209L271,209
			l1-1v-1v-1l-1,1V209z M273,216L273,216L273,216L273,216L273,216L273,216z"/>
	</g>
</g>
</svg>
