<?xml version="1.0" encoding="utf-8"?>
<!-- Generator: Adobe Illustrator 24.1.0, SVG Export Plug-In . SVG Version: 6.00 Build 0)  -->
<svg version="1.1" id="Layer_1" xmlns="http://www.w3.org/2000/svg" xmlns:xlink="http://www.w3.org/1999/xlink" x="0px" y="0px"
	 viewBox="0 0 416.5 53.6" style="enable-background:new 0 0 416.5 53.6;" xml:space="preserve">
<path d="M416.5,18.4c-2.7,2.9-5.8,4.3-10.4,1c1.9,9.4-2.6,18.5,3.6,26.9c-1.4,1-3.4,2.4-5.3,3.8c-4.2-2.4-6-5.8-5.9-10.3
	c0.1-6.1,0.2-12.2-0.1-18.2c-0.1-1.6-1.5-3.2-2.6-5.4c1.2-0.9,3.5-2.7,6.1-4.7c1.6,2,3.1,3.7,4.8,5.7c1.3-1.6,2.8-3.3,4.5-5.3
	c1.8,1.9,3.6,3.8,5.4,5.6C416.5,17.7,416.5,18.1,416.5,18.4z"/>
<path d="M36.3,13.7c0,5.6-0.3,10.9,0.1,16.1c0.4,4.8-1,8.3-4.9,11c-1.5,1-2.7,2.4-4.2,3.7c8.3,2.8,15.2,0.3,22.1-7.8
	c0,6.6-6.5,12.8-14.8,14.2c-15,2.5-26.3-7.9-25-22.8c0.3-3.1,0.3-5.1-2.9-7.2C0.1,16.8,1.2,7.4,8.8,5c5.8-1.8,12.4-1.3,18.6-1
	c4.1,0.2,7.5,1.5,11.3-2.1C40.4,0.3,45.2,1,48.2,2c1.3,0.4,2.3,4.3,2,6.3c-0.7,3.8-4,5.4-7.9,5.5C40.5,13.8,38.7,13.7,36.3,13.7z
	 M24.6,44.7c0.6-0.1,1.3-0.1,1.9-0.2c0.8-2.2,2.3-4.4,2.3-6.7c0.3-7.2,0.3-14.4,0-21.6c-0.1-1.5-1.4-4.2-2.4-4.2
	c-1.7-0.1-4.4,0.8-5.2,2.1C17,21.2,15.9,29.1,19,37.1C20.1,39.9,22.7,42.2,24.6,44.7z M9,22.4c4.6-4.8,7.7-8.1,10.9-11.4
	c-7.2-1.4-11.6-0.6-12.5,3.2C6.9,16.4,8.3,19.1,9,22.4z M37.1,5.7C40,6.3,42.3,7,44.7,7.1c1.2,0,2.4-1.1,3.6-1.7
	c-0.9-1-1.7-2.5-2.8-2.9C42.2,1.2,39.5,2.3,37.1,5.7z"/>
<path d="M134.3,41.3c-1.9-1.6-3.6-3.4-5.7-4.9c-3.9-2.8-8.2-5.1-11.8-8.2c-5.5-4.6-6.5-10.8-2.8-18.6c-1.2,8.5,4.1,11.8,8.9,15.3
	c2.7,2,5.5,3.7,8.1,5.7c4.4,3.4,6.1,8,5.4,14c3.1-4.5,2.8-9.2-1.4-13.1c-4-3.7-8.8-6.4-12.9-10c-2.4-2.1-4.8-4.8-5.6-7.7
	c-1.7-5.6,1.3-10.6,6.8-12.6C129.8-1,136-0.3,141.8,4c-2.5,3.9-4.7,7.6-7,11.3c-0.3-0.1-0.7-0.2-1-0.3c0.3-1.4,0.7-2.9,1-4.3
	c0.7-3.5-0.5-6.8-3.9-7.4c-2.6-0.5-6.4,0.4-8.4,2.2c-2.8,2.4-1.5,6.1,1.1,8.2c3.8,3.1,8.2,5.6,12.2,8.5c8.2,6,10,16.2,4.1,23.8
	c-4,5.3-7.6,5.6-12.6,1.3c-1.5-1.3-3.2-2.3-4.9-3.4c-2.6-1.6-4.6-1.4-6.7,1.4c-1.5,2-4.3,3.1-6.6,4.5c-0.2,0.1-1.9-1.6-1.8-1.9
	c1.2-2.5,2.2-5.6,4.3-7.2C118.2,35.5,124.1,36.1,134.3,41.3z"/>
<path d="M346.7,41.3c-2.2-1.8-4.3-3.8-6.7-5.4c-3.6-2.6-7.6-4.8-11-7.7c-5.5-4.7-6.5-11.7-2.6-18c-1.3,7.2,3.1,10.6,7.5,13.9
	c2.2,1.7,4.7,3.2,7,4.8c5.4,3.7,8.9,8.4,7.6,15.6c2.8-3.1,3.2-7,0.5-10.6c-2-2.7-4.8-4.9-7.5-7.1c-3.2-2.6-6.9-4.7-9.9-7.5
	c-5.5-5.2-4.1-14,2.5-17.6c5.5-3,13.5-1.9,18.6,2.6c-2.2,3.5-4.4,7.1-6.6,10.7c-0.3-0.1-0.6-0.1-0.9-0.2c0.3-1.6,1.3-3.3,0.8-4.6
	c-0.8-2.6-1.8-6-3.8-7c-1.7-0.9-5.5,0.4-7.4,1.9c-2.7,2.2-1.9,5.8,0.5,7.9c4,3.4,8.6,6.1,12.8,9.3c7.9,5.8,9.7,15.4,4.4,23.1
	c-4.1,5.9-7.8,6.4-13.2,1.8c-1.4-1.2-2.9-2.2-4.5-3.1c-2.8-1.6-4.9-1.7-7.1,1.4c-1.4,2-4.3,3-6.6,4.3c-0.2,0.1-1.8-1.6-1.7-2
	c1.2-2.4,2.1-5.3,4.1-6.9c6.7-5.5,14.1-4.9,22.1,1.2C346.1,41.9,346.4,41.6,346.7,41.3z"/>
<path d="M287.2,11.2c1.8,2.5,3.4,4.6,5,6.8c2.6-1.9,5.3-4,8.3-6.3c3.4,2,5,5,5,8.9c0,6.1-0.2,12.2,0.1,18.2c0.1,2.4,1.6,4.7,2.7,7.8
	c-0.9,0.6-2.8,2.1-4.8,3.5c-4.4-2.4-6.2-5.9-6.1-10.6c0.1-5.4,0.1-10.8,0-16.2c0-1.9-0.5-3.8-0.7-5.7c-0.6-0.2-1.2-0.4-1.8-0.6
	c-1.1,2.1-2.9,4.2-3.1,6.4c-0.5,5.4-0.4,10.8,0,16.2c0.1,2.1,1.6,4.1,2.7,6.8c-1,0.7-3.1,2.2-5.2,3.7c-4.2-2.2-5.7-5.7-5.7-9.9
	c0-6.1,0.1-12.1-0.1-18.2c-0.1-1.9-1.2-3.8-2.1-6.2C282.7,14.7,284.6,13.2,287.2,11.2z"/>
<path d="M166.7,18.6c2.3-2.4,4.5-4.9,6.8-7.3c0.6,0,1.3,0.1,1.9,0.1c1.1,3.2,2.9,6.3,3.2,9.6c0.5,5.7,0,11.5,0.2,17.2
	c0.1,2.3,1,4.5,1.9,8.2c2-2.3,3.7-3.4,3.8-4.6c0.2-8.8,0.1-17.6,0.1-26.4c-0.5-0.1-1-0.2-1.5-0.3c1.6-1.3,3.2-2.6,6.1-4.9
	c1.3,3.8,3,6.6,3.2,9.6c0.5,6.2-0.1,12.5,0.3,18.7c0.1,2.2,1.9,4.2,3.1,6.8c-5.6,5-5.6,5-10.8-1c-2.7,1.8-5.4,3.6-8.3,5.6
	c-4.4-2.1-6-5.7-6-10.3c0-6.2,0-12.5,0-18.7c0-2.9-0.9-4.6-4.2-2.6L166.7,18.6z"/>
<path d="M166.5,18.4c0,5.7-0.2,11.5,0.2,17.2c0.3,4-0.8,7-4.4,9c-0.9,0.5-1.5,1.3-2.4,1.8c-2.2,1.1-5.1,3.3-6.5,2.7
	c-3.8-1.8-7.7-4.2-7.8-9.3c0-5.4-0.4-10.9,0.2-16.2c0.2-2,2.4-3.9,3.8-5.8c0.4-0.5,1-0.8,1.5-1.2c7.2-5.6,7.2-5.6,13.7,0.7
	c0.6,0.5,1.2,0.9,1.9,1.4C166.7,18.6,166.5,18.4,166.5,18.4z M153.4,16.3c0,7.7-0.3,14.7,0.2,21.7c0.2,2.4,2.6,4.5,4,6.8
	c0.5-0.3,1.1-0.5,1.6-0.8c0-6.2-0.1-12.4,0.1-18.5C159.4,21.4,157.9,18.5,153.4,16.3z"/>
<path d="M395.5,46.5c-1,0.7-2.9,2.1-5.1,3.7c-1.8-1.7-3.6-3.3-5.5-5.1c-0.8,0.5-1.6,1-2.4,1.6c-5.4,3.8-7.9,3.1-10.8-2.8
	c-2.3-4.7-1.4-9.6,2.6-13.5c1.3-1.3,2.8-2.3,3.8-3.2c-2.6-2.7-5.1-5.3-7.8-8.2c5.3-2.6,9.9-4.9,14.7-7.3c5.2,2.6,7.9,6.8,7.6,12.9
	c-0.2,4.7-0.3,9.5,0.1,14.3C392.9,41.3,394.3,43.5,395.5,46.5z M384.6,27.2c-4.8,1.1-6.3,3.9-6.7,7.3c-0.6,4.4,0.9,8,5.6,11.1
	C385.5,39.3,384,33.5,384.6,27.2z M383.3,27.2c0.7-0.6,1.4-1.2,2-1.8c-1.2-2.7-1.8-6.7-3.9-7.9c-2.1-1.1-5.8,0.7-8.8,1.2
	c-0.1,0.7-0.3,1.3-0.4,2C376,22.9,379.6,25.1,383.3,27.2z"/>
<path d="M89.6,11.2c3,4,5.6,7.5,8.4,11.4c-3,2.6-5.7,5-8.5,7.3C83,35.4,83.4,40.2,91,45c2.2-1.6,4.4-3.2,6.7-4.8
	c0.3,0.3,0.5,0.6,0.8,0.9c-3.7,2.8-7.2,5.8-11.1,8.2c-2.7,1.7-9.7-4.2-9.9-8.4c-0.3-6.2-0.2-12.5,0-18.7c0.1-1.4,1.2-3,2.4-4
	C82.8,15.9,86,13.8,89.6,11.2z M85.6,16.7c0,5.6,0,9.9,0,14.8c2.5-2.1,4.4-3.8,6.5-5.5C90,23,88.2,20.3,85.6,16.7z"/>
<path d="M252.5,28.3c-1.7,2.1-4.3,3.9-5,6.3c-1.3,4.6,0.6,8.3,5.4,10.5c1.9-1.3,3.9-2.7,5.9-4c0.2,0.3,0.5,0.6,0.7,0.9
	c-3.3,2.5-6.4,5.2-9.9,7.4c-2.8,1.7-9.8-3.6-10.1-8c-0.4-6.4-0.2-12.8,0-19.2c0-1.2,1.1-2.8,2.1-3.6c3.1-2.5,6.4-4.6,10-7.2
	c2.8,3.7,5.5,7.2,8.7,11.5c-2.8,2-5.3,3.8-7.9,5.7c2.9-5.4-2.7-7.2-4.7-10.5c0,4.3,0,8.5,0,12.9C249.5,29.9,251,29.1,252.5,28.3z"/>
<path d="M365.9,14.1c2.5-0.9,4.1-1.4,5.7-2c0.2,0.4,0.4,0.7,0.7,1.1c-1.9,1.1-3.7,2.1-6.4,3.7c0,7.1-0.2,15.3,0.1,23.5
	c0.1,1.8,2,3.4,3.4,5.6c-1.2,0.9-3.4,2.5-5.6,4.1c-4.5-2.4-6.1-6.1-6.1-10.7c0-7.7,0-15.4,0-22.8c-2.1-1.2-3.9-2.2-5.7-3.2
	c0.2-0.4,0.4-0.8,0.6-1.3c1.4,0.5,2.7,1.1,4.6,1.8c0-2.6,0-4.6,0-6.7c0.3,0.3,0.7,0.6,1,1c2.6-1.6,5.1-3.1,7.6-4.7
	C365.9,6.1,365.9,9.6,365.9,14.1z"/>
<path d="M209.6,46.3c-1.3,0.9-3.1,2.3-5.1,3.7c-4.4-2.3-6.1-5.8-6.1-10.4c0-7.9,0-15.7,0-22.8c-2.4-1.4-4.1-2.5-5.9-3.5
	c0.2-0.3,0.4-0.7,0.6-1c1.5,0.5,3.1,1.1,5.1,1.7c0-2.7,0-4.7,0-6.8c0.3,0.4,0.7,0.7,1,1.1c2.5-1.6,5-3.2,7.3-4.8c0,2.6,0,6.2,0,10.4
	c2.3-0.7,4-1.2,5.7-1.7c0.2,0.4,0.4,0.7,0.6,1.1c-1.8,1-3.6,2.1-6.4,3.7C208,25.6,203.5,36,209.6,46.3z"/>
<path d="M224.6,17.5c-0.8,2.2-2.1,4.4-2.2,6.6c-0.3,5.1-0.3,10.2,0,15.3c0.1,2.2,1.3,4.3,2.2,7.2c-0.9,0.7-2.7,2-4.7,3.5
	c-4.4-2-5.7-5.6-5.7-10c0-11.6,0-23.3,0-35c4.5,2.6,5.5-1.7,8-4.9c0,5.1-0.1,9.5,0.1,13.9c0.1,1.1,1.3,2.2,2,3.3
	C224.4,17.3,224.6,17.5,224.6,17.5z"/>
<path d="M52.2,7.1c3.3-2.3,5.7-4,8.1-5.7c0,6.2,0,12.9,0,19.6c0,6.7-0.1,13.5,0.1,20.2c0.1,1.5,1.4,3,2.5,5c-1.3,1-3.3,2.4-5.1,3.8
	c-4.3-2.3-5.6-5.7-5.6-10c0.1-5.7,0-11.5,0-17.2C52.2,17.1,52.2,11.4,52.2,7.1z"/>
<path d="M279.8,19.9c-2.9,0.5-5.8,1.1-9.4,1.8c0,5.9-0.2,12.9,0.2,19.9c0.1,1.3,2.3,2.5,3.8,4.1c-1.4,1-3.8,2.7-6.3,4.5
	c-4.1-2.1-5.9-5.3-5.9-9.6c0-6.1,0.2-12.2-0.1-18.2c-0.1-1.9-1.3-3.7-2-5.5c-0.5,0.1-1,0.1-1.5,0.2c2.2-1.7,4.3-3.4,6.8-5.4
	c1.7,1.9,3.2,3.7,4.9,5.7c1.3-1.6,2.8-3.3,4.5-5.3c1.8,2.2,3.4,4.2,5.1,6.2C279.8,18.6,279.8,19.2,279.8,19.9z"/>
<path d="M70.2,10.6c1.5,4,3.3,6.9,3.6,10c0.5,6,0.1,12.1,0.2,18.2c0,7.6-3.7,12.3-11.9,14.8c5-6,3.9-12.6,3.7-18.9
	c-0.2-6,1.8-12.6-2.3-18.9C64.7,14.9,66.8,13.3,70.2,10.6z"/>
<path d="M224.4,17.3c2.2-1.9,4.3-3.9,7.7-6.8c1.5,3.9,3.5,6.9,3.7,9.9c0.5,6.3,0.3,12.8,0.1,19.1c-0.2,7.7-3.3,11.3-9.9,13.2
	c0.6-4.7,1.5-9.8,1.9-14.9c0.3-5.4,0.1-10.8,0-16.2c0-2,0.2-4.6-3.3-4.2C224.6,17.5,224.4,17.3,224.4,17.3z"/>
</svg>
