<?xml version="1.0" encoding="utf-8"?>
<!-- Generator: Adobe Illustrator 24.1.0, SVG Export Plug-In . SVG Version: 6.00 Build 0)  -->
<svg version="1.1" id="TG4_logo_gradient" xmlns="http://www.w3.org/2000/svg" xmlns:xlink="http://www.w3.org/1999/xlink" x="0px"
	 y="0px" viewBox="0 0 40 14.6" style="enable-background:new 0 0 40 14.6;" xml:space="preserve">
<style type="text/css">
	.st0{fill:url(#SVGID_1_);}
	.st1{fill:url(#SVGID_2_);}
</style>
<g>
	
		<radialGradient id="SVGID_1_" cx="-700.5748" cy="2628.6611" r="23.8784" gradientTransform="matrix(5.522704e-17 0.9019 1.6245 -9.947495e-17 -4246.5991 619.5892)" gradientUnits="userSpaceOnUse">
		<stop  offset="0.5781" style="stop-color:#343434"/>
		<stop  offset="1" style="stop-color:#000000"/>
	</radialGradient>
	<path class="st0" d="M24.2,0v14.6H0V0H24.2z M40,0v14.6H25.3V0H40z"/>
	
		<linearGradient id="SVGID_2_" gradientUnits="userSpaceOnUse" x1="19.6904" y1="-2072.2913" x2="20.3929" y2="-2078.0439" gradientTransform="matrix(1 0 0 -1 0 -2067.4436)">
		<stop  offset="0.1988" style="stop-color:#FFFFFF"/>
		<stop  offset="0.9133" style="stop-color:#C3C3C3"/>
	</linearGradient>
	<path class="st1" d="M10.8,4l0.9-2H2.1v2h3.5v8.9h2.2V4H10.8z M16.7,12.9c3,0,5.4-2.2,5.4-5.4V6.8h-4.9l-0.9,1.8h3.4
		c-0.4,1.2-1.4,2.1-2.9,2.1c-1.9,0-3.2-1.4-3.2-3.3S14.9,4,16.7,4c1.1,0,1.9,0.6,2.3,1.2h2.8c-1-2.2-3.1-3.3-5.1-3.3
		c-2.9,0-5.4,2.2-5.4,5.4C11.1,10.5,13.5,12.9,16.7,12.9z M37.5,9.9V7.9h-1.7v-6c-0.3,0-0.8,0-1,0c-4,0-7.1,2.9-7.1,7.1
		c0,0.2,0,0.6,0,0.9h5.9v3.3l2.2-0.7V9.9L37.5,9.9L37.5,9.9z M30,7.9c0.2-2,1.8-3.6,3.7-3.9v3.9H30z"/>
</g>
</svg>
