<svg id="Layer_2" data-name="Layer 2" xmlns="http://www.w3.org/2000/svg" viewBox="0 0 54.24 31.3"><path d="M5.94,44.36V13.06h8.83a21.35,21.35,0,0,1,6.48.92,12.87,12.87,0,0,1,4.94,2.8,12.41,12.41,0,0,1,3.17,4.83,19.63,19.63,0,0,1,1.1,7,20.07,20.07,0,0,1-1.1,7,13.14,13.14,0,0,1-3.12,4.92,12.86,12.86,0,0,1-4.82,2.9,19.32,19.32,0,0,1-6.27,1ZM13,38.65h1.35A11.8,11.8,0,0,0,18,38.12a6.77,6.77,0,0,0,2.79-1.7,8,8,0,0,0,1.8-3.1,15,15,0,0,0,.65-4.75,14.63,14.63,0,0,0-.65-4.68,7.57,7.57,0,0,0-1.8-3A6.58,6.58,0,0,0,18,19.26a12.83,12.83,0,0,0-3.64-.48H13Z" transform="translate(-5.94 -13.06)" style="fill:#231f20"/><path d="M36.42,44.36V13.06h10.7a26.87,26.87,0,0,1,4.54.36A10.74,10.74,0,0,1,55.3,14.7a6.64,6.64,0,0,1,2.45,2.4,7.21,7.21,0,0,1,.89,3.74A8.07,8.07,0,0,1,58.35,23a8.16,8.16,0,0,1-.81,2,7.56,7.56,0,0,1-1.28,1.63,4.64,4.64,0,0,1-1.7,1.06v.19a7.82,7.82,0,0,1,2.21.89,6.89,6.89,0,0,1,1.77,1.51,6.49,6.49,0,0,1,1.2,2.14,8.31,8.31,0,0,1,.44,2.8,8.6,8.6,0,0,1-.94,4.13,8.07,8.07,0,0,1-2.59,2.86,12.14,12.14,0,0,1-3.87,1.68,19.4,19.4,0,0,1-4.75.55Zm7-18.77h3.31a5.69,5.69,0,0,0,3.77-1,3.36,3.36,0,0,0,1.18-2.68,2.86,2.86,0,0,0-1.2-2.6,7,7,0,0,0-3.7-.76H43.47Zm0,13.3h4q5.81,0,5.8-4.23a3.2,3.2,0,0,0-1.44-2.95,8.48,8.48,0,0,0-4.36-.89h-4Z" transform="translate(-5.94 -13.06)" style="fill:#231f20"/></svg>