<?xml version="1.0" encoding="utf-8"?>
<!-- Generator: Adobe Illustrator 24.1.0, SVG Export Plug-In . SVG Version: 6.00 Build 0)  -->
<svg version="1.1" id="Layer_1" xmlns="http://www.w3.org/2000/svg" xmlns:xlink="http://www.w3.org/1999/xlink" x="0px" y="0px"
	 viewBox="0 0 72 72" style="enable-background:new 0 0 72 72;" xml:space="preserve">
<style type="text/css">
	.st0{fill:#282828;}
	.st1{fill:#FBBD15;}
</style>
<path class="st0" d="M13.2,33.5c-1.2,0-2.3-0.3-3.2-0.9c-1-0.6-1.7-1.4-2.3-2.4c-0.5-1-0.8-2.2-0.8-3.5c0-1.3,0.3-2.5,0.8-3.5
	c0.5-1,1.3-1.8,2.2-2.4c0.9-0.6,2-0.9,3.3-0.9c0.9,0,1.8,0.2,2.5,0.6c0.7,0.4,1.4,0.9,1.8,1.6s0.7,1.4,0.7,2.3V29
	c0,0.8-0.3,1.6-0.7,2.3c-0.5,0.7-1.1,1.2-1.8,1.6C15,33.3,14.2,33.5,13.2,33.5z M13.8,30.2c0.7,0,1.2-0.1,1.7-0.4
	c0.5-0.3,0.9-0.7,1.2-1.2c0.3-0.5,0.4-1.1,0.4-1.8c0-0.7-0.1-1.3-0.4-1.8c-0.3-0.5-0.7-0.9-1.2-1.2c-0.5-0.3-1.1-0.4-1.7-0.4
	c-0.7,0-1.2,0.2-1.7,0.5c-0.5,0.3-0.9,0.7-1.2,1.2c-0.3,0.5-0.4,1.1-0.4,1.8c0,0.7,0.1,1.3,0.4,1.8c0.3,0.5,0.7,0.9,1.2,1.2
	C12.6,30,13.2,30.2,13.8,30.2z M20.5,33.2H17v-3.5l0.6-3.2l-0.6-3.1v-9.7h3.5V33.2z"/>
<path class="st0" d="M29.8,33.5c-1.4,0-2.6-0.3-3.6-0.9c-1.1-0.6-1.9-1.4-2.5-2.4s-0.9-2.2-0.9-3.5c0-1.3,0.3-2.5,0.9-3.5
	c0.6-1,1.4-1.8,2.5-2.4c1-0.6,2.2-0.9,3.5-0.9c1.3,0,2.4,0.3,3.3,0.9c1,0.6,1.7,1.3,2.3,2.3c0.5,1,0.8,2.1,0.8,3.3
	c0,0.2,0,0.5,0,0.7c0,0.2-0.1,0.5-0.1,0.8l-11,0v-2.6l9.3,0l-1.4,1.1c0-0.8-0.2-1.4-0.4-1.9c-0.2-0.5-0.6-0.9-1.1-1.2
	c-0.5-0.3-1-0.4-1.7-0.4c-0.7,0-1.3,0.2-1.8,0.5c-0.5,0.3-0.9,0.8-1.2,1.3c-0.3,0.6-0.4,1.2-0.4,2c0,0.8,0.1,1.5,0.4,2.1
	c0.3,0.6,0.7,1,1.3,1.4c0.6,0.3,1.2,0.5,1.9,0.5c0.7,0,1.3-0.1,1.8-0.3c0.5-0.2,1-0.6,1.4-1l2.1,2.1c-0.6,0.7-1.4,1.3-2.3,1.7
	C31.9,33.3,30.9,33.5,29.8,33.5z"/>
<path class="st0" d="M42.7,33.5c-0.7,0-1.5-0.1-2.2-0.3c-0.7-0.2-1.4-0.5-2-0.8C38,32,37.5,31.6,37,31.1l2.1-2.1
	c0.4,0.5,1,0.9,1.6,1.1c0.6,0.3,1.3,0.4,2,0.4c0.6,0,1-0.1,1.3-0.2c0.3-0.2,0.4-0.4,0.4-0.7c0-0.4-0.2-0.6-0.5-0.8
	c-0.3-0.2-0.7-0.4-1.2-0.5c-0.5-0.1-1-0.3-1.6-0.5c-0.5-0.2-1.1-0.4-1.6-0.7c-0.5-0.3-0.9-0.7-1.2-1.2c-0.3-0.5-0.5-1.1-0.5-1.9
	c0-0.8,0.2-1.5,0.6-2.2c0.4-0.6,1-1.1,1.7-1.4c0.8-0.3,1.6-0.5,2.7-0.5c1.1,0,2.1,0.2,2.9,0.6c0.9,0.4,1.6,0.9,2.2,1.7l-2.1,2.1
	c-0.4-0.5-0.8-0.8-1.3-1.1c-0.5-0.2-1-0.3-1.6-0.3c-0.5,0-0.9,0.1-1.2,0.2c-0.3,0.2-0.4,0.4-0.4,0.7c0,0.3,0.2,0.6,0.5,0.8
	c0.3,0.2,0.7,0.3,1.2,0.5c0.5,0.1,1,0.3,1.6,0.5c0.5,0.2,1.1,0.4,1.6,0.7c0.5,0.3,0.9,0.7,1.2,1.2c0.3,0.5,0.5,1.2,0.5,1.9
	c0,1.3-0.5,2.3-1.4,3C45.5,33.1,44.3,33.5,42.7,33.5z"/>
<path class="st0" d="M7.7,57.3V37.8h3.5v9.7l-0.6,3.1l0.6,3.2v3.5H7.7z M15,57.5c-0.9,0-1.8-0.2-2.5-0.6c-0.8-0.4-1.4-0.9-1.8-1.6
	c-0.5-0.7-0.7-1.4-0.7-2.3v-4.6c0-0.8,0.3-1.6,0.7-2.3s1.1-1.2,1.8-1.6c0.8-0.4,1.6-0.6,2.5-0.6c1.2,0,2.3,0.3,3.2,0.9
	c1,0.6,1.7,1.4,2.3,2.4c0.5,1,0.8,2.2,0.8,3.5c0,1.3-0.3,2.4-0.8,3.5c-0.5,1-1.3,1.8-2.3,2.4C17.3,57.2,16.2,57.5,15,57.5z
	 M14.4,54.3c0.6,0,1.2-0.1,1.7-0.4c0.5-0.3,0.9-0.7,1.2-1.2c0.3-0.5,0.4-1.1,0.4-1.8c0-0.7-0.1-1.3-0.4-1.8
	c-0.3-0.5-0.7-0.9-1.2-1.2c-0.5-0.3-1.1-0.4-1.7-0.4c-0.6,0-1.2,0.1-1.7,0.4c-0.5,0.3-0.9,0.7-1.2,1.2c-0.3,0.5-0.4,1.1-0.4,1.8
	c0,0.7,0.1,1.3,0.4,1.8c0.3,0.5,0.7,0.9,1.2,1.2C13.1,54.1,13.7,54.3,14.4,54.3z"/>
<path class="st0" d="M23.6,57.3v-13h3.5v13H23.6z M27.1,50.1l-1.4-0.9c0.2-1.6,0.6-2.9,1.4-3.8c0.8-0.9,1.9-1.4,3.3-1.4
	c0.6,0,1.2,0.1,1.7,0.3c0.5,0.2,1,0.5,1.4,1l-2.2,2.5c-0.2-0.2-0.4-0.4-0.7-0.5c-0.3-0.1-0.6-0.2-1-0.2c-0.8,0-1.4,0.2-1.8,0.7
	C27.4,48.4,27.1,49.1,27.1,50.1z"/>
<path class="st0" d="M40.6,57.5c-1.3,0-2.5-0.3-3.6-0.9c-1.1-0.6-1.9-1.4-2.5-2.5c-0.6-1-0.9-2.2-0.9-3.5c0-1.3,0.3-2.4,0.9-3.4
	c0.6-1,1.4-1.8,2.5-2.4c1.1-0.6,2.2-0.9,3.5-0.9c1.3,0,2.5,0.3,3.6,0.9c1.1,0.6,1.9,1.4,2.5,2.4c0.6,1,0.9,2.2,0.9,3.4
	c0,1.3-0.3,2.4-0.9,3.5c-0.6,1-1.4,1.9-2.5,2.5C43.1,57.2,41.9,57.5,40.6,57.5z M40.6,54.3c0.7,0,1.3-0.1,1.8-0.4
	c0.5-0.3,0.9-0.7,1.2-1.2c0.3-0.5,0.4-1.1,0.4-1.8c0-0.7-0.1-1.3-0.4-1.8c-0.3-0.5-0.7-0.9-1.2-1.2c-0.5-0.3-1.1-0.4-1.8-0.4
	c-0.6,0-1.2,0.1-1.7,0.4c-0.5,0.3-0.9,0.7-1.2,1.2c-0.3,0.5-0.4,1.1-0.4,1.8c0,0.7,0.1,1.3,0.4,1.8c0.3,0.5,0.7,0.9,1.2,1.2
	C39.4,54.1,39.9,54.3,40.6,54.3z"/>
<path class="st0" d="M54.3,57.6c-0.7,0-1.5-0.1-2.2-0.3c-0.7-0.2-1.4-0.5-2-0.8c-0.6-0.4-1.1-0.8-1.5-1.3l2.1-2.1
	c0.4,0.5,1,0.9,1.6,1.1c0.6,0.3,1.3,0.4,2,0.4c0.6,0,1-0.1,1.3-0.2c0.3-0.2,0.4-0.4,0.4-0.7c0-0.4-0.2-0.6-0.5-0.8
	c-0.3-0.2-0.7-0.4-1.2-0.5c-0.5-0.1-1-0.3-1.6-0.5c-0.5-0.2-1.1-0.4-1.6-0.7c-0.5-0.3-0.9-0.7-1.2-1.2c-0.3-0.5-0.5-1.1-0.5-1.9
	c0-0.8,0.2-1.5,0.6-2.2c0.4-0.6,1-1.1,1.7-1.4c0.8-0.3,1.6-0.5,2.7-0.5c1.1,0,2.1,0.2,2.9,0.6c0.9,0.4,1.6,0.9,2.2,1.7l-2.1,2.1
	c-0.4-0.5-0.8-0.8-1.3-1.1c-0.5-0.2-1-0.3-1.6-0.3c-0.5,0-0.9,0.1-1.2,0.2c-0.3,0.2-0.4,0.4-0.4,0.7c0,0.3,0.2,0.6,0.5,0.8
	c0.3,0.2,0.7,0.3,1.2,0.5c0.5,0.1,1,0.3,1.6,0.5c0.5,0.2,1.1,0.4,1.6,0.7c0.5,0.3,0.9,0.7,1.2,1.2c0.3,0.5,0.5,1.2,0.5,1.9
	c0,1.3-0.5,2.3-1.4,3C57.2,57.2,55.9,57.6,54.3,57.6z"/>
<path class="st1" d="M64.3,57.5c-0.6,0-1.2-0.2-1.6-0.6c-0.4-0.4-0.6-1-0.6-1.6c0-0.6,0.2-1.2,0.6-1.6c0.4-0.4,0.9-0.6,1.6-0.6
	c0.6,0,1.2,0.2,1.6,0.6c0.4,0.4,0.6,1,0.6,1.6c0,0.6-0.2,1.2-0.6,1.6C65.4,57.3,64.9,57.5,64.3,57.5z"/>
</svg>
