<?xml version="1.0" encoding="utf-8"?>
<!-- Generator: Adobe Illustrator 24.1.0, SVG Export Plug-In . SVG Version: 6.00 Build 0)  -->
<svg version="1.1" id="Layer_1" xmlns="http://www.w3.org/2000/svg" xmlns:xlink="http://www.w3.org/1999/xlink" x="0px" y="0px"
	 viewBox="0 0 780.1 179.1" style="enable-background:new 0 0 780.1 179.1;" xml:space="preserve">
<style type="text/css">
	.st0{fill:#231F20;}
</style>
<path class="st0" d="M0,84.1V5.9h22.1C27.6,5.8,33,6.6,38.3,8.2c4.6,1.4,8.8,3.8,12.4,7c3.6,3.3,6.3,7.5,7.9,12.1
	c2,5.6,2.9,11.5,2.8,17.4c0.1,6-0.8,11.9-2.8,17.5c-1.6,4.6-4.3,8.8-7.8,12.3c-3.4,3.3-7.6,5.8-12.1,7.3c-5.1,1.7-10.3,2.5-15.7,2.4
	H0V84.1z M17.6,69.8H21c3.1,0,6.2-0.4,9.1-1.3c2.6-0.8,5.1-2.3,7-4.3c2.1-2.2,3.6-4.9,4.5-7.7c1.2-3.8,1.7-7.9,1.6-11.9
	c0.1-4-0.4-7.9-1.6-11.7c-0.9-2.8-2.4-5.4-4.5-7.6c-2-1.9-4.4-3.3-7-4c-3-0.8-6-1.2-9.1-1.2h-3.3L17.6,69.8L17.6,69.8z"/>
<path class="st0" d="M101.4,85.5c-4.1,0-8.1-0.7-11.9-2.1c-3.6-1.3-6.9-3.4-9.6-6.1c-2.8-2.8-5-6.1-6.4-9.8
	c-1.6-4.2-2.4-8.7-2.3-13.2c-0.1-4.4,0.8-8.9,2.4-13c1.5-3.6,3.6-7,6.3-9.8c2.5-2.6,5.6-4.7,8.9-6.2c3.3-1.4,6.8-2.2,10.4-2.2
	c3.8-0.1,7.6,0.7,11.1,2.2c3.1,1.4,5.8,3.4,7.9,6c2.2,2.7,3.8,5.8,4.7,9.1c1.1,3.7,1.6,7.5,1.6,11.3c0,1.5-0.1,3-0.2,4.6
	c-0.2,1.4-0.3,2.5-0.5,3.2H88.3c0.8,4.3,2.6,7.5,5.3,9.5c2.9,2.1,6.5,3.2,10.1,3c4.6-0.1,9-1.5,12.8-4l5.9,10.7
	c-3.1,2.1-6.5,3.8-10.1,4.9C108.8,84.9,105.1,85.5,101.4,85.5z M88.2,47.9h21.5c0.1-2.9-0.7-5.8-2.3-8.2c-1.5-2.1-4.1-3.1-7.7-3.1
	c-2.7,0-5.3,1-7.4,2.8S88.8,44,88.2,47.9z"/>
<path class="st0" d="M154.4,85.5c-4.1,0-8.2-0.8-12.1-2.3c-3.9-1.4-7.5-3.4-10.7-6l7.9-11c2.4,1.9,5,3.5,7.8,4.7
	c2.4,1,5,1.6,7.6,1.6c2.7,0,4.6-0.4,5.8-1.3s1.9-2.3,1.8-3.7c0-1-0.4-1.9-1-2.6c-0.8-0.8-1.7-1.6-2.8-2.1c-1.3-0.7-2.6-1.3-4-1.8
	s-2.9-1.1-4.4-1.7c-1.9-0.7-3.7-1.6-5.5-2.5c-1.8-1-3.5-2.1-5-3.5s-2.8-3.1-3.7-4.9c-1-2-1.5-4.3-1.4-6.5c0-2.6,0.5-5.2,1.6-7.6
	c1.1-2.3,2.6-4.3,4.6-5.9c2.2-1.7,4.6-3,7.2-3.8c3-1,6.2-1.4,9.4-1.4c4.1-0.1,8.2,0.7,12,2.3c3.2,1.4,6.2,3.2,9,5.2l-7.9,10.6
	c-2-1.5-4.1-2.8-6.4-3.8c-2-0.9-4.1-1.3-6.2-1.3c-4.5,0-6.7,1.6-6.7,4.7c0,0.9,0.4,1.8,1,2.5c0.7,0.8,1.6,1.4,2.6,1.9
	c1.2,0.6,2.4,1.2,3.7,1.6l4.4,1.7c1.9,0.7,3.8,1.5,5.7,2.5c1.9,0.9,3.6,2.1,5.2,3.4c1.6,1.4,2.9,3.1,3.8,5c1,2.2,1.5,4.6,1.4,7
	c0,2.6-0.5,5.2-1.6,7.6s-2.7,4.4-4.7,6.1c-2.3,1.8-4.9,3.2-7.7,4.1C161.6,85.1,158,85.6,154.4,85.5z"/>
<path class="st0" d="M190.1,84.1V24.6h14.4l1.2,7.7h0.5c2.4-2.4,5.1-4.6,7.9-6.4c3-1.9,6.5-2.8,10.1-2.7c4.2,0,7.7,0.9,10.3,2.6
	c2.7,1.8,4.8,4.4,6.2,7.4c2.5-2.6,5.3-5,8.3-7c3.1-2,6.7-3,10.4-2.9c6.4,0,11.1,2.1,14.1,6.4s4.5,10.1,4.5,17.6v37h-17.6V49.4
	c0-4.3-0.6-7.3-1.7-8.9c-1.2-1.6-3-2.4-5.6-2.4c-3,0-6.4,1.9-10.2,5.8v40.2h-17.6V49.4c0-4.3-0.6-7.3-1.7-8.9
	c-1.2-1.6-3-2.4-5.6-2.4c-3,0-6.4,1.9-10.1,5.8v40.2H190.1z"/>
<path class="st0" d="M318.5,85.5c-3.7,0-7.4-0.7-10.9-2.1s-6.6-3.4-9.3-6.1c-2.8-2.8-5-6.1-6.4-9.8c-1.7-4.2-2.5-8.7-2.4-13.3
	c-0.1-4.5,0.7-9,2.4-13.3c1.5-3.7,3.6-7,6.4-9.8c2.7-2.6,5.8-4.7,9.3-6.1s7.2-2.1,10.9-2.1c3.7,0,7.4,0.7,10.9,2.1s6.6,3.4,9.2,6.1
	c2.8,2.8,5,6.1,6.4,9.8c1.7,4.2,2.5,8.7,2.4,13.3c0.1,4.5-0.7,9-2.4,13.3c-1.5,3.7-3.6,7-6.4,9.8c-2.6,2.6-5.8,4.7-9.2,6.1
	C325.9,84.8,322.2,85.5,318.5,85.5z M318.5,71.2c3.4,0.1,6.5-1.6,8.2-4.6c1.8-3,2.8-7.2,2.8-12.4s-0.9-9.3-2.8-12.4
	c-2.8-4.5-8.7-5.9-13.3-3.1c-1.3,0.8-2.3,1.9-3.1,3.1c-1.8,3-2.7,7.2-2.7,12.4s0.9,9.3,2.7,12.4C311.9,69.7,315.1,71.4,318.5,71.2
	L318.5,71.2z"/>
<path class="st0" d="M359.5,84.1V24.6h14.4l1.2,7.6h0.5c2.6-2.4,5.4-4.5,8.4-6.3c3.2-1.9,6.9-2.8,10.7-2.7c6.5,0,11.2,2.1,14.1,6.4
	s4.4,10.1,4.4,17.6v37h-17.6V49.4c0-4.3-0.6-7.3-1.7-8.9s-3-2.4-5.6-2.4c-2-0.1-4,0.5-5.8,1.5c-1.9,1.2-3.7,2.7-5.3,4.3v40.2H359.5z
	"/>
<path class="st0" d="M449.4,85.5c-3.5,0-6.9-0.7-10-2.2c-3-1.4-5.6-3.6-7.7-6.2c-2.3-2.9-3.9-6.2-5-9.7c-1.2-4.3-1.8-8.7-1.7-13.1
	c-0.1-4.4,0.6-8.9,2.1-13.1c1.2-3.6,3.1-6.9,5.5-9.8c2.2-2.6,4.9-4.7,7.9-6.2c2.9-1.4,6-2.2,9.2-2.2c2.9-0.1,5.7,0.5,8.3,1.7
	c2.3,1.2,4.5,2.8,6.4,4.6l-0.7-9.1V0h17.6v84.1h-14.4l-1.2-5.9h-0.5c-2.1,2.1-4.6,3.9-7.3,5.2C455.3,84.8,452.4,85.5,449.4,85.5z
	 M454,71.1c1.8,0,3.6-0.4,5.2-1.2c1.8-1,3.4-2.5,4.5-4.2V41.4c-1.4-1.3-3.1-2.3-4.9-3c-1.6-0.5-3.2-0.8-4.9-0.8
	c-2.8,0-5.3,1.3-7.4,4s-3.2,6.9-3.2,12.5c0,5.9,0.9,10.2,2.8,13C447.7,69.8,450.8,71.3,454,71.1L454,71.1z"/>
<path class="st0" d="M522.4,84.1V5.9h26.8c3.8,0,7.6,0.3,11.3,0.9c3.2,0.5,6.3,1.6,9.1,3.2c2.5,1.4,4.6,3.5,6.1,6
	c1.6,2.9,2.3,6.1,2.2,9.4c0,1.8-0.2,3.6-0.7,5.3s-1.1,3.4-2,4.9s-1.9,2.9-3.2,4.1c-1.2,1.2-2.7,2.1-4.3,2.6v0.5
	c1.9,0.5,3.8,1.2,5.5,2.2s3.2,2.3,4.4,3.8c1.3,1.6,2.3,3.4,3,5.3c0.8,2.3,1.1,4.6,1.1,7c0.1,3.6-0.7,7.1-2.3,10.3
	c-1.6,2.9-3.8,5.3-6.5,7.1c-2.9,2-6.2,3.4-9.7,4.2c-3.9,0.9-7.9,1.4-11.9,1.4H522.4z M540,37.2h8.3c4.3,0,7.5-0.8,9.4-2.5
	c2-1.7,3-4.1,2.9-6.7c0-3-1-5.2-3-6.5s-5.1-1.9-9.2-2H540V37.2z M540,70.4h10c9.7,0,14.5-3.5,14.5-10.6c0-3.4-1.2-5.9-3.6-7.4
	c-2.4-1.5-6-2.2-10.9-2.2h-10V70.4z"/>
<path class="st0" d="M593.5,84.1V24.6h14.4l1.2,10.4h0.5c1.8-3.6,4.5-6.7,7.8-9c2.7-1.8,5.9-2.8,9.1-2.9c1.4,0,2.8,0.1,4.1,0.3
	c1,0.2,2,0.5,2.9,0.9l-2.8,15.2c-1-0.3-2.1-0.5-3.1-0.7c-1.1-0.2-2.2-0.3-3.4-0.2c-2.5,0.1-5,0.9-7,2.4c-2.4,1.6-4.5,4.4-6.1,8.5
	v34.6H593.5z"/>
<path class="st0" d="M665.6,85.5c-3.7,0-7.4-0.7-10.9-2.1s-6.6-3.4-9.3-6.1c-2.8-2.8-5-6.1-6.4-9.8c-1.7-4.2-2.5-8.7-2.4-13.3
	c-0.1-4.5,0.7-9,2.4-13.3c1.5-3.7,3.6-7,6.4-9.8c2.7-2.6,5.8-4.7,9.3-6.1s7.2-2.1,10.9-2.1s7.4,0.7,10.9,2.1
	c3.4,1.4,6.6,3.4,9.2,6.1c2.8,2.8,5,6.1,6.4,9.8c1.7,4.2,2.5,8.7,2.4,13.3c0.1,4.5-0.7,9-2.4,13.3c-1.5,3.7-3.6,7-6.4,9.8
	c-2.6,2.6-5.8,4.7-9.2,6.1S669.4,85.5,665.6,85.5z M665.6,71.2c3.3,0.1,6.5-1.6,8.1-4.5c1.8-3,2.8-7.2,2.8-12.4s-0.9-9.3-2.8-12.4
	c-2.8-4.5-8.7-5.9-13.3-3.1c-1.3,0.8-2.3,1.9-3.1,3.1c-1.7,3-2.6,7.1-2.6,12.4s0.9,9.3,2.7,12.4C659.1,69.7,662.3,71.4,665.6,71.2
	L665.6,71.2z"/>
<path class="st0" d="M723.6,85.5c-4.1,0-8.2-0.8-12.1-2.3c-3.9-1.4-7.5-3.4-10.7-6l7.9-11c2.4,1.9,5,3.5,7.8,4.7
	c2.4,1,5,1.6,7.6,1.6c2.7,0,4.6-0.4,5.8-1.3s1.9-2.3,1.8-3.7c0-1-0.4-1.9-1-2.6c-0.8-0.8-1.7-1.6-2.8-2.1c-1.3-0.7-2.6-1.3-3.9-1.7
	c-1.4-0.5-2.9-1.1-4.4-1.7c-1.9-0.7-3.7-1.6-5.5-2.5c-1.8-1-3.5-2.1-5-3.5s-2.8-3.1-3.7-4.9c-1-2-1.6-4.3-1.5-6.6
	c0-2.6,0.5-5.2,1.6-7.6c1.1-2.3,2.6-4.3,4.6-5.9c2.2-1.7,4.6-3,7.2-3.8c3-1,6.2-1.4,9.4-1.4c4.1-0.1,8.2,0.7,12,2.3
	c3.2,1.4,6.2,3.2,9,5.2l-7.9,10.6c-2-1.5-4.1-2.8-6.3-3.8c-2-0.9-4.1-1.3-6.2-1.3c-4.5,0-6.7,1.6-6.7,4.7c0,0.9,0.4,1.8,1,2.5
	c0.7,0.8,1.6,1.4,2.6,1.9c1.2,0.6,2.4,1.2,3.7,1.6l4.3,1.7c1.9,0.7,3.8,1.5,5.7,2.5c1.9,0.9,3.6,2.1,5.2,3.4c1.6,1.4,2.9,3.1,3.8,5
	c1,2.2,1.5,4.6,1.4,7c0,2.6-0.5,5.2-1.6,7.6s-2.7,4.4-4.7,6.1c-2.3,1.8-4.9,3.2-7.7,4.1C730.7,85.1,727.2,85.6,723.6,85.5z"/>
<path class="st0" d="M769.4,85.5c-2.9,0.1-5.6-1.1-7.6-3.2s-3.1-4.9-3-7.8c-0.1-3,1-5.9,3.1-8c4.2-4.2,11-4.2,15.2-0.1l0.1,0.1
	c2.1,2.1,3.2,5,3.1,8c0.1,2.9-1,5.8-3.1,7.9C775.1,84.5,772.3,85.6,769.4,85.5z"/>
<path class="st0" d="M84.5,162.7c-2.2,0-4.4-0.4-6.5-1.3c-2-0.8-3.7-2.1-5.2-3.7c-1.5-1.7-2.7-3.7-3.4-5.9c-0.9-2.6-1.3-5.3-1.2-8
	c0-2.7,0.4-5.5,1.3-8.1c0.8-2.2,2-4.3,3.6-6c1.5-1.6,3.2-2.8,5.2-3.7c2-0.8,4.1-1.3,6.3-1.3c2.2-0.1,4.3,0.4,6.2,1.4
	c1.6,0.8,3,1.9,4.3,3.1l-1.9,2.3c-1.1-1.1-2.4-2-3.8-2.7c-1.5-0.7-3.1-1.1-4.7-1.1c-1.8,0-3.5,0.4-5.1,1.2s-3,1.9-4.1,3.3
	c-1.2,1.5-2.2,3.2-2.8,5.1c-0.7,2.1-1,4.3-1,6.5s0.3,4.4,0.9,6.5c0.6,1.8,1.4,3.5,2.6,5c1.1,1.4,2.5,2.5,4.1,3.3
	c1.7,0.8,3.5,1.2,5.4,1.2c1.8,0,3.6-0.4,5.3-1.2c1.6-0.8,3-1.8,4.3-2.9L96,158c-1.6,1.4-3.3,2.5-5.2,3.4
	C88.8,162.2,86.7,162.7,84.5,162.7z"/>
<path class="st0" d="M104.8,161.8v-36h2.8l0.3,6.7h0.2c1.1-2.1,2.6-4,4.4-5.5c1.6-1.4,3.7-2.1,5.8-2.1c0.6,0,1.3,0,1.9,0.1
	s1.2,0.3,1.7,0.6l-0.8,3c-0.5-0.2-1-0.4-1.6-0.5s-1.1-0.1-1.7-0.1c-1.9,0.1-3.6,0.8-5.1,2.1c-1.8,1.4-3.4,3.8-4.8,7.2v24.5H104.8z"
	/>
<path class="st0" d="M141.5,162.7c-2.2,0-4.4-0.4-6.5-1.3c-2-0.8-3.8-2.1-5.3-3.7c-1.6-1.7-2.8-3.7-3.6-5.9
	c-0.9-2.5-1.4-5.2-1.3-7.9c0-2.7,0.4-5.4,1.3-8c0.8-2.2,2-4.2,3.5-6c1.4-1.6,3.1-2.8,5-3.8c1.8-0.9,3.8-1.3,5.8-1.3
	c4.3,0,7.7,1.5,10.1,4.4c2.5,2.9,3.7,7,3.7,12.3v1.4c0,0.5-0.1,0.9-0.1,1.4h-26c0,2.2,0.4,4.3,1.1,6.4c0.6,1.8,1.5,3.5,2.7,4.9
	s2.6,2.5,4.2,3.2c1.7,0.8,3.6,1.2,5.6,1.2c1.8,0,3.6-0.3,5.3-0.9c1.6-0.6,3-1.4,4.4-2.4l1.4,2.6c-1.5,0.9-3.1,1.7-4.8,2.4
	C146,162.4,143.7,162.8,141.5,162.7z M128.2,141.5h23c0-4.7-0.9-8.1-2.9-10.4c-1.9-2.3-4.8-3.5-7.7-3.4c-1.5,0-3,0.3-4.4,0.9
	s-2.7,1.6-3.8,2.7c-1.2,1.3-2.1,2.7-2.8,4.4C128.9,137.6,128.4,139.5,128.2,141.5z"/>
<path class="st0" d="M170.8,162.7c-1.4,0-2.7-0.2-4.1-0.6c-1.2-0.4-2.3-1-3.3-1.8s-1.8-1.9-2.2-3.1c-0.6-1.4-0.9-2.9-0.8-4.4
	c0-4,1.9-7,5.6-9.1s9.6-3.6,17.7-4.5c0-1.4-0.1-2.7-0.3-4.1c-0.2-1.3-0.6-2.6-1.3-3.7c-0.6-1.1-1.5-2-2.6-2.6
	c-1.3-0.7-2.8-1.1-4.4-1c-2.3,0-4.5,0.5-6.6,1.4c-1.7,0.8-3.3,1.7-4.9,2.8l-1.5-2.5c0.6-0.4,1.4-0.9,2.4-1.5c1-0.6,2-1.1,3.1-1.5
	c1.2-0.5,2.5-0.9,3.8-1.2c1.4-0.3,2.8-0.5,4.2-0.5c1.8-0.1,3.7,0.3,5.3,1.1c1.4,0.7,2.6,1.7,3.5,3c1,1.3,1.6,2.8,2,4.4
	c0.4,1.8,0.6,3.6,0.6,5.4v23h-2.9l-0.3-4.6h-0.2c-1.9,1.5-3.9,2.8-6,3.9C175.5,162.1,173.2,162.7,170.8,162.7z M171.4,159.8
	c2.1,0,4.2-0.5,6-1.5c2.2-1.2,4.3-2.7,6.2-4.4v-12.2c-3.2,0.4-6.3,0.9-9.4,1.6c-2.1,0.5-4.2,1.3-6.1,2.3c-1.4,0.7-2.5,1.8-3.3,3.1
	c-0.7,1.2-1,2.5-1,3.8c0,1.1,0.2,2.3,0.6,3.3c0.4,0.9,0.9,1.6,1.6,2.2c0.7,0.6,1.5,1,2.4,1.3C169.4,159.7,170.4,159.8,171.4,159.8
	L171.4,159.8z"/>
<path class="st0" d="M208.8,162.7c-1.5,0.1-3-0.2-4.4-0.8c-1.1-0.5-2.1-1.2-2.8-2.2s-1.2-2.2-1.5-3.4c-0.3-1.5-0.4-2.9-0.4-4.4
	v-23.2h-5.6v-2.6l5.7-0.3l0.4-10.4h2.9v10.4h10.4v2.9h-10.4v23.5c0,1,0.1,2.1,0.3,3.1c0.1,0.9,0.5,1.7,0.9,2.4
	c0.5,0.7,1.1,1.2,1.8,1.6c0.9,0.4,2,0.6,3,0.6c0.8,0,1.5-0.1,2.3-0.3s1.5-0.5,2.2-0.8l0.9,2.7c-1,0.4-2.1,0.7-3.1,1
	C210.6,162.5,209.7,162.7,208.8,162.7z"/>
<path class="st0" d="M224.1,117.1c-0.8,0-1.6-0.3-2.1-0.8c-0.6-0.5-0.9-1.3-0.9-2.1c0-0.8,0.3-1.6,0.9-2.2c1.2-1.1,3-1.1,4.3,0
	c0.6,0.6,0.9,1.4,0.9,2.2c0,0.8-0.3,1.6-0.9,2.1C225.6,116.8,224.9,117.1,224.1,117.1z M222.3,161.8v-36h3.3v36H222.3z"/>
<path class="st0" d="M247,161.8l-13.5-36h3.6l8.1,22.6c0.6,1.8,1.1,3.5,1.8,5.2s1.2,3.5,1.8,5.1h0.3c0.6-1.6,1.2-3.3,1.8-5.1
	s1.2-3.5,1.8-5.2l8.1-22.6h3.4l-13.4,36L247,161.8z"/>
<path class="st0" d="M285.8,162.7c-2.2,0-4.4-0.4-6.5-1.3c-2-0.8-3.8-2.1-5.3-3.7c-1.6-1.7-2.8-3.7-3.6-5.9
	c-0.9-2.5-1.4-5.2-1.3-7.9c0-2.7,0.4-5.4,1.3-8c0.8-2.2,2-4.2,3.5-6c1.4-1.6,3.1-2.8,5-3.8c1.8-0.9,3.8-1.3,5.8-1.3
	c4.3,0,7.7,1.5,10.1,4.4s3.7,7,3.7,12.3v1.4c0,0.5-0.1,0.9-0.1,1.4h-26c0,2.1,0.4,4.2,1,6.3c0.6,1.8,1.5,3.5,2.7,4.9
	s2.6,2.5,4.2,3.2c1.7,0.8,3.6,1.2,5.5,1.2c1.8,0,3.6-0.3,5.3-0.9c1.6-0.6,3-1.4,4.4-2.4l1.4,2.6c-1.5,0.9-3.1,1.7-4.8,2.4
	C290.2,162.3,288,162.7,285.8,162.7z M272.4,141.5h23c0-4.7-0.9-8.1-2.9-10.4c-1.9-2.3-4.8-3.5-7.7-3.4c-1.5,0-3,0.3-4.4,0.9
	s-2.7,1.6-3.8,2.7c-1.2,1.3-2.1,2.7-2.8,4.4C273.1,137.6,272.6,139.5,272.4,141.5z"/>
<path class="st0" d="M330.8,161.8l-13.5-36h3.6l8.1,22.6c0.5,1.8,1.2,3.5,1.8,5.2s1.2,3.5,1.8,5.1h0.3c0.6-1.6,1.2-3.3,1.8-5.1
	s1.2-3.5,1.8-5.2l8.1-22.6h3.4l-13.4,36L330.8,161.8z"/>
<path class="st0" d="M357.6,117.1c-0.8,0-1.6-0.3-2.1-0.8c-0.6-0.5-0.9-1.3-0.9-2.1c0-0.8,0.3-1.6,0.9-2.2c1.2-1.1,3-1.1,4.3,0
	c0.6,0.6,0.9,1.4,0.9,2.2c0,0.8-0.3,1.6-0.9,2.1C359.1,116.8,358.4,117.1,357.6,117.1z M355.8,161.8v-36h3.3v36H355.8z"/>
<path class="st0" d="M384.9,162.7c-4.2,0.2-8.2-1.6-10.9-4.8c-2.7-3.2-4-7.9-4-14c0-2.7,0.4-5.3,1.3-7.9c0.8-2.2,2-4.2,3.5-6
	c1.4-1.6,3.2-2.9,5.1-3.8s4-1.3,6.1-1.3c2,0,3.9,0.4,5.7,1.2c1.8,0.9,3.5,2,5.1,3.3l-0.1-6.6V108h3.3v53.9h-2.9l-0.3-4.6h-0.2
	c-1.5,1.5-3.3,2.8-5.1,3.9C389.5,162.1,387.2,162.7,384.9,162.7z M385.4,159.8c2,0,4-0.5,5.7-1.5c2.1-1.2,3.9-2.7,5.6-4.4v-21.4
	c-1.6-1.5-3.4-2.7-5.4-3.6c-1.6-0.7-3.4-1-5.1-1.1c-1.7,0-3.5,0.4-5,1.2c-1.6,0.8-2.9,2-4,3.4c-1.2,1.5-2.1,3.3-2.7,5.1
	c-0.7,2-1,4.2-1,6.3c0,2.2,0.2,4.4,0.8,6.5c0.5,1.8,1.2,3.5,2.3,5C378.6,158.2,381.9,159.9,385.4,159.8L385.4,159.8z"/>
<path class="st0" d="M427.5,162.7c-2.2,0-4.4-0.4-6.5-1.3c-2-0.8-3.8-2.1-5.3-3.7c-1.6-1.7-2.8-3.7-3.6-5.9
	c-0.9-2.5-1.4-5.2-1.3-7.9c0-2.7,0.4-5.4,1.3-8c0.8-2.2,2-4.2,3.5-6c1.4-1.6,3.1-2.8,5-3.8c1.8-0.9,3.8-1.3,5.8-1.3
	c4.3,0,7.7,1.5,10.1,4.4c2.5,2.9,3.7,7,3.7,12.3v1.4c0,0.5-0.1,0.9-0.1,1.4h-25.9c0,2.1,0.4,4.2,1,6.3c0.6,1.8,1.5,3.5,2.7,4.9
	s2.6,2.5,4.2,3.2c1.7,0.8,3.6,1.2,5.5,1.2c1.8,0,3.6-0.3,5.3-0.9c1.6-0.6,3-1.4,4.4-2.4l1.4,2.6c-1.5,0.9-3.1,1.7-4.8,2.4
	C431.9,162.3,429.7,162.7,427.5,162.7z M414.2,141.5h23c0-4.7-1-8.1-2.9-10.4c-1.9-2.3-4.8-3.5-7.7-3.4c-1.5,0-3,0.3-4.4,0.9
	s-2.7,1.6-3.8,2.7c-1.2,1.3-2.1,2.7-2.8,4.4C414.8,137.6,414.3,139.5,414.2,141.5z"/>
<path class="st0" d="M463.2,162.7c-2.1,0-4.2-0.4-6.1-1.3c-2-0.8-3.7-2.1-5.1-3.7c-1.5-1.7-2.7-3.7-3.5-5.9c-0.9-2.6-1.4-5.3-1.3-8
	c0-2.7,0.4-5.5,1.3-8.1c0.8-2.2,2-4.3,3.5-6c2.9-3.2,7-5,11.3-4.9c2.1,0,4.2,0.4,6.2,1.3c2,0.8,3.7,2.1,5.2,3.7
	c1.6,1.7,2.8,3.8,3.5,6c0.9,2.6,1.4,5.3,1.3,8.1c0,2.7-0.4,5.4-1.3,8c-0.8,2.2-2,4.2-3.5,5.9c-1.4,1.6-3.2,2.8-5.2,3.7
	C467.4,162.2,465.3,162.7,463.2,162.7z M463.2,159.8c1.8,0,3.5-0.4,5.1-1.2s3-1.9,4-3.3c1.2-1.5,2.1-3.2,2.7-5c1.3-4.2,1.3-8.8,0-13
	c-0.6-1.8-1.5-3.5-2.7-5.1c-1.1-1.4-2.5-2.5-4-3.3c-1.6-0.8-3.3-1.2-5.1-1.2c-1.7,0-3.4,0.4-5,1.2s-2.9,1.9-4,3.3
	c-1.2,1.5-2.1,3.2-2.7,5.1c-1.3,4.2-1.3,8.8,0,13c0.6,1.8,1.5,3.5,2.7,5c1.1,1.4,2.4,2.5,4,3.3C459.7,159.4,461.4,159.8,463.2,159.8
	L463.2,159.8z"/>
<path class="st0" d="M513,162.7c-1.4,0-2.7-0.2-4-0.6c-1.2-0.4-2.3-1-3.3-1.8s-1.8-1.9-2.2-3.1c-0.6-1.4-0.9-2.9-0.8-4.4
	c0-4,1.9-7,5.6-9.1c3.7-2.1,9.6-3.6,17.7-4.5c0-1.4-0.1-2.7-0.3-4.1c-0.2-1.3-0.6-2.6-1.3-3.7c-0.7-1.1-1.5-2-2.6-2.6
	c-1.3-0.7-2.8-1.1-4.4-1c-2.3,0-4.5,0.5-6.6,1.4c-1.7,0.8-3.3,1.7-4.9,2.8l-1.5-2.5c0.7-0.4,1.4-0.9,2.4-1.5c1-0.6,2-1.1,3-1.5
	c1.2-0.5,2.5-0.9,3.8-1.2c1.4-0.3,2.8-0.5,4.2-0.5c1.8-0.1,3.7,0.3,5.3,1.1c1.4,0.7,2.6,1.7,3.5,3c0.9,1.3,1.6,2.8,2,4.4
	c0.4,1.8,0.6,3.6,0.6,5.4v23h-2.9l-0.3-4.6h-0.2c-1.9,1.5-3.9,2.8-6,3.9C517.7,162.1,515.4,162.7,513,162.7z M513.6,159.8
	c2.1,0,4.2-0.5,6-1.5c2.2-1.2,4.3-2.7,6.2-4.4v-12.2c-3.2,0.4-6.3,0.9-9.4,1.6c-2.1,0.5-4.2,1.3-6.2,2.3c-1.4,0.7-2.5,1.8-3.3,3.1
	c-0.7,1.2-1,2.5-1,3.8c0,1.1,0.2,2.3,0.6,3.3c0.4,0.9,0.9,1.6,1.7,2.2c0.7,0.6,1.5,1,2.4,1.3C511.6,159.7,512.6,159.8,513.6,159.8z"
	/>
<path class="st0" d="M553.8,179.1c-4.5,0-8.2-0.9-10.8-2.7c-2.5-1.5-4.1-4.3-4-7.3c0-1.7,0.5-3.3,1.4-4.6c1-1.6,2.3-3,3.9-4.1v-0.3
	c-0.9-0.6-1.7-1.3-2.2-2.2c-0.6-1.1-0.9-2.3-0.9-3.5c0-1.5,0.4-2.9,1.3-4.1c0.7-1,1.6-1.8,2.5-2.5v-0.3c-1.3-1.2-2.3-2.5-3.1-4.1
	c-1-1.8-1.4-3.8-1.4-5.9c0-1.7,0.3-3.5,1-5.1c1.2-3,3.7-5.4,6.8-6.6c2.4-1,5.1-1.2,7.7-0.7c0.7,0.1,1.4,0.4,2,0.6h12.2v2.7h-8.4
	c1.2,1.1,2.2,2.4,2.8,3.9c0.8,1.6,1.2,3.4,1.1,5.2c0,1.7-0.3,3.5-1,5.1c-0.6,1.5-1.5,2.9-2.7,4c-1.1,1.1-2.5,2-4,2.6
	c-1.6,0.6-3.2,1-4.9,0.9c-1,0-2.1-0.1-3.1-0.4c-1-0.2-2-0.6-2.9-1.1c-0.8,0.6-1.5,1.4-2.1,2.2c-0.6,0.9-0.9,1.9-0.9,3
	c0,1.3,0.6,2.5,1.5,3.4s2.8,1.4,5.5,1.4h7.7c4,0,7,0.7,9,2s2.9,3.4,2.9,6.3c0,1.6-0.4,3.2-1.2,4.5c-0.8,1.5-2,2.9-3.4,3.9
	c-1.6,1.2-3.4,2.1-5.4,2.7C558.6,178.8,556.2,179.1,553.8,179.1z M554.1,176.4c1.9,0,3.7-0.2,5.5-0.8c1.5-0.5,2.9-1.2,4.2-2.1
	c1.1-0.8,2-1.8,2.7-2.9c0.6-1,0.9-2.2,0.9-3.3c0.1-1.7-0.7-3.3-2.1-4.2c-1.9-0.9-4.1-1.4-6.2-1.2h-7.7c-0.4,0-1,0-1.8-0.1
	c-0.9-0.1-1.8-0.2-2.7-0.5c-1.5,0.9-2.7,2.2-3.6,3.7c-0.7,1.2-1.1,2.5-1.1,3.9c0,2.2,1.2,4.3,3.1,5.5
	C547.3,175.7,550.3,176.4,554.1,176.4z M553.2,147.7c1.2,0,2.4-0.2,3.6-0.7c1.1-0.5,2.2-1.2,3-2.1c0.9-0.9,1.5-2,2-3.2
	c1-2.7,1-5.6,0-8.2c-0.5-1.2-1.1-2.2-2-3.1c-0.8-0.9-1.9-1.5-3-2c-3.5-1.5-7.5-0.7-10.2,2c-0.9,0.9-1.6,1.9-2,3.1
	c-1,2.7-1,5.6,0,8.3c0.5,1.2,1.2,2.3,2.1,3.2c0.8,0.9,1.9,1.6,3,2.1C550.8,147.4,552,147.7,553.2,147.7z"/>
<path class="st0" d="M591.3,162.7c-2.2,0-4.4-0.4-6.5-1.3c-2-0.8-3.8-2.1-5.3-3.7c-1.6-1.7-2.8-3.7-3.6-5.9
	c-0.9-2.5-1.4-5.2-1.3-7.9c0-2.7,0.4-5.4,1.3-8c0.8-2.2,2-4.2,3.5-6c1.4-1.6,3.1-2.8,5-3.8c1.8-0.9,3.8-1.3,5.8-1.3
	c4.3,0,7.7,1.5,10.1,4.4c2.4,2.9,3.7,7,3.7,12.4v1.4c0,0.5-0.1,0.9-0.2,1.4h-26c0,2.1,0.4,4.2,1,6.3c0.6,1.8,1.5,3.5,2.7,4.9
	s2.6,2.5,4.2,3.2c1.7,0.8,3.6,1.2,5.5,1.2c1.8,0,3.6-0.3,5.3-0.9c1.6-0.6,3-1.4,4.4-2.4l1.3,2.6c-1.5,0.9-3.1,1.7-4.8,2.4
	C595.8,162.4,593.6,162.7,591.3,162.7z M578.1,141.5h23c0-4.7-0.9-8.1-2.8-10.4c-1.9-2.3-4.8-3.5-7.7-3.4c-1.5,0-3,0.3-4.4,0.9
	s-2.7,1.6-3.8,2.7c-1.2,1.3-2.1,2.7-2.8,4.4C578.7,137.6,578.2,139.5,578.1,141.5z"/>
<path class="st0" d="M613.9,161.8v-36h2.8l0.3,5.6h0.2c1.7-1.7,3.6-3.3,5.7-4.6c2-1.2,4.3-1.9,6.7-1.8c3.8,0,6.5,1.1,8.2,3.4
	s2.6,5.7,2.6,10.4v23.1h-3.3v-22.7c0-3.9-0.6-6.7-1.9-8.5s-3.4-2.7-6.3-2.7c-2.1,0-4.1,0.6-5.8,1.7c-2.2,1.5-4.1,3.2-5.9,5.1v27.1
	h-3.3V161.8z"/>
<path class="st0" d="M667.2,162.7c-2.2,0-4.4-0.4-6.5-1.3c-2-0.8-3.7-2.1-5.2-3.7c-1.5-1.7-2.7-3.7-3.5-5.9c-0.9-2.6-1.3-5.3-1.2-8
	c0-2.7,0.4-5.5,1.3-8.1c0.8-2.2,2-4.3,3.6-6c1.5-1.6,3.2-2.8,5.2-3.7c2-0.8,4.1-1.3,6.3-1.3c2.2-0.1,4.3,0.4,6.2,1.4
	c1.6,0.8,3,1.9,4.3,3.1l-2,2.3c-1.1-1.1-2.4-2-3.8-2.7c-1.5-0.7-3.1-1.1-4.7-1.1c-1.8,0-3.5,0.4-5.1,1.2s-3,1.9-4.1,3.3
	c-1.2,1.5-2.2,3.2-2.8,5.1c-0.7,2.1-1,4.3-1,6.5s0.3,4.4,0.9,6.5c0.6,1.8,1.5,3.5,2.6,5c1.1,1.4,2.5,2.5,4.1,3.3
	c1.7,0.8,3.5,1.2,5.4,1.2c1.8,0,3.6-0.4,5.3-1.2c1.6-0.8,3-1.8,4.3-2.9l1.7,2.3c-1.6,1.4-3.3,2.5-5.2,3.4
	C671.5,162.2,669.3,162.7,667.2,162.7z"/>
<path class="st0" d="M686.8,178.2c-1.3,0-2.5-0.2-3.7-0.8l0.7-2.9c0.4,0.2,0.9,0.3,1.3,0.4c0.5,0.1,1,0.2,1.6,0.2
	c2.2,0,4.3-1,5.6-2.7c1.6-2,2.8-4.3,3.6-6.8l1-3.1l-14.8-36.7h3.6l8.7,22.6c0.5,1.5,1.2,3.1,1.8,5s1.4,3.5,2.1,5.1h0.3
	c0.6-1.6,1.1-3.3,1.7-5.1c0.6-1.8,1.1-3.4,1.6-5l7.7-22.6h3.4l-14.3,40.5c-0.5,1.5-1.1,3-1.8,4.4s-1.5,2.7-2.5,3.8s-2.1,2-3.4,2.7
	C689.7,177.9,688.2,178.2,686.8,178.2z"/>
</svg>
