<svg id="Layer_1" data-name="Layer 1" xmlns="http://www.w3.org/2000/svg" viewBox="0 0 780.13 179.1"><path d="M0,84.12V5.88H22.08a53.55,53.55,0,0,1,16.2,2.28,32.35,32.35,0,0,1,12.36,7,30.83,30.83,0,0,1,7.92,12.08,49.29,49.29,0,0,1,2.76,17.4,50.42,50.42,0,0,1-2.76,17.52,32.39,32.39,0,0,1-7.8,12.3A32.11,32.11,0,0,1,38.7,81.72,48.11,48.11,0,0,1,23,84.12ZM17.64,69.84H21a29.66,29.66,0,0,0,9.12-1.32,16.77,16.77,0,0,0,7-4.26,20,20,0,0,0,4.46-7.74A37.64,37.64,0,0,0,43.2,44.64a36.53,36.53,0,0,0-1.62-11.7,19,19,0,0,0-4.5-7.56,16.32,16.32,0,0,0-7-4A32.33,32.33,0,0,0,21,20.18H17.64Z" style="fill:#fff"/><path d="M101.4,85.52a33.21,33.21,0,0,1-11.88-2.1,27.38,27.38,0,0,1-9.6-6.12,28.08,28.08,0,0,1-6.36-9.78,35.64,35.64,0,0,1-2.28-13.2,33.81,33.81,0,0,1,2.4-13,30.94,30.94,0,0,1,6.3-9.8,27.36,27.36,0,0,1,8.94-6.18,27.91,27.91,0,0,1,21.54,0,22,22,0,0,1,7.92,6,25.39,25.39,0,0,1,4.74,9.06,39.5,39.5,0,0,1,1.56,11.34,43.39,43.39,0,0,1-.24,4.56q-.24,2.16-.48,3.24H88.32q1.2,6.48,5.34,9.54a16.58,16.58,0,0,0,10.1,3,24.54,24.54,0,0,0,12.84-4l5.88,10.68a39,39,0,0,1-10.14,4.92A35.67,35.67,0,0,1,101.4,85.52ZM88.2,47.88h21.48a13.44,13.44,0,0,0-2.28-8.16q-2.28-3.12-7.68-3.12a10.9,10.9,0,0,0-7.38,2.76Q89.16,42.12,88.2,47.88Z" style="fill:#fff"/><path d="M154.44,85.52a34.78,34.78,0,0,1-12.06-2.28,37.2,37.2,0,0,1-10.74-6l7.92-11a35.88,35.88,0,0,0,7.8,4.68,19.31,19.31,0,0,0,7.56,1.6q4,0,5.76-1.32a4.34,4.34,0,0,0,1.8-3.72,3.73,3.73,0,0,0-1-2.58,10.46,10.46,0,0,0-2.76-2.1,27.06,27.06,0,0,0-4-1.78q-2.16-.78-4.44-1.74a56,56,0,0,1-5.52-2.52,23.7,23.7,0,0,1-5-3.54,17.41,17.41,0,0,1-3.72-4.92,14.23,14.23,0,0,1-1.44-6.54,17.76,17.76,0,0,1,1.62-7.56,16.17,16.17,0,0,1,4.62-5.88,22.78,22.78,0,0,1,7.2-3.78,30,30,0,0,1,9.36-1.38,28.78,28.78,0,0,1,12,2.34,48.06,48.06,0,0,1,9,5.22l-7.92,10.56a31.32,31.32,0,0,0-6.36-3.76,15.77,15.77,0,0,0-6.24-1.32q-6.72,0-6.72,4.68a3.43,3.43,0,0,0,1,2.46,9.75,9.75,0,0,0,2.56,1.9,32.19,32.19,0,0,0,3.72,1.62l4.36,1.66q2.88,1.08,5.7,2.46a23.72,23.72,0,0,1,5.16,3.42,15.22,15.22,0,0,1,5.22,12A18.39,18.39,0,0,1,177.36,74,16.64,16.64,0,0,1,172.68,80,23.39,23.39,0,0,1,165,84.1,33.7,33.7,0,0,1,154.44,85.52Z" style="fill:#fff"/><path d="M190.08,84.12V24.6h14.4l1.2,7.68h.48a47.44,47.44,0,0,1,7.92-6.42,18.28,18.28,0,0,1,10.08-2.7q6.36,0,10.26,2.58a17.74,17.74,0,0,1,6.18,7.38,52.19,52.19,0,0,1,8.34-7,18.17,18.17,0,0,1,10.38-2.94q9.6,0,14.1,6.42t4.5,17.58v37H260.28V49.44q0-6.48-1.74-8.88T253,38.16q-4.44,0-10.2,5.76v40.2H225.12V49.44q0-6.48-1.74-8.88t-5.62-2.4q-4.56,0-10.08,5.76v40.2Z" style="fill:#fff"/><path d="M318.48,85.52a29.38,29.38,0,0,1-10.92-2.1,27.6,27.6,0,0,1-9.3-6.06,29.15,29.15,0,0,1-6.42-9.78,34.58,34.58,0,0,1-2.4-13.26,34.58,34.58,0,0,1,2.4-13.26,29.15,29.15,0,0,1,6.42-9.78,27.6,27.6,0,0,1,9.3-6.06,29.38,29.38,0,0,1,10.92-2.1,28.87,28.87,0,0,1,10.86,2.1,27.76,27.76,0,0,1,9.24,6.06A29.15,29.15,0,0,1,345,41.06a34.58,34.58,0,0,1,2.4,13.26A34.58,34.58,0,0,1,345,67.58a29.15,29.15,0,0,1-6.42,9.78,27.76,27.76,0,0,1-9.24,6.06A28.87,28.87,0,0,1,318.48,85.52Zm0-14.28a9,9,0,0,0,8.16-4.56q2.76-4.56,2.76-12.36T326.64,42a9.63,9.63,0,0,0-16.38,0q-2.7,4.56-2.7,12.36t2.7,12.36a8.92,8.92,0,0,0,8.22,4.6Z" style="fill:#fff"/><path d="M359.52,84.12V24.6h14.4l1.2,7.56h.48a47.75,47.75,0,0,1,8.4-6.3,20.5,20.5,0,0,1,10.68-2.7q9.72,0,14.1,6.36t4.38,17.64v37H395.52V49.44c0-4.32-.59-7.28-1.74-8.88s-3-2.4-5.58-2.4a10.62,10.62,0,0,0-5.76,1.5,33.27,33.27,0,0,0-5.28,4.26v40.2Z" style="fill:#fff"/><path d="M449.4,85.52a22.89,22.89,0,0,1-10-2.16,21.56,21.56,0,0,1-7.68-6.18,28.89,28.89,0,0,1-5-9.74A45.19,45.19,0,0,1,425,54.36a37.79,37.79,0,0,1,2.1-13.08,31.39,31.39,0,0,1,5.54-9.76,23.88,23.88,0,0,1,7.92-6.18,21,21,0,0,1,9.18-2.18A17.94,17.94,0,0,1,458,24.84a29.79,29.79,0,0,1,6.36,4.56l-.72-9.12V0h17.64V84.12h-14.4l-1.16-5.88h-.48A28.24,28.24,0,0,1,458,83.46,18.85,18.85,0,0,1,449.4,85.52ZM454,71.12a11.27,11.27,0,0,0,5.22-1.2,13.31,13.31,0,0,0,4.5-4.2V41.4a14.09,14.09,0,0,0-4.92-3,15.55,15.55,0,0,0-4.92-.84c-2.81,0-5.28,1.34-7.44,4s-3.24,6.86-3.24,12.54c0,5.92.93,10.24,2.82,13a9.1,9.1,0,0,0,8,4.06Z" style="fill:#fff"/><path d="M522.35,84.12V5.88h26.76a67.31,67.31,0,0,1,11.34.9A26.86,26.86,0,0,1,569.57,10a16.92,16.92,0,0,1,6.12,6,18,18,0,0,1,2.22,9.36,20.07,20.07,0,0,1-.72,5.28,20.42,20.42,0,0,1-2,4.92A19.06,19.06,0,0,1,572,39.6a11.61,11.61,0,0,1-4.25,2.64v.48a20,20,0,0,1,5.52,2.22,17.48,17.48,0,0,1,4.44,3.78,16.86,16.86,0,0,1,3,5.34,21.08,21.08,0,0,1,1.08,7,21.38,21.38,0,0,1-2.34,10.32,20.07,20.07,0,0,1-6.53,7.14,30,30,0,0,1-9.66,4.2,49,49,0,0,1-11.88,1.38ZM540,37.2h8.28q6.48,0,9.42-2.52A8.4,8.4,0,0,0,560.63,28q0-4.56-3-6.48t-9.24-2H540Zm0,33.24h10q14.52,0,14.52-10.56,0-5.16-3.6-7.38T550,50.28H540Z" style="fill:#fff"/><path d="M593.51,84.12V24.6h14.4L609.11,35h.48a22.92,22.92,0,0,1,7.8-9,17.05,17.05,0,0,1,9.12-2.88,23.89,23.89,0,0,1,4.14.3,12.65,12.65,0,0,1,2.94.9L630.76,39.6a28.17,28.17,0,0,0-3.12-.72,21,21,0,0,0-3.36-.24,12.87,12.87,0,0,0-7,2.4q-3.66,2.4-6.06,8.52V84.12Z" style="fill:#fff"/><path d="M665.63,85.52a29.32,29.32,0,0,1-10.87-2.06,27.6,27.6,0,0,1-9.3-6.06A29.15,29.15,0,0,1,639,67.62a34.58,34.58,0,0,1-2.4-13.26A34.58,34.58,0,0,1,639,41.1a29.15,29.15,0,0,1,6.42-9.78,27.6,27.6,0,0,1,9.3-6.06,29.38,29.38,0,0,1,10.92-2.1,28.87,28.87,0,0,1,10.86,2.1,28,28,0,0,1,9.22,6.06,29.15,29.15,0,0,1,6.42,9.78,34.58,34.58,0,0,1,2.4,13.26,34.58,34.58,0,0,1-2.4,13.26,29.15,29.15,0,0,1-6.42,9.78,27.76,27.76,0,0,1-9.24,6.06A29,29,0,0,1,665.63,85.52Zm0-14.28a9,9,0,0,0,8.13-4.52q2.76-4.56,2.76-12.36T673.76,42a9.63,9.63,0,0,0-16.38,0q-2.62,4.52-2.62,12.36t2.7,12.36a8.92,8.92,0,0,0,8.17,4.56Z" style="fill:#fff"/><path d="M723.59,85.52a34.78,34.78,0,0,1-12.06-2.28,37.2,37.2,0,0,1-10.74-6l7.93-11a35.43,35.43,0,0,0,7.79,4.68,19.31,19.31,0,0,0,7.56,1.6q4,0,5.76-1.32a4.36,4.36,0,0,0,1.81-3.72,3.78,3.78,0,0,0-1-2.58,10.46,10.46,0,0,0-2.76-2.1,27.76,27.76,0,0,0-3.9-1.74q-2.16-.78-4.44-1.74A56,56,0,0,1,714,56.8a23.7,23.7,0,0,1-5-3.54,17.41,17.41,0,0,1-3.72-4.92,14.18,14.18,0,0,1-1.54-6.58,17.76,17.76,0,0,1,1.62-7.56A16.17,16.17,0,0,1,710,28.32a22.78,22.78,0,0,1,7.2-3.78,30,30,0,0,1,9.36-1.38,28.78,28.78,0,0,1,12,2.34,48.06,48.06,0,0,1,9,5.22l-7.91,10.56a31.44,31.44,0,0,0-6.34-3.76,15.77,15.77,0,0,0-6.24-1.32q-6.72,0-6.72,4.68a3.43,3.43,0,0,0,1,2.46,9.48,9.48,0,0,0,2.58,1.86,32.19,32.19,0,0,0,3.72,1.62l4.34,1.7q2.88,1.08,5.7,2.46a23.72,23.72,0,0,1,5.16,3.42,15.6,15.6,0,0,1,3.79,5,16,16,0,0,1,1.43,7A18.39,18.39,0,0,1,746.51,74,16.64,16.64,0,0,1,741.83,80a23.39,23.39,0,0,1-7.68,4.08A33.7,33.7,0,0,1,723.59,85.52Z" style="fill:#fff"/><path d="M769.43,85.52a10.14,10.14,0,0,1-7.62-3.18,11.77,11.77,0,0,1,0-15.82A10.72,10.72,0,0,1,777,66.44l.08.08a11.8,11.8,0,0,1,0,15.86A10.15,10.15,0,0,1,769.43,85.52Z" style="fill:#fff"/><path d="M84.49,162.68A16.23,16.23,0,0,1,78,161.4a14.89,14.89,0,0,1-5.17-3.67,16.76,16.76,0,0,1-3.45-5.89,23.65,23.65,0,0,1-1.24-8,22.57,22.57,0,0,1,1.35-8.06,17.83,17.83,0,0,1,3.6-6,15.5,15.5,0,0,1,11.47-5,12.92,12.92,0,0,1,6.23,1.35,22.47,22.47,0,0,1,4.35,3.07l-2,2.33a16.73,16.73,0,0,0-3.83-2.74,10.16,10.16,0,0,0-4.72-1.09,11.45,11.45,0,0,0-5.14,1.17,12.23,12.23,0,0,0-4.12,3.3,16.35,16.35,0,0,0-2.78,5.06,20,20,0,0,0-1,6.52,20.8,20.8,0,0,0,.94,6.46,15.55,15.55,0,0,0,2.62,5,11.62,11.62,0,0,0,4.13,3.26,12.78,12.78,0,0,0,10.64,0,18.33,18.33,0,0,0,4.31-2.93L96,157.91a22.36,22.36,0,0,1-5.17,3.38A14.59,14.59,0,0,1,84.49,162.68Z" style="fill:#fff"/><path d="M104.81,161.78v-36h2.85l.3,6.67h.23a17.5,17.5,0,0,1,4.39-5.47,9,9,0,0,1,5.81-2.1,9.76,9.76,0,0,1,1.87.15,6.7,6.7,0,0,1,1.73.6l-.75,3a8,8,0,0,0-1.58-.49,11,11,0,0,0-1.72-.11,8.44,8.44,0,0,0-5.06,2.06c-1.78,1.38-3.37,3.76-4.77,7.17v24.52Z" style="fill:#fff"/><path d="M141.49,162.68A16.62,16.62,0,0,1,135,161.4a14.85,14.85,0,0,1-5.29-3.71,17.9,17.9,0,0,1-3.56-5.92,22.48,22.48,0,0,1-1.31-7.92,23,23,0,0,1,1.31-8,18.28,18.28,0,0,1,3.53-6,15.88,15.88,0,0,1,5-3.75,13.59,13.59,0,0,1,5.81-1.31q6.45,0,10.13,4.35t3.67,12.3v1.35a6.14,6.14,0,0,1-.15,1.35h-26a21,21,0,0,0,1.12,6.38,14.94,14.94,0,0,0,2.74,4.95,12.54,12.54,0,0,0,4.24,3.23,13,13,0,0,0,5.55,1.16,15.61,15.61,0,0,0,5.29-.86,17,17,0,0,0,4.38-2.37l1.35,2.55a41.64,41.64,0,0,1-4.76,2.41A16.5,16.5,0,0,1,141.49,162.68Zm-13.28-21.16h23q0-7-2.85-10.39a9.51,9.51,0,0,0-7.72-3.41,10.56,10.56,0,0,0-4.43.94,11.48,11.48,0,0,0-3.78,2.73,14.54,14.54,0,0,0-2.78,4.35A19.24,19.24,0,0,0,128.21,141.52Z" style="fill:#fff"/><path d="M170.81,162.68a13.25,13.25,0,0,1-4.05-.6,9.66,9.66,0,0,1-3.3-1.8,8.28,8.28,0,0,1-2.25-3.08,10.82,10.82,0,0,1-.82-4.42q0-6,5.58-9.11t17.67-4.47a27.8,27.8,0,0,0-.3-4.08,9.85,9.85,0,0,0-1.28-3.68,7.82,7.82,0,0,0-2.62-2.62,8.16,8.16,0,0,0-4.35-1,15.18,15.18,0,0,0-6.6,1.43,32.61,32.61,0,0,0-4.88,2.77l-1.5-2.47c.65-.45,1.44-1,2.36-1.5a22.37,22.37,0,0,1,3.12-1.5,28.55,28.55,0,0,1,3.75-1.16,17.53,17.53,0,0,1,4.2-.49,11.76,11.76,0,0,1,5.32,1.09,9.39,9.39,0,0,1,3.53,3,12.32,12.32,0,0,1,2,4.39,23.6,23.6,0,0,1,.6,5.43v23h-2.85l-.3-4.65h-.23a39.8,39.8,0,0,1-6,3.86A14.25,14.25,0,0,1,170.81,162.68Zm.6-2.85a12.71,12.71,0,0,0,6-1.5,35.32,35.32,0,0,0,6.23-4.35V141.75a78.33,78.33,0,0,0-9.38,1.65,24.75,24.75,0,0,0-6.15,2.33,8.9,8.9,0,0,0-3.34,3.08,7.42,7.42,0,0,0-1,3.82,8.12,8.12,0,0,0,.6,3.3,5.9,5.9,0,0,0,1.65,2.21,6.89,6.89,0,0,0,2.44,1.28,10.51,10.51,0,0,0,2.95.41Z" style="fill:#fff"/><path d="M208.76,162.68a10.47,10.47,0,0,1-4.35-.79,6.87,6.87,0,0,1-2.77-2.21,8.59,8.59,0,0,1-1.46-3.45,21.92,21.92,0,0,1-.42-4.42V128.63h-5.62v-2.55l5.7-.3.45-10.43h2.85v10.43h10.42v2.85H203.14V152.1a16.3,16.3,0,0,0,.26,3.12,6.48,6.48,0,0,0,.94,2.4,4.52,4.52,0,0,0,1.84,1.57,6.88,6.88,0,0,0,3,.56,8.92,8.92,0,0,0,2.29-.33,14.17,14.17,0,0,0,2.21-.79l.9,2.7a26.79,26.79,0,0,1-3.15,1A12.61,12.61,0,0,1,208.76,162.68Z" style="fill:#fff"/><path d="M224.06,117.08a2.88,2.88,0,0,1-2.13-.83,2.74,2.74,0,0,1-.87-2.1,2.82,2.82,0,0,1,.87-2.21,3.29,3.29,0,0,1,4.27,0,2.89,2.89,0,0,1,.86,2.21,2.78,2.78,0,0,1-.86,2.1A2.89,2.89,0,0,1,224.06,117.08Zm-1.72,44.7v-36h3.3v36Z" style="fill:#fff"/><path d="M247,161.78l-13.5-36h3.6l8.1,22.57c.55,1.76,1.15,3.5,1.8,5.25s1.25,3.46,1.8,5.1h.3q.9-2.46,1.84-5.1c.62-1.75,1.24-3.49,1.84-5.25l8.1-22.57h3.37l-13.35,36Z" style="fill:#fff"/><path d="M285.76,162.68a16.62,16.62,0,0,1-6.49-1.28,14.81,14.81,0,0,1-5.28-3.71,18,18,0,0,1-3.57-5.92,22.48,22.48,0,0,1-1.31-7.92,23,23,0,0,1,1.31-8,18.28,18.28,0,0,1,3.53-6,15.88,15.88,0,0,1,5-3.75,13.63,13.63,0,0,1,5.82-1.31q6.45,0,10.12,4.35t3.68,12.3v1.35a6.14,6.14,0,0,1-.15,1.35h-26a20.8,20.8,0,0,0,1.05,6.26,14.74,14.74,0,0,0,2.73,4.95,12.54,12.54,0,0,0,4.24,3.23,13,13,0,0,0,5.55,1.16,15.61,15.61,0,0,0,5.29-.86,17.1,17.1,0,0,0,4.39-2.37l1.35,2.55a42.62,42.62,0,0,1-4.77,2.41A16.51,16.51,0,0,1,285.76,162.68Zm-13.32-21.16h22.95q0-7-2.85-10.39a9.53,9.53,0,0,0-7.73-3.41,10.55,10.55,0,0,0-4.42.94,11.41,11.41,0,0,0-3.79,2.73,15.08,15.08,0,0,0-2.78,4.35A19.45,19.45,0,0,0,272.44,141.52Z" style="fill:#fff"/><path d="M330.76,161.78l-13.5-36h3.59l8.1,22.57c.55,1.76,1.16,3.5,1.81,5.25s1.24,3.46,1.8,5.1h.29c.6-1.64,1.22-3.34,1.84-5.1s1.24-3.49,1.84-5.25l8.1-22.57H348l-13.36,36Z" style="fill:#fff"/><path d="M357.56,117.08a3,3,0,0,1-2.14-.83,2.78,2.78,0,0,1-.86-2.1,2.89,2.89,0,0,1,.86-2.21,3.3,3.3,0,0,1,4.28,0,2.89,2.89,0,0,1,.86,2.21,2.78,2.78,0,0,1-.86,2.1A3,3,0,0,1,357.56,117.08Zm-1.73,44.7v-36h3.3v36Z" style="fill:#fff"/><path d="M384.93,162.68a13.41,13.41,0,0,1-10.87-4.84Q370,153,370,143.84a22.9,22.9,0,0,1,1.27-7.87,18.28,18.28,0,0,1,3.49-6,15.6,15.6,0,0,1,5.1-3.79,14.63,14.63,0,0,1,6.11-1.31,13.18,13.18,0,0,1,5.74,1.16,30,30,0,0,1,5.14,3.26l-.15-6.6V107.85H400v53.93h-2.85l-.3-4.65h-.23A23.88,23.88,0,0,1,391.5,161,13,13,0,0,1,384.93,162.68Zm.45-2.93a11.58,11.58,0,0,0,5.74-1.53,26.35,26.35,0,0,0,5.59-4.39V132.45a20.25,20.25,0,0,0-5.36-3.6,13.53,13.53,0,0,0-5.14-1,10.64,10.64,0,0,0-5,1.24,12.77,12.77,0,0,0-4,3.38,16.46,16.46,0,0,0-2.66,5.1,20,20,0,0,0-1,6.33,25.22,25.22,0,0,0,.79,6.53,15.15,15.15,0,0,0,2.29,5,10.42,10.42,0,0,0,8.77,4.38Z" style="fill:#fff"/><path d="M427.46,162.68A16.62,16.62,0,0,1,421,161.4a14.85,14.85,0,0,1-5.29-3.71,17.8,17.8,0,0,1-3.56-5.92,22.25,22.25,0,0,1-1.31-7.92,22.5,22.5,0,0,1,1.31-8,18.25,18.25,0,0,1,3.52-6,15.88,15.88,0,0,1,5-3.75,13.59,13.59,0,0,1,5.81-1.31q6.45,0,10.13,4.35t3.67,12.3v1.35a6.14,6.14,0,0,1-.15,1.35H414.18a20.8,20.8,0,0,0,1.05,6.26,14.59,14.59,0,0,0,2.74,4.95,12.44,12.44,0,0,0,4.24,3.23,13,13,0,0,0,5.55,1.16,15.61,15.61,0,0,0,5.29-.86,17,17,0,0,0,4.38-2.37l1.35,2.55a41.64,41.64,0,0,1-4.76,2.41A16.37,16.37,0,0,1,427.46,162.68Zm-13.28-21.16h22.95q0-7-2.85-10.39a9.51,9.51,0,0,0-7.72-3.41,10.56,10.56,0,0,0-4.43.94,11.77,11.77,0,0,0-3.79,2.73,14.84,14.84,0,0,0-2.77,4.35A19.16,19.16,0,0,0,414.18,141.52Z" style="fill:#fff"/><path d="M463.16,162.68a15.29,15.29,0,0,1-11.29-5,17.79,17.79,0,0,1-3.53-5.89,22.73,22.73,0,0,1-1.31-8,23.29,23.29,0,0,1,1.31-8.06,17.84,17.84,0,0,1,3.53-6,15.19,15.19,0,0,1,11.29-5,15.64,15.64,0,0,1,6.18,1.27,15.18,15.18,0,0,1,5.18,3.68,17.82,17.82,0,0,1,3.52,6,23.07,23.07,0,0,1,1.32,8.06,22.48,22.48,0,0,1-1.32,8,17.93,17.93,0,0,1-3.52,5.89,15,15,0,0,1-5.18,3.67A15.44,15.44,0,0,1,463.16,162.68Zm0-2.93a11.24,11.24,0,0,0,5.06-1.16,11.87,11.87,0,0,0,4-3.26,16.38,16.38,0,0,0,2.66-5,22,22,0,0,0,0-13,16.69,16.69,0,0,0-2.66-5.06,11.68,11.68,0,0,0-4-3.3,11.25,11.25,0,0,0-5.06-1.17,11,11,0,0,0-5,1.17,11.6,11.6,0,0,0-4,3.3,16.26,16.26,0,0,0-2.66,5.06,22,22,0,0,0,0,13,16,16,0,0,0,2.66,5,11.81,11.81,0,0,0,4,3.26,11,11,0,0,0,5,1.16Z" style="fill:#fff"/><path d="M513,162.68a13.19,13.19,0,0,1-4-.6,9.66,9.66,0,0,1-3.3-1.8,8.28,8.28,0,0,1-2.25-3.08,11,11,0,0,1-.83-4.42q0-6,5.59-9.11t17.66-4.47a27.8,27.8,0,0,0-.3-4.08,9.66,9.66,0,0,0-1.27-3.68,7.82,7.82,0,0,0-2.62-2.62,8.27,8.27,0,0,0-4.36-1,15.14,15.14,0,0,0-6.59,1.43,31.29,31.29,0,0,0-4.88,2.77l-1.5-2.47c.65-.45,1.44-1,2.36-1.5a20.87,20.87,0,0,1,3-1.53,28.55,28.55,0,0,1,3.75-1.16,17.56,17.56,0,0,1,4.21-.49A11.76,11.76,0,0,1,523,126a9.29,9.29,0,0,1,3.52,3,12.05,12.05,0,0,1,2,4.39,23.07,23.07,0,0,1,.61,5.43v23h-2.86l-.29-4.65h-.21a39.8,39.8,0,0,1-6,3.86A14.23,14.23,0,0,1,513,162.68Zm.6-2.85a12.71,12.71,0,0,0,6-1.5,35.25,35.25,0,0,0,6.22-4.35V141.75a78.52,78.52,0,0,0-9.37,1.65,24.75,24.75,0,0,0-6.15,2.33,8.9,8.9,0,0,0-3.34,3.08,7.42,7.42,0,0,0-1,3.82,8.12,8.12,0,0,0,.6,3.3,5.9,5.9,0,0,0,1.65,2.21,6.89,6.89,0,0,0,2.44,1.28A10.51,10.51,0,0,0,513.63,159.83Z" style="fill:#fff"/><path d="M553.76,179.1c-4.55,0-8.16-.9-10.8-2.7a8.35,8.35,0,0,1-4-7.27,8.63,8.63,0,0,1,1.43-4.65,15,15,0,0,1,3.89-4v-.3a7.11,7.11,0,0,1-2.25-2.25,6.61,6.61,0,0,1-.89-3.53,6.33,6.33,0,0,1,1.35-4.08,13.18,13.18,0,0,1,2.54-2.52v-.3a14.45,14.45,0,0,1-3.11-4,12,12,0,0,1-1.39-5.85,13.13,13.13,0,0,1,1-5.1,12,12,0,0,1,6.75-6.63,13.69,13.69,0,0,1,7.65-.68,10.6,10.6,0,0,1,2,.64h12.22v2.74h-8.39a11.68,11.68,0,0,1,2.85,3.87,12,12,0,0,1,1.13,5.21,13.13,13.13,0,0,1-1,5.1,12.5,12.5,0,0,1-2.66,4,11.89,11.89,0,0,1-4,2.63,12.92,12.92,0,0,1-4.91.94,13.57,13.57,0,0,1-3.11-.38,10.08,10.08,0,0,1-2.89-1.12,11.45,11.45,0,0,0-2.06,2.17,5,5,0,0,0-.87,3,4.51,4.51,0,0,0,1.52,3.38c1,.92,2.77,1.38,5.48,1.38H559c4,0,7,.67,9,2s2.89,3.41,2.89,6.26a9.39,9.39,0,0,1-1.2,4.54,12.16,12.16,0,0,1-3.41,3.9,17.5,17.5,0,0,1-5.37,2.7A22.81,22.81,0,0,1,553.76,179.1Zm.37-2.7a18.16,18.16,0,0,0,5.48-.78,14.36,14.36,0,0,0,4.15-2.1,9.82,9.82,0,0,0,2.67-2.89,6.65,6.65,0,0,0,.94-3.34,4.51,4.51,0,0,0-2.14-4.24,12.58,12.58,0,0,0-6.19-1.24h-7.68a13.05,13.05,0,0,1-1.84-.11,14.16,14.16,0,0,1-2.66-.49,11.93,11.93,0,0,0-3.6,3.68,7.69,7.69,0,0,0-1.13,3.9,6.37,6.37,0,0,0,3.11,5.48Q548.36,176.4,554.13,176.4Zm-.9-28.72a9.27,9.27,0,0,0,3.56-.71,8.77,8.77,0,0,0,3-2.07,10.24,10.24,0,0,0,2-3.22,11.72,11.72,0,0,0,0-8.25,9.49,9.49,0,0,0-2-3.15,8.68,8.68,0,0,0-3-2,9.17,9.17,0,0,0-12.2,5.11,11.83,11.83,0,0,0,0,8.29,9.44,9.44,0,0,0,2.06,3.22,9,9,0,0,0,6.58,2.78Z" style="fill:#fff"/><path d="M591.33,162.68a16.62,16.62,0,0,1-6.49-1.28,14.81,14.81,0,0,1-5.28-3.71,18,18,0,0,1-3.57-5.92,22.48,22.48,0,0,1-1.31-7.92,23,23,0,0,1,1.31-8,18.28,18.28,0,0,1,3.53-6,15.88,15.88,0,0,1,5-3.75,13.63,13.63,0,0,1,5.82-1.31q6.45,0,10.12,4.35t3.7,12.38v1.35a6.14,6.14,0,0,1-.15,1.35H578a20.8,20.8,0,0,0,1,6.26,14.74,14.74,0,0,0,2.73,5,12.54,12.54,0,0,0,4.24,3.23,13,13,0,0,0,5.55,1.16,15.61,15.61,0,0,0,5.29-.86,17.1,17.1,0,0,0,4.39-2.37l1.35,2.55a42.62,42.62,0,0,1-4.77,2.41A16.47,16.47,0,0,1,591.33,162.68Zm-13.27-21.16h23q0-7-2.85-10.39a9.53,9.53,0,0,0-7.73-3.41,10.55,10.55,0,0,0-4.42.94,11.41,11.41,0,0,0-3.79,2.73,15.08,15.08,0,0,0-2.78,4.35A19.53,19.53,0,0,0,578.06,141.52Z" style="fill:#fff"/><path d="M613.91,161.78v-36h2.85l.29,5.55h.23a32.41,32.41,0,0,1,5.7-4.61,12.28,12.28,0,0,1,6.68-1.84c3.75,0,6.49,1.12,8.25,3.37s2.62,5.73,2.62,10.43v23.1h-3.3V139.13q0-5.77-1.91-8.51c-1.27-1.82-3.39-2.73-6.34-2.74a10.55,10.55,0,0,0-5.85,1.69,34.88,34.88,0,0,0-5.92,5.06v27.15Z" style="fill:#fff"/><path d="M667.16,162.68a16.23,16.23,0,0,1-6.49-1.28,15,15,0,0,1-5.18-3.67,16.91,16.91,0,0,1-3.45-5.89,23.89,23.89,0,0,1-1.23-8,22.57,22.57,0,0,1,1.35-8.06,17.83,17.83,0,0,1,3.6-6A15.54,15.54,0,0,1,661,126.1a15.85,15.85,0,0,1,6.26-1.27,12.92,12.92,0,0,1,6.23,1.35,22.47,22.47,0,0,1,4.35,3.07l-1.95,2.33a16.73,16.73,0,0,0-3.83-2.74,10.16,10.16,0,0,0-4.72-1.09,11.32,11.32,0,0,0-5.14,1.17,12.27,12.27,0,0,0-4.13,3.3,16.12,16.12,0,0,0-2.77,5.06,19.53,19.53,0,0,0-1,6.52,21.4,21.4,0,0,0,.93,6.46,15.57,15.57,0,0,0,2.63,5,11.68,11.68,0,0,0,4.12,3.26,12.31,12.31,0,0,0,5.37,1.16,11.92,11.92,0,0,0,5.28-1.19,18.09,18.09,0,0,0,4.32-2.93l1.72,2.32a22.36,22.36,0,0,1-5.17,3.38A14.66,14.66,0,0,1,667.16,162.68Z" style="fill:#fff"/><path d="M686.76,178.2a8.79,8.79,0,0,1-3.68-.75l.68-2.93a12.38,12.38,0,0,0,1.35.41,6.5,6.5,0,0,0,1.58.19,7,7,0,0,0,5.62-2.7,20.65,20.65,0,0,0,3.6-6.83l1-3.15-14.78-36.67h3.63l8.7,22.65c.55,1.5,1.17,3.15,1.84,5s1.36,3.5,2.06,5.1h.3c.55-1.6,1.12-3.3,1.69-5.1l1.61-5,7.73-22.65h3.37l-14.3,40.51a35.46,35.46,0,0,1-1.83,4.42,17.87,17.87,0,0,1-2.55,3.83,12,12,0,0,1-3.38,2.66A9,9,0,0,1,686.76,178.2Z" style="fill:#fff"/></svg>