<?xml version="1.0" encoding="utf-8"?>
<!-- Generator: Adobe Illustrator 24.1.0, SVG Export Plug-In . SVG Version: 6.00 Build 0)  -->
<svg version="1.1" id="Layer_1" xmlns="http://www.w3.org/2000/svg" xmlns:xlink="http://www.w3.org/1999/xlink" x="0px" y="0px"
	 viewBox="0 0 780 180" style="enable-background:new 0 0 780 180;" xml:space="preserve">
<style type="text/css">
	.st0{enable-background:new    ;}
	.st1{fill:#282828;}
	.st2{fill:#FFFFFF;}
</style>
<g class="st0">
	<path class="st1" d="M28.9,128.2c-5.2,0-9.9-1.3-14.1-3.9c-4.1-2.6-7.4-6.1-9.8-10.6s-3.6-9.5-3.6-15C1.4,93.1,2.6,88,5,83.6
		c2.4-4.5,5.6-8,9.7-10.6s8.8-3.9,14.1-3.9c4.1,0,7.7,0.8,11,2.5c3.2,1.6,5.9,3.9,7.9,6.9c2,2.9,3.1,6.2,3.2,9.9v20.2
		c-0.2,3.7-1.2,7-3.2,10s-4.6,5.3-7.9,7C36.6,127.4,33,128.2,28.9,128.2z M31.5,114c2.9,0,5.4-0.6,7.6-1.9c2.1-1.3,3.8-3.1,5-5.4
		s1.8-5,1.8-8s-0.6-5.6-1.8-7.9s-2.9-4.1-5-5.4c-2.2-1.3-4.6-1.9-7.4-1.9c-2.9,0-5.4,0.7-7.6,2s-3.8,3.1-5,5.4s-1.8,4.9-1.8,7.9
		s0.6,5.7,1.8,8c1.2,2.3,2.9,4.1,5.1,5.4C26.3,113.4,28.7,114,31.5,114z M60.3,127H45.1v-15.2L47.5,98L45,84.4V42.3h15.4V127H60.3z"
		/>
	<path class="st1" d="M101,128.2c-5.9,0-11.2-1.3-15.8-3.8c-4.6-2.5-8.3-6-11-10.5s-4-9.5-4-15.2c0-5.6,1.3-10.6,3.9-15.1
		c2.6-4.4,6.2-7.9,10.7-10.6c4.5-2.6,9.6-3.9,15.1-3.9s10.3,1.2,14.5,3.7s7.5,5.8,9.8,10.1c2.4,4.3,3.6,9.1,3.6,14.5
		c0,1-0.1,2.1-0.2,3.1c-0.1,1.1-0.3,2.2-0.6,3.6l-47.6,0.1V92.7l40.4-0.1l-6.2,4.8c-0.2-3.4-0.8-6.2-1.8-8.4c-1.1-2.3-2.6-4-4.6-5.2
		s-4.4-1.8-7.3-1.8c-3,0-5.7,0.7-8,2.1s-4,3.3-5.2,5.7c-1.2,2.5-1.8,5.4-1.8,8.7c0,3.4,0.6,6.4,1.9,9c1.3,2.5,3.1,4.5,5.6,5.9
		c2.4,1.4,5.2,2.1,8.4,2.1c2.9,0,5.5-0.5,7.9-1.5c2.3-1,4.4-2.4,6.1-4.4l9,9c-2.7,3.2-6.1,5.6-10,7.3
		C109.9,127.4,105.6,128.2,101,128.2z"/>
	<path class="st1" d="M156.8,128.3c-3.2,0-6.4-0.4-9.4-1.3c-3.1-0.9-5.9-2.1-8.5-3.6s-4.8-3.4-6.7-5.6l9.1-9.3
		c2,2.2,4.2,3.8,6.8,4.9s5.4,1.6,8.6,1.6c2.5,0,4.4-0.4,5.7-1.1s1.9-1.8,1.9-3.2c0-1.6-0.7-2.8-2.1-3.6c-1.4-0.9-3.1-1.6-5.3-2.2
		s-4.5-1.2-6.9-2c-2.4-0.7-4.7-1.7-6.9-2.9c-2.2-1.2-4-2.9-5.3-5c-1.4-2.1-2.1-4.9-2.1-8.4c0-3.6,0.9-6.7,2.6-9.4
		c1.8-2.7,4.3-4.7,7.6-6.2s7.2-2.2,11.6-2.2c4.7,0,8.9,0.8,12.7,2.5c3.8,1.6,6.9,4.1,9.4,7.4l-9.3,9.3c-1.7-2.1-3.7-3.6-5.8-4.6
		c-2.2-0.9-4.5-1.4-7-1.4c-2.3,0-4,0.4-5.2,1.1s-1.8,1.7-1.8,2.9c0,1.4,0.7,2.5,2.1,3.3c1.4,0.8,3.1,1.5,5.3,2.1s4.5,1.3,6.9,2
		s4.6,1.8,6.8,3.1c2.1,1.3,3.9,3.1,5.3,5.3c1.4,2.2,2.1,5,2.1,8.4c0,5.6-2,9.9-6,13.2C169.1,126.7,163.7,128.3,156.8,128.3z"/>
	<path class="st1" d="M189.4,127V70.4h15.4V127H189.4z M226.3,127V93.6c0-3.3-1-5.8-3.1-7.7c-2.1-1.8-4.6-2.8-7.7-2.8
		c-2,0-3.9,0.4-5.5,1.2c-1.6,0.8-2.9,2-3.9,3.6c-0.9,1.6-1.4,3.4-1.4,5.6l-6-2.9c0-4.4,1-8.2,2.9-11.4c1.9-3.2,4.5-5.7,7.8-7.4
		c3.3-1.8,7-2.6,11.1-2.6c3.9,0,7.5,0.9,10.7,2.6c3.2,1.8,5.7,4.2,7.6,7.4c1.9,3.2,2.8,7,2.8,11.4V127H226.3z M263.3,127V93.6
		c0-3.3-1-5.8-3.1-7.7c-2.1-1.8-4.6-2.8-7.7-2.8c-2,0-3.8,0.4-5.5,1.2c-1.7,0.8-3,2-3.9,3.6s-1.4,3.4-1.4,5.6l-8.8-2.1
		c0.3-4.5,1.5-8.5,3.6-11.8s4.9-5.9,8.3-7.7c3.4-1.8,7.3-2.8,11.5-2.8s8,0.9,11.4,2.6c3.4,1.8,6,4.3,8,7.6c2,3.3,2.9,7.2,2.9,11.7
		v36H263.3z"/>
	<path class="st1" d="M317.7,128.2c-5.7,0-10.8-1.3-15.4-3.9s-8.2-6.2-10.9-10.7c-2.7-4.5-4-9.5-4-15.1c0-5.5,1.3-10.5,4-14.9
		s6.3-7.9,10.9-10.6c4.6-2.6,9.7-3.9,15.4-3.9c5.8,0,11,1.3,15.5,3.9c4.6,2.6,8.2,6.1,10.8,10.6c2.7,4.4,4,9.4,4,14.9
		c0,5.6-1.3,10.6-4,15.1s-6.3,8.1-10.8,10.7C328.5,126.9,323.4,128.2,317.7,128.2z M317.5,113.9c2.9,0,5.5-0.6,7.7-1.9
		s3.9-3.1,5.2-5.4c1.2-2.3,1.8-4.9,1.8-7.9s-0.6-5.6-1.9-7.9s-3-4-5.2-5.3s-4.7-1.9-7.6-1.9c-2.8,0-5.3,0.6-7.5,1.9
		s-3.9,3.1-5.2,5.3c-1.3,2.3-1.9,4.9-1.9,7.9s0.6,5.6,1.9,7.9c1.2,2.3,3,4.1,5.2,5.4S314.7,113.9,317.5,113.9z"/>
	<path class="st1" d="M357.8,127V70.4h15.4V127H357.8z M395.9,127V94.6c0-3.4-1.1-6.1-3.2-8.2s-4.8-3.2-8.2-3.2
		c-2.2,0-4.1,0.5-5.9,1.4c-1.7,0.9-3.1,2.3-4,4c-1,1.7-1.5,3.7-1.5,6l-6-3c0-4.5,1-8.3,2.9-11.7c1.9-3.3,4.6-5.9,8-7.8
		s7.2-2.8,11.5-2.8c4.1,0,7.9,1,11.1,3.1c3.3,2.1,5.9,4.8,7.7,8.1c1.9,3.3,2.8,6.9,2.8,10.7V127H395.9z"/>
	<path class="st1" d="M447.6,128.2c-5.2,0-9.9-1.3-14.1-3.9c-4.1-2.6-7.4-6.1-9.8-10.6s-3.6-9.5-3.6-15c0-5.6,1.2-10.7,3.6-15.1
		c2.4-4.5,5.6-8,9.7-10.6s8.8-3.9,14.1-3.9c4.1,0,7.7,0.8,11,2.5c3.2,1.6,5.9,3.9,7.9,6.9c2,2.9,3.1,6.2,3.2,9.9v20.2
		c-0.2,3.7-1.2,7-3.2,10s-4.6,5.3-7.9,7C455.3,127.4,451.6,128.2,447.6,128.2z M450.1,114c2.9,0,5.4-0.6,7.6-1.9
		c2.1-1.3,3.8-3.1,5-5.4s1.8-5,1.8-8s-0.6-5.6-1.8-7.9c-1.2-2.3-2.9-4.1-5-5.4c-2.2-1.3-4.6-1.9-7.4-1.9c-2.9,0-5.4,0.7-7.6,2
		s-3.8,3.1-5,5.4s-1.8,4.9-1.8,7.9s0.6,5.7,1.8,8c1.2,2.3,2.9,4.1,5.1,5.4C444.9,113.4,447.4,114,450.1,114z M479,127h-15.2v-15.2
		l2.5-13.8l-2.6-13.6V42.3H479V127z"/>
	<path class="st1" d="M515.4,127V42.3h15.4v42.1L528.2,98l2.5,13.8V127H515.4z M546.9,128.2c-4.1,0-7.7-0.9-11-2.6s-5.9-4.1-7.9-7
		c-2-3-3-6.3-3.2-10V88.5c0.2-3.7,1.2-7,3.2-9.9s4.6-5.2,7.9-6.9c3.3-1.6,6.9-2.5,10.9-2.5c5.2,0,9.9,1.3,14.1,3.9
		c4.1,2.6,7.4,6.1,9.8,10.6c2.4,4.5,3.6,9.5,3.6,15.1s-1.2,10.6-3.6,15c-2.4,4.5-5.6,8-9.8,10.6
		C556.8,126.9,552.1,128.2,546.9,128.2z M544.3,114c2.8,0,5.3-0.6,7.4-1.9c2.1-1.3,3.8-3.1,5-5.4s1.8-5,1.8-8s-0.6-5.6-1.8-7.9
		s-2.9-4.1-5.1-5.4c-2.2-1.3-4.7-1.9-7.5-1.9s-5.3,0.6-7.4,1.9c-2.2,1.3-3.8,3.1-5,5.4s-1.8,4.9-1.8,7.9s0.6,5.7,1.8,8
		s2.9,4.1,5.1,5.4C539,113.4,541.5,114,544.3,114z"/>
	<path class="st1" d="M584.4,127V70.4h15.4V127H584.4z M599.7,95.7l-6-4c0.7-7,2.7-12.4,6.1-16.5c3.4-4,8.2-6,14.5-6
		c2.7,0,5.2,0.5,7.4,1.3c2.2,0.9,4.2,2.4,6,4.4l-9.6,11c-0.9-0.9-1.9-1.6-3.1-2.1c-1.2-0.5-2.6-0.7-4.2-0.7c-3.3,0-6,1-8,3.1
		C600.8,88.4,599.7,91.5,599.7,95.7z"/>
	<path class="st1" d="M658.2,128.2c-5.7,0-10.8-1.3-15.4-3.9c-4.6-2.6-8.2-6.2-10.9-10.7s-4-9.5-4-15.1c0-5.5,1.3-10.5,4-14.9
		s6.3-7.9,10.9-10.6c4.6-2.6,9.7-3.9,15.4-3.9c5.8,0,11,1.3,15.5,3.9c4.6,2.6,8.2,6.1,10.8,10.6c2.7,4.4,4,9.4,4,14.9
		c0,5.6-1.3,10.6-4,15.1s-6.3,8.1-10.8,10.7C669.1,126.9,664,128.2,658.2,128.2z M658.1,113.9c2.9,0,5.5-0.6,7.7-1.9
		s3.9-3.1,5.2-5.4c1.2-2.3,1.8-4.9,1.8-7.9s-0.6-5.6-1.9-7.9c-1.3-2.3-3-4-5.2-5.3s-4.7-1.9-7.6-1.9c-2.8,0-5.3,0.6-7.5,1.9
		s-3.9,3.1-5.2,5.3c-1.3,2.3-1.9,4.9-1.9,7.9s0.6,5.6,1.9,7.9c1.2,2.3,3,4.1,5.2,5.4S655.3,113.9,658.1,113.9z"/>
	<path class="st1" d="M717.8,128.3c-3.2,0-6.4-0.4-9.4-1.3c-3.1-0.9-5.9-2.1-8.5-3.6s-4.8-3.4-6.7-5.6l9.1-9.3
		c2,2.2,4.2,3.8,6.8,4.9s5.4,1.6,8.6,1.6c2.5,0,4.4-0.4,5.7-1.1s1.9-1.8,1.9-3.2c0-1.6-0.7-2.8-2.1-3.6c-1.4-0.9-3.1-1.6-5.3-2.2
		s-4.5-1.2-6.9-2c-2.4-0.7-4.7-1.7-6.9-2.9c-2.2-1.2-4-2.9-5.3-5c-1.4-2.1-2.1-4.9-2.1-8.4c0-3.6,0.9-6.7,2.6-9.4
		c1.8-2.7,4.3-4.7,7.6-6.2s7.2-2.2,11.6-2.2c4.7,0,8.9,0.8,12.7,2.5c3.8,1.6,6.9,4.1,9.4,7.4l-9.3,9.3c-1.7-2.1-3.7-3.6-5.8-4.6
		c-2.2-0.9-4.5-1.4-7-1.4c-2.3,0-4,0.4-5.2,1.1s-1.8,1.7-1.8,2.9c0,1.4,0.7,2.5,2.1,3.3c1.4,0.8,3.1,1.5,5.3,2.1s4.5,1.3,6.9,2
		s4.6,1.8,6.8,3.1c2.1,1.3,3.9,3.1,5.3,5.3c1.4,2.2,2.1,5,2.1,8.4c0,5.6-2,9.9-6,13.2C730.1,126.7,724.7,128.3,717.8,128.3z"/>
</g>
<g class="st0">
	<path class="st2" d="M764.5,128.2c-2.8,0-5.1-0.9-6.9-2.8c-1.8-1.9-2.7-4.2-2.7-6.9c0-2.7,0.9-5,2.7-6.9s4.1-2.8,6.9-2.8
		c2.7,0,5,0.9,6.8,2.8s2.7,4.2,2.7,6.9c0,2.7-0.9,5-2.7,6.9C769.5,127.3,767.3,128.2,764.5,128.2z"/>
</g>
</svg>
