<?xml version="1.0" encoding="utf-8"?>
<!-- Generator: Adobe Illustrator 24.1.0, SVG Export Plug-In . SVG Version: 6.00 Build 0)  -->
<svg version="1.1" id="Layer_1" xmlns="http://www.w3.org/2000/svg" xmlns:xlink="http://www.w3.org/1999/xlink" x="0px" y="0px"
	 viewBox="0 0 24 24" style="enable-background:new 0 0 24 24;" xml:space="preserve">
<style type="text/css">
	.st0{fill:#FFFFFF;}
</style>
<path class="st0" d="M14.3,9.6L14.3,9.6c-0.1,0-0.2-0.1-0.4-0.1v4.8c0.3,0,0.4-0.1,0.5-0.2c0.1-0.1,0.1-0.4,0.1-0.9v-2.9
	c0-0.3,0-0.5,0-0.6C14.4,9.7,14.4,9.6,14.3,9.6L14.3,9.6z M22.4,0H1.6C0.7,0.1,0.1,0.7,0,1.6v20.8c0.1,0.9,0.7,1.5,1.6,1.6
	c0,0,0,0,0,0h20.8c0.9-0.1,1.5-0.8,1.6-1.7V1.7C24,0.8,23.3,0.1,22.4,0z M4.8,15.6H2.9V8.3h1.9V15.6z M11.3,15.6H9.7v-5l-0.7,5H7.8
	l-0.7-4.9l0,4.9H5.4V8.3h2.5c0.1,0.5,0.2,1,0.2,1.6l0.3,1.9l0.4-3.4h2.5L11.3,15.6L11.3,15.6z M16.3,13.4c0,0.7,0,1.1-0.1,1.3
	c-0.1,0.2-0.2,0.4-0.3,0.5c-0.1,0.1-0.3,0.2-0.6,0.3c-0.2,0-0.6,0.1-1,0.1l0,0H12V8.3h1.4c0.9,0,1.4,0,1.8,0.1
	c0.3,0.1,0.6,0.2,0.7,0.4c0.2,0.2,0.3,0.4,0.3,0.6c0,0.2,0.1,0.7,0.1,1.4L16.3,13.4L16.3,13.4z M21.3,13.9c0,0.4,0,0.8-0.1,1
	c-0.1,0.2-0.2,0.4-0.4,0.6c-0.2,0.2-0.5,0.2-0.8,0.2c-0.2,0-0.5-0.1-0.7-0.1c-0.2-0.1-0.4-0.2-0.5-0.4l-0.1,0.5H17V8.3l0,0h1.8v2.4
	c0.1-0.2,0.3-0.3,0.5-0.4c0.2-0.1,0.5-0.1,0.7-0.1c0.2,0,0.5,0,0.7,0.1c0.2,0.1,0.3,0.2,0.4,0.3c0.1,0.1,0.1,0.3,0.2,0.4
	c0,0.1,0,0.4,0,0.9L21.3,13.9L21.3,13.9z M19.1,11.2c-0.1,0-0.2,0-0.2,0.1c0,0.1-0.1,0.3-0.1,0.6v1.9c0,0.3,0,0.5,0.1,0.6
	c0,0.1,0.1,0.1,0.2,0.1c0.1,0,0.3,0,0.3-0.1c0-0.1,0-0.3,0-0.7l0,0v-1.9c0-0.3,0-0.5-0.1-0.6C19.4,11.2,19.2,11.2,19.1,11.2
	L19.1,11.2z"/>
</svg>
