<?xml version="1.0" encoding="UTF-8"?><svg id="Layer_2" xmlns="http://www.w3.org/2000/svg" viewBox="0 0 442.84 212.51"><defs><style>.cls-1{fill:#fff;stroke-width:0px;}</style></defs><path class="cls-1" d="m67.62,94.49h9.41v3.68h-2.18v7.4c-1.41.39-2.75.67-4.01.85-1.26.18-2.61.27-4.04.27-2,0-3.79-.28-5.37-.85-1.58-.57-2.92-1.38-4.01-2.44-1.09-1.06-1.93-2.34-2.51-3.84-.58-1.5-.87-3.18-.87-5.05,0-1.66.26-3.25.79-4.76.52-1.51,1.32-2.84,2.4-3.99,1.08-1.15,2.44-2.06,4.09-2.75,1.65-.68,3.6-1.02,5.85-1.02.98,0,1.85.05,2.63.14.77.09,1.48.2,2.13.34.65.14,1.23.29,1.76.46.52.17,1.02.34,1.5.49v6.65h-4.3v-3.92c-.59-.18-1.19-.31-1.79-.38-.6-.07-1.13-.1-1.59-.1-1.5,0-2.77.24-3.8.72-1.04.48-1.87,1.11-2.51,1.91-.64.8-1.09,1.71-1.36,2.73-.27,1.02-.41,2.08-.41,3.17,0,.91.11,1.86.34,2.87.23,1,.64,1.93,1.25,2.78.6.85,1.43,1.56,2.47,2.11,1.04.56,2.38.84,3.99.84.52,0,.97-.02,1.35-.05.38-.03.79-.09,1.25-.15v-4.43h-2.46v-3.68Z"/><path class="cls-1" d="m90.23,94.93c0-1.34-.28-2.25-.85-2.71-.57-.47-1.41-.7-2.52-.7-.34,0-.82.05-1.43.14-.61.09-1.13.22-1.54.38v2.39h-4.09v-4.54c.29-.16.68-.35,1.16-.56.48-.22,1.03-.41,1.65-.6s1.3-.34,2.03-.48c.73-.14,1.49-.2,2.29-.2,1.18,0,2.26.11,3.22.34.97.23,1.79.61,2.47,1.14.68.53,1.2,1.24,1.57,2.11.36.88.55,1.96.55,3.26,0,1.48-.02,2.85-.05,4.11-.03,1.26-.07,2.53-.12,3.8h2.01v3.48h-6v-1.09c0-.59.02-1.06.05-1.42.03-.35.1-.7.19-1.04h-.07c-.59,1.36-1.34,2.36-2.23,3-.9.64-2.1.96-3.6.96-1,0-1.88-.14-2.63-.41-.75-.27-1.38-.65-1.88-1.13-.5-.48-.87-1.03-1.11-1.65-.24-.62-.36-1.29-.36-2,0-.64.1-1.22.29-1.76.19-.53.45-1.01.78-1.42.33-.41.71-.76,1.14-1.04.43-.28.89-.52,1.36-.7.91-.32,1.98-.53,3.22-.65s2.73-.17,4.49-.17v-.85Zm-1.4,3.79c-.98,0-1.79.05-2.44.15-.65.1-1.17.25-1.57.44-.4.19-.68.44-.85.73-.17.3-.26.64-.26,1.02,0,.52.2,1.01.6,1.47.4.46,1.08.68,2.03.68.48,0,.94-.08,1.4-.24s.86-.42,1.23-.78.65-.83.87-1.4c.22-.57.32-1.26.32-2.08h-1.33Z"/><path class="cls-1" d="m100.7,83.54h-2.73v-3.48h7.5v22.75h2.05v3.48h-8.76v-3.48h1.94v-19.27Z"/><path class="cls-1" d="m130.61,88.45h8.53v3.48h-1.64l-6.17,14.36h-4.98l-2.39-6.17c-.09-.23-.17-.46-.24-.7-.07-.24-.12-.52-.17-.84h-.07c-.09.59-.24,1.1-.44,1.53l-2.69,6.17h-4.98l-6-14.36h-1.67v-3.48h8.53v3.48h-1.67c.16.25.31.55.44.89.14.34.27.7.41,1.09l2.18,6.04c.11.34.22.67.31.99s.17.67.24,1.06h.07c.09-.36.2-.71.34-1.04s.28-.68.44-1.04l2.66-5.93-.82-2.05h-1.91v-3.48h8.66v3.48h-1.84c.16.25.31.55.44.89.14.34.27.7.41,1.09l2.22,6.04c.16.41.27.76.34,1.04.07.28.14.62.21,1.01h.07c.07-.39.14-.72.2-1.01.07-.28.18-.63.34-1.04l2.15-6.04c.14-.39.27-.75.41-1.09.14-.34.28-.64.44-.89h-2.35v-3.48Z"/><path class="cls-1" d="m151.32,94.93c0-1.34-.28-2.25-.85-2.71-.57-.47-1.41-.7-2.52-.7-.34,0-.82.05-1.43.14-.61.09-1.13.22-1.54.38v2.39h-4.09v-4.54c.29-.16.68-.35,1.16-.56.48-.22,1.03-.41,1.65-.6s1.3-.34,2.03-.48c.73-.14,1.49-.2,2.29-.2,1.18,0,2.26.11,3.22.34.97.23,1.79.61,2.47,1.14.68.53,1.2,1.24,1.57,2.11.36.88.55,1.96.55,3.26,0,1.48-.02,2.85-.05,4.11-.03,1.26-.07,2.53-.12,3.8h2.01v3.48h-6v-1.09c0-.59.02-1.06.05-1.42.03-.35.1-.7.19-1.04h-.07c-.59,1.36-1.34,2.36-2.23,3-.9.64-2.1.96-3.6.96-1,0-1.88-.14-2.63-.41-.75-.27-1.38-.65-1.88-1.13-.5-.48-.87-1.03-1.11-1.65-.24-.62-.36-1.29-.36-2,0-.64.1-1.22.29-1.76.19-.53.45-1.01.78-1.42.33-.41.71-.76,1.14-1.04.43-.28.89-.52,1.36-.7.91-.32,1.98-.53,3.22-.65s2.73-.17,4.49-.17v-.85Zm-1.4,3.79c-.98,0-1.79.05-2.44.15-.65.1-1.17.25-1.57.44-.4.19-.68.44-.85.73-.17.3-.26.64-.26,1.02,0,.52.2,1.01.6,1.47.4.46,1.08.68,2.03.68.48,0,.94-.08,1.4-.24s.86-.42,1.23-.78.65-.83.87-1.4c.22-.57.32-1.26.32-2.08h-1.33Z"/><path class="cls-1" d="m170.07,88.45h7.98v3.48h-1.64l-5.49,14.73c-.64,1.71-1.26,3.12-1.86,4.23-.6,1.11-1.25,2-1.94,2.64s-1.46,1.1-2.3,1.35c-.84.25-1.82.38-2.93.38-.36,0-.77-.04-1.23-.12-.46-.08-.91-.18-1.36-.29v-3.68c.46.11.91.21,1.36.29.46.08.86.12,1.23.12.5,0,.94-.06,1.31-.17s.73-.32,1.06-.63c.33-.31.66-.73.99-1.26.33-.53.7-1.21,1.11-2.03l-6.82-15.55h-1.64v-3.48h8.87v3.48h-1.84c.14.18.26.38.36.58.1.2.2.42.29.65l2.25,6.07c.18.48.35,1.03.5,1.65.15.63.26,1.2.32,1.72h.07c.07-.52.18-1.1.32-1.72.15-.62.31-1.18.5-1.65l2.11-6.07c.09-.23.19-.44.29-.65s.22-.4.36-.58h-2.22v-3.48Z"/><path class="cls-1" d="m202.82,85.89h-5.63v6.62h6.58v3.68h-6.58v6.62h2.69v3.48h-9.82v-3.48h2.15v-16.92h-2.56v-3.48h17.26l.21,7.03h-4.09l-.21-3.55Z"/><path class="cls-1" d="m210.73,91.93h-2.32v-3.48h7.09v14.36h2.05v3.48h-8.77v-3.48h1.94v-10.88Zm-.99-9.41c0-.89.28-1.6.85-2.15.57-.55,1.35-.82,2.35-.82s1.78.27,2.35.82c.57.55.85,1.26.85,2.15s-.29,1.6-.85,2.15c-.57.55-1.35.82-2.35.82s-1.79-.27-2.35-.82c-.57-.55-.85-1.26-.85-2.15Z"/><path class="cls-1" d="m221.74,83.54h-2.73v-3.48h7.5v22.75h2.05v3.48h-8.76v-3.48h1.94v-19.27Z"/><path class="cls-1" d="m254.38,102.81h1.74v-7.33c0-1.23-.29-2.09-.87-2.59-.58-.5-1.33-.75-2.23-.75-1.16,0-2.08.43-2.76,1.3-.68.86-1.02,2.01-1.02,3.44v5.93h2.05v3.48h-8.56v-3.48h1.74v-7.33c0-1.23-.29-2.09-.87-2.59-.58-.5-1.32-.75-2.23-.75-.64,0-1.19.12-1.65.36-.47.24-.86.57-1.18,1.01-.32.43-.56.93-.72,1.5-.16.57-.24,1.19-.24,1.88v5.93h2.05v3.48h-8.77v-3.48h1.94v-10.88h-2.32v-3.48h6.99c0,.61-.01,1.22-.03,1.81s-.1,1.19-.24,1.81h.07c.5-1.3,1.28-2.29,2.34-2.98,1.06-.69,2.34-1.04,3.84-1.04s2.66.34,3.55,1.01c.89.67,1.46,1.68,1.71,3.02h.07c.43-1.25,1.14-2.23,2.13-2.95s2.27-1.07,3.84-1.07c2.12,0,3.67.63,4.67,1.88,1,1.25,1.5,2.94,1.5,5.08v7.81h2.05v3.48h-8.56v-3.48Z"/><path class="cls-1" d="m288.62,85.89h-5.63v6.62h6.58v3.68h-6.58v6.62h2.69v3.48h-9.82v-3.48h2.15v-16.92h-2.56v-3.48h17.26l.21,7.03h-4.09l-.21-3.55Z"/><path class="cls-1" d="m296.84,83.54h-2.73v-3.48h7.5v22.75h2.05v3.48h-8.76v-3.48h1.94v-19.27Z"/><path class="cls-1" d="m310.83,98.44c.07,1.43.61,2.55,1.62,3.36s2.36,1.21,4.04,1.21c1.14,0,2.13-.1,2.98-.29.85-.19,1.78-.51,2.78-.94l-.24,3.79c-1.12.41-2.18.7-3.21.87-1.02.17-2.15.26-3.38.26-1.73,0-3.21-.25-4.43-.75-1.23-.5-2.24-1.17-3.04-2.01-.8-.84-1.38-1.82-1.76-2.95s-.56-2.3-.56-3.53c0-1.39.2-2.66.61-3.82s1-2.15,1.77-2.98c.77-.83,1.71-1.47,2.81-1.93,1.1-.45,2.36-.68,3.77-.68,1.52,0,2.83.27,3.92.82,1.09.55,1.99,1.28,2.69,2.22.71.93,1.22,2.04,1.54,3.31s.48,2.63.48,4.06h-12.42Zm7.23-3.27c0-1.23-.32-2.18-.97-2.85-.65-.67-1.53-1.01-2.64-1.01s-1.94.34-2.56,1.01c-.61.67-.98,1.62-1.09,2.85h7.26Z"/><path class="cls-1" d="m336.88,94.93c0-1.34-.28-2.25-.85-2.71-.57-.47-1.41-.7-2.52-.7-.34,0-.82.05-1.43.14-.61.09-1.13.22-1.54.38v2.39h-4.09v-4.54c.29-.16.68-.35,1.16-.56.48-.22,1.03-.41,1.65-.6s1.3-.34,2.03-.48c.73-.14,1.49-.2,2.29-.2,1.18,0,2.26.11,3.22.34.97.23,1.79.61,2.47,1.14.68.53,1.2,1.24,1.57,2.11.36.88.55,1.96.55,3.26,0,1.48-.02,2.85-.05,4.11-.03,1.26-.07,2.53-.12,3.8h2.01v3.48h-6v-1.09c0-.59.02-1.06.05-1.42.03-.35.1-.7.19-1.04h-.07c-.59,1.36-1.34,2.36-2.23,3-.9.64-2.1.96-3.6.96-1,0-1.88-.14-2.63-.41-.75-.27-1.38-.65-1.88-1.13-.5-.48-.87-1.03-1.11-1.65-.24-.62-.36-1.29-.36-2,0-.64.1-1.22.29-1.76.19-.53.45-1.01.78-1.42.33-.41.71-.76,1.14-1.04.43-.28.89-.52,1.36-.7.91-.32,1.98-.53,3.22-.65s2.73-.17,4.49-.17v-.85Zm-1.4,3.79c-.98,0-1.79.05-2.44.15-.65.1-1.17.25-1.57.44-.4.19-.68.44-.85.73-.17.3-.26.64-.26,1.02,0,.52.2,1.01.6,1.47.4.46,1.08.68,2.03.68.48,0,.94-.08,1.4-.24s.86-.42,1.23-.78.65-.83.87-1.4c.22-.57.32-1.26.32-2.08h-1.33Z"/><path class="cls-1" d="m358.33,83.54h-2.73v-3.48h7.5v22.75h2.05v3.48h-6.72c0-.66.03-1.26.1-1.79.07-.53.17-1.09.31-1.65h-.07c-.55,1.25-1.32,2.21-2.32,2.87-1,.66-2.25.99-3.75.99-.98,0-1.91-.18-2.78-.53-.88-.35-1.65-.87-2.32-1.55s-1.2-1.53-1.59-2.54-.58-2.19-.58-3.53c0-1.23.16-2.46.49-3.7.33-1.24.88-2.36,1.64-3.38.76-1.01,1.78-1.84,3.05-2.47,1.27-.64,2.87-.95,4.78-.95.41,0,.88.03,1.42.1s1.04.17,1.52.31v-4.91Zm-.14,9.04c-.32-.18-.77-.34-1.36-.46-.59-.12-1.15-.19-1.67-.19-.86,0-1.6.16-2.2.48-.6.32-1.09.73-1.47,1.25s-.65,1.1-.82,1.76c-.17.66-.26,1.33-.26,2.01s.08,1.37.24,2c.16.63.4,1.18.72,1.65.32.48.7.85,1.14,1.13s.96.41,1.55.41c.64,0,1.2-.13,1.71-.39.5-.26.93-.62,1.3-1.07.36-.45.64-.98.84-1.59.19-.6.29-1.25.29-1.93v-5.05Z"/><path class="cls-1" d="m369.76,83.54h-2.73v-3.48h7.4v8.39c0,.61-.01,1.22-.03,1.81-.02.59-.1,1.22-.24,1.88h.07c.45-1.18,1.21-2.16,2.25-2.93,1.05-.77,2.35-1.16,3.92-1.16,2.12,0,3.67.63,4.67,1.88,1,1.25,1.5,2.94,1.5,5.08v7.81h2.05v3.48h-8.77v-3.48h1.94v-7.33c0-1.23-.29-2.09-.87-2.59-.58-.5-1.33-.75-2.23-.75-.73,0-1.35.12-1.88.36s-.96.57-1.3,1.01c-.34.43-.59.93-.75,1.5-.16.57-.24,1.19-.24,1.88v5.93h2.05v3.48h-8.77v-3.48h1.94v-19.27Z"/><path class="cls-1" d="m91.21,199.18c.2-2.4.18-7.12-2.03-12.44-2.56-6.15-10.27-8.8-10.27-8.8,0,0-1.87,8.89,1.77,14.74,1.17,1.89,3.39,3.74,5.48,5.2-3.33-.96-7.04-2.23-11.01-3.93.6-2.27,1.41-6.85.17-12.4-1.42-6.37-8.42-10.24-8.42-10.24,0,0-3.31,8.26-.8,14.53.82,2.05,2.69,4.24,4.48,6.03-2.17-1.05-4.39-2.23-6.66-3.56-1.25-.68-2.5-1.42-3.76-2.2.96-2.03,2.59-6.37,2.33-12.07-.29-6.39-6.38-11.32-6.38-11.32,0,0-4.6,7.41-3.24,13.88.48,2.27,2.09,4.92,3.6,7.02-3.26-2.34-6.49-5.03-9.61-8.04,1.27-1.78,3.61-5.71,4.33-11.29.82-6.21-4.23-12.01-4.23-12.01,0,0-5.7,6.37-5.49,12.85.07,2.23,1.14,5,2.22,7.27-2.78-2.95-5.45-6.15-7.95-9.57,1.55-1.55,4.39-4.91,6-10.06,1.84-5.86-2.04-12.31-2.04-12.31,0,0-6.59,5.18-7.49,11.46-.3,2.06.19,4.73.81,7.02-2.18-3.29-4.21-6.76-6.03-10.38,1.74-1.21,5.11-3.98,7.57-8.74,2.78-5.34.13-12.23.13-12.23,0,0-7.24,3.87-9.18,9.79-.67,2.04-.61,4.88-.38,7.28-1.68-3.72-3.13-7.58-4.33-11.56,1.84-.83,5.66-2.93,8.92-7.2,3.59-4.68,2.21-11.78,2.21-11.78,0,0-7.65,2.51-10.52,7.89-1.06,1.97-1.48,4.97-1.64,7.41-1.06-4.12-1.83-8.36-2.27-12.69,1.88-.47,5.99-1.84,9.91-5.45,4.26-3.91,4.14-10.99,4.14-10.99,0,0-7.81,1.12-11.5,5.82-1.37,1.74-2.29,4.6-2.86,6.94-.42-4.5-.46-8.99-.17-13.4,1.82-.11,6.12-.69,10.65-3.58,4.78-3.05,5.86-9.9,5.86-9.9,0,0-7.73-.25-12.09,3.66-1.75,1.57-3.21,4.48-4.17,6.73.48-4.75,1.32-9.42,2.49-13.96,1.8.2,6.03.36,10.85-1.65,5.13-2.13,7.34-8.56,7.34-8.56,0,0-7.42-1.55-12.29,1.48-1.89,1.17-3.74,3.61-5.03,5.59,1.33-4.52,2.97-8.9,4.86-13.08,1.7.5,5.75,1.37,10.75.25,5.32-1.18,8.54-7.01,8.54-7.01,0,0-6.89-2.76-12.11-.66-2.03.82-4.25,2.87-5.84,4.57,2.1-4.29,4.47-8.35,7.02-12.13,1.43.73,5.29,2.4,10.51,2.16,5.33-.24,9.44-5.32,9.44-5.32,0,0-6.18-3.84-11.57-2.7-2.33.49-5.13,2.41-6.98,3.85,2.93-4.12,6.09-7.87,9.37-11.16,1.1.86,4.63,3.31,9.94,4,5.19.68,10.02-3.52,10.02-3.52,0,0-5.31-4.76-10.72-4.58-2.56.08-5.96,1.73-7.95,2.83,1.81-1.74,3.66-3.35,5.53-4.8,2.09-1.74,4.15-3.31,6.18-4.75.95,1.05,3.93,3.97,8.89,5.53,4.88,1.54,10.26-1.7,10.26-1.7,0,0-4.32-5.49-9.56-6.24-2.45-.35-5.94.63-8.06,1.34,4.58-3.13,8.92-5.54,12.78-7.4.59.98,2.97,4.54,7.74,7.01,4.46,2.32,10.19.11,10.19.11,0,0-3.24-6.03-8.16-7.65-2.58-.84-6.7-.31-8.72.04,3.44-1.6,6.47-2.76,8.91-3.6,1.05.52,4.53,2.02,7.67.94,4.7-1.61,7.02-4.78,7.02-4.78,0,0-4.85-1.86-7.73-1.37-3.61.62-6.56,4.13-7.17,4.89-2,.63-4.4,1.47-7.1,2.58,1.74-1.19,4.93-3.59,6.16-5.92,2.43-4.59.57-11.18.57-11.18,0,0-5.67,2.4-7.27,7.15-1.74,5.16-.93,9.43-.69,10.46-3.92,1.7-8.41,3.97-13.21,7.01,1.57-1.58,4.06-4.34,4.82-6.73,1.63-5.05-1.41-11.33-1.41-11.33,0,0-5.27,3.41-6.03,8.48-.81,5.36.66,9.43,1.13,10.55-2.57,1.69-5.21,3.6-7.88,5.76-1.19.9-2.37,1.86-3.55,2.88,1.26-1.9,2.83-4.63,3.13-6.85.74-5.36-3.43-11.14-3.43-11.14,0,0-4.69,4.36-4.56,9.59.13,5.19,2.06,8.88,2.86,10.18-3.3,3.06-6.5,6.59-9.5,10.48.89-2.11,1.87-4.95,1.8-7.11-.21-5.51-5.42-10.59-5.42-10.59,0,0-3.94,5.21-2.88,10.44,1.04,5.17,3.63,8.53,4.67,9.71-2.75,3.8-5.31,7.91-7.62,12.29.54-2.3,1.07-5.42.59-7.64-1.18-5.51-7.32-9.68-7.32-9.68,0,0-3.03,5.94-1.05,11.01,1.98,5.05,5.21,7.97,6.44,8.96-2.01,4.1-3.79,8.39-5.27,12.85.1-2.32.01-5.23-.79-7.21-2.16-5.32-9.07-8.42-9.07-8.42,0,0-2,6.5.9,11.24,2.79,4.57,6.4,6.94,7.91,7.78-1.22,4.16-2.17,8.44-2.82,12.82-.34-2.18-.93-4.64-1.95-6.27-3.12-4.96-10.61-6.86-10.61-6.86,0,0-.85,6.89,2.89,11.14,3.47,3.93,7.34,5.7,9.12,6.34-.42,4.22-.55,8.51-.35,12.84-.72-2.1-1.74-4.41-3.04-5.85-4.01-4.44-11.87-5.02-11.87-5.02,0,0,.36,7.08,4.88,10.69,4.22,3.37,8.46,4.44,10.34,4.76.27,4.1.82,8.13,1.64,12.07-1.08-1.93-2.48-3.98-3.99-5.16-4.82-3.75-12.82-2.93-12.82-2.93,0,0,1.62,7.04,6.8,9.87,4.76,2.6,9.15,2.95,11.14,2.95,1.05,3.96,2.35,7.82,3.87,11.56-1.44-1.77-3.23-3.63-4.99-4.56-5.51-2.91-13.41-.67-13.41-.67,0,0,2.87,6.79,8.58,8.71,5.27,1.77,9.76,1.34,11.75.99,1.74,3.76,3.71,7.37,5.84,10.82-1.78-1.55-3.95-3.15-5.91-3.78-6.05-1.95-13.59,1.7-13.59,1.7,0,0,4.09,6.31,10.17,7.23,5.62.85,10.06-.39,11.99-1.09,2.26,3.29,4.67,6.41,7.19,9.32-1.95-1.12-4.16-2.17-6.07-2.43-6.42-.89-13.36,4.11-13.36,4.11,0,0,5.23,5.62,11.5,5.47,5.58-.14,9.72-2.02,11.64-3.1,2.68,2.77,5.46,5.31,8.28,7.6-2-.69-4.18-1.23-5.97-1.17-6.61.24-12.69,6.5-12.69,6.5,0,0,6.25,4.72,12.53,3.46,5.48-1.11,9.27-3.66,11.05-5.1,2,1.38,4.01,2.63,6.01,3.74,1.27.76,2.52,1.47,3.76,2.13-2.21-.37-4.6-.56-6.47-.16-6.6,1.42-11.6,8.78-11.6,8.78,0,0,7.12,3.64,13.2,1.26,5.39-2.11,8.76-5.42,10.27-7.16,3.65,1.71,7.12,3.07,10.32,4.15-2.26.03-4.64.27-6.41.99-6.38,2.59-10.11,10.88-10.11,10.88,0,0,7.8,2.39,13.49-1.08,5.02-3.06,7.82-6.95,9.03-8.98,9.13,2.42,14.76,2.78,14.76,2.78l.17-1.64.17-1.64s-4.39-.3-11.77-1.97Zm344.78-70.61c5.18-2.83,6.8-9.87,6.8-9.87,0,0-8-.81-12.82,2.93-1.51,1.18-2.91,3.23-3.99,5.16.82-3.94,1.37-7.97,1.64-12.07,1.88-.32,6.12-1.4,10.34-4.76,4.52-3.61,4.88-10.69,4.88-10.69,0,0-7.86.58-11.87,5.02-1.3,1.44-2.31,3.75-3.04,5.85.2-4.33.07-8.62-.36-12.84,1.78-.65,5.66-2.41,9.12-6.34,3.75-4.25,2.89-11.14,2.89-11.14,0,0-7.49,1.9-10.61,6.86-1.03,1.64-1.61,4.1-1.95,6.28-.65-4.38-1.6-8.66-2.82-12.82,1.51-.84,5.12-3.21,7.91-7.78,2.9-4.74.9-11.24.9-11.24,0,0-6.91,3.1-9.08,8.42-.8,1.98-.89,4.88-.79,7.21-1.48-4.46-3.26-8.75-5.27-12.85,1.23-.98,4.46-3.91,6.44-8.96,1.99-5.07-1.05-11.01-1.05-11.01,0,0-6.13,4.17-7.32,9.68-.48,2.22.05,5.35.59,7.64-2.3-4.37-4.87-8.49-7.62-12.29,1.04-1.18,3.63-4.54,4.67-9.71,1.05-5.23-2.88-10.44-2.88-10.44,0,0-5.22,5.07-5.42,10.59-.08,2.17.9,5,1.8,7.11-3.01-3.89-6.21-7.42-9.51-10.48.8-1.31,2.73-5,2.86-10.18.13-5.23-4.56-9.59-4.56-9.59,0,0-4.17,5.78-3.43,11.14.3,2.22,1.87,4.94,3.13,6.85-1.18-1.02-2.36-1.98-3.55-2.88-2.68-2.16-5.32-4.07-7.88-5.76.47-1.12,1.94-5.2,1.13-10.55-.77-5.07-6.03-8.48-6.03-8.48,0,0-3.05,6.29-1.41,11.33.77,2.39,3.25,5.15,4.83,6.73-4.8-3.05-9.28-5.31-13.21-7.01.24-1.04,1.04-5.31-.69-10.46-1.6-4.76-7.27-7.15-7.27-7.15,0,0-1.86,6.59.57,11.18,1.23,2.33,4.42,4.72,6.16,5.92-2.7-1.12-5.09-1.95-7.1-2.58-.61-.76-3.56-4.27-7.16-4.89-2.89-.49-7.74,1.37-7.74,1.37,0,0,2.33,3.17,7.02,4.78,3.15,1.08,6.63-.42,7.67-.94,2.44.84,5.47,2,8.91,3.6-2.02-.35-6.14-.88-8.72-.04-4.93,1.62-8.17,7.65-8.17,7.65,0,0,5.74,2.21,10.2-.11,4.77-2.47,7.15-6.03,7.74-7.01,3.86,1.86,8.21,4.27,12.78,7.4-2.12-.72-5.61-1.7-8.06-1.35-5.24.75-9.56,6.24-9.56,6.24,0,0,5.38,3.23,10.27,1.7,4.96-1.55,7.94-4.48,8.89-5.53,2.03,1.44,4.09,3.01,6.18,4.75,1.86,1.45,3.71,3.05,5.53,4.8-1.99-1.1-5.39-2.75-7.96-2.83-5.4-.18-10.71,4.58-10.71,4.58,0,0,4.83,4.2,10.02,3.52,5.31-.69,8.84-3.14,9.94-4,3.28,3.3,6.44,7.04,9.37,11.16-1.85-1.44-4.65-3.36-6.98-3.85-5.4-1.14-11.57,2.7-11.57,2.7,0,0,4.11,5.08,9.44,5.32,5.22.24,9.09-1.43,10.51-2.16,2.55,3.78,4.92,7.84,7.02,12.14-1.59-1.7-3.8-3.76-5.84-4.57-5.22-2.1-12.11.66-12.11.66,0,0,3.23,5.83,8.54,7.01,5,1.12,9.05.25,10.75-.25,1.89,4.18,3.53,8.56,4.86,13.09-1.3-1.98-3.15-4.42-5.04-5.59-4.87-3.03-12.29-1.48-12.29-1.48,0,0,2.21,6.43,7.34,8.56,4.82,2.01,9.05,1.85,10.85,1.65,1.17,4.53,2.01,9.2,2.49,13.96-.95-2.25-2.42-5.16-4.16-6.73-4.36-3.91-12.09-3.66-12.09-3.66,0,0,1.08,6.85,5.86,9.9,4.52,2.89,8.83,3.47,10.65,3.58.29,4.42.24,8.9-.17,13.41-.57-2.35-1.49-5.2-2.86-6.94-3.69-4.71-11.5-5.82-11.5-5.82,0,0-.13,7.08,4.14,10.99,3.92,3.61,8.03,4.98,9.91,5.45-.44,4.33-1.21,8.57-2.27,12.69-.16-2.45-.58-5.44-1.64-7.41-2.87-5.38-10.52-7.89-10.52-7.89,0,0-1.38,7.09,2.2,11.78,3.26,4.27,7.08,6.37,8.92,7.2-1.2,3.98-2.66,7.84-4.33,11.56.23-2.4.29-5.24-.38-7.28-1.94-5.92-9.18-9.79-9.18-9.79,0,0-2.65,6.88.13,12.23,2.47,4.76,5.83,7.53,7.57,8.74-1.82,3.62-3.85,7.08-6.03,10.38.62-2.3,1.1-4.96.81-7.02-.9-6.29-7.48-11.46-7.48-11.46,0,0-3.88,6.45-2.04,12.31,1.61,5.14,4.45,8.51,6,10.06-2.51,3.42-5.17,6.62-7.96,9.57,1.08-2.27,2.15-5.03,2.22-7.26.21-6.48-5.5-12.85-5.5-12.85,0,0-5.03,5.79-4.22,12.01.73,5.58,3.06,9.51,4.33,11.29-3.12,3.01-6.34,5.7-9.61,8.04,1.52-2.1,3.13-4.75,3.6-7.02,1.36-6.47-3.25-13.88-3.25-13.88,0,0-6.09,4.93-6.38,11.32-.26,5.69,1.38,10.04,2.33,12.07-1.25.79-2.51,1.53-3.76,2.2-2.27,1.33-4.49,2.5-6.66,3.56,1.79-1.78,3.65-3.98,4.48-6.03,2.51-6.27-.8-14.53-.8-14.53,0,0-6.99,3.87-8.42,10.24-1.24,5.55-.43,10.13.17,12.4-3.97,1.7-7.68,2.97-11.01,3.93,2.08-1.47,4.3-3.31,5.48-5.2,3.64-5.85,1.77-14.74,1.77-14.74,0,0-7.71,2.65-10.27,8.8-2.21,5.32-2.23,10.04-2.03,12.44-7.38,1.67-11.77,1.97-11.77,1.97l.17,1.64.17,1.64s5.62-.36,14.76-2.78c1.21,2.03,4.01,5.92,9.03,8.98,5.69,3.47,13.49,1.08,13.49,1.08,0,0-3.72-8.29-10.11-10.88-1.77-.72-4.15-.96-6.41-.99,3.2-1.08,6.67-2.44,10.32-4.15,1.5,1.74,4.88,5.05,10.27,7.16,6.08,2.38,13.2-1.26,13.2-1.26,0,0-5.01-7.36-11.6-8.78-1.87-.4-4.25-.21-6.47.16,1.24-.67,2.5-1.38,3.77-2.13,2-1.11,4.01-2.36,6.01-3.74,1.78,1.44,5.57,3.99,11.05,5.1,6.27,1.27,12.53-3.46,12.53-3.46,0,0-6.08-6.26-12.69-6.5-1.79-.07-3.96.47-5.97,1.17,2.83-2.29,5.6-4.83,8.29-7.6,1.92,1.08,6.06,2.96,11.64,3.1,6.27.15,11.5-5.47,11.5-5.47,0,0-6.93-5-13.36-4.11-1.9.26-4.12,1.31-6.07,2.43,2.52-2.91,4.93-6.02,7.19-9.32,1.93.7,6.37,1.94,11.99,1.09,6.08-.92,10.17-7.23,10.17-7.23,0,0-7.54-3.65-13.59-1.7-1.96.63-4.13,2.23-5.91,3.78,2.13-3.44,4.09-7.06,5.84-10.82,1.99.35,6.48.78,11.75-.99,5.71-1.92,8.58-8.71,8.58-8.71,0,0-7.9-2.24-13.41.67-1.75.93-3.54,2.79-4.99,4.56,1.52-3.74,2.82-7.6,3.87-11.56,2,0,6.38-.36,11.14-2.95Z"/><rect class="cls-1" x="53.64" y="117.57" width="335.38" height="1"/><path class="cls-1" d="m205.67,61.33v.07c3.67.14,5.85,2.38,5.85,5.75,0,4.35-3.4,7.41-10.1,7.41-3.26,0-5.44-.51-7.34-1.43v-4.59c2.41,1.33,4.86,1.94,7,1.94,3.54,0,5.47-1.26,5.47-3.57s-2.21-3.5-7-3.5v-3.26c3.91,0,6.05-1.73,6.05-4.15,0-1.63-1.26-2.72-3.06-2.72-2.01,0-3.77,1.43-3.77,3.47h-4.76c.17-4.22,3.84-7.14,8.84-7.14,4.69,0,7.72,2.48,7.72,6.02,0,2.82-2.04,5.3-4.9,5.71Z"/><path class="cls-1" d="m231.85,50.18v2.99l-8.36,16.76c-.85,1.73-1.7,3.06-2.41,4.05h-5.37c1.05-1.53,1.9-2.89,2.65-4.28l7.17-13.53c.31-.58.65-1.19,1.43-2.11h-11.86v-3.88h16.76Z"/><path class="cls-1" d="m238.2,52.29h2.78v2.02h-2.78v4.7c0,1.21.3,1.74,1.51,1.74.42,0,.89-.14,1.37-.32l-.1,1.96c-1.03.38-1.72.5-2.42.5-2.12,0-3.13-1.03-3.13-2.72v-5.87h-1.41v-2.02h1.41v-2.14l2.78-.16v2.3Z"/><path class="cls-1" d="m245.47,47.41v5.05c0,.65-.02,1.33-.16,1.96h.04c.54-1.37,1.76-2.38,3.59-2.38,2.48,0,3.59,1.65,3.59,3.96v4.62h1.19v2.02h-5.09v-2.02h1.13v-4.32c0-1.29-.71-1.88-1.8-1.88-1.57,0-2.42,1.09-2.42,2.68v3.53h1.19v2.02h-5.09v-2.02h1.13v-11.2h-1.58v-2.02h4.3Z"/><path class="cls-1" d="m105.35,137.84c0-2.18.23-4.06.7-5.64.46-1.59,1.12-2.89,1.97-3.91.85-1.02,1.88-1.78,3.09-2.28,1.21-.5,2.57-.75,4.06-.75s2.85.24,4.06.73c1.21.49,2.24,1.24,3.09,2.26.85,1.02,1.51,2.32,1.97,3.91.46,1.59.7,3.48.7,5.68s-.23,4.09-.68,5.68c-.45,1.59-1.11,2.89-1.96,3.91-.85,1.02-1.88,1.77-3.09,2.26-1.21.49-2.58.73-4.1.73s-2.88-.24-4.1-.73c-1.21-.49-2.24-1.24-3.09-2.26-.85-1.02-1.5-2.32-1.95-3.91-.45-1.59-.68-3.48-.68-5.68Zm15.06,0c0-1.79-.12-3.27-.37-4.44-.25-1.17-.6-2.09-1.05-2.75-.45-.67-1-1.13-1.65-1.39-.65-.26-1.37-.39-2.16-.39s-1.51.13-2.14.39c-.63.26-1.19.73-1.65,1.39-.46.67-.82,1.59-1.07,2.75s-.37,2.65-.37,4.44.12,3.26.37,4.42c.25,1.16.61,2.07,1.07,2.75.46.68,1.01,1.15,1.65,1.41.63.26,1.35.39,2.14.39s1.51-.13,2.16-.39c.65-.26,1.2-.73,1.65-1.41.45-.68.8-1.6,1.05-2.75.25-1.16.37-2.63.37-4.42Z"/><path class="cls-1" d="m131.74,149.86c-.09.05-.22.09-.38.12-.13.03-.29.06-.49.07-.2.02-.42.02-.68.02s-.47,0-.65-.02c-.18-.02-.34-.04-.46-.07-.16-.03-.29-.07-.38-.12v-16.92h9.59c.08.19.14.39.18.58s.06.41.06.63c0,.44-.08.86-.24,1.24h-6.54v5.14h5.83c.16.32.24.71.24,1.17,0,.49-.08.92-.24,1.29h-5.83v6.88Z"/><path class="cls-1" d="m144.33,149.86c-.1.05-.22.09-.38.12-.13.03-.29.06-.49.07-.2.02-.42.02-.68.02s-.47,0-.66-.02c-.18-.02-.34-.04-.46-.07-.16-.03-.29-.07-.38-.12v-16.92h9.59c.08.19.14.39.18.58.04.2.06.41.06.63,0,.44-.08.86-.24,1.24h-6.54v5.14h5.83c.16.32.24.71.24,1.17,0,.49-.08.92-.24,1.29h-5.83v6.88Z"/><path class="cls-1" d="m153.85,133.16c.09-.03.22-.06.38-.1.13-.03.28-.06.46-.08.18-.02.4-.04.65-.04s.48.01.68.04c.2.02.36.05.49.08.16.03.29.06.38.1v16.71c-.11.05-.25.09-.4.12-.13.03-.29.06-.48.07-.19.02-.41.02-.64.02-.27,0-.5,0-.69-.02-.19-.02-.35-.04-.48-.07-.14-.03-.26-.07-.36-.12v-16.71Z"/><path class="cls-1" d="m160.04,141.51c0-2.89.61-5.08,1.83-6.57,1.22-1.49,3.01-2.24,5.38-2.24.67,0,1.25.04,1.76.13.51.09.94.19,1.29.3.41.13.77.26,1.07.4.03.49-.04.92-.23,1.27-.18.36-.41.69-.68.99-.29-.1-.58-.17-.88-.24-.27-.06-.58-.12-.92-.18s-.7-.08-1.08-.08c-.63,0-1.22.1-1.75.29-.53.19-.99.52-1.38.99-.39.47-.69,1.1-.9,1.9-.21.8-.32,1.82-.32,3.06s.11,2.25.32,3.05c.21.79.52,1.42.9,1.88.39.46.85.78,1.38.95.53.17,1.11.26,1.75.26.43,0,.83-.02,1.2-.07.37-.05.7-.1.99-.17.33-.06.64-.15.93-.26.3.27.53.61.68,1.02.15.41.23.84.23,1.29-.33.16-.71.3-1.14.43-.37.11-.82.21-1.36.29-.54.08-1.16.12-1.86.12-2.36,0-4.16-.75-5.38-2.24s-1.83-3.68-1.83-6.57Z"/><path class="cls-1" d="m174.15,133.16c.09-.03.22-.06.38-.1.13-.03.28-.06.46-.08.18-.02.4-.04.65-.04s.48.01.68.04c.2.02.36.05.49.08.16.03.29.06.38.1v16.71c-.11.05-.25.09-.4.12-.13.03-.29.06-.48.07-.19.02-.41.02-.64.02-.27,0-.5,0-.69-.02-.19-.02-.35-.04-.48-.07-.14-.03-.26-.07-.36-.12v-16.71Z"/><path class="cls-1" d="m185.17,133.16c.16-.03.33-.06.52-.1.17-.03.37-.06.59-.08.22-.02.47-.04.74-.04.29,0,.54.01.77.04.23.02.42.05.58.08.17.03.34.06.5.1l5.69,16.71c-.1.05-.23.09-.41.12-.14.03-.32.06-.54.07-.21.02-.46.02-.73.02s-.49,0-.67-.02c-.17-.02-.33-.04-.45-.07-.14-.03-.26-.07-.36-.12l-1.29-3.81h-6.5l-1.29,3.81c-.11.05-.24.09-.38.12-.13.03-.28.06-.46.07-.18.02-.39.02-.63.02-.22,0-.42,0-.59-.02-.17-.02-.33-.04-.45-.07-.14-.03-.26-.07-.36-.12l5.69-16.71Zm1.69,2.98c-.06.24-.13.5-.19.79-.06.24-.13.52-.21.83-.08.32-.18.66-.31,1.02l-1.67,4.83h4.83l-1.62-4.83c-.13-.36-.23-.71-.32-1.04s-.16-.61-.23-.84l-.19-.76h-.1Z"/><path class="cls-1" d="m196.88,133.16c.1-.03.22-.06.38-.1.13-.03.28-.06.46-.08.18-.02.4-.04.66-.04s.48.01.68.04c.2.02.36.05.49.08.16.03.29.06.38.1v14.3h6.83c.08.19.14.4.18.63s.06.46.06.68-.02.44-.06.65c-.04.21-.1.43-.18.65h-9.88v-16.92Z"/><path class="cls-1" d="m216.43,132.43c0-1.06.17-2.04.53-2.92.35-.88.88-1.64,1.6-2.26.71-.62,1.6-1.11,2.67-1.46,1.06-.35,2.32-.53,3.77-.53,1.07,0,2.02.06,2.86.17.84.11,1.55.23,2.14.34.7.16,1.31.33,1.84.51,0,.59-.1,1.2-.29,1.82-.19.62-.48,1.15-.87,1.58-.43-.14-.92-.26-1.46-.37-.45-.09-.99-.18-1.6-.25s-1.28-.12-2.01-.12c-3.24,0-4.86,1.1-4.86,3.3,0,.54.17,1,.51,1.36.34.36.79.68,1.34.95.55.27,1.18.52,1.89.73.7.22,1.43.46,2.18.73.77.27,1.52.6,2.24.97s1.38.83,1.96,1.38,1.04,1.2,1.39,1.97.53,1.7.53,2.79c0,2.38-.73,4.19-2.19,5.44-1.46,1.25-3.65,1.87-6.58,1.87-1.18,0-2.23-.08-3.16-.24-.93-.16-1.72-.33-2.38-.51-.77-.23-1.45-.48-2.04-.75-.02-.59.06-1.19.25-1.8.19-.61.45-1.17.76-1.67.61.2,1.28.39,2.01.54.59.14,1.27.25,2.04.36s1.55.15,2.35.15c1.59,0,2.73-.28,3.43-.83.7-.56,1.05-1.38,1.05-2.47,0-.45-.09-.85-.27-1.21-.18-.35-.43-.66-.75-.92-.32-.26-.69-.49-1.12-.7-.43-.2-.9-.4-1.39-.58-.88-.32-1.81-.63-2.79-.94-.97-.31-1.88-.71-2.7-1.22-.83-.51-1.51-1.17-2.06-1.99s-.82-1.89-.82-3.23Z"/><path class="cls-1" d="m245.96,132.94c.16.4.24.78.24,1.14,0,.49-.08.93-.24,1.31h-6.78v4.81h5.59c.08.19.14.38.18.58.04.2.06.4.06.61,0,.46-.08.88-.24,1.26h-5.59v4.97h7.02c.08.19.14.38.18.58.04.2.06.4.06.61,0,.46-.08.88-.24,1.26h-10.07v-17.14h9.83Z"/><path class="cls-1" d="m249.29,133.16c.1-.03.22-.06.38-.1.13-.03.28-.06.46-.08.18-.02.4-.04.66-.04s.48.01.68.04c.2.02.36.05.49.08.16.03.29.06.38.1v14.3h6.83c.08.19.14.4.18.63s.06.46.06.68-.02.44-.06.65c-.04.21-.1.43-.18.65h-9.88v-16.92Z"/><path class="cls-1" d="m271.62,132.94c.16.4.24.78.24,1.14,0,.49-.08.93-.24,1.31h-6.78v4.81h5.59c.08.19.14.38.18.58.04.2.06.4.06.61,0,.46-.08.88-.24,1.26h-5.59v4.97h7.02c.08.19.14.38.18.58.04.2.06.4.06.61,0,.46-.08.88-.24,1.26h-10.07v-17.14h9.83Z"/><path class="cls-1" d="m273.95,141.51c0-2.89.61-5.08,1.83-6.57,1.22-1.49,3.01-2.24,5.38-2.24.67,0,1.25.04,1.76.13.51.09.94.19,1.29.3.41.13.77.26,1.07.4.03.49-.04.92-.23,1.27-.18.36-.41.69-.68.99-.29-.1-.58-.17-.88-.24-.27-.06-.58-.12-.92-.18s-.7-.08-1.08-.08c-.63,0-1.22.1-1.75.29-.53.19-.99.52-1.38.99-.39.47-.69,1.1-.9,1.9-.21.8-.32,1.82-.32,3.06s.11,2.25.32,3.05c.21.79.52,1.42.9,1.88.39.46.85.78,1.38.95.53.17,1.11.26,1.75.26.43,0,.83-.02,1.2-.07.37-.05.7-.1.99-.17.33-.06.64-.15.93-.26.3.27.53.61.68,1.02.15.41.23.84.23,1.29-.33.16-.71.3-1.14.43-.37.11-.82.21-1.36.29-.54.08-1.16.12-1.86.12-2.36,0-4.16-.75-5.38-2.24s-1.83-3.68-1.83-6.57Z"/><path class="cls-1" d="m298.53,132.94c.03.11.07.24.12.38.03.13.06.27.08.42.02.15.04.31.04.49,0,.19-.01.36-.04.52s-.05.3-.08.43c-.05.14-.09.27-.12.38h-4.21v14.3c-.11.05-.25.09-.4.12-.13.03-.29.06-.48.07-.19.02-.4.02-.64.02-.27,0-.5,0-.69-.02-.19-.02-.35-.04-.48-.07-.14-.03-.26-.07-.36-.12v-14.3h-4.33c-.05-.11-.09-.23-.12-.36-.08-.24-.12-.55-.12-.93s.04-.68.12-.95c.03-.14.07-.27.12-.38h11.59Z"/><path class="cls-1" d="m301.22,133.16c.1-.03.22-.06.38-.1.13-.03.28-.06.46-.08.18-.02.4-.04.65-.04s.48.01.68.04c.2.02.36.05.49.08.16.03.29.06.38.1v16.71c-.11.05-.25.09-.4.12-.13.03-.29.06-.48.07-.19.02-.4.02-.64.02-.27,0-.5,0-.69-.02-.19-.02-.35-.04-.48-.07-.14-.03-.26-.07-.36-.12v-16.71Z"/><path class="cls-1" d="m307.41,141.51c0-1.52.16-2.84.49-3.95.32-1.11.79-2.02,1.38-2.74s1.32-1.25,2.17-1.59c.85-.35,1.8-.52,2.84-.52s2,.17,2.84.51c.85.34,1.57.87,2.17,1.58.6.71,1.06,1.63,1.38,2.74.33,1.11.49,2.44.49,3.97s-.16,2.86-.48,3.97c-.32,1.11-.77,2.02-1.37,2.74s-1.32,1.24-2.17,1.58c-.85.34-1.8.51-2.87.51s-2.02-.17-2.87-.51c-.85-.34-1.57-.87-2.17-1.58s-1.05-1.63-1.37-2.74c-.32-1.11-.48-2.44-.48-3.97Zm10.54,0c0-1.25-.09-2.29-.26-3.11-.17-.82-.42-1.46-.74-1.93-.32-.47-.7-.79-1.15-.98-.45-.18-.96-.27-1.51-.27s-1.05.09-1.5.27c-.44.18-.83.51-1.15.98-.33.47-.58,1.11-.75,1.93-.17.82-.26,1.85-.26,3.11s.09,2.28.26,3.09.42,1.45.75,1.93c.33.48.71.81,1.15.99.44.18.94.27,1.5.27s1.06-.09,1.51-.27c.45-.18.84-.51,1.15-.99.32-.48.56-1.12.74-1.93s.26-1.84.26-3.09Z"/><path class="cls-1" d="m328.59,140.3c-.22-.41-.43-.83-.63-1.25s-.36-.8-.49-1.13c-.17-.4-.32-.77-.43-1.12h-.09c.03.38.06.8.09,1.26.03.4.06.86.07,1.38s.02,1.09.02,1.71v8.71c-.1.05-.21.09-.36.12-.13.03-.28.06-.45.07-.17.02-.38.02-.62.02s-.44,0-.62-.02c-.17-.02-.32-.04-.43-.07-.14-.03-.25-.07-.33-.12v-16.71c.14-.03.3-.06.48-.1.16-.03.35-.06.57-.08.22-.02.48-.04.79-.04s.56.01.79.04c.22.02.41.05.57.08.17.03.32.06.45.1l4.9,9.52c.22.43.43.86.63,1.29.2.43.37.81.51,1.14.17.41.33.79.45,1.14h.09c-.03-.4-.06-.83-.09-1.31-.03-.41-.06-.88-.07-1.42-.02-.53-.02-1.1-.02-1.7v-8.66c.08-.03.19-.06.33-.1.13-.03.28-.06.45-.08.17-.02.39-.04.64-.04s.47.01.64.04c.17.02.32.05.43.08.13.03.23.06.31.1v16.71c-.11.05-.25.09-.43.12-.14.03-.33.06-.56.07-.23.02-.5.02-.8.02s-.57,0-.8-.02c-.23-.02-.42-.04-.58-.07-.17-.03-.33-.07-.48-.12l-4.95-9.57Z"/></svg>