<?xml version="1.0" encoding="utf-8"?>
<!-- Generator: Adobe Illustrator 24.1.0, SVG Export Plug-In . SVG Version: 6.00 Build 0)  -->
<svg version="1.1" id="Capa_1" xmlns="http://www.w3.org/2000/svg" xmlns:xlink="http://www.w3.org/1999/xlink" x="0px" y="0px"
	 viewBox="0 0 477.9 477.9" style="enable-background:new 0 0 477.9 477.9;" xml:space="preserve">
<style type="text/css">
	.st0{fill:#1F4D7A;}
</style>
<g>
	<g>
		<path class="st0" d="M472.2,4.3c-3.6-3.2-8.4-4.8-13.3-4.2L151.7,34.2c-8.6,1-15.2,8.3-15.2,17v304.1c-15.5-9.3-33.2-14.1-51.2-14
			C38.3,341.3,0,371.9,0,409.6s38.3,68.3,85.3,68.3s85.3-30.6,85.3-68.3V151.9l273.1-30.4v199.7c-15.5-9.2-33.2-14.1-51.2-14
			c-47.1,0-85.3,30.6-85.3,68.3s38.3,68.3,85.3,68.3s85.3-30.6,85.3-68.3V17.1C477.9,12.2,475.8,7.6,472.2,4.3z"/>
	</g>
</g>
</svg>
