<?xml version="1.0" encoding="utf-8"?>
<!-- Generator: Adobe Illustrator 24.1.0, SVG Export Plug-In . SVG Version: 6.00 Build 0)  -->
<svg version="1.1" id="Layer_1" xmlns="http://www.w3.org/2000/svg" xmlns:xlink="http://www.w3.org/1999/xlink" x="0px" y="0px"
	 viewBox="0 0 20 20" style="enable-background:new 0 0 20 20;" xml:space="preserve">
<style type="text/css">
	.st0{fill-rule:evenodd;clip-rule:evenodd;fill:#FFFFFF;}
</style>
<path class="st0" d="M10.8,4.4c0-0.3-0.3-0.6-0.6-0.6H1.9C0.8,3.7,0,4.6,0,5.6v12.5c0,1,0.8,1.9,1.9,1.9l0,0h12.5
	c1,0,1.9-0.8,1.9-1.9l0,0V9.8c0-0.3-0.3-0.6-0.6-0.6S15,9.5,15,9.8v8.3c0,0.3-0.3,0.6-0.6,0.6H1.9c-0.3,0-0.6-0.3-0.6-0.6V5.6
	C1.2,5.3,1.5,5,1.9,5h8.3C10.5,5,10.8,4.7,10.8,4.4z"/>
<path class="st0" d="M20,0.6C20,0.3,19.7,0,19.4,0h-6.2c-0.3,0-0.6,0.3-0.6,0.6s0.3,0.6,0.6,0.6h4.7L7.7,11.4
	c-0.2,0.2-0.2,0.6,0,0.9c0.2,0.2,0.6,0.2,0.9,0L18.8,2.1v4.7c0,0.3,0.3,0.6,0.6,0.6S20,7.2,20,6.9V0.6z"/>
</svg>
