<?xml version="1.0" encoding="utf-8"?>
<!-- Generator: Adobe Illustrator 24.1.0, SVG Export Plug-In . SVG Version: 6.00 Build 0)  -->
<svg version="1.1" id="Layer_1" xmlns="http://www.w3.org/2000/svg" xmlns:xlink="http://www.w3.org/1999/xlink" x="0px" y="0px"
	 viewBox="0 0 420 34" style="enable-background:new 0 0 420 34;" xml:space="preserve">
<style type="text/css">
	.st0{fill-rule:evenodd;clip-rule:evenodd;stroke:#000000;}
</style>
<desc>Created with Sketch.</desc>
<g id="_xD83E__xDD47_Logos">
	<g id="Logo-Light" transform="translate(-107.000000, -76.000000)">
		<g id="Logos-_x2F_-The-Irish-Times-Light" transform="translate(82.000000, 54.000000)">
			<g id="The-Irish-Times-Light" transform="translate(25.000000, 22.000000)">
				<g id="The_Irish_Times_Light">
					<path id="Path" class="st0" d="M28.8,8c-0.7-1.4-1.1-2.4-1.6-3.1c-0.7-0.9-1.6-1.7-2.8-2.3c-0.6-0.3-1.8-0.5-3.4-0.5h-2.9v25.4
						c0,1.8,0.1,2.9,0.3,3.3c0.2,0.5,0.6,0.9,1.3,1.3c0.1,0,0.1,0.1,0.2,0.1L9.1,32.5c0.3-0.1,0.6-0.2,0.8-0.3
						c0.5-0.3,0.9-0.7,1.2-1.4c0.2-0.4,0.3-1.5,0.3-3.2V2.1H8.5c-2.4,0-4.1,0.5-5.1,1.5C2.3,4.6,1.5,5.9,1,7.5L0.7,1.2h28.1V8z"/>
					<path id="Path_1_" class="st0" d="M45.6,32.2l-10.8,0.2c0.3-0.1,0.6-0.2,0.8-0.3c0.5-0.3,0.9-0.7,1.2-1.4
						c0.2-0.4,0.3-1.5,0.3-3.2V6.2c0-1.8-0.1-2.9-0.3-3.3c-0.2-0.5-0.6-0.9-1.3-1.3c-0.1,0-0.1-0.1-0.2-0.1l10.8-0.2
						c-0.3,0.1-0.6,0.2-0.8,0.3c-0.5,0.3-0.9,0.7-1.2,1.4c-0.2,0.4-0.3,1.5-0.3,3.2v9.7h12.3V6.2c0-1.8-0.1-2.9-0.3-3.3
						c-0.2-0.5-0.6-0.9-1.3-1.3c-0.1,0-0.1-0.1-0.2-0.1l10.8-0.2c-0.3,0.1-0.6,0.2-0.8,0.3C64,1.9,63.6,2.4,63.3,3
						C63.1,3.4,63,4.5,63,6.2v21.3c0,1.8,0.1,2.9,0.3,3.3c0.2,0.5,0.6,1,1.3,1.3c0.1,0,0.1,0.1,0.2,0.1l-10.8,0.2
						c0.3-0.1,0.6-0.2,0.8-0.3c0.5-0.3,0.9-0.7,1.2-1.4c0.2-0.4,0.3-1.5,0.3-3.2V17H43.9v10.5c0,1.8,0.1,2.9,0.3,3.3
						c0.2,0.5,0.6,0.9,1.3,1.3C45.5,32.2,45.6,32.2,45.6,32.2z"/>
					<path id="Path_2_" class="st0" d="M97.5,32.5H72.6c0.4-0.1,0.7-0.2,1-0.4c0.5-0.3,0.9-0.7,1.2-1.4c0.2-0.4,0.3-1.5,0.3-3.2V6.2
						c0-1.5,0-2.5-0.1-2.8c-0.2-0.7-0.6-1.2-1.1-1.6c-0.2-0.1-0.3-0.2-0.5-0.3l23.2-0.3v7.3c-0.7-1.6-1.2-2.8-1.9-3.6
						c-0.9-1.1-2.2-1.9-3.8-2.4c-0.9-0.3-2.7-0.4-5.2-0.4h-3.8v14.1H83c2.3,0,3.9-0.7,4.9-2.1c0.6-0.8,1.1-1.9,1.4-3.3l0.2,12.2
						c-0.3-1-0.7-1.9-1.1-2.7c-0.7-1.3-1.5-2.1-2.4-2.6c-1-0.5-2.4-0.7-4.3-0.7v9.6c0,1.9,0.1,3,0.3,3.4c0.2,0.5,0.5,0.9,1,1.2
						c0.5,0.3,1.2,0.5,2.3,0.5h1.9c3.1,0,5.7-0.7,7.6-2.2c1.5-1.1,2.6-2.7,3.4-4.7L97.5,32.5z"/>
					<path id="Path_3_" class="st0" d="M117.5,32.5c0.3-0.1,0.6-0.2,0.8-0.3c0.5-0.3,0.9-0.7,1.2-1.4c0.2-0.4,0.3-1.5,0.3-3.2V6.2
						c0-1.8-0.1-2.9-0.3-3.3c-0.2-0.5-0.6-0.9-1.3-1.3c-0.1,0-0.1-0.1-0.2-0.1l10.8-0.2c-0.3,0.1-0.6,0.2-0.8,0.3
						c-0.5,0.3-0.9,0.7-1.2,1.4c-0.2,0.4-0.3,1.5-0.3,3.2v21.3c0,1.8,0.1,2.9,0.3,3.3c0.2,0.5,0.6,0.9,1.3,1.3
						c0.1,0,0.1,0.1,0.2,0.1L117.5,32.5z"/>
					<path id="Shape" class="st0" d="M147,32.2l-10.8,0.2c0.3-0.1,0.5-0.2,0.7-0.2c0.6-0.3,1.1-0.8,1.4-1.3c0.2-0.5,0.4-1.6,0.4-3.5
						v-21c0-1.9-0.1-3-0.4-3.5c-0.3-0.5-0.7-1-1.4-1.3c0,0,0,0,0,0l11.8-0.3c3.9,0,6.7,0.3,8.5,0.8c1.7,0.5,3.1,1.4,4.2,2.8
						c1.1,1.4,1.6,3,1.6,4.8c0,2.2-0.8,4.1-2.4,5.5c-1.2,1.1-2.9,1.8-5.1,2.3l8.2,11.6c1.1,1.4,1.8,2.3,2.3,2.7
						c0.2,0.2,0.5,0.3,0.8,0.5l-8.1,0.4l-10.4-14.7h-2.9v9.5c0,1.9,0.1,3,0.4,3.5C145.9,31.4,146.3,31.9,147,32.2
						C147,32.2,147,32.2,147,32.2z M155,14.1c0.7-1.1,1-2.6,1-4.4c0-2.6-0.6-4.5-1.9-5.8C153,2.7,151,2,148.3,2h-3v15.1h1.9
						c2.3,0,4-0.2,5.1-0.6C153.4,16.1,154.3,15.3,155,14.1z"/>
					<path id="Path_4_" class="st0" d="M182.6,32.2l-10.8,0.2c0.3-0.1,0.6-0.2,0.8-0.3c0.5-0.3,0.9-0.7,1.2-1.4
						c0.2-0.4,0.3-1.5,0.3-3.2V6.2c0-1.8-0.1-2.9-0.3-3.3c-0.2-0.5-0.6-0.9-1.3-1.3c-0.1,0-0.1-0.1-0.2-0.1l10.8-0.2
						c-0.3,0.1-0.6,0.2-0.8,0.3c-0.5,0.3-0.9,0.7-1.2,1.4c-0.2,0.4-0.3,1.5-0.3,3.2v21.3c0,1.8,0.1,2.9,0.3,3.3
						c0.2,0.5,0.6,0.9,1.3,1.3C182.5,32.2,182.5,32.2,182.6,32.2z"/>
					<path id="Path_5_" class="st0" d="M209.4,1.1l0.2,9.2h0c-0.5-2.6-1.7-4.8-3.5-6.4c-1.9-1.7-4-2.6-6.2-2.6
						c-1.8,0-3.2,0.5-4.2,1.4c-1.1,1-1.6,2.1-1.6,3.3c0,0.8,0.2,1.5,0.6,2.2c0.5,0.8,1.3,1.6,2.4,2.4c0.8,0.5,2.5,1.5,5.3,2.8
						c3.7,1.8,6.2,3.5,7.5,5.1c1.2,1.6,1.8,3.3,1.8,5.3c0,2.5-1,4.7-3,6.6c-2,1.9-4.6,2.8-7.7,2.8c-1,0-1.9-0.1-2.8-0.3
						c-0.9-0.2-2-0.6-3.3-1.1c-0.8-0.3-1.5-0.5-2.1-0.5c-0.5,0-1,0.2-1.6,0.6c-0.5,0.3-0.8,0.8-1.2,1.4h0V22.3
						c0.8,3.2,2.1,5.7,4.1,7.4c2.1,1.9,4.4,2.8,6.8,2.8c1.9,0,3.5-0.5,4.6-1.6c1.2-1.1,1.8-2.3,1.8-3.7c0-0.8-0.2-1.7-0.7-2.5
						c-0.4-0.8-1.1-1.5-2-2.2c-0.8-0.7-2.3-1.5-4.5-2.6c-2.9-1.4-5-2.6-6.3-3.6c-1.2-1-2.2-2.1-2.8-3.2c-0.7-1.2-1-2.5-1-3.9
						c0-2.4,0.9-4.5,2.7-6.2c1.8-1.7,4.1-2.6,6.8-2.6c1,0,2,0.1,2.9,0.4c0.7,0.2,1.6,0.5,2.6,1c1.2,0.6,2,0.8,2.5,0.8
						c0.6,0,1-0.2,1.3-0.5C209,2,209.2,1.7,209.4,1.1z"/>
					<path id="Path_6_" class="st0" d="M228.7,32.2l-10.8,0.2c0.3-0.1,0.6-0.2,0.8-0.3c0.5-0.3,0.9-0.7,1.2-1.4
						c0.2-0.4,0.3-1.5,0.3-3.2V6.2c0-1.8-0.1-2.9-0.3-3.3c-0.2-0.5-0.6-0.9-1.3-1.3c-0.1,0-0.1-0.1-0.2-0.1l10.8-0.2
						c-0.3,0.1-0.6,0.2-0.8,0.3c-0.5,0.3-0.9,0.7-1.2,1.4c-0.2,0.4-0.3,1.5-0.3,3.2v9.7h12.3V6.2c0-1.8-0.1-2.9-0.3-3.3
						c-0.2-0.5-0.6-0.9-1.3-1.3c-0.1,0-0.1-0.1-0.2-0.1l10.8-0.2c-0.3,0.1-0.6,0.2-0.8,0.3c-0.5,0.3-0.9,0.7-1.2,1.4
						c-0.2,0.4-0.3,1.5-0.3,3.2v21.3c0,1.8,0.1,2.9,0.3,3.3c0.2,0.5,0.6,1,1.3,1.3c0.1,0,0.1,0.1,0.2,0.1L237,32.5
						c0.3-0.1,0.6-0.2,0.8-0.3c0.5-0.3,0.9-0.7,1.2-1.4c0.2-0.4,0.3-1.5,0.3-3.2V17H227v10.5c0,1.8,0.1,2.9,0.3,3.3
						c0.2,0.5,0.6,0.9,1.3,1.3C228.6,32.2,228.7,32.2,228.7,32.2z"/>
					<path id="Path_7_" class="st0" d="M294.6,8c-0.7-1.4-1.1-2.4-1.6-3.1c-0.7-0.9-1.6-1.7-2.8-2.3c-0.6-0.3-1.8-0.5-3.4-0.5H284
						v25.4c0,1.8,0.1,2.9,0.3,3.3c0.2,0.5,0.6,0.9,1.3,1.3c0.1,0,0.1,0.1,0.2,0.1l-10.8,0.2c0.3-0.1,0.6-0.2,0.8-0.3
						c0.5-0.3,0.9-0.7,1.2-1.4c0.2-0.4,0.3-1.5,0.3-3.2V2.1h-2.9c-2.4,0-4.1,0.5-5.1,1.5c-1.1,1-1.9,2.3-2.4,3.9l-0.3-6.3h28.1V8z"
						/>
					<path id="Path_8_" class="st0" d="M300.6,32.5c0.3-0.1,0.6-0.2,0.8-0.3c0.5-0.3,0.9-0.7,1.2-1.4c0.2-0.4,0.3-1.5,0.3-3.2V6.2
						c0-1.8-0.1-2.9-0.3-3.3c-0.2-0.5-0.6-0.9-1.3-1.3c-0.1,0-0.1-0.1-0.2-0.1L312,1.3c-0.3,0.1-0.6,0.2-0.8,0.3
						c-0.5,0.3-0.9,0.7-1.2,1.4c-0.2,0.4-0.3,1.5-0.3,3.2v21.3c0,1.8,0.1,2.9,0.3,3.3c0.2,0.5,0.6,0.9,1.3,1.3
						c0.1,0,0.1,0.1,0.2,0.1L300.6,32.5z"/>
					<path id="Path_9_" class="st0" d="M358.4,1.2c-0.4,0.1-0.7,0.2-1,0.4c-0.5,0.3-0.9,0.7-1.2,1.4c-0.2,0.4-0.3,1.5-0.3,3.2v21.3
						c0,1.8,0.1,2.9,0.3,3.3c0.2,0.5,0.6,1,1.3,1.3c0.1,0,0.1,0.1,0.2,0.1l-10.8,0.2c0.3-0.1,0.6-0.2,0.8-0.3
						c0.5-0.3,0.9-0.7,1.2-1.4c0.2-0.4,0.3-1.5,0.3-3.2V1.2H358.4z M349.1,1.2l-12.9,30.9L322.7,1.4l7-0.2l9.4,22.1l9-22.1H349.1z
						 M322.6,1.4v25.1c0,1.7,0,2.7,0.1,3.1c0.2,0.9,0.7,1.7,1.5,2.2c0.2,0.2,0.5,0.3,0.8,0.4l-6.2,0.2c0.1,0,0.3-0.1,0.4-0.2
						c0.7-0.3,1.3-0.7,1.6-1.2c0.3-0.5,0.6-1.1,0.8-1.9c0-0.2,0.1-1.1,0.1-2.6V6.2c0-1.8-0.1-2.9-0.3-3.3c-0.2-0.5-0.6-0.9-1.3-1.3
						c-0.1,0-0.1-0.1-0.2-0.1L322.6,1.4z"/>
					<path id="Path_10_" class="st0" d="M390.4,32.5h-24.9c0.4-0.1,0.7-0.2,1-0.4c0.5-0.3,0.9-0.7,1.2-1.4c0.2-0.4,0.3-1.5,0.3-3.2
						V6.2c0-1.5,0-2.5-0.1-2.8c-0.2-0.7-0.6-1.2-1.1-1.6c-0.2-0.1-0.3-0.2-0.5-0.3l23.2-0.3v7.3c-0.7-1.6-1.2-2.8-1.9-3.6
						c-0.9-1.1-2.2-1.9-3.8-2.4c-0.9-0.3-2.7-0.4-5.2-0.4h-3.8v14.1h1.1c2.3,0,3.9-0.7,4.9-2.1c0.6-0.8,1.1-1.9,1.4-3.3l0.2,12.2
						c-0.3-1-0.7-1.9-1.1-2.7c-0.7-1.3-1.5-2.1-2.4-2.6c-1-0.5-2.4-0.7-4.3-0.7v9.6c0,1.9,0.1,3,0.3,3.4c0.2,0.5,0.5,0.9,1,1.2
						c0.5,0.3,1.2,0.5,2.3,0.5h1.9c3.1,0,5.7-0.7,7.6-2.2c1.5-1.1,2.6-2.7,3.4-4.7L390.4,32.5z"/>
					<path id="Path_11_" class="st0" d="M416.9,1.1l0.2,9.2h0c-0.5-2.6-1.7-4.8-3.5-6.4c-1.9-1.7-4-2.6-6.2-2.6
						c-1.8,0-3.2,0.5-4.2,1.4c-1.1,1-1.6,2.1-1.6,3.3c0,0.8,0.2,1.5,0.6,2.2c0.5,0.8,1.3,1.6,2.4,2.4c0.8,0.5,2.5,1.5,5.3,2.8
						c3.7,1.8,6.2,3.5,7.5,5.1c1.2,1.6,1.8,3.3,1.8,5.3c0,2.5-1,4.7-3,6.6c-2,1.9-4.6,2.8-7.7,2.8c-1,0-1.9-0.1-2.8-0.3
						c-0.9-0.2-2-0.6-3.3-1.1c-0.8-0.3-1.5-0.5-2.1-0.5c-0.5,0-1,0.2-1.6,0.6c-0.5,0.3-0.8,0.8-1.2,1.4h0V22.3
						c0.8,3.2,2.1,5.7,4.1,7.4c2.1,1.9,4.4,2.8,6.8,2.8c1.9,0,3.5-0.5,4.6-1.6c1.2-1.1,1.8-2.3,1.8-3.7c0-0.8-0.2-1.7-0.7-2.5
						c-0.4-0.8-1.1-1.5-2-2.2c-0.8-0.7-2.3-1.5-4.5-2.6c-2.9-1.4-5-2.6-6.3-3.6c-1.2-1-2.2-2.1-2.8-3.2c-0.7-1.2-1-2.5-1-3.9
						c0-2.4,0.9-4.5,2.7-6.2c1.8-1.7,4.1-2.6,6.8-2.6c1,0,2,0.1,2.9,0.4c0.7,0.2,1.6,0.5,2.6,1c1.2,0.6,2,0.8,2.5,0.8
						c0.6,0,1-0.2,1.4-0.5C416.5,2,416.7,1.7,416.9,1.1z"/>
				</g>
			</g>
		</g>
	</g>
</g>
</svg>
