<svg xmlns="http://www.w3.org/2000/svg" width="3840" height="2160" viewBox="0 0 3840 2160">
  <defs>
    <style>
      .cls-1 {
        fill: #fff;
      }
    </style>
  </defs>
  <g id="Logo_White" data-name="Logo White">
    <g>
      <path class="cls-1" d="M1093.18,587.23c2.8,25.27,13.1,73.94,13.1,80.49,0,10.29-14,12.16-23.4,3.74-30.88-30-94.53-83.3-132-83.3H929.39V799.68c0,65.51,7.49,189.06,43.05,215.26,9.36,7.49,10.3,23.4-10.29,23.4H765.61c-19.66,0-19.66-15.91-10.3-23.4,35.57-26.2,43.05-149.75,43.05-215.26V588.16H776.84c-37.44,0-101.08,53.35-132,83.3-8.42,8.42-23.39,6.55-23.39-3.74,0-6.55,10.29-55.22,13.1-80.49,1.87-17.78,7.49-25.27,25.27-25.27h408.06C1085.69,562,1091.3,569.45,1093.18,587.23Z"/>
      <path class="cls-1" d="M1334.64,944.75c-30.88,55.22-93.59,93.59-165.65,93.59-103.89,0-187.18-77.68-187.18-173.15s82.36-173.14,194.67-173.14c73,0,151.61,49.6,151.61,111.37,0,60.84-59.9,110.44-132.9,110.44-24.33,0-45.86-5.61-65.51-14,9.36,30.89,30,57.09,67.39,68.32,34.62,9.36,91.71-2.8,117.92-37.43C1324.35,918.54,1340.26,934.45,1334.64,944.75Zm-208.7-137.58c0,49.6,23.39,80.49,45.86,80.49,25.27,0,43-38.38,43-84.24,0-46.79-17.78-85.16-43-85.16C1156.82,718.26,1125.94,747.27,1125.94,807.17Z"/>
      <path class="cls-1" d="M1726.78,1038.34h-95.46c-50.54,0-70.2-44.93-70.2-44.93-20.59,27.15-54.28,44.93-91.72,44.93-62.7,0-114.18-49.6-114.18-110.44s51.48-110.44,114.18-110.44c37.44,0,71.13,17.79,91.72,44.93V834.31c0-54.28-20.59-116-54.28-116-14,0-14,22.46-2.81,46.79,19.66,45.86-120.73,64.58-120.73,10.3,0-40.25,46.79-83.3,132.9-83.3,100.14,0,176,69.26,176,170.34v76.74c0,34.63,5.62,55.22,38.37,79.55C1739.88,1026.17,1737.07,1038.34,1726.78,1038.34ZM1557.38,927.9c0-32.76-20.59-59.9-46.8-59.9-25.27,0-45.86,27.14-45.86,59.9s20.59,59.9,45.86,59.9C1536.79,987.8,1557.38,960.66,1557.38,927.9Z"/>
      <path class="cls-1" d="M1944.84,968.14c34.63,9.36,91.72-2.8,117.92-37.43,9.36-12.17,25.27,3.74,19.66,14-30.89,55.22-93.59,93.59-165.66,93.59-103.88,0-187.18-77.68-187.18-173.15s83.3-173.14,187.18-173.14c71.13,0,128.22,27.14,163.79,90.78,36.5,64.58-104.83,124.48-111.38,56.16-5.61-68.32-1.87-120.73-33.69-120.73C1884,718.26,1817.55,931.64,1944.84,968.14Z"/>
      <path class="cls-1" d="M2550.37,1018.68c-31.82-24.33-38.37-44.92-38.37-79.55V877.36c-.22-9.32-1.7-16.85-4.12-23-3.38-11.39-15.17-20.44-23.57-29.23L2347.77,682a19,19,0,0,0-26.78-.69l-59.44,56.19c-.12.1-.22.22-.33.33,1.89-51.15,6.57-103.2,15.87-152.47,1.87-12.17,10.29-28.08-9.36-23.4-34.63,6.55-75.81,68.32-165.66,68.32-9.36,0-13.1,11.23-3.74,18.72,32.75,24.33,38.37,44.92,38.37,79.55V939.13c0,34.63-5.62,55.22-38.37,79.55-9.36,7.49-5.62,19.66,3.74,19.66h185.31c15.78,0,18.91-9.34,15.3-17.07h-5.63a16.82,16.82,0,0,1-16.81-16.81V928.17a16.82,16.82,0,0,1,16.81-16.81h53a16.81,16.81,0,0,1,16.81,16.81v76.29a16.81,16.81,0,0,1-16.81,16.81h-3.34c-3.48,8-.66,17.07,14.64,17.07h186.25C2556.92,1038.34,2560.67,1026.17,2550.37,1018.68Z"/>
      <path class="cls-1" d="M1033.6,1598.88H825.82c-9.35,0-15-11.23-9.35-19.66,16.84-22.46,15.91-71.12,7.48-127.28H661.1c-7.48,26.21-14,73,42.12,127.28,7.49,7.49,3.74,19.66-5.62,19.66H556.28c-9.36,0-15.91-12.17-3.74-19.66,28.07-15.91,50.54-35.56,65.51-78.61l83.3-270.48c10.29-34.63,13.1-64.58-11.23-88.91-7.49-7.49-.94-18.72,9.36-18.72h90.78c58,0,94.53,58,105.76,92.65.93,3.75,85.17,280.78,87,284.52,10.29,34.63,13.1,55.22,52.41,79.55C1047.64,1586.71,1043,1598.88,1033.6,1598.88ZM819.27,1425.74c-19.65-99.21-60.83-208.71-80.49-226.5l-69.25,226.5Z"/>
      <path class="cls-1" d="M1720.55,1598.88H1534.31c-19.66,0-18.72-15-9.36-23.4,59.89-54.28,44-271.41-15.91-271.41-23.4,0-44.93,40.24-59,93.59,2.81,13.1,3.75,26.2,3.75,40.24v61.77c0,34.63,5.61,55.22,38.37,79.55,9.36,7.49,5.61,19.66-3.74,19.66H1302.2c-19.66,0-18.72-15-9.36-23.4,59.9-54.28,42.12-271.41-18.72-271.41-18.72,0-34.63,41.18-47.73,84.23-6.55,102,6.55,167.53,32.76,187.18,10.29,7.49,10.29,23.4-9.36,23.4H1067.28c-9.35,0-13.1-12.17-3.74-19.66,32.76-24.33,38.37-44.92,38.37-79.55v-78.61c0-34.63-5.61-55.22-38.37-80.49-9.36-7.49-5.61-18.72,3.74-18.72,89.85,0,127.29-60.84,162.85-68.32,19.66-3.75,10.3,11.23,8.43,23.39l-3.75,29c17.79-30,40.25-53.35,71.13-53.35,59,0,106.7,39.31,131,97.34,15.91-45.86,47.73-97.34,100.14-97.34,86.11,0,147.88,82.36,147.88,185.31v61.77c0,34.63,6.55,55.22,38.37,79.55C1733.65,1586.71,1729.91,1598.88,1720.55,1598.88Z"/>
      <path class="cls-1" d="M2109,1598.88h-95.46c-50.54,0-70.19-44.93-70.19-44.93-20.6,27.15-54.29,44.93-91.72,44.93-62.71,0-114.19-49.6-114.19-110.44S1788.87,1378,1851.58,1378c37.43,0,71.12,17.79,91.72,44.93v-28.08c0-54.28-20.6-116-54.29-116-14,0-14,22.46-2.81,46.79,19.66,45.86-120.73,64.58-120.73,10.3,0-40.25,46.8-83.3,132.9-83.3,100.14,0,176,69.26,176,170.34v76.74c0,34.63,5.62,55.22,38.38,79.55C2122.05,1586.71,2119.25,1598.88,2109,1598.88Zm-169.4-110.44c0-32.76-20.59-59.9-46.79-59.9-25.27,0-45.86,27.14-45.86,59.9s20.59,59.9,45.86,59.9C1919,1548.34,1939.55,1521.2,1939.55,1488.44Z"/>
      <path class="cls-1" d="M2327,1528.69c34.63,9.35,91.72-2.81,117.93-37.44,9.36-12.17,25.27,3.74,19.65,14-30.88,55.22-93.59,93.59-165.65,93.59-103.89,0-187.19-77.68-187.19-173.14s83.3-173.15,187.19-173.15c71.12,0,128.21,27.14,163.78,90.78,36.5,64.58-104.82,124.48-111.37,56.16-5.62-68.32-1.88-120.73-33.7-120.73C2266.18,1278.8,2199.73,1492.18,2327,1528.69Z"/>
      <path class="cls-1" d="M2929.74,1598.88H2743.49c-19.65,0-18.72-15-10.29-23.4,60.83-54.28,32.75-283.58-31.82-283.58-16.85,0-41.18,20.59-59,57.09,0,113.25,15,209.64,37.44,226.49,9.36,7.49,10.3,23.4-10.29,23.4H2484.24c-9.35,0-13.1-12.17-3.74-19.66,32.76-24.33,38.37-44.92,38.37-79.55V1289.09c0-34.63-5.61-55.22-38.37-79.55-9.36-7.49-5.61-18.72,3.74-18.72,89.85,0,131-61.77,165.66-68.32,19.66-4.68,11.23,11.23,9.36,23.4-9.36,49.6-14,102-15.91,153.49,20.59-26.21,48.67-46.8,85.17-46.8,102,0,165.65,82.36,165.65,185.31v61.77c0,34.63,6.56,55.22,38.38,79.55C2942.84,1586.71,2939.1,1598.88,2929.74,1598.88Z"/>
      <path class="cls-1" d="M3294.1,1230.13c0,103.89-174.08,151.62-174.08,212.45,0,30.89-50.54,34.63-50.54,0,0-126.35,90.78-172.21,78.62-262-6.55-43.06-42.12-48.67-36.5,21.52,7.48,113.25-194.67,104.82-156.3,5.62,24.33-61.77,108.57-87,178.76-85.17h1.87C3235.14,1125.31,3294.1,1168.36,3294.1,1230.13Zm-146,316.34a52.33,52.33,0,0,1-52.41,52.41c-28.08,0-51.48-23.4-51.48-52.41a51.33,51.33,0,0,1,51.48-51.48C3124.7,1495,3148.1,1517.45,3148.1,1546.47Z"/>
      <g>
        <path class="cls-1" d="M2914.1,1038.19H2808.57c-11.14,0-10.61-8.48-5.31-13.26,33.94-30.75,18.56-158.56-18-158.56-10.61,0-21.21,15.91-30.23,36.06-5.83,67.35,1.59,110.31,17.5,122.5,5.84,4.25,5.84,13.26-5.3,13.26H2663.79c-5.31,0-7.43-6.89-2.12-11.14,18.56-13.78,21.74-25.45,21.74-45.07V937.43c0-19.62-3.18-31.29-21.74-45.61-5.31-4.24-3.19-10.6,2.12-10.6,50.91,0,72.12-34.47,92.27-38.72,11.14-2.12,5.84,6.37,4.78,13.26l-1.6,11.14c10.61-13.79,24.4-24.93,41.37-24.93,57.27,0,93.87,46.67,93.87,105v35c0,19.62,3.18,31.29,21.74,45.07C2921.52,1031.3,2919.4,1038.19,2914.1,1038.19Z"/>
        <path class="cls-1" d="M3143.19,940.08c0,54.1-47.19,98.11-105.53,98.11-58.87,0-106.06-44-106.06-98.11S2978.79,842,3037.66,842C3096,842,3143.19,886,3143.19,940.08Zm-83.26-140-43.48,19.62c-5.31,3.18-10.08,1.06-12.2-2.12-2.65-3.18-2.12-8.49,2.12-12.2L3040.84,772c10.08-9,21.22-7.42,27.58,1.59S3072.13,793.71,3059.93,800.08Zm8,140c0-46.13-13.79-83.26-30.23-83.26-17,0-30.76,37.13-30.76,83.26,0,45.61,13.79,83.26,30.76,83.26C3054.1,1023.34,3067.89,985.69,3067.89,940.08Z"/>
      </g>
    </g>
  </g>
</svg>
