<?xml version="1.0" encoding="utf-8"?>
<!-- Generator: Adobe Illustrator 24.1.0, SVG Export Plug-In . SVG Version: 6.00 Build 0)  -->
<svg version="1.1" id="Capa_1" xmlns="http://www.w3.org/2000/svg" xmlns:xlink="http://www.w3.org/1999/xlink" x="0px" y="0px"
	 viewBox="0 0 468 468" style="enable-background:new 0 0 468 468;" xml:space="preserve">
<style type="text/css">
	.st0{fill:#1F4D7A;}
</style>
<g>
	<g>
		<path class="st0" d="M264.7,96.5H51.2C23,96.5,0,119.6,0,147.7v172.5c0,28.2,23,51.2,51.2,51.2h213.5c28.2,0,51.2-23,51.2-51.2
			V147.7C315.9,119,292.9,96.5,264.7,96.5z"/>
	</g>
</g>
<g>
	<g>
		<path class="st0" d="M430.1,124.7c-3.1,0.5-6.1,2-8.7,3.6l-79.9,46.1v118.8l80.4,46.1c14.8,8.7,33.3,3.6,42-11.3
			c2.6-4.6,4.1-9.7,4.1-15.4V154.4C468,135.4,450,120.1,430.1,124.7z"/>
	</g>
</g>
</svg>
