<?xml version="1.0" encoding="utf-8"?>
<!-- Generator: Adobe Illustrator 24.1.0, SVG Export Plug-In . SVG Version: 6.00 Build 0)  -->
<svg version="1.1" xmlns="http://www.w3.org/2000/svg" xmlns:xlink="http://www.w3.org/1999/xlink" x="0px" y="0px"
	 viewBox="0 0 384 384" style="enable-background:new 0 0 384 384;" xml:space="preserve">
<style type="text/css">
	.st0{display:none;}
	.st1{display:inline;fill:#231F20;}
	.st2{fill:#231F20;}
</style>
<g id="Layer_1" class="st0">
	<path class="st1" d="M368,207.7H16c-8.8,0-16-7.2-16-16s7.2-16,16-16h352c8.8,0,16,7.2,16,16S376.8,207.7,368,207.7z"/>
	<path class="st1" d="M368,85H16C7.2,85,0,77.8,0,69s7.2-16,16-16h352c8.8,0,16,7.2,16,16S376.8,85,368,85z"/>
	<path class="st1" d="M368,330.3H16c-8.8,0-16-7.2-16-16s7.2-16,16-16h352c8.8,0,16,7.2,16,16S376.8,330.3,368,330.3z"/>
</g>
<g id="Layer_1_copy">
	<path class="st2" d="M305.1,327.5L56.2,78.6c-6.2-6.2-6.2-16.4,0-22.6s16.4-6.2,22.6,0l248.9,248.9c6.2,6.2,6.2,16.4,0,22.6
		S311.4,333.7,305.1,327.5z"/>
	<path class="st2" d="M327.8,78.6L78.9,327.5c-6.2,6.2-16.4,6.2-22.6,0s-6.2-16.4,0-22.6L305.1,55.9c6.2-6.2,16.4-6.2,22.6,0
		S334,72.3,327.8,78.6z"/>
</g>
</svg>
